<?xml version="1.0" encoding="UTF-8" standalone="no"?>
<!DOCTYPE svg PUBLIC "-//W3C//DTD SVG 1.1//EN"
 "http://www.w3.org/Graphics/SVG/1.1/DTD/svg11.dtd">
<!-- Generated by graphviz version 2.44.0 (0)
 -->
<!-- Title: Pipeline Pages: 1 -->
<svg width="572pt" height="766pt"
 viewBox="0.00 0.00 572.00 766.00" xmlns="http://www.w3.org/2000/svg" xmlns:xlink="http://www.w3.org/1999/xlink">
<g id="graph0" class="graph" transform="scale(1 1) rotate(0) translate(4 762)">
<title>Pipeline</title>
<polygon fill="white" stroke="transparent" points="-4,4 -4,-762 568,-762 568,4 -4,4"/>
<!-- drpAssociation:2 -->
<g id="node1" class="node">
<title>drpAssociation:2</title>
<polygon fill="#b1f2ef" stroke="black" stroke-width="3" points="539.5,-602 26.5,-602 26.5,-500 539.5,-500 539.5,-602"/>
<text text-anchor="start" x="48" y="-574.6" font-family="Monospace" font-weight="bold" font-size="18.00">drpAssociation</text>
<text text-anchor="start" x="48" y="-544.8" font-family="Monospace" font-size="14.00">lsst.pipe.tasks.drpAssociationPipe.DrpAssociationPipeTask</text>
<text text-anchor="start" x="48" y="-518.8" font-family="Monospace" font-style="italic" font-size="14.00">dimensions:</text>
<text text-anchor="start" x="139" y="-518.8" font-family="Monospace" font-size="14.00"> {patch}</text>
</g>
<!-- aa54c164:0 -->
<g id="node6" class="node">
<title>aa54c164:0</title>
<path fill="#f5f5f5" stroke="#00babc" stroke-width="3" d="M423.5,-446C423.5,-446 142.5,-446 142.5,-446 136.5,-446 130.5,-440 130.5,-434 130.5,-434 130.5,-324 130.5,-324 130.5,-318 136.5,-312 142.5,-312 142.5,-312 423.5,-312 423.5,-312 429.5,-312 435.5,-318 435.5,-324 435.5,-324 435.5,-434 435.5,-434 435.5,-440 429.5,-446 423.5,-446"/>
<text text-anchor="start" x="152" y="-418.6" font-family="Monospace" font-weight="bold" font-size="18.00">deepDiff_diaObjTable</text>
<text text-anchor="start" x="152" y="-386.6" font-family="Monospace" font-weight="bold" font-size="18.00">deepDiff_assocDiaSrcTable</text>
<text text-anchor="start" x="152" y="-357.8" font-family="Monospace" font-style="italic" font-size="14.00">dimensions:</text>
<text text-anchor="start" x="243" y="-357.8" font-family="Monospace" font-size="14.00"> {patch}</text>
<text text-anchor="start" x="152" y="-330.8" font-family="Monospace" font-style="italic" font-size="14.00">storage class:</text>
<text text-anchor="start" x="268" y="-330.8" font-family="Monospace" font-size="14.00"> DataFrame</text>
</g>
<!-- drpAssociation:2&#45;&gt;aa54c164:0 -->
<g id="edge1" class="edge">
<title>drpAssociation:2&#45;&gt;aa54c164:0</title>
<path fill="none" stroke="black" stroke-width="1.5" d="M283,-499.86C283,-499.86 283,-461.2 283,-461.2"/>
<polygon fill="black" stroke="black" stroke-width="1.5" points="288.25,-461.2 283,-446.2 277.75,-461.2 288.25,-461.2"/>
</g>
<!-- deepDiff_diaSrcTable:0 -->
<g id="node2" class="node">
<title>deepDiff_diaSrcTable:0</title>
<path fill="#f5f5f5" stroke="#00babc" stroke-width="3" d="M270,-758C270,-758 12,-758 12,-758 6,-758 0,-752 0,-746 0,-746 0,-668 0,-668 0,-662 6,-656 12,-656 12,-656 270,-656 270,-656 276,-656 282,-662 282,-668 282,-668 282,-746 282,-746 282,-752 276,-758 270,-758"/>
<text text-anchor="start" x="21" y="-730.6" font-family="Monospace" font-weight="bold" font-size="18.00">deepDiff_diaSrcTable</text>
<text text-anchor="start" x="21" y="-701.8" font-family="Monospace" font-style="italic" font-size="14.00">dimensions:</text>
<text text-anchor="start" x="112" y="-701.8" font-family="Monospace" font-size="14.00"> {detector, visit}</text>
<text text-anchor="start" x="21" y="-674.8" font-family="Monospace" font-style="italic" font-size="14.00">storage class:</text>
<text text-anchor="start" x="137" y="-674.8" font-family="Monospace" font-size="14.00"> DataFrame</text>
</g>
<!-- deepDiff_diaSrcTable:0&#45;&gt;drpAssociation:2 -->
<g id="edge2" class="edge">
<title>deepDiff_diaSrcTable:0&#45;&gt;drpAssociation:2</title>
<path fill="none" stroke="black" stroke-width="1.5" d="M154.25,-655.92C154.25,-655.92 154.25,-617.19 154.25,-617.19"/>
<polygon fill="black" stroke="black" stroke-width="1.5" points="159.5,-617.19 154.25,-602.19 149,-617.2 159.5,-617.19"/>
</g>
<!-- skyMap:0 -->
<g id="node3" class="node">
<title>skyMap:0</title>
<path fill="#f5f5f5" stroke="#00babc" stroke-width="3" d="M522,-758C522,-758 330,-758 330,-758 324,-758 318,-752 318,-746 318,-746 318,-668 318,-668 318,-662 324,-656 330,-656 330,-656 522,-656 522,-656 528,-656 534,-662 534,-668 534,-668 534,-746 534,-746 534,-752 528,-758 522,-758"/>
<text text-anchor="start" x="339" y="-730.6" font-family="Monospace" font-weight="bold" font-size="18.00">skyMap</text>
<text text-anchor="start" x="339" y="-701.8" font-family="Monospace" font-style="italic" font-size="14.00">dimensions:</text>
<text text-anchor="start" x="430" y="-701.8" font-family="Monospace" font-size="14.00"> {skymap}</text>
<text text-anchor="start" x="339" y="-674.8" font-family="Monospace" font-style="italic" font-size="14.00">storage class:</text>
<text text-anchor="start" x="455" y="-674.8" font-family="Monospace" font-size="14.00"> SkyMap</text>
</g>
<!-- skyMap:0&#45;&gt;drpAssociation:2 -->
<g id="edge3" class="edge">
<title>skyMap:0&#45;&gt;drpAssociation:2</title>
<path fill="none" stroke="black" stroke-width="1.5" d="M426,-655.92C426,-655.92 426,-617.19 426,-617.19"/>
<polygon fill="black" stroke="black" stroke-width="1.5" points="431.25,-617.19 426,-602.19 420.75,-617.2 431.25,-617.19"/>
</g>
<!-- drpDiaCalculation:2 -->
<g id="node4" class="node">
<title>drpDiaCalculation:2</title>
<polygon fill="#b1f2ef" stroke="black" stroke-width="3" points="564,-258 2,-258 2,-156 564,-156 564,-258"/>
<text text-anchor="start" x="23" y="-230.6" font-family="Monospace" font-weight="bold" font-size="18.00">drpDiaCalculation</text>
<text text-anchor="start" x="23" y="-200.8" font-family="Monospace" font-size="14.00">lsst.pipe.tasks.drpDiaCalculationPipe.DrpDiaCalculationPipeTask</text>
<text text-anchor="start" x="23" y="-174.8" font-family="Monospace" font-style="italic" font-size="14.00">dimensions:</text>
<text text-anchor="start" x="114" y="-174.8" font-family="Monospace" font-size="14.00"> {patch}</text>
</g>
<!-- deepDiff_fullDiaObjTable:0 -->
<g id="node5" class="node">
<title>deepDiff_fullDiaObjTable:0</title>
<path fill="#f5f5f5" stroke="#00babc" stroke-width="3" d="M418.5,-102C418.5,-102 147.5,-102 147.5,-102 141.5,-102 135.5,-96 135.5,-90 135.5,-90 135.5,-12 135.5,-12 135.5,-6 141.5,0 147.5,0 147.5,0 418.5,0 418.5,0 424.5,0 430.5,-6 430.5,-12 430.5,-12 430.5,-90 430.5,-90 430.5,-96 424.5,-102 418.5,-102"/>
<text text-anchor="start" x="157" y="-74.6" font-family="Monospace" font-weight="bold" font-size="18.00">deepDiff_fullDiaObjTable</text>
<text text-anchor="start" x="157" y="-45.8" font-family="Monospace" font-style="italic" font-size="14.00">dimensions:</text>
<text text-anchor="start" x="248" y="-45.8" font-family="Monospace" font-size="14.00"> {patch}</text>
<text text-anchor="start" x="157" y="-18.8" font-family="Monospace" font-style="italic" font-size="14.00">storage class:</text>
<text text-anchor="start" x="273" y="-18.8" font-family="Monospace" font-size="14.00"> DataFrame</text>
</g>
<!-- drpDiaCalculation:2&#45;&gt;deepDiff_fullDiaObjTable:0 -->
<g id="edge4" class="edge">
<title>drpDiaCalculation:2&#45;&gt;deepDiff_fullDiaObjTable:0</title>
<path fill="none" stroke="black" stroke-width="1.5" d="M283,-155.92C283,-155.92 283,-117.19 283,-117.19"/>
<polygon fill="black" stroke="black" stroke-width="1.5" points="288.25,-117.19 283,-102.19 277.75,-117.2 288.25,-117.19"/>
</g>
<!-- aa54c164:0&#45;&gt;drpDiaCalculation:2 -->
<g id="edge5" class="edge">
<title>aa54c164:0&#45;&gt;drpDiaCalculation:2</title>
<path fill="none" stroke="black" stroke-width="1.5" d="M283,-311.51C283,-311.51 283,-273.07 283,-273.07"/>
<polygon fill="black" stroke="black" stroke-width="1.5" points="288.25,-273.07 283,-258.07 277.75,-273.07 288.25,-273.07"/>
</g>
</g>
</svg>
