<?xml version="1.0" encoding="UTF-8" standalone="no"?>
<!DOCTYPE svg PUBLIC "-//W3C//DTD SVG 1.1//EN"
 "http://www.w3.org/Graphics/SVG/1.1/DTD/svg11.dtd">
<!-- Generated by graphviz version 2.44.0 (0)
 -->
<!-- Title: Pipeline Pages: 1 -->
<svg width="573pt" height="766pt"
 viewBox="0.00 0.00 573.00 766.00" xmlns="http://www.w3.org/2000/svg" xmlns:xlink="http://www.w3.org/1999/xlink">
<g id="graph0" class="graph" transform="scale(1 1) rotate(0) translate(4 762)">
<title>Pipeline</title>
<polygon fill="white" stroke="transparent" points="-4,4 -4,-762 569,-762 569,4 -4,4"/>
<!-- drpAssociation:2 -->
<g id="node1" class="node">
<title>drpAssociation:2</title>
<polygon fill="#b1f2ef" stroke="black" stroke-width="3" points="537.5,-602 24.5,-602 24.5,-500 537.5,-500 537.5,-602"/>
<text text-anchor="start" x="46" y="-574.6" font-family="Monospace" font-weight="bold" font-size="18.00">drpAssociation</text>
<text text-anchor="start" x="46" y="-544.8" font-family="Monospace" font-size="14.00">lsst.pipe.tasks.drpAssociationPipe.DrpAssociationPipeTask</text>
<text text-anchor="start" x="46" y="-518.8" font-family="Monospace" font-style="italic" font-size="14.00">dimensions:</text>
<text text-anchor="start" x="137" y="-518.8" font-family="Monospace" font-size="14.00"> {patch}</text>
</g>
<!-- aa54c164:0 -->
<g id="node6" class="node">
<title>aa54c164:0</title>
<path fill="#f5f5f5" stroke="#00babc" stroke-width="3" d="M421.5,-446C421.5,-446 140.5,-446 140.5,-446 134.5,-446 128.5,-440 128.5,-434 128.5,-434 128.5,-324 128.5,-324 128.5,-318 134.5,-312 140.5,-312 140.5,-312 421.5,-312 421.5,-312 427.5,-312 433.5,-318 433.5,-324 433.5,-324 433.5,-434 433.5,-434 433.5,-440 427.5,-446 421.5,-446"/>
<text text-anchor="start" x="150" y="-418.6" font-family="Monospace" font-weight="bold" font-size="18.00">deepDiff_diaObjTable</text>
<text text-anchor="start" x="150" y="-386.6" font-family="Monospace" font-weight="bold" font-size="18.00">deepDiff_assocDiaSrcTable</text>
<text text-anchor="start" x="150" y="-357.8" font-family="Monospace" font-style="italic" font-size="14.00">dimensions:</text>
<text text-anchor="start" x="241" y="-357.8" font-family="Monospace" font-size="14.00"> {patch}</text>
<text text-anchor="start" x="150" y="-330.8" font-family="Monospace" font-style="italic" font-size="14.00">storage class:</text>
<text text-anchor="start" x="266" y="-330.8" font-family="Monospace" font-size="14.00"> DataFrame</text>
</g>
<!-- drpAssociation:2&#45;&gt;aa54c164:0 -->
<g id="edge1" class="edge">
<title>drpAssociation:2&#45;&gt;aa54c164:0</title>
<path fill="none" stroke="black" stroke-width="1.5" d="M281,-499.86C281,-499.86 281,-461.2 281,-461.2"/>
<polygon fill="black" stroke="black" stroke-width="1.5" points="286.25,-461.2 281,-446.2 275.75,-461.2 286.25,-461.2"/>
</g>
<!-- skyMap:0 -->
<g id="node2" class="node">
<title>skyMap:0</title>
<path fill="#f5f5f5" stroke="#00babc" stroke-width="3" d="M235,-758C235,-758 43,-758 43,-758 37,-758 31,-752 31,-746 31,-746 31,-668 31,-668 31,-662 37,-656 43,-656 43,-656 235,-656 235,-656 241,-656 247,-662 247,-668 247,-668 247,-746 247,-746 247,-752 241,-758 235,-758"/>
<text text-anchor="start" x="52" y="-730.6" font-family="Monospace" font-weight="bold" font-size="18.00">skyMap</text>
<text text-anchor="start" x="52" y="-701.8" font-family="Monospace" font-style="italic" font-size="14.00">dimensions:</text>
<text text-anchor="start" x="143" y="-701.8" font-family="Monospace" font-size="14.00"> {skymap}</text>
<text text-anchor="start" x="52" y="-674.8" font-family="Monospace" font-style="italic" font-size="14.00">storage class:</text>
<text text-anchor="start" x="168" y="-674.8" font-family="Monospace" font-size="14.00"> SkyMap</text>
</g>
<!-- skyMap:0&#45;&gt;drpAssociation:2 -->
<g id="edge2" class="edge">
<title>skyMap:0&#45;&gt;drpAssociation:2</title>
<path fill="none" stroke="black" stroke-width="1.5" d="M139,-655.92C139,-655.92 139,-617.19 139,-617.19"/>
<polygon fill="black" stroke="black" stroke-width="1.5" points="144.25,-617.19 139,-602.19 133.75,-617.2 144.25,-617.19"/>
</g>
<!-- deepDiff_diaSrcTable:0 -->
<g id="node3" class="node">
<title>deepDiff_diaSrcTable:0</title>
<path fill="#f5f5f5" stroke="#00babc" stroke-width="3" d="M553,-758C553,-758 295,-758 295,-758 289,-758 283,-752 283,-746 283,-746 283,-668 283,-668 283,-662 289,-656 295,-656 295,-656 553,-656 553,-656 559,-656 565,-662 565,-668 565,-668 565,-746 565,-746 565,-752 559,-758 553,-758"/>
<text text-anchor="start" x="304" y="-730.6" font-family="Monospace" font-weight="bold" font-size="18.00">deepDiff_diaSrcTable</text>
<text text-anchor="start" x="304" y="-701.8" font-family="Monospace" font-style="italic" font-size="14.00">dimensions:</text>
<text text-anchor="start" x="395" y="-701.8" font-family="Monospace" font-size="14.00"> {detector, visit}</text>
<text text-anchor="start" x="304" y="-674.8" font-family="Monospace" font-style="italic" font-size="14.00">storage class:</text>
<text text-anchor="start" x="420" y="-674.8" font-family="Monospace" font-size="14.00"> DataFrame</text>
</g>
<!-- deepDiff_diaSrcTable:0&#45;&gt;drpAssociation:2 -->
<g id="edge3" class="edge">
<title>deepDiff_diaSrcTable:0&#45;&gt;drpAssociation:2</title>
<path fill="none" stroke="black" stroke-width="1.5" d="M410.25,-655.92C410.25,-655.92 410.25,-617.19 410.25,-617.19"/>
<polygon fill="black" stroke="black" stroke-width="1.5" points="415.5,-617.19 410.25,-602.19 405,-617.2 415.5,-617.19"/>
</g>
<!-- drpDiaCalculation:2 -->
<g id="node4" class="node">
<title>drpDiaCalculation:2</title>
<polygon fill="#b1f2ef" stroke="black" stroke-width="3" points="562,-258 0,-258 0,-156 562,-156 562,-258"/>
<text text-anchor="start" x="21" y="-230.6" font-family="Monospace" font-weight="bold" font-size="18.00">drpDiaCalculation</text>
<text text-anchor="start" x="21" y="-200.8" font-family="Monospace" font-size="14.00">lsst.pipe.tasks.drpDiaCalculationPipe.DrpDiaCalculationPipeTask</text>
<text text-anchor="start" x="21" y="-174.8" font-family="Monospace" font-style="italic" font-size="14.00">dimensions:</text>
<text text-anchor="start" x="112" y="-174.8" font-family="Monospace" font-size="14.00"> {patch}</text>
</g>
<!-- deepDiff_fullDiaObjTable:0 -->
<g id="node5" class="node">
<title>deepDiff_fullDiaObjTable:0</title>
<path fill="#f5f5f5" stroke="#00babc" stroke-width="3" d="M416.5,-102C416.5,-102 145.5,-102 145.5,-102 139.5,-102 133.5,-96 133.5,-90 133.5,-90 133.5,-12 133.5,-12 133.5,-6 139.5,0 145.5,0 145.5,0 416.5,0 416.5,0 422.5,0 428.5,-6 428.5,-12 428.5,-12 428.5,-90 428.5,-90 428.5,-96 422.5,-102 416.5,-102"/>
<text text-anchor="start" x="155" y="-74.6" font-family="Monospace" font-weight="bold" font-size="18.00">deepDiff_fullDiaObjTable</text>
<text text-anchor="start" x="155" y="-45.8" font-family="Monospace" font-style="italic" font-size="14.00">dimensions:</text>
<text text-anchor="start" x="246" y="-45.8" font-family="Monospace" font-size="14.00"> {patch}</text>
<text text-anchor="start" x="155" y="-18.8" font-family="Monospace" font-style="italic" font-size="14.00">storage class:</text>
<text text-anchor="start" x="271" y="-18.8" font-family="Monospace" font-size="14.00"> DataFrame</text>
</g>
<!-- drpDiaCalculation:2&#45;&gt;deepDiff_fullDiaObjTable:0 -->
<g id="edge4" class="edge">
<title>drpDiaCalculation:2&#45;&gt;deepDiff_fullDiaObjTable:0</title>
<path fill="none" stroke="black" stroke-width="1.5" d="M281,-155.92C281,-155.92 281,-117.19 281,-117.19"/>
<polygon fill="black" stroke="black" stroke-width="1.5" points="286.25,-117.19 281,-102.19 275.75,-117.2 286.25,-117.19"/>
</g>
<!-- aa54c164:0&#45;&gt;drpDiaCalculation:2 -->
<g id="edge5" class="edge">
<title>aa54c164:0&#45;&gt;drpDiaCalculation:2</title>
<path fill="none" stroke="black" stroke-width="1.5" d="M281,-311.51C281,-311.51 281,-273.07 281,-273.07"/>
<polygon fill="black" stroke="black" stroke-width="1.5" points="286.25,-273.07 281,-258.07 275.75,-273.07 286.25,-273.07"/>
</g>
</g>
</svg>
