<?xml version="1.0" encoding="UTF-8" standalone="no"?>
<!DOCTYPE svg PUBLIC "-//W3C//DTD SVG 1.1//EN"
 "http://www.w3.org/Graphics/SVG/1.1/DTD/svg11.dtd">
<!-- Generated by graphviz version 2.44.0 (0)
 -->
<!-- Title: Pipeline Pages: 1 -->
<svg width="1254pt" height="1078pt"
 viewBox="0.00 0.00 1253.50 1078.00" xmlns="http://www.w3.org/2000/svg" xmlns:xlink="http://www.w3.org/1999/xlink">
<g id="graph0" class="graph" transform="scale(1 1) rotate(0) translate(4 1074)">
<title>Pipeline</title>
<polygon fill="white" stroke="transparent" points="-4,4 -4,-1074 1249.5,-1074 1249.5,4 -4,4"/>
<!-- getTemplate:2 -->
<g id="node1" class="node">
<title>getTemplate:2</title>
<polygon fill="#b1f2ef" stroke="black" stroke-width="3" points="605,-914 216,-914 216,-812 605,-812 605,-914"/>
<text text-anchor="start" x="237.5" y="-886.6" font-family="Monospace" font-weight="bold" font-size="18.00">getTemplate</text>
<text text-anchor="start" x="237.5" y="-856.8" font-family="Monospace" font-size="14.00">lsst.ip.diffim.getTemplate.GetTemplateTask</text>
<text text-anchor="start" x="237.5" y="-830.8" font-family="Monospace" font-style="italic" font-size="14.00">dimensions:</text>
<text text-anchor="start" x="328.5" y="-830.8" font-family="Monospace" font-size="14.00"> {skymap, detector, visit}</text>
</g>
<!-- deepDiff_templateExp:0 -->
<g id="node5" class="node">
<title>deepDiff_templateExp:0</title>
<path fill="#f5f5f5" stroke="#00babc" stroke-width="3" d="M566.5,-758C566.5,-758 308.5,-758 308.5,-758 302.5,-758 296.5,-752 296.5,-746 296.5,-746 296.5,-668 296.5,-668 296.5,-662 302.5,-656 308.5,-656 308.5,-656 566.5,-656 566.5,-656 572.5,-656 578.5,-662 578.5,-668 578.5,-668 578.5,-746 578.5,-746 578.5,-752 572.5,-758 566.5,-758"/>
<text text-anchor="start" x="317.5" y="-730.6" font-family="Monospace" font-weight="bold" font-size="18.00">deepDiff_templateExp</text>
<text text-anchor="start" x="317.5" y="-701.8" font-family="Monospace" font-style="italic" font-size="14.00">dimensions:</text>
<text text-anchor="start" x="408.5" y="-701.8" font-family="Monospace" font-size="14.00"> {detector, visit}</text>
<text text-anchor="start" x="317.5" y="-674.8" font-family="Monospace" font-style="italic" font-size="14.00">storage class:</text>
<text text-anchor="start" x="433.5" y="-674.8" font-family="Monospace" font-size="14.00"> ExposureF</text>
</g>
<!-- getTemplate:2&#45;&gt;deepDiff_templateExp:0 -->
<g id="edge1" class="edge">
<title>getTemplate:2&#45;&gt;deepDiff_templateExp:0</title>
<path fill="none" stroke="black" stroke-width="1.5" d="M437.5,-811.92C437.5,-811.92 437.5,-773.19 437.5,-773.19"/>
<polygon fill="black" stroke="black" stroke-width="1.5" points="442.75,-773.19 437.5,-758.19 432.25,-773.2 442.75,-773.19"/>
</g>
<!-- deepCoadd:0 -->
<g id="node2" class="node">
<title>deepCoadd:0</title>
<path fill="#f5f5f5" stroke="#00babc" stroke-width="3" d="M237,-1070C237,-1070 12,-1070 12,-1070 6,-1070 0,-1064 0,-1058 0,-1058 0,-980 0,-980 0,-974 6,-968 12,-968 12,-968 237,-968 237,-968 243,-968 249,-974 249,-980 249,-980 249,-1058 249,-1058 249,-1064 243,-1070 237,-1070"/>
<text text-anchor="start" x="21.5" y="-1042.6" font-family="Monospace" font-weight="bold" font-size="18.00">deepCoadd</text>
<text text-anchor="start" x="21.5" y="-1013.8" font-family="Monospace" font-style="italic" font-size="14.00">dimensions:</text>
<text text-anchor="start" x="112.5" y="-1013.8" font-family="Monospace" font-size="14.00"> {band, patch}</text>
<text text-anchor="start" x="21.5" y="-986.8" font-family="Monospace" font-style="italic" font-size="14.00">storage class:</text>
<text text-anchor="start" x="137.5" y="-986.8" font-family="Monospace" font-size="14.00"> ExposureF</text>
</g>
<!-- deepCoadd:0&#45;&gt;getTemplate:2 -->
<g id="edge2" class="edge">
<title>deepCoadd:0&#45;&gt;getTemplate:2</title>
<path fill="none" stroke="black" stroke-width="1.5" d="M232.5,-967.92C232.5,-967.92 232.5,-929.19 232.5,-929.19"/>
<polygon fill="black" stroke="black" stroke-width="1.5" points="237.75,-929.19 232.5,-914.19 227.25,-929.2 237.75,-929.19"/>
</g>
<!-- skyMap:0 -->
<g id="node3" class="node">
<title>skyMap:0</title>
<path fill="#f5f5f5" stroke="#00babc" stroke-width="3" d="M489.5,-1070C489.5,-1070 297.5,-1070 297.5,-1070 291.5,-1070 285.5,-1064 285.5,-1058 285.5,-1058 285.5,-980 285.5,-980 285.5,-974 291.5,-968 297.5,-968 297.5,-968 489.5,-968 489.5,-968 495.5,-968 501.5,-974 501.5,-980 501.5,-980 501.5,-1058 501.5,-1058 501.5,-1064 495.5,-1070 489.5,-1070"/>
<text text-anchor="start" x="306.5" y="-1042.6" font-family="Monospace" font-weight="bold" font-size="18.00">skyMap</text>
<text text-anchor="start" x="306.5" y="-1013.8" font-family="Monospace" font-style="italic" font-size="14.00">dimensions:</text>
<text text-anchor="start" x="397.5" y="-1013.8" font-family="Monospace" font-size="14.00"> {skymap}</text>
<text text-anchor="start" x="306.5" y="-986.8" font-family="Monospace" font-style="italic" font-size="14.00">storage class:</text>
<text text-anchor="start" x="422.5" y="-986.8" font-family="Monospace" font-size="14.00"> SkyMap</text>
</g>
<!-- skyMap:0&#45;&gt;getTemplate:2 -->
<g id="edge3" class="edge">
<title>skyMap:0&#45;&gt;getTemplate:2</title>
<path fill="none" stroke="black" stroke-width="1.5" d="M393.5,-967.92C393.5,-967.92 393.5,-929.19 393.5,-929.19"/>
<polygon fill="black" stroke="black" stroke-width="1.5" points="398.75,-929.19 393.5,-914.19 388.25,-929.2 398.75,-929.19"/>
</g>
<!-- injected_calexp:0 -->
<g id="node4" class="node">
<title>injected_calexp:0</title>
<path fill="#f5f5f5" stroke="#00babc" stroke-width="3" d="M807.5,-1070C807.5,-1070 549.5,-1070 549.5,-1070 543.5,-1070 537.5,-1064 537.5,-1058 537.5,-1058 537.5,-980 537.5,-980 537.5,-974 543.5,-968 549.5,-968 549.5,-968 807.5,-968 807.5,-968 813.5,-968 819.5,-974 819.5,-980 819.5,-980 819.5,-1058 819.5,-1058 819.5,-1064 813.5,-1070 807.5,-1070"/>
<text text-anchor="start" x="558.5" y="-1042.6" font-family="Monospace" font-weight="bold" font-size="18.00">injected_calexp</text>
<text text-anchor="start" x="558.5" y="-1013.8" font-family="Monospace" font-style="italic" font-size="14.00">dimensions:</text>
<text text-anchor="start" x="649.5" y="-1013.8" font-family="Monospace" font-size="14.00"> {detector, visit}</text>
<text text-anchor="start" x="558.5" y="-986.8" font-family="Monospace" font-style="italic" font-size="14.00">storage class:</text>
<text text-anchor="start" x="674.5" y="-986.8" font-family="Monospace" font-size="14.00"> ExposureF</text>
</g>
<!-- injected_calexp:0&#45;&gt;getTemplate:2 -->
<g id="edge4" class="edge">
<title>injected_calexp:0&#45;&gt;getTemplate:2</title>
<path fill="none" stroke="black" stroke-width="1.5" d="M560,-967.92C560,-967.92 560,-929.19 560,-929.19"/>
<polygon fill="black" stroke="black" stroke-width="1.5" points="565.25,-929.19 560,-914.19 554.75,-929.2 565.25,-929.19"/>
</g>
<!-- injected_calexp:0&#45;&gt;getTemplate:2 -->
<g id="edge5" class="edge">
<title>injected_calexp:0&#45;&gt;getTemplate:2</title>
<path fill="none" stroke="black" stroke-width="1.5" d="M582.5,-967.92C582.5,-967.92 582.5,-929.19 582.5,-929.19"/>
<polygon fill="black" stroke="black" stroke-width="1.5" points="587.75,-929.19 582.5,-914.19 577.25,-929.2 587.75,-929.19"/>
</g>
<!-- subtractImages:2 -->
<g id="node6" class="node">
<title>subtractImages:2</title>
<polygon fill="#b1f2ef" stroke="black" stroke-width="3" points="900.5,-602 420.5,-602 420.5,-500 900.5,-500 900.5,-602"/>
<text text-anchor="start" x="441.5" y="-574.6" font-family="Monospace" font-weight="bold" font-size="18.00">subtractImages</text>
<text text-anchor="start" x="441.5" y="-544.8" font-family="Monospace" font-size="14.00">lsst.ip.diffim.subtractImages.AlardLuptonSubtractTask</text>
<text text-anchor="start" x="441.5" y="-518.8" font-family="Monospace" font-style="italic" font-size="14.00">dimensions:</text>
<text text-anchor="start" x="532.5" y="-518.8" font-family="Monospace" font-size="14.00"> {detector, visit}</text>
</g>
<!-- injected_calexp:0&#45;&gt;subtractImages:2 -->
<g id="edge6" class="edge">
<title>injected_calexp:0&#45;&gt;subtractImages:2</title>
<path fill="none" stroke="black" stroke-width="1.5" d="M660.25,-967.58C660.25,-967.58 660.25,-617.15 660.25,-617.15"/>
<polygon fill="black" stroke="black" stroke-width="1.5" points="665.5,-617.15 660.25,-602.15 655,-617.15 665.5,-617.15"/>
</g>
<!-- detectAndMeasureDiaSources:2 -->
<g id="node9" class="node">
<title>detectAndMeasureDiaSources:2</title>
<polygon fill="#b1f2ef" stroke="black" stroke-width="3" points="1181.5,-258 709.5,-258 709.5,-156 1181.5,-156 1181.5,-258"/>
<text text-anchor="start" x="730.5" y="-230.6" font-family="Monospace" font-weight="bold" font-size="18.00">detectAndMeasureDiaSources</text>
<text text-anchor="start" x="730.5" y="-200.8" font-family="Monospace" font-size="14.00">lsst.ip.diffim.detectAndMeasure.DetectAndMeasureTask</text>
<text text-anchor="start" x="730.5" y="-174.8" font-family="Monospace" font-style="italic" font-size="14.00">dimensions:</text>
<text text-anchor="start" x="821.5" y="-174.8" font-family="Monospace" font-size="14.00"> {detector, visit}</text>
</g>
<!-- injected_calexp:0&#45;&gt;detectAndMeasureDiaSources:2 -->
<g id="edge7" class="edge">
<title>injected_calexp:0&#45;&gt;detectAndMeasureDiaSources:2</title>
<path fill="none" stroke="black" stroke-width="1.5" d="M819.66,-1019C938.59,-1019 1089.5,-1019 1089.5,-1019 1089.5,-1019 1089.5,-273.1 1089.5,-273.1"/>
<polygon fill="black" stroke="black" stroke-width="1.5" points="1094.75,-273.1 1089.5,-258.1 1084.25,-273.1 1094.75,-273.1"/>
</g>
<!-- deepDiff_templateExp:0&#45;&gt;subtractImages:2 -->
<g id="edge8" class="edge">
<title>deepDiff_templateExp:0&#45;&gt;subtractImages:2</title>
<path fill="none" stroke="black" stroke-width="1.5" d="M499.5,-655.92C499.5,-655.92 499.5,-617.19 499.5,-617.19"/>
<polygon fill="black" stroke="black" stroke-width="1.5" points="504.75,-617.19 499.5,-602.19 494.25,-617.2 504.75,-617.19"/>
</g>
<!-- injected_deepDiff_psfMatchKernel:0 -->
<g id="node8" class="node">
<title>injected_deepDiff_psfMatchKernel:0</title>
<path fill="#f5f5f5" stroke="#00babc" stroke-width="3" d="M633,-430C633,-430 278,-430 278,-430 272,-430 266,-424 266,-418 266,-418 266,-340 266,-340 266,-334 272,-328 278,-328 278,-328 633,-328 633,-328 639,-328 645,-334 645,-340 645,-340 645,-418 645,-418 645,-424 639,-430 633,-430"/>
<text text-anchor="start" x="287.5" y="-402.6" font-family="Monospace" font-weight="bold" font-size="18.00">injected_deepDiff_psfMatchKernel</text>
<text text-anchor="start" x="287.5" y="-373.8" font-family="Monospace" font-style="italic" font-size="14.00">dimensions:</text>
<text text-anchor="start" x="378.5" y="-373.8" font-family="Monospace" font-size="14.00"> {detector, visit}</text>
<text text-anchor="start" x="287.5" y="-346.8" font-family="Monospace" font-style="italic" font-size="14.00">storage class:</text>
<text text-anchor="start" x="403.5" y="-346.8" font-family="Monospace" font-size="14.00"> MatchingKernel</text>
</g>
<!-- subtractImages:2&#45;&gt;injected_deepDiff_psfMatchKernel:0 -->
<g id="edge9" class="edge">
<title>subtractImages:2&#45;&gt;injected_deepDiff_psfMatchKernel:0</title>
<path fill="none" stroke="black" stroke-width="1.5" d="M532.75,-499.86C532.75,-499.86 532.75,-445.24 532.75,-445.24"/>
<polygon fill="black" stroke="black" stroke-width="1.5" points="538,-445.24 532.75,-430.24 527.5,-445.24 538,-445.24"/>
</g>
<!-- 34fdb821:0 -->
<g id="node12" class="node">
<title>34fdb821:0</title>
<path fill="#f5f5f5" stroke="#00babc" stroke-width="3" d="M985.5,-446C985.5,-446 693.5,-446 693.5,-446 687.5,-446 681.5,-440 681.5,-434 681.5,-434 681.5,-324 681.5,-324 681.5,-318 687.5,-312 693.5,-312 693.5,-312 985.5,-312 985.5,-312 991.5,-312 997.5,-318 997.5,-324 997.5,-324 997.5,-434 997.5,-434 997.5,-440 991.5,-446 985.5,-446"/>
<text text-anchor="start" x="702.5" y="-418.6" font-family="Monospace" font-weight="bold" font-size="18.00">deepDiff_matchedExp</text>
<text text-anchor="start" x="702.5" y="-386.6" font-family="Monospace" font-weight="bold" font-size="18.00">deepDiff_differenceTempExp</text>
<text text-anchor="start" x="702.5" y="-357.8" font-family="Monospace" font-style="italic" font-size="14.00">dimensions:</text>
<text text-anchor="start" x="793.5" y="-357.8" font-family="Monospace" font-size="14.00"> {detector, visit}</text>
<text text-anchor="start" x="702.5" y="-330.8" font-family="Monospace" font-style="italic" font-size="14.00">storage class:</text>
<text text-anchor="start" x="818.5" y="-330.8" font-family="Monospace" font-size="14.00"> ExposureF</text>
</g>
<!-- subtractImages:2&#45;&gt;34fdb821:0 -->
<g id="edge10" class="edge">
<title>subtractImages:2&#45;&gt;34fdb821:0</title>
<path fill="none" stroke="black" stroke-width="1.5" d="M791,-499.86C791,-499.86 791,-461.2 791,-461.2"/>
<polygon fill="black" stroke="black" stroke-width="1.5" points="796.25,-461.2 791,-446.2 785.75,-461.2 796.25,-461.2"/>
</g>
<!-- injected_src:0 -->
<g id="node7" class="node">
<title>injected_src:0</title>
<path fill="#f5f5f5" stroke="#00babc" stroke-width="3" d="M985.5,-758C985.5,-758 727.5,-758 727.5,-758 721.5,-758 715.5,-752 715.5,-746 715.5,-746 715.5,-668 715.5,-668 715.5,-662 721.5,-656 727.5,-656 727.5,-656 985.5,-656 985.5,-656 991.5,-656 997.5,-662 997.5,-668 997.5,-668 997.5,-746 997.5,-746 997.5,-752 991.5,-758 985.5,-758"/>
<text text-anchor="start" x="736.5" y="-730.6" font-family="Monospace" font-weight="bold" font-size="18.00">injected_src</text>
<text text-anchor="start" x="736.5" y="-701.8" font-family="Monospace" font-style="italic" font-size="14.00">dimensions:</text>
<text text-anchor="start" x="827.5" y="-701.8" font-family="Monospace" font-size="14.00"> {detector, visit}</text>
<text text-anchor="start" x="736.5" y="-674.8" font-family="Monospace" font-style="italic" font-size="14.00">storage class:</text>
<text text-anchor="start" x="852.5" y="-674.8" font-family="Monospace" font-size="14.00"> SourceCatalog</text>
</g>
<!-- injected_src:0&#45;&gt;subtractImages:2 -->
<g id="edge11" class="edge">
<title>injected_src:0&#45;&gt;subtractImages:2</title>
<path fill="none" stroke="black" stroke-width="1.5" d="M808,-655.92C808,-655.92 808,-617.19 808,-617.19"/>
<polygon fill="black" stroke="black" stroke-width="1.5" points="813.25,-617.19 808,-602.19 802.75,-617.2 813.25,-617.19"/>
</g>
<!-- deepDiff_differenceExp:0 -->
<g id="node10" class="node">
<title>deepDiff_differenceExp:0</title>
<path fill="#f5f5f5" stroke="#00babc" stroke-width="3" d="M915.5,-102C915.5,-102 657.5,-102 657.5,-102 651.5,-102 645.5,-96 645.5,-90 645.5,-90 645.5,-12 645.5,-12 645.5,-6 651.5,0 657.5,0 657.5,0 915.5,0 915.5,0 921.5,0 927.5,-6 927.5,-12 927.5,-12 927.5,-90 927.5,-90 927.5,-96 921.5,-102 915.5,-102"/>
<text text-anchor="start" x="666.5" y="-74.6" font-family="Monospace" font-weight="bold" font-size="18.00">deepDiff_differenceExp</text>
<text text-anchor="start" x="666.5" y="-45.8" font-family="Monospace" font-style="italic" font-size="14.00">dimensions:</text>
<text text-anchor="start" x="757.5" y="-45.8" font-family="Monospace" font-size="14.00"> {detector, visit}</text>
<text text-anchor="start" x="666.5" y="-18.8" font-family="Monospace" font-style="italic" font-size="14.00">storage class:</text>
<text text-anchor="start" x="782.5" y="-18.8" font-family="Monospace" font-size="14.00"> ExposureF</text>
</g>
<!-- detectAndMeasureDiaSources:2&#45;&gt;deepDiff_differenceExp:0 -->
<g id="edge12" class="edge">
<title>detectAndMeasureDiaSources:2&#45;&gt;deepDiff_differenceExp:0</title>
<path fill="none" stroke="black" stroke-width="1.5" d="M818.5,-155.92C818.5,-155.92 818.5,-117.19 818.5,-117.19"/>
<polygon fill="black" stroke="black" stroke-width="1.5" points="823.75,-117.19 818.5,-102.19 813.25,-117.2 823.75,-117.19"/>
</g>
<!-- deepDiff_diaSrc:0 -->
<g id="node11" class="node">
<title>deepDiff_diaSrc:0</title>
<path fill="#f5f5f5" stroke="#00babc" stroke-width="3" d="M1233.5,-102C1233.5,-102 975.5,-102 975.5,-102 969.5,-102 963.5,-96 963.5,-90 963.5,-90 963.5,-12 963.5,-12 963.5,-6 969.5,0 975.5,0 975.5,0 1233.5,0 1233.5,0 1239.5,0 1245.5,-6 1245.5,-12 1245.5,-12 1245.5,-90 1245.5,-90 1245.5,-96 1239.5,-102 1233.5,-102"/>
<text text-anchor="start" x="984.5" y="-74.6" font-family="Monospace" font-weight="bold" font-size="18.00">deepDiff_diaSrc</text>
<text text-anchor="start" x="984.5" y="-45.8" font-family="Monospace" font-style="italic" font-size="14.00">dimensions:</text>
<text text-anchor="start" x="1075.5" y="-45.8" font-family="Monospace" font-size="14.00"> {detector, visit}</text>
<text text-anchor="start" x="984.5" y="-18.8" font-family="Monospace" font-style="italic" font-size="14.00">storage class:</text>
<text text-anchor="start" x="1100.5" y="-18.8" font-family="Monospace" font-size="14.00"> SourceCatalog</text>
</g>
<!-- detectAndMeasureDiaSources:2&#45;&gt;deepDiff_diaSrc:0 -->
<g id="edge13" class="edge">
<title>detectAndMeasureDiaSources:2&#45;&gt;deepDiff_diaSrc:0</title>
<path fill="none" stroke="black" stroke-width="1.5" d="M1072.5,-155.92C1072.5,-155.92 1072.5,-117.19 1072.5,-117.19"/>
<polygon fill="black" stroke="black" stroke-width="1.5" points="1077.75,-117.19 1072.5,-102.19 1067.25,-117.2 1077.75,-117.19"/>
</g>
<!-- 34fdb821:0&#45;&gt;detectAndMeasureDiaSources:2 -->
<g id="edge14" class="edge">
<title>34fdb821:0&#45;&gt;detectAndMeasureDiaSources:2</title>
<path fill="none" stroke="black" stroke-width="1.5" d="M853.5,-311.51C853.5,-311.51 853.5,-273.07 853.5,-273.07"/>
<polygon fill="black" stroke="black" stroke-width="1.5" points="858.75,-273.07 853.5,-258.07 848.25,-273.07 858.75,-273.07"/>
</g>
</g>
</svg>
