<?xml version="1.0" encoding="UTF-8" standalone="no"?>
<!DOCTYPE svg PUBLIC "-//W3C//DTD SVG 1.1//EN"
 "http://www.w3.org/Graphics/SVG/1.1/DTD/svg11.dtd">
<!-- Generated by graphviz version 2.44.0 (0)
 -->
<!-- Title: Pipeline Pages: 1 -->
<svg width="1246pt" height="1078pt"
 viewBox="0.00 0.00 1246.00 1078.00" xmlns="http://www.w3.org/2000/svg" xmlns:xlink="http://www.w3.org/1999/xlink">
<g id="graph0" class="graph" transform="scale(1 1) rotate(0) translate(4 1074)">
<title>Pipeline</title>
<polygon fill="white" stroke="transparent" points="-4,4 -4,-1074 1242,-1074 1242,4 -4,4"/>
<!-- getTemplate:2 -->
<g id="node1" class="node">
<title>getTemplate:2</title>
<polygon fill="#b1f2ef" stroke="black" stroke-width="3" points="597.5,-914 208.5,-914 208.5,-812 597.5,-812 597.5,-914"/>
<text text-anchor="start" x="230" y="-886.6" font-family="Monospace" font-weight="bold" font-size="18.00">getTemplate</text>
<text text-anchor="start" x="230" y="-856.8" font-family="Monospace" font-size="14.00">lsst.ip.diffim.getTemplate.GetTemplateTask</text>
<text text-anchor="start" x="230" y="-830.8" font-family="Monospace" font-style="italic" font-size="14.00">dimensions:</text>
<text text-anchor="start" x="321" y="-830.8" font-family="Monospace" font-size="14.00"> {skymap, detector, visit}</text>
</g>
<!-- deepDiff_templateExp:0 -->
<g id="node5" class="node">
<title>deepDiff_templateExp:0</title>
<path fill="#f5f5f5" stroke="#00babc" stroke-width="3" d="M559,-758C559,-758 301,-758 301,-758 295,-758 289,-752 289,-746 289,-746 289,-668 289,-668 289,-662 295,-656 301,-656 301,-656 559,-656 559,-656 565,-656 571,-662 571,-668 571,-668 571,-746 571,-746 571,-752 565,-758 559,-758"/>
<text text-anchor="start" x="310" y="-730.6" font-family="Monospace" font-weight="bold" font-size="18.00">deepDiff_templateExp</text>
<text text-anchor="start" x="310" y="-701.8" font-family="Monospace" font-style="italic" font-size="14.00">dimensions:</text>
<text text-anchor="start" x="401" y="-701.8" font-family="Monospace" font-size="14.00"> {detector, visit}</text>
<text text-anchor="start" x="310" y="-674.8" font-family="Monospace" font-style="italic" font-size="14.00">storage class:</text>
<text text-anchor="start" x="426" y="-674.8" font-family="Monospace" font-size="14.00"> ExposureF</text>
</g>
<!-- getTemplate:2&#45;&gt;deepDiff_templateExp:0 -->
<g id="edge1" class="edge">
<title>getTemplate:2&#45;&gt;deepDiff_templateExp:0</title>
<path fill="none" stroke="black" stroke-width="1.5" d="M430,-811.92C430,-811.92 430,-773.19 430,-773.19"/>
<polygon fill="black" stroke="black" stroke-width="1.5" points="435.25,-773.19 430,-758.19 424.75,-773.2 435.25,-773.19"/>
</g>
<!-- skyMap:0 -->
<g id="node2" class="node">
<title>skyMap:0</title>
<path fill="#f5f5f5" stroke="#00babc" stroke-width="3" d="M204,-1070C204,-1070 12,-1070 12,-1070 6,-1070 0,-1064 0,-1058 0,-1058 0,-980 0,-980 0,-974 6,-968 12,-968 12,-968 204,-968 204,-968 210,-968 216,-974 216,-980 216,-980 216,-1058 216,-1058 216,-1064 210,-1070 204,-1070"/>
<text text-anchor="start" x="21" y="-1042.6" font-family="Monospace" font-weight="bold" font-size="18.00">skyMap</text>
<text text-anchor="start" x="21" y="-1013.8" font-family="Monospace" font-style="italic" font-size="14.00">dimensions:</text>
<text text-anchor="start" x="112" y="-1013.8" font-family="Monospace" font-size="14.00"> {skymap}</text>
<text text-anchor="start" x="21" y="-986.8" font-family="Monospace" font-style="italic" font-size="14.00">storage class:</text>
<text text-anchor="start" x="137" y="-986.8" font-family="Monospace" font-size="14.00"> SkyMap</text>
</g>
<!-- skyMap:0&#45;&gt;getTemplate:2 -->
<g id="edge2" class="edge">
<title>skyMap:0&#45;&gt;getTemplate:2</title>
<path fill="none" stroke="black" stroke-width="1.5" d="M212.25,-967.92C212.25,-967.92 212.25,-929.19 212.25,-929.19"/>
<polygon fill="black" stroke="black" stroke-width="1.5" points="217.5,-929.19 212.25,-914.19 207,-929.2 217.5,-929.19"/>
</g>
<!-- injected_calexp:0 -->
<g id="node3" class="node">
<title>injected_calexp:0</title>
<path fill="#f5f5f5" stroke="#00babc" stroke-width="3" d="M808,-1070C808,-1070 550,-1070 550,-1070 544,-1070 538,-1064 538,-1058 538,-1058 538,-980 538,-980 538,-974 544,-968 550,-968 550,-968 808,-968 808,-968 814,-968 820,-974 820,-980 820,-980 820,-1058 820,-1058 820,-1064 814,-1070 808,-1070"/>
<text text-anchor="start" x="559" y="-1042.6" font-family="Monospace" font-weight="bold" font-size="18.00">injected_calexp</text>
<text text-anchor="start" x="559" y="-1013.8" font-family="Monospace" font-style="italic" font-size="14.00">dimensions:</text>
<text text-anchor="start" x="650" y="-1013.8" font-family="Monospace" font-size="14.00"> {detector, visit}</text>
<text text-anchor="start" x="559" y="-986.8" font-family="Monospace" font-style="italic" font-size="14.00">storage class:</text>
<text text-anchor="start" x="675" y="-986.8" font-family="Monospace" font-size="14.00"> ExposureF</text>
</g>
<!-- injected_calexp:0&#45;&gt;getTemplate:2 -->
<g id="edge3" class="edge">
<title>injected_calexp:0&#45;&gt;getTemplate:2</title>
<path fill="none" stroke="black" stroke-width="1.5" d="M557.83,-967.92C557.83,-967.92 557.83,-929.19 557.83,-929.19"/>
<polygon fill="black" stroke="black" stroke-width="1.5" points="563.08,-929.19 557.83,-914.19 552.58,-929.2 563.08,-929.19"/>
</g>
<!-- injected_calexp:0&#45;&gt;getTemplate:2 -->
<g id="edge4" class="edge">
<title>injected_calexp:0&#45;&gt;getTemplate:2</title>
<path fill="none" stroke="black" stroke-width="1.5" d="M577.67,-967.92C577.67,-967.92 577.67,-929.19 577.67,-929.19"/>
<polygon fill="black" stroke="black" stroke-width="1.5" points="582.92,-929.19 577.67,-914.19 572.42,-929.2 582.92,-929.19"/>
</g>
<!-- subtractImages:2 -->
<g id="node6" class="node">
<title>subtractImages:2</title>
<polygon fill="#b1f2ef" stroke="black" stroke-width="3" points="893,-602 413,-602 413,-500 893,-500 893,-602"/>
<text text-anchor="start" x="434" y="-574.6" font-family="Monospace" font-weight="bold" font-size="18.00">subtractImages</text>
<text text-anchor="start" x="434" y="-544.8" font-family="Monospace" font-size="14.00">lsst.ip.diffim.subtractImages.AlardLuptonSubtractTask</text>
<text text-anchor="start" x="434" y="-518.8" font-family="Monospace" font-style="italic" font-size="14.00">dimensions:</text>
<text text-anchor="start" x="525" y="-518.8" font-family="Monospace" font-size="14.00"> {detector, visit}</text>
</g>
<!-- injected_calexp:0&#45;&gt;subtractImages:2 -->
<g id="edge5" class="edge">
<title>injected_calexp:0&#45;&gt;subtractImages:2</title>
<path fill="none" stroke="black" stroke-width="1.5" d="M652.75,-967.58C652.75,-967.58 652.75,-617.15 652.75,-617.15"/>
<polygon fill="black" stroke="black" stroke-width="1.5" points="658,-617.15 652.75,-602.15 647.5,-617.15 658,-617.15"/>
</g>
<!-- detectAndMeasureDiaSources:2 -->
<g id="node9" class="node">
<title>detectAndMeasureDiaSources:2</title>
<polygon fill="#b1f2ef" stroke="black" stroke-width="3" points="1174,-258 702,-258 702,-156 1174,-156 1174,-258"/>
<text text-anchor="start" x="723" y="-230.6" font-family="Monospace" font-weight="bold" font-size="18.00">detectAndMeasureDiaSources</text>
<text text-anchor="start" x="723" y="-200.8" font-family="Monospace" font-size="14.00">lsst.ip.diffim.detectAndMeasure.DetectAndMeasureTask</text>
<text text-anchor="start" x="723" y="-174.8" font-family="Monospace" font-style="italic" font-size="14.00">dimensions:</text>
<text text-anchor="start" x="814" y="-174.8" font-family="Monospace" font-size="14.00"> {detector, visit}</text>
</g>
<!-- injected_calexp:0&#45;&gt;detectAndMeasureDiaSources:2 -->
<g id="edge6" class="edge">
<title>injected_calexp:0&#45;&gt;detectAndMeasureDiaSources:2</title>
<path fill="none" stroke="black" stroke-width="1.5" d="M820.23,-1019C936.4,-1019 1082,-1019 1082,-1019 1082,-1019 1082,-273.1 1082,-273.1"/>
<polygon fill="black" stroke="black" stroke-width="1.5" points="1087.25,-273.1 1082,-258.1 1076.75,-273.1 1087.25,-273.1"/>
</g>
<!-- deepCoadd:0 -->
<g id="node4" class="node">
<title>deepCoadd:0</title>
<path fill="#f5f5f5" stroke="#00babc" stroke-width="3" d="M489.5,-1070C489.5,-1070 264.5,-1070 264.5,-1070 258.5,-1070 252.5,-1064 252.5,-1058 252.5,-1058 252.5,-980 252.5,-980 252.5,-974 258.5,-968 264.5,-968 264.5,-968 489.5,-968 489.5,-968 495.5,-968 501.5,-974 501.5,-980 501.5,-980 501.5,-1058 501.5,-1058 501.5,-1064 495.5,-1070 489.5,-1070"/>
<text text-anchor="start" x="274" y="-1042.6" font-family="Monospace" font-weight="bold" font-size="18.00">deepCoadd</text>
<text text-anchor="start" x="274" y="-1013.8" font-family="Monospace" font-style="italic" font-size="14.00">dimensions:</text>
<text text-anchor="start" x="365" y="-1013.8" font-family="Monospace" font-size="14.00"> {band, patch}</text>
<text text-anchor="start" x="274" y="-986.8" font-family="Monospace" font-style="italic" font-size="14.00">storage class:</text>
<text text-anchor="start" x="390" y="-986.8" font-family="Monospace" font-size="14.00"> ExposureF</text>
</g>
<!-- deepCoadd:0&#45;&gt;getTemplate:2 -->
<g id="edge7" class="edge">
<title>deepCoadd:0&#45;&gt;getTemplate:2</title>
<path fill="none" stroke="black" stroke-width="1.5" d="M377,-967.92C377,-967.92 377,-929.19 377,-929.19"/>
<polygon fill="black" stroke="black" stroke-width="1.5" points="382.25,-929.19 377,-914.19 371.75,-929.2 382.25,-929.19"/>
</g>
<!-- deepDiff_templateExp:0&#45;&gt;subtractImages:2 -->
<g id="edge8" class="edge">
<title>deepDiff_templateExp:0&#45;&gt;subtractImages:2</title>
<path fill="none" stroke="black" stroke-width="1.5" d="M492,-655.92C492,-655.92 492,-617.19 492,-617.19"/>
<polygon fill="black" stroke="black" stroke-width="1.5" points="497.25,-617.19 492,-602.19 486.75,-617.2 497.25,-617.19"/>
</g>
<!-- injected_deepDiff_psfMatchKernel:0 -->
<g id="node8" class="node">
<title>injected_deepDiff_psfMatchKernel:0</title>
<path fill="#f5f5f5" stroke="#00babc" stroke-width="3" d="M625.5,-430C625.5,-430 270.5,-430 270.5,-430 264.5,-430 258.5,-424 258.5,-418 258.5,-418 258.5,-340 258.5,-340 258.5,-334 264.5,-328 270.5,-328 270.5,-328 625.5,-328 625.5,-328 631.5,-328 637.5,-334 637.5,-340 637.5,-340 637.5,-418 637.5,-418 637.5,-424 631.5,-430 625.5,-430"/>
<text text-anchor="start" x="280" y="-402.6" font-family="Monospace" font-weight="bold" font-size="18.00">injected_deepDiff_psfMatchKernel</text>
<text text-anchor="start" x="280" y="-373.8" font-family="Monospace" font-style="italic" font-size="14.00">dimensions:</text>
<text text-anchor="start" x="371" y="-373.8" font-family="Monospace" font-size="14.00"> {detector, visit}</text>
<text text-anchor="start" x="280" y="-346.8" font-family="Monospace" font-style="italic" font-size="14.00">storage class:</text>
<text text-anchor="start" x="396" y="-346.8" font-family="Monospace" font-size="14.00"> MatchingKernel</text>
</g>
<!-- subtractImages:2&#45;&gt;injected_deepDiff_psfMatchKernel:0 -->
<g id="edge9" class="edge">
<title>subtractImages:2&#45;&gt;injected_deepDiff_psfMatchKernel:0</title>
<path fill="none" stroke="black" stroke-width="1.5" d="M525.25,-499.86C525.25,-499.86 525.25,-445.24 525.25,-445.24"/>
<polygon fill="black" stroke="black" stroke-width="1.5" points="530.5,-445.24 525.25,-430.24 520,-445.24 530.5,-445.24"/>
</g>
<!-- 34fdb821:0 -->
<g id="node12" class="node">
<title>34fdb821:0</title>
<path fill="#f5f5f5" stroke="#00babc" stroke-width="3" d="M978,-446C978,-446 686,-446 686,-446 680,-446 674,-440 674,-434 674,-434 674,-324 674,-324 674,-318 680,-312 686,-312 686,-312 978,-312 978,-312 984,-312 990,-318 990,-324 990,-324 990,-434 990,-434 990,-440 984,-446 978,-446"/>
<text text-anchor="start" x="695" y="-418.6" font-family="Monospace" font-weight="bold" font-size="18.00">deepDiff_matchedExp</text>
<text text-anchor="start" x="695" y="-386.6" font-family="Monospace" font-weight="bold" font-size="18.00">deepDiff_differenceTempExp</text>
<text text-anchor="start" x="695" y="-357.8" font-family="Monospace" font-style="italic" font-size="14.00">dimensions:</text>
<text text-anchor="start" x="786" y="-357.8" font-family="Monospace" font-size="14.00"> {detector, visit}</text>
<text text-anchor="start" x="695" y="-330.8" font-family="Monospace" font-style="italic" font-size="14.00">storage class:</text>
<text text-anchor="start" x="811" y="-330.8" font-family="Monospace" font-size="14.00"> ExposureF</text>
</g>
<!-- subtractImages:2&#45;&gt;34fdb821:0 -->
<g id="edge10" class="edge">
<title>subtractImages:2&#45;&gt;34fdb821:0</title>
<path fill="none" stroke="black" stroke-width="1.5" d="M783.5,-499.86C783.5,-499.86 783.5,-461.2 783.5,-461.2"/>
<polygon fill="black" stroke="black" stroke-width="1.5" points="788.75,-461.2 783.5,-446.2 778.25,-461.2 788.75,-461.2"/>
</g>
<!-- injected_src:0 -->
<g id="node7" class="node">
<title>injected_src:0</title>
<path fill="#f5f5f5" stroke="#00babc" stroke-width="3" d="M978,-758C978,-758 720,-758 720,-758 714,-758 708,-752 708,-746 708,-746 708,-668 708,-668 708,-662 714,-656 720,-656 720,-656 978,-656 978,-656 984,-656 990,-662 990,-668 990,-668 990,-746 990,-746 990,-752 984,-758 978,-758"/>
<text text-anchor="start" x="729" y="-730.6" font-family="Monospace" font-weight="bold" font-size="18.00">injected_src</text>
<text text-anchor="start" x="729" y="-701.8" font-family="Monospace" font-style="italic" font-size="14.00">dimensions:</text>
<text text-anchor="start" x="820" y="-701.8" font-family="Monospace" font-size="14.00"> {detector, visit}</text>
<text text-anchor="start" x="729" y="-674.8" font-family="Monospace" font-style="italic" font-size="14.00">storage class:</text>
<text text-anchor="start" x="845" y="-674.8" font-family="Monospace" font-size="14.00"> SourceCatalog</text>
</g>
<!-- injected_src:0&#45;&gt;subtractImages:2 -->
<g id="edge11" class="edge">
<title>injected_src:0&#45;&gt;subtractImages:2</title>
<path fill="none" stroke="black" stroke-width="1.5" d="M800.5,-655.92C800.5,-655.92 800.5,-617.19 800.5,-617.19"/>
<polygon fill="black" stroke="black" stroke-width="1.5" points="805.75,-617.19 800.5,-602.19 795.25,-617.2 805.75,-617.19"/>
</g>
<!-- deepDiff_diaSrc:0 -->
<g id="node10" class="node">
<title>deepDiff_diaSrc:0</title>
<path fill="#f5f5f5" stroke="#00babc" stroke-width="3" d="M908,-102C908,-102 650,-102 650,-102 644,-102 638,-96 638,-90 638,-90 638,-12 638,-12 638,-6 644,0 650,0 650,0 908,0 908,0 914,0 920,-6 920,-12 920,-12 920,-90 920,-90 920,-96 914,-102 908,-102"/>
<text text-anchor="start" x="659" y="-74.6" font-family="Monospace" font-weight="bold" font-size="18.00">deepDiff_diaSrc</text>
<text text-anchor="start" x="659" y="-45.8" font-family="Monospace" font-style="italic" font-size="14.00">dimensions:</text>
<text text-anchor="start" x="750" y="-45.8" font-family="Monospace" font-size="14.00"> {detector, visit}</text>
<text text-anchor="start" x="659" y="-18.8" font-family="Monospace" font-style="italic" font-size="14.00">storage class:</text>
<text text-anchor="start" x="775" y="-18.8" font-family="Monospace" font-size="14.00"> SourceCatalog</text>
</g>
<!-- detectAndMeasureDiaSources:2&#45;&gt;deepDiff_diaSrc:0 -->
<g id="edge12" class="edge">
<title>detectAndMeasureDiaSources:2&#45;&gt;deepDiff_diaSrc:0</title>
<path fill="none" stroke="black" stroke-width="1.5" d="M811,-155.92C811,-155.92 811,-117.19 811,-117.19"/>
<polygon fill="black" stroke="black" stroke-width="1.5" points="816.25,-117.19 811,-102.19 805.75,-117.2 816.25,-117.19"/>
</g>
<!-- deepDiff_differenceExp:0 -->
<g id="node11" class="node">
<title>deepDiff_differenceExp:0</title>
<path fill="#f5f5f5" stroke="#00babc" stroke-width="3" d="M1226,-102C1226,-102 968,-102 968,-102 962,-102 956,-96 956,-90 956,-90 956,-12 956,-12 956,-6 962,0 968,0 968,0 1226,0 1226,0 1232,0 1238,-6 1238,-12 1238,-12 1238,-90 1238,-90 1238,-96 1232,-102 1226,-102"/>
<text text-anchor="start" x="977" y="-74.6" font-family="Monospace" font-weight="bold" font-size="18.00">deepDiff_differenceExp</text>
<text text-anchor="start" x="977" y="-45.8" font-family="Monospace" font-style="italic" font-size="14.00">dimensions:</text>
<text text-anchor="start" x="1068" y="-45.8" font-family="Monospace" font-size="14.00"> {detector, visit}</text>
<text text-anchor="start" x="977" y="-18.8" font-family="Monospace" font-style="italic" font-size="14.00">storage class:</text>
<text text-anchor="start" x="1093" y="-18.8" font-family="Monospace" font-size="14.00"> ExposureF</text>
</g>
<!-- detectAndMeasureDiaSources:2&#45;&gt;deepDiff_differenceExp:0 -->
<g id="edge13" class="edge">
<title>detectAndMeasureDiaSources:2&#45;&gt;deepDiff_differenceExp:0</title>
<path fill="none" stroke="black" stroke-width="1.5" d="M1065,-155.92C1065,-155.92 1065,-117.19 1065,-117.19"/>
<polygon fill="black" stroke="black" stroke-width="1.5" points="1070.25,-117.19 1065,-102.19 1059.75,-117.2 1070.25,-117.19"/>
</g>
<!-- 34fdb821:0&#45;&gt;detectAndMeasureDiaSources:2 -->
<g id="edge14" class="edge">
<title>34fdb821:0&#45;&gt;detectAndMeasureDiaSources:2</title>
<path fill="none" stroke="black" stroke-width="1.5" d="M846,-311.51C846,-311.51 846,-273.07 846,-273.07"/>
<polygon fill="black" stroke="black" stroke-width="1.5" points="851.25,-273.07 846,-258.07 840.75,-273.07 851.25,-273.07"/>
</g>
</g>
</svg>
