<?xml version="1.0" encoding="UTF-8" standalone="no"?>
<!DOCTYPE svg PUBLIC "-//W3C//DTD SVG 1.1//EN"
 "http://www.w3.org/Graphics/SVG/1.1/DTD/svg11.dtd">
<!-- Generated by graphviz version 2.44.0 (0)
 -->
<!-- Title: Pipeline Pages: 1 -->
<svg width="1427pt" height="766pt"
 viewBox="0.00 0.00 1427.00 766.00" xmlns="http://www.w3.org/2000/svg" xmlns:xlink="http://www.w3.org/1999/xlink">
<g id="graph0" class="graph" transform="scale(1 1) rotate(0) translate(4 762)">
<title>Pipeline</title>
<polygon fill="white" stroke="transparent" points="-4,4 -4,-762 1423,-762 1423,4 -4,4"/>
<!-- finalizeCharacterization:2 -->
<g id="node1" class="node">
<title>finalizeCharacterization:2</title>
<polygon fill="#b1f2ef" stroke="black" stroke-width="3" points="765,-570 153,-570 153,-468 765,-468 765,-570"/>
<text text-anchor="start" x="174" y="-542.6" font-family="Monospace" font-weight="bold" font-size="18.00">finalizeCharacterization</text>
<text text-anchor="start" x="174" y="-512.8" font-family="Monospace" font-size="14.00">lsst.pipe.tasks.finalizeCharacterization.FinalizeCharacterizationTask</text>
<text text-anchor="start" x="174" y="-486.8" font-family="Monospace" font-style="italic" font-size="14.00">dimensions:</text>
<text text-anchor="start" x="265" y="-486.8" font-family="Monospace" font-size="14.00"> {visit}</text>
</g>
<!-- finalized_psf_ap_corr_catalog:0 -->
<g id="node4" class="node">
<title>finalized_psf_ap_corr_catalog:0</title>
<path fill="#f5f5f5" stroke="#00babc" stroke-width="3" d="M474.5,-414C474.5,-414 151.5,-414 151.5,-414 145.5,-414 139.5,-408 139.5,-402 139.5,-402 139.5,-324 139.5,-324 139.5,-318 145.5,-312 151.5,-312 151.5,-312 474.5,-312 474.5,-312 480.5,-312 486.5,-318 486.5,-324 486.5,-324 486.5,-402 486.5,-402 486.5,-408 480.5,-414 474.5,-414"/>
<text text-anchor="start" x="161" y="-386.6" font-family="Monospace" font-weight="bold" font-size="18.00">finalized_psf_ap_corr_catalog</text>
<text text-anchor="start" x="161" y="-357.8" font-family="Monospace" font-style="italic" font-size="14.00">dimensions:</text>
<text text-anchor="start" x="252" y="-357.8" font-family="Monospace" font-size="14.00"> {visit}</text>
<text text-anchor="start" x="161" y="-330.8" font-family="Monospace" font-style="italic" font-size="14.00">storage class:</text>
<text text-anchor="start" x="277" y="-330.8" font-family="Monospace" font-size="14.00"> ExposureCatalog</text>
</g>
<!-- finalizeCharacterization:2&#45;&gt;finalized_psf_ap_corr_catalog:0 -->
<g id="edge1" class="edge">
<title>finalizeCharacterization:2&#45;&gt;finalized_psf_ap_corr_catalog:0</title>
<path fill="none" stroke="black" stroke-width="1.5" d="M319.75,-467.92C319.75,-467.92 319.75,-429.19 319.75,-429.19"/>
<polygon fill="black" stroke="black" stroke-width="1.5" points="325,-429.19 319.75,-414.19 314.5,-429.2 325,-429.19"/>
</g>
<!-- finalized_src_table:0 -->
<g id="node5" class="node">
<title>finalized_src_table:0</title>
<path fill="#f5f5f5" stroke="#00babc" stroke-width="3" d="M753,-414C753,-414 535,-414 535,-414 529,-414 523,-408 523,-402 523,-402 523,-324 523,-324 523,-318 529,-312 535,-312 535,-312 753,-312 753,-312 759,-312 765,-318 765,-324 765,-324 765,-402 765,-402 765,-408 759,-414 753,-414"/>
<text text-anchor="start" x="544" y="-386.6" font-family="Monospace" font-weight="bold" font-size="18.00">finalized_src_table</text>
<text text-anchor="start" x="544" y="-357.8" font-family="Monospace" font-style="italic" font-size="14.00">dimensions:</text>
<text text-anchor="start" x="635" y="-357.8" font-family="Monospace" font-size="14.00"> {visit}</text>
<text text-anchor="start" x="544" y="-330.8" font-family="Monospace" font-style="italic" font-size="14.00">storage class:</text>
<text text-anchor="start" x="660" y="-330.8" font-family="Monospace" font-size="14.00"> DataFrame</text>
</g>
<!-- finalizeCharacterization:2&#45;&gt;finalized_src_table:0 -->
<g id="edge2" class="edge">
<title>finalizeCharacterization:2&#45;&gt;finalized_src_table:0</title>
<path fill="none" stroke="black" stroke-width="1.5" d="M644,-467.92C644,-467.92 644,-429.19 644,-429.19"/>
<polygon fill="black" stroke="black" stroke-width="1.5" points="649.25,-429.19 644,-414.19 638.75,-429.2 649.25,-429.19"/>
</g>
<!-- src:0 -->
<g id="node2" class="node">
<title>src:0</title>
<path fill="#f5f5f5" stroke="#00babc" stroke-width="3" d="M270,-742C270,-742 12,-742 12,-742 6,-742 0,-736 0,-730 0,-730 0,-652 0,-652 0,-646 6,-640 12,-640 12,-640 270,-640 270,-640 276,-640 282,-646 282,-652 282,-652 282,-730 282,-730 282,-736 276,-742 270,-742"/>
<text text-anchor="start" x="21" y="-714.6" font-family="Monospace" font-weight="bold" font-size="18.00">src</text>
<text text-anchor="start" x="21" y="-685.8" font-family="Monospace" font-style="italic" font-size="14.00">dimensions:</text>
<text text-anchor="start" x="112" y="-685.8" font-family="Monospace" font-size="14.00"> {detector, visit}</text>
<text text-anchor="start" x="21" y="-658.8" font-family="Monospace" font-style="italic" font-size="14.00">storage class:</text>
<text text-anchor="start" x="137" y="-658.8" font-family="Monospace" font-size="14.00"> SourceCatalog</text>
</g>
<!-- src:0&#45;&gt;finalizeCharacterization:2 -->
<g id="edge3" class="edge">
<title>src:0&#45;&gt;finalizeCharacterization:2</title>
<path fill="none" stroke="black" stroke-width="1.5" d="M217.5,-639.86C217.5,-639.86 217.5,-585.24 217.5,-585.24"/>
<polygon fill="black" stroke="black" stroke-width="1.5" points="222.75,-585.24 217.5,-570.24 212.25,-585.24 222.75,-585.24"/>
</g>
<!-- calexp:0 -->
<g id="node3" class="node">
<title>calexp:0</title>
<path fill="#f5f5f5" stroke="#00babc" stroke-width="3" d="M941,-742C941,-742 683,-742 683,-742 677,-742 671,-736 671,-730 671,-730 671,-652 671,-652 671,-646 677,-640 683,-640 683,-640 941,-640 941,-640 947,-640 953,-646 953,-652 953,-652 953,-730 953,-730 953,-736 947,-742 941,-742"/>
<text text-anchor="start" x="692" y="-714.6" font-family="Monospace" font-weight="bold" font-size="18.00">calexp</text>
<text text-anchor="start" x="692" y="-685.8" font-family="Monospace" font-style="italic" font-size="14.00">dimensions:</text>
<text text-anchor="start" x="783" y="-685.8" font-family="Monospace" font-size="14.00"> {detector, visit}</text>
<text text-anchor="start" x="692" y="-658.8" font-family="Monospace" font-style="italic" font-size="14.00">storage class:</text>
<text text-anchor="start" x="808" y="-658.8" font-family="Monospace" font-size="14.00"> ExposureF</text>
</g>
<!-- calexp:0&#45;&gt;finalizeCharacterization:2 -->
<g id="edge4" class="edge">
<title>calexp:0&#45;&gt;finalizeCharacterization:2</title>
<path fill="none" stroke="black" stroke-width="1.5" d="M718,-639.86C718,-639.86 718,-585.24 718,-585.24"/>
<polygon fill="black" stroke="black" stroke-width="1.5" points="723.25,-585.24 718,-570.24 712.75,-585.24 723.25,-585.24"/>
</g>
<!-- updateVisitSummary:2 -->
<g id="node6" class="node">
<title>updateVisitSummary:2</title>
<polygon fill="#b1f2ef" stroke="black" stroke-width="3" points="992.5,-258 471.5,-258 471.5,-156 992.5,-156 992.5,-258"/>
<text text-anchor="start" x="493" y="-230.6" font-family="Monospace" font-weight="bold" font-size="18.00">updateVisitSummary</text>
<text text-anchor="start" x="493" y="-200.8" font-family="Monospace" font-size="14.00">lsst.drp.tasks.update_visit_summary.UpdateVisitSummaryTask</text>
<text text-anchor="start" x="493" y="-174.8" font-family="Monospace" font-style="italic" font-size="14.00">dimensions:</text>
<text text-anchor="start" x="584" y="-174.8" font-family="Monospace" font-size="14.00"> {visit}</text>
</g>
<!-- calexp:0&#45;&gt;updateVisitSummary:2 -->
<g id="edge5" class="edge">
<title>calexp:0&#45;&gt;updateVisitSummary:2</title>
<path fill="none" stroke="black" stroke-width="1.5" d="M820.25,-639.66C820.25,-639.66 820.25,-273.18 820.25,-273.18"/>
<polygon fill="black" stroke="black" stroke-width="1.5" points="825.5,-273.18 820.25,-258.18 815,-273.18 825.5,-273.18"/>
</g>
<!-- finalized_psf_ap_corr_catalog:0&#45;&gt;updateVisitSummary:2 -->
<g id="edge6" class="edge">
<title>finalized_psf_ap_corr_catalog:0&#45;&gt;updateVisitSummary:2</title>
<path fill="none" stroke="black" stroke-width="1.5" d="M476.5,-311.92C476.5,-311.92 476.5,-273.19 476.5,-273.19"/>
<polygon fill="black" stroke="black" stroke-width="1.5" points="481.75,-273.19 476.5,-258.19 471.25,-273.2 481.75,-273.19"/>
</g>
<!-- finalized_psf_ap_corr_catalog:0&#45;&gt;updateVisitSummary:2 -->
<g id="edge7" class="edge">
<title>finalized_psf_ap_corr_catalog:0&#45;&gt;updateVisitSummary:2</title>
<path fill="none" stroke="black" stroke-width="1.5" d="M481.5,-311.92C481.5,-311.92 481.5,-273.19 481.5,-273.19"/>
<polygon fill="black" stroke="black" stroke-width="1.5" points="486.75,-273.19 481.5,-258.19 476.25,-273.2 486.75,-273.19"/>
</g>
<!-- finalized_src_table:0&#45;&gt;updateVisitSummary:2 -->
<g id="edge8" class="edge">
<title>finalized_src_table:0&#45;&gt;updateVisitSummary:2</title>
<path fill="none" stroke="black" stroke-width="1.5" d="M644,-311.92C644,-311.92 644,-273.19 644,-273.19"/>
<polygon fill="black" stroke="black" stroke-width="1.5" points="649.25,-273.19 644,-258.19 638.75,-273.2 649.25,-273.19"/>
</g>
<!-- finalVisitSummary:0 -->
<g id="node9" class="node">
<title>finalVisitSummary:0</title>
<path fill="#f5f5f5" stroke="#00babc" stroke-width="3" d="M865.5,-102C865.5,-102 598.5,-102 598.5,-102 592.5,-102 586.5,-96 586.5,-90 586.5,-90 586.5,-12 586.5,-12 586.5,-6 592.5,0 598.5,0 598.5,0 865.5,0 865.5,0 871.5,0 877.5,-6 877.5,-12 877.5,-12 877.5,-90 877.5,-90 877.5,-96 871.5,-102 865.5,-102"/>
<text text-anchor="start" x="608" y="-74.6" font-family="Monospace" font-weight="bold" font-size="18.00">finalVisitSummary</text>
<text text-anchor="start" x="608" y="-45.8" font-family="Monospace" font-style="italic" font-size="14.00">dimensions:</text>
<text text-anchor="start" x="699" y="-45.8" font-family="Monospace" font-size="14.00"> {visit}</text>
<text text-anchor="start" x="608" y="-18.8" font-family="Monospace" font-style="italic" font-size="14.00">storage class:</text>
<text text-anchor="start" x="724" y="-18.8" font-family="Monospace" font-size="14.00"> ExposureCatalog</text>
</g>
<!-- updateVisitSummary:2&#45;&gt;finalVisitSummary:0 -->
<g id="edge9" class="edge">
<title>updateVisitSummary:2&#45;&gt;finalVisitSummary:0</title>
<path fill="none" stroke="black" stroke-width="1.5" d="M732,-155.92C732,-155.92 732,-117.19 732,-117.19"/>
<polygon fill="black" stroke="black" stroke-width="1.5" points="737.25,-117.19 732,-102.19 726.75,-117.2 737.25,-117.19"/>
</g>
<!-- visitSummary:0 -->
<g id="node7" class="node">
<title>visitSummary:0</title>
<path fill="#f5f5f5" stroke="#00babc" stroke-width="3" d="M1154.5,-414C1154.5,-414 887.5,-414 887.5,-414 881.5,-414 875.5,-408 875.5,-402 875.5,-402 875.5,-324 875.5,-324 875.5,-318 881.5,-312 887.5,-312 887.5,-312 1154.5,-312 1154.5,-312 1160.5,-312 1166.5,-318 1166.5,-324 1166.5,-324 1166.5,-402 1166.5,-402 1166.5,-408 1160.5,-414 1154.5,-414"/>
<text text-anchor="start" x="897" y="-386.6" font-family="Monospace" font-weight="bold" font-size="18.00">visitSummary</text>
<text text-anchor="start" x="897" y="-357.8" font-family="Monospace" font-style="italic" font-size="14.00">dimensions:</text>
<text text-anchor="start" x="988" y="-357.8" font-family="Monospace" font-size="14.00"> {visit}</text>
<text text-anchor="start" x="897" y="-330.8" font-family="Monospace" font-style="italic" font-size="14.00">storage class:</text>
<text text-anchor="start" x="1013" y="-330.8" font-family="Monospace" font-size="14.00"> ExposureCatalog</text>
</g>
<!-- visitSummary:0&#45;&gt;updateVisitSummary:2 -->
<g id="edge10" class="edge">
<title>visitSummary:0&#45;&gt;updateVisitSummary:2</title>
<path fill="none" stroke="black" stroke-width="1.5" d="M934,-311.92C934,-311.92 934,-273.19 934,-273.19"/>
<polygon fill="black" stroke="black" stroke-width="1.5" points="939.25,-273.19 934,-258.19 928.75,-273.2 939.25,-273.19"/>
</g>
<!-- skyMap:0 -->
<g id="node8" class="node">
<title>skyMap:0</title>
<path fill="#f5f5f5" stroke="#00babc" stroke-width="3" d="M1407,-414C1407,-414 1215,-414 1215,-414 1209,-414 1203,-408 1203,-402 1203,-402 1203,-324 1203,-324 1203,-318 1209,-312 1215,-312 1215,-312 1407,-312 1407,-312 1413,-312 1419,-318 1419,-324 1419,-324 1419,-402 1419,-402 1419,-408 1413,-414 1407,-414"/>
<text text-anchor="start" x="1224" y="-386.6" font-family="Monospace" font-weight="bold" font-size="18.00">skyMap</text>
<text text-anchor="start" x="1224" y="-357.8" font-family="Monospace" font-style="italic" font-size="14.00">dimensions:</text>
<text text-anchor="start" x="1315" y="-357.8" font-family="Monospace" font-size="14.00"> {skymap}</text>
<text text-anchor="start" x="1224" y="-330.8" font-family="Monospace" font-style="italic" font-size="14.00">storage class:</text>
<text text-anchor="start" x="1340" y="-330.8" font-family="Monospace" font-size="14.00"> SkyMap</text>
</g>
<!-- skyMap:0&#45;&gt;updateVisitSummary:2 -->
<g id="edge11" class="edge">
<title>skyMap:0&#45;&gt;updateVisitSummary:2</title>
<path fill="none" stroke="black" stroke-width="1.5" d="M1311,-311.92C1311,-266.42 1311,-207 1311,-207 1311,-207 1007.71,-207 1007.71,-207"/>
<polygon fill="black" stroke="black" stroke-width="1.5" points="1007.71,-201.75 992.71,-207 1007.71,-212.25 1007.71,-201.75"/>
</g>
<!-- 2e69bcb2:0 -->
<g id="node10" class="node">
<title>2e69bcb2:0</title>
<path fill="#f5f5f5" stroke="#00babc" stroke-width="3" d="M605.5,-758C605.5,-758 330.5,-758 330.5,-758 324.5,-758 318.5,-752 318.5,-746 318.5,-746 318.5,-636 318.5,-636 318.5,-630 324.5,-624 330.5,-624 330.5,-624 605.5,-624 605.5,-624 611.5,-624 617.5,-630 617.5,-636 617.5,-636 617.5,-746 617.5,-746 617.5,-752 611.5,-758 605.5,-758"/>
<text text-anchor="start" x="340" y="-730.6" font-family="Monospace" font-weight="bold" font-size="18.00">isolated_star_sources</text>
<text text-anchor="start" x="340" y="-698.6" font-family="Monospace" font-weight="bold" font-size="18.00">isolated_star_cat</text>
<text text-anchor="start" x="340" y="-669.8" font-family="Monospace" font-style="italic" font-size="14.00">dimensions:</text>
<text text-anchor="start" x="431" y="-669.8" font-family="Monospace" font-size="14.00"> {instrument, tract}</text>
<text text-anchor="start" x="340" y="-642.8" font-family="Monospace" font-style="italic" font-size="14.00">storage class:</text>
<text text-anchor="start" x="456" y="-642.8" font-family="Monospace" font-size="14.00"> DataFrame</text>
</g>
<!-- 2e69bcb2:0&#45;&gt;finalizeCharacterization:2 -->
<g id="edge12" class="edge">
<title>2e69bcb2:0&#45;&gt;finalizeCharacterization:2</title>
<path fill="none" stroke="black" stroke-width="1.5" d="M468,-623.51C468,-623.51 468,-585.07 468,-585.07"/>
<polygon fill="black" stroke="black" stroke-width="1.5" points="473.25,-585.07 468,-570.07 462.75,-585.07 473.25,-585.07"/>
</g>
</g>
</svg>
