<?xml version="1.0" encoding="UTF-8" standalone="no"?>
<!DOCTYPE svg PUBLIC "-//W3C//DTD SVG 1.1//EN"
 "http://www.w3.org/Graphics/SVG/1.1/DTD/svg11.dtd">
<!-- Generated by graphviz version 2.44.0 (0)
 -->
<!-- Title: Pipeline Pages: 1 -->
<svg width="1520pt" height="422pt"
 viewBox="0.00 0.00 1520.00 422.00" xmlns="http://www.w3.org/2000/svg" xmlns:xlink="http://www.w3.org/1999/xlink">
<g id="graph0" class="graph" transform="scale(1 1) rotate(0) translate(4 418)">
<title>Pipeline</title>
<polygon fill="white" stroke="transparent" points="-4,4 -4,-418 1516,-418 1516,4 -4,4"/>
<!-- forcedPhotCcdOnDiaObjects:2 -->
<g id="node1" class="node">
<title>forcedPhotCcdOnDiaObjects:2</title>
<polygon fill="#b1f2ef" stroke="black" stroke-width="3" points="738.5,-258 209.5,-258 209.5,-156 738.5,-156 738.5,-258"/>
<text text-anchor="start" x="231" y="-230.6" font-family="Monospace" font-weight="bold" font-size="18.00">forcedPhotCcdOnDiaObjects</text>
<text text-anchor="start" x="231" y="-200.8" font-family="Monospace" font-size="14.00">lsst.meas.base.forcedPhotCcd.ForcedPhotCcdFromDataFrameTask</text>
<text text-anchor="start" x="231" y="-174.8" font-family="Monospace" font-style="italic" font-size="14.00">dimensions:</text>
<text text-anchor="start" x="322" y="-174.8" font-family="Monospace" font-size="14.00"> {detector, tract, visit}</text>
</g>
<!-- forced_src_diaObject:0 -->
<g id="node6" class="node">
<title>forced_src_diaObject:0</title>
<path fill="#f5f5f5" stroke="#00babc" stroke-width="3" d="M632,-102C632,-102 316,-102 316,-102 310,-102 304,-96 304,-90 304,-90 304,-12 304,-12 304,-6 310,0 316,0 316,0 632,0 632,0 638,0 644,-6 644,-12 644,-12 644,-90 644,-90 644,-96 638,-102 632,-102"/>
<text text-anchor="start" x="325" y="-74.6" font-family="Monospace" font-weight="bold" font-size="18.00">forced_src_diaObject</text>
<text text-anchor="start" x="325" y="-45.8" font-family="Monospace" font-style="italic" font-size="14.00">dimensions:</text>
<text text-anchor="start" x="416" y="-45.8" font-family="Monospace" font-size="14.00"> {detector, tract, visit}</text>
<text text-anchor="start" x="325" y="-18.8" font-family="Monospace" font-style="italic" font-size="14.00">storage class:</text>
<text text-anchor="start" x="441" y="-18.8" font-family="Monospace" font-size="14.00"> SourceCatalog</text>
</g>
<!-- forcedPhotCcdOnDiaObjects:2&#45;&gt;forced_src_diaObject:0 -->
<g id="edge1" class="edge">
<title>forcedPhotCcdOnDiaObjects:2&#45;&gt;forced_src_diaObject:0</title>
<path fill="none" stroke="black" stroke-width="1.5" d="M474,-155.92C474,-155.92 474,-117.19 474,-117.19"/>
<polygon fill="black" stroke="black" stroke-width="1.5" points="479.25,-117.19 474,-102.19 468.75,-117.2 479.25,-117.19"/>
</g>
<!-- deepDiff_fullDiaObjTable:0 -->
<g id="node2" class="node">
<title>deepDiff_fullDiaObjTable:0</title>
<path fill="#f5f5f5" stroke="#00babc" stroke-width="3" d="M601.5,-414C601.5,-414 330.5,-414 330.5,-414 324.5,-414 318.5,-408 318.5,-402 318.5,-402 318.5,-324 318.5,-324 318.5,-318 324.5,-312 330.5,-312 330.5,-312 601.5,-312 601.5,-312 607.5,-312 613.5,-318 613.5,-324 613.5,-324 613.5,-402 613.5,-402 613.5,-408 607.5,-414 601.5,-414"/>
<text text-anchor="start" x="340" y="-386.6" font-family="Monospace" font-weight="bold" font-size="18.00">deepDiff_fullDiaObjTable</text>
<text text-anchor="start" x="340" y="-357.8" font-family="Monospace" font-style="italic" font-size="14.00">dimensions:</text>
<text text-anchor="start" x="431" y="-357.8" font-family="Monospace" font-size="14.00"> {patch}</text>
<text text-anchor="start" x="340" y="-330.8" font-family="Monospace" font-style="italic" font-size="14.00">storage class:</text>
<text text-anchor="start" x="456" y="-330.8" font-family="Monospace" font-size="14.00"> DataFrame</text>
</g>
<!-- deepDiff_fullDiaObjTable:0&#45;&gt;forcedPhotCcdOnDiaObjects:2 -->
<g id="edge2" class="edge">
<title>deepDiff_fullDiaObjTable:0&#45;&gt;forcedPhotCcdOnDiaObjects:2</title>
<path fill="none" stroke="black" stroke-width="1.5" d="M416.83,-311.92C416.83,-311.92 416.83,-273.19 416.83,-273.19"/>
<polygon fill="black" stroke="black" stroke-width="1.5" points="422.08,-273.19 416.83,-258.19 411.58,-273.2 422.08,-273.19"/>
</g>
<!-- forcedPhotDiffOnDiaObjects:2 -->
<g id="node7" class="node">
<title>forcedPhotDiffOnDiaObjects:2</title>
<polygon fill="#b1f2ef" stroke="black" stroke-width="3" points="1307.5,-258 778.5,-258 778.5,-156 1307.5,-156 1307.5,-258"/>
<text text-anchor="start" x="800" y="-230.6" font-family="Monospace" font-weight="bold" font-size="18.00">forcedPhotDiffOnDiaObjects</text>
<text text-anchor="start" x="800" y="-200.8" font-family="Monospace" font-size="14.00">lsst.meas.base.forcedPhotCcd.ForcedPhotCcdFromDataFrameTask</text>
<text text-anchor="start" x="800" y="-174.8" font-family="Monospace" font-style="italic" font-size="14.00">dimensions:</text>
<text text-anchor="start" x="891" y="-174.8" font-family="Monospace" font-size="14.00"> {detector, tract, visit}</text>
</g>
<!-- deepDiff_fullDiaObjTable:0&#45;&gt;forcedPhotDiffOnDiaObjects:2 -->
<g id="edge3" class="edge">
<title>deepDiff_fullDiaObjTable:0&#45;&gt;forcedPhotDiffOnDiaObjects:2</title>
<path fill="none" stroke="black" stroke-width="1.5" d="M515.17,-311.77C515.17,-301.61 515.17,-294 515.17,-294 515.17,-294 807.67,-294 807.67,-294 807.67,-294 807.67,-273.11 807.67,-273.11"/>
<polygon fill="black" stroke="black" stroke-width="1.5" points="812.92,-273.11 807.67,-258.11 802.42,-273.11 812.92,-273.11"/>
</g>
<!-- skyMap:0 -->
<g id="node3" class="node">
<title>skyMap:0</title>
<path fill="#f5f5f5" stroke="#00babc" stroke-width="3" d="M854,-414C854,-414 662,-414 662,-414 656,-414 650,-408 650,-402 650,-402 650,-324 650,-324 650,-318 656,-312 662,-312 662,-312 854,-312 854,-312 860,-312 866,-318 866,-324 866,-324 866,-402 866,-402 866,-408 860,-414 854,-414"/>
<text text-anchor="start" x="671" y="-386.6" font-family="Monospace" font-weight="bold" font-size="18.00">skyMap</text>
<text text-anchor="start" x="671" y="-357.8" font-family="Monospace" font-style="italic" font-size="14.00">dimensions:</text>
<text text-anchor="start" x="762" y="-357.8" font-family="Monospace" font-size="14.00"> {skymap}</text>
<text text-anchor="start" x="671" y="-330.8" font-family="Monospace" font-style="italic" font-size="14.00">storage class:</text>
<text text-anchor="start" x="787" y="-330.8" font-family="Monospace" font-size="14.00"> SkyMap</text>
</g>
<!-- skyMap:0&#45;&gt;forcedPhotCcdOnDiaObjects:2 -->
<g id="edge4" class="edge">
<title>skyMap:0&#45;&gt;forcedPhotCcdOnDiaObjects:2</title>
<path fill="none" stroke="black" stroke-width="1.5" d="M679.5,-311.92C679.5,-311.92 679.5,-273.19 679.5,-273.19"/>
<polygon fill="black" stroke="black" stroke-width="1.5" points="684.75,-273.19 679.5,-258.19 674.25,-273.2 684.75,-273.19"/>
</g>
<!-- skyMap:0&#45;&gt;forcedPhotDiffOnDiaObjects:2 -->
<g id="edge5" class="edge">
<title>skyMap:0&#45;&gt;forcedPhotDiffOnDiaObjects:2</title>
<path fill="none" stroke="black" stroke-width="1.5" d="M836.83,-311.92C836.83,-311.92 836.83,-273.19 836.83,-273.19"/>
<polygon fill="black" stroke="black" stroke-width="1.5" points="842.08,-273.19 836.83,-258.19 831.58,-273.2 842.08,-273.19"/>
</g>
<!-- finalVisitSummary:0 -->
<g id="node4" class="node">
<title>finalVisitSummary:0</title>
<path fill="#f5f5f5" stroke="#00babc" stroke-width="3" d="M1181.5,-414C1181.5,-414 914.5,-414 914.5,-414 908.5,-414 902.5,-408 902.5,-402 902.5,-402 902.5,-324 902.5,-324 902.5,-318 908.5,-312 914.5,-312 914.5,-312 1181.5,-312 1181.5,-312 1187.5,-312 1193.5,-318 1193.5,-324 1193.5,-324 1193.5,-402 1193.5,-402 1193.5,-408 1187.5,-414 1181.5,-414"/>
<text text-anchor="start" x="924" y="-386.6" font-family="Monospace" font-weight="bold" font-size="18.00">finalVisitSummary</text>
<text text-anchor="start" x="924" y="-357.8" font-family="Monospace" font-style="italic" font-size="14.00">dimensions:</text>
<text text-anchor="start" x="1015" y="-357.8" font-family="Monospace" font-size="14.00"> {visit}</text>
<text text-anchor="start" x="924" y="-330.8" font-family="Monospace" font-style="italic" font-size="14.00">storage class:</text>
<text text-anchor="start" x="1040" y="-330.8" font-family="Monospace" font-size="14.00"> ExposureCatalog</text>
</g>
<!-- finalVisitSummary:0&#45;&gt;forcedPhotCcdOnDiaObjects:2 -->
<g id="edge6" class="edge">
<title>finalVisitSummary:0&#45;&gt;forcedPhotCcdOnDiaObjects:2</title>
<path fill="none" stroke="black" stroke-width="1.5" d="M999.5,-311.89C999.5,-292.95 999.5,-276 999.5,-276 999.5,-276 709,-276 709,-276 709,-276 709,-273.23 709,-273.23"/>
<polygon fill="black" stroke="black" stroke-width="1.5" points="714.25,-273.23 709,-258.23 703.75,-273.23 714.25,-273.23"/>
</g>
<!-- finalVisitSummary:0&#45;&gt;forcedPhotDiffOnDiaObjects:2 -->
<g id="edge7" class="edge">
<title>finalVisitSummary:0&#45;&gt;forcedPhotDiffOnDiaObjects:2</title>
<path fill="none" stroke="black" stroke-width="1.5" d="M1096.5,-311.92C1096.5,-311.92 1096.5,-273.19 1096.5,-273.19"/>
<polygon fill="black" stroke="black" stroke-width="1.5" points="1101.75,-273.19 1096.5,-258.19 1091.25,-273.2 1101.75,-273.19"/>
</g>
<!-- injected_calexp:0 -->
<g id="node5" class="node">
<title>injected_calexp:0</title>
<path fill="#f5f5f5" stroke="#00babc" stroke-width="3" d="M270,-414C270,-414 12,-414 12,-414 6,-414 0,-408 0,-402 0,-402 0,-324 0,-324 0,-318 6,-312 12,-312 12,-312 270,-312 270,-312 276,-312 282,-318 282,-324 282,-324 282,-402 282,-402 282,-408 276,-414 270,-414"/>
<text text-anchor="start" x="21" y="-386.6" font-family="Monospace" font-weight="bold" font-size="18.00">injected_calexp</text>
<text text-anchor="start" x="21" y="-357.8" font-family="Monospace" font-style="italic" font-size="14.00">dimensions:</text>
<text text-anchor="start" x="112" y="-357.8" font-family="Monospace" font-size="14.00"> {detector, visit}</text>
<text text-anchor="start" x="21" y="-330.8" font-family="Monospace" font-style="italic" font-size="14.00">storage class:</text>
<text text-anchor="start" x="137" y="-330.8" font-family="Monospace" font-size="14.00"> ExposureF</text>
</g>
<!-- injected_calexp:0&#45;&gt;forcedPhotCcdOnDiaObjects:2 -->
<g id="edge8" class="edge">
<title>injected_calexp:0&#45;&gt;forcedPhotCcdOnDiaObjects:2</title>
<path fill="none" stroke="black" stroke-width="1.5" d="M245.75,-311.92C245.75,-311.92 245.75,-273.19 245.75,-273.19"/>
<polygon fill="black" stroke="black" stroke-width="1.5" points="251,-273.19 245.75,-258.19 240.5,-273.2 251,-273.19"/>
</g>
<!-- forced_diff_diaObject:0 -->
<g id="node9" class="node">
<title>forced_diff_diaObject:0</title>
<path fill="#f5f5f5" stroke="#00babc" stroke-width="3" d="M1201,-102C1201,-102 885,-102 885,-102 879,-102 873,-96 873,-90 873,-90 873,-12 873,-12 873,-6 879,0 885,0 885,0 1201,0 1201,0 1207,0 1213,-6 1213,-12 1213,-12 1213,-90 1213,-90 1213,-96 1207,-102 1201,-102"/>
<text text-anchor="start" x="894" y="-74.6" font-family="Monospace" font-weight="bold" font-size="18.00">forced_diff_diaObject</text>
<text text-anchor="start" x="894" y="-45.8" font-family="Monospace" font-style="italic" font-size="14.00">dimensions:</text>
<text text-anchor="start" x="985" y="-45.8" font-family="Monospace" font-size="14.00"> {detector, tract, visit}</text>
<text text-anchor="start" x="894" y="-18.8" font-family="Monospace" font-style="italic" font-size="14.00">storage class:</text>
<text text-anchor="start" x="1010" y="-18.8" font-family="Monospace" font-size="14.00"> SourceCatalog</text>
</g>
<!-- forcedPhotDiffOnDiaObjects:2&#45;&gt;forced_diff_diaObject:0 -->
<g id="edge9" class="edge">
<title>forcedPhotDiffOnDiaObjects:2&#45;&gt;forced_diff_diaObject:0</title>
<path fill="none" stroke="black" stroke-width="1.5" d="M1043,-155.92C1043,-155.92 1043,-117.19 1043,-117.19"/>
<polygon fill="black" stroke="black" stroke-width="1.5" points="1048.25,-117.19 1043,-102.19 1037.75,-117.2 1048.25,-117.19"/>
</g>
<!-- deepDiff_differenceExp:0 -->
<g id="node8" class="node">
<title>deepDiff_differenceExp:0</title>
<path fill="#f5f5f5" stroke="#00babc" stroke-width="3" d="M1500,-414C1500,-414 1242,-414 1242,-414 1236,-414 1230,-408 1230,-402 1230,-402 1230,-324 1230,-324 1230,-318 1236,-312 1242,-312 1242,-312 1500,-312 1500,-312 1506,-312 1512,-318 1512,-324 1512,-324 1512,-402 1512,-402 1512,-408 1506,-414 1500,-414"/>
<text text-anchor="start" x="1251" y="-386.6" font-family="Monospace" font-weight="bold" font-size="18.00">deepDiff_differenceExp</text>
<text text-anchor="start" x="1251" y="-357.8" font-family="Monospace" font-style="italic" font-size="14.00">dimensions:</text>
<text text-anchor="start" x="1342" y="-357.8" font-family="Monospace" font-size="14.00"> {detector, visit}</text>
<text text-anchor="start" x="1251" y="-330.8" font-family="Monospace" font-style="italic" font-size="14.00">storage class:</text>
<text text-anchor="start" x="1367" y="-330.8" font-family="Monospace" font-size="14.00"> ExposureF</text>
</g>
<!-- deepDiff_differenceExp:0&#45;&gt;forcedPhotDiffOnDiaObjects:2 -->
<g id="edge10" class="edge">
<title>deepDiff_differenceExp:0&#45;&gt;forcedPhotDiffOnDiaObjects:2</title>
<path fill="none" stroke="black" stroke-width="1.5" d="M1268.75,-311.92C1268.75,-311.92 1268.75,-273.19 1268.75,-273.19"/>
<polygon fill="black" stroke="black" stroke-width="1.5" points="1274,-273.19 1268.75,-258.19 1263.5,-273.2 1274,-273.19"/>
</g>
</g>
</svg>
