<?xml version="1.0" encoding="UTF-8" standalone="no"?>
<!DOCTYPE svg PUBLIC "-//W3C//DTD SVG 1.1//EN"
 "http://www.w3.org/Graphics/SVG/1.1/DTD/svg11.dtd">
<!-- Generated by graphviz version 2.44.0 (0)
 -->
<!-- Title: Pipeline Pages: 1 -->
<svg width="1519pt" height="422pt"
 viewBox="0.00 0.00 1519.00 422.00" xmlns="http://www.w3.org/2000/svg" xmlns:xlink="http://www.w3.org/1999/xlink">
<g id="graph0" class="graph" transform="scale(1 1) rotate(0) translate(4 418)">
<title>Pipeline</title>
<polygon fill="white" stroke="transparent" points="-4,4 -4,-418 1515,-418 1515,4 -4,4"/>
<!-- forcedPhotCcdOnDiaObjects:2 -->
<g id="node1" class="node">
<title>forcedPhotCcdOnDiaObjects:2</title>
<polygon fill="#b1f2ef" stroke="black" stroke-width="3" points="717.5,-258 188.5,-258 188.5,-156 717.5,-156 717.5,-258"/>
<text text-anchor="start" x="210" y="-230.6" font-family="Monospace" font-weight="bold" font-size="18.00">forcedPhotCcdOnDiaObjects</text>
<text text-anchor="start" x="210" y="-200.8" font-family="Monospace" font-size="14.00">lsst.meas.base.forcedPhotCcd.ForcedPhotCcdFromDataFrameTask</text>
<text text-anchor="start" x="210" y="-174.8" font-family="Monospace" font-style="italic" font-size="14.00">dimensions:</text>
<text text-anchor="start" x="301" y="-174.8" font-family="Monospace" font-size="14.00"> {detector, tract, visit}</text>
</g>
<!-- forced_src_diaObject:0 -->
<g id="node6" class="node">
<title>forced_src_diaObject:0</title>
<path fill="#f5f5f5" stroke="#00babc" stroke-width="3" d="M611,-102C611,-102 295,-102 295,-102 289,-102 283,-96 283,-90 283,-90 283,-12 283,-12 283,-6 289,0 295,0 295,0 611,0 611,0 617,0 623,-6 623,-12 623,-12 623,-90 623,-90 623,-96 617,-102 611,-102"/>
<text text-anchor="start" x="304" y="-74.6" font-family="Monospace" font-weight="bold" font-size="18.00">forced_src_diaObject</text>
<text text-anchor="start" x="304" y="-45.8" font-family="Monospace" font-style="italic" font-size="14.00">dimensions:</text>
<text text-anchor="start" x="395" y="-45.8" font-family="Monospace" font-size="14.00"> {detector, tract, visit}</text>
<text text-anchor="start" x="304" y="-18.8" font-family="Monospace" font-style="italic" font-size="14.00">storage class:</text>
<text text-anchor="start" x="420" y="-18.8" font-family="Monospace" font-size="14.00"> SourceCatalog</text>
</g>
<!-- forcedPhotCcdOnDiaObjects:2&#45;&gt;forced_src_diaObject:0 -->
<g id="edge1" class="edge">
<title>forcedPhotCcdOnDiaObjects:2&#45;&gt;forced_src_diaObject:0</title>
<path fill="none" stroke="black" stroke-width="1.5" d="M453,-155.92C453,-155.92 453,-117.19 453,-117.19"/>
<polygon fill="black" stroke="black" stroke-width="1.5" points="458.25,-117.19 453,-102.19 447.75,-117.2 458.25,-117.19"/>
</g>
<!-- skyMap:0 -->
<g id="node2" class="node">
<title>skyMap:0</title>
<path fill="#f5f5f5" stroke="#00babc" stroke-width="3" d="M522,-414C522,-414 330,-414 330,-414 324,-414 318,-408 318,-402 318,-402 318,-324 318,-324 318,-318 324,-312 330,-312 330,-312 522,-312 522,-312 528,-312 534,-318 534,-324 534,-324 534,-402 534,-402 534,-408 528,-414 522,-414"/>
<text text-anchor="start" x="339" y="-386.6" font-family="Monospace" font-weight="bold" font-size="18.00">skyMap</text>
<text text-anchor="start" x="339" y="-357.8" font-family="Monospace" font-style="italic" font-size="14.00">dimensions:</text>
<text text-anchor="start" x="430" y="-357.8" font-family="Monospace" font-size="14.00"> {skymap}</text>
<text text-anchor="start" x="339" y="-330.8" font-family="Monospace" font-style="italic" font-size="14.00">storage class:</text>
<text text-anchor="start" x="455" y="-330.8" font-family="Monospace" font-size="14.00"> SkyMap</text>
</g>
<!-- skyMap:0&#45;&gt;forcedPhotCcdOnDiaObjects:2 -->
<g id="edge2" class="edge">
<title>skyMap:0&#45;&gt;forcedPhotCcdOnDiaObjects:2</title>
<path fill="none" stroke="black" stroke-width="1.5" d="M390,-311.92C390,-311.92 390,-273.19 390,-273.19"/>
<polygon fill="black" stroke="black" stroke-width="1.5" points="395.25,-273.19 390,-258.19 384.75,-273.2 395.25,-273.19"/>
</g>
<!-- forcedPhotDiffOnDiaObjects:2 -->
<g id="node7" class="node">
<title>forcedPhotDiffOnDiaObjects:2</title>
<polygon fill="#b1f2ef" stroke="black" stroke-width="3" points="1295.5,-258 766.5,-258 766.5,-156 1295.5,-156 1295.5,-258"/>
<text text-anchor="start" x="788" y="-230.6" font-family="Monospace" font-weight="bold" font-size="18.00">forcedPhotDiffOnDiaObjects</text>
<text text-anchor="start" x="788" y="-200.8" font-family="Monospace" font-size="14.00">lsst.meas.base.forcedPhotCcd.ForcedPhotCcdFromDataFrameTask</text>
<text text-anchor="start" x="788" y="-174.8" font-family="Monospace" font-style="italic" font-size="14.00">dimensions:</text>
<text text-anchor="start" x="879" y="-174.8" font-family="Monospace" font-size="14.00"> {detector, tract, visit}</text>
</g>
<!-- skyMap:0&#45;&gt;forcedPhotDiffOnDiaObjects:2 -->
<g id="edge3" class="edge">
<title>skyMap:0&#45;&gt;forcedPhotDiffOnDiaObjects:2</title>
<path fill="none" stroke="black" stroke-width="1.5" d="M462,-311.77C462,-301.61 462,-294 462,-294 462,-294 798.17,-294 798.17,-294 798.17,-294 798.17,-273.11 798.17,-273.11"/>
<polygon fill="black" stroke="black" stroke-width="1.5" points="803.42,-273.11 798.17,-258.11 792.92,-273.11 803.42,-273.11"/>
</g>
<!-- finalVisitSummary:0 -->
<g id="node3" class="node">
<title>finalVisitSummary:0</title>
<path fill="#f5f5f5" stroke="#00babc" stroke-width="3" d="M849.5,-414C849.5,-414 582.5,-414 582.5,-414 576.5,-414 570.5,-408 570.5,-402 570.5,-402 570.5,-324 570.5,-324 570.5,-318 576.5,-312 582.5,-312 582.5,-312 849.5,-312 849.5,-312 855.5,-312 861.5,-318 861.5,-324 861.5,-324 861.5,-402 861.5,-402 861.5,-408 855.5,-414 849.5,-414"/>
<text text-anchor="start" x="592" y="-386.6" font-family="Monospace" font-weight="bold" font-size="18.00">finalVisitSummary</text>
<text text-anchor="start" x="592" y="-357.8" font-family="Monospace" font-style="italic" font-size="14.00">dimensions:</text>
<text text-anchor="start" x="683" y="-357.8" font-family="Monospace" font-size="14.00"> {visit}</text>
<text text-anchor="start" x="592" y="-330.8" font-family="Monospace" font-style="italic" font-size="14.00">storage class:</text>
<text text-anchor="start" x="708" y="-330.8" font-family="Monospace" font-size="14.00"> ExposureCatalog</text>
</g>
<!-- finalVisitSummary:0&#45;&gt;forcedPhotCcdOnDiaObjects:2 -->
<g id="edge4" class="edge">
<title>finalVisitSummary:0&#45;&gt;forcedPhotCcdOnDiaObjects:2</title>
<path fill="none" stroke="black" stroke-width="1.5" d="M619.5,-311.92C619.5,-311.92 619.5,-273.19 619.5,-273.19"/>
<polygon fill="black" stroke="black" stroke-width="1.5" points="624.75,-273.19 619.5,-258.19 614.25,-273.2 624.75,-273.19"/>
</g>
<!-- finalVisitSummary:0&#45;&gt;forcedPhotDiffOnDiaObjects:2 -->
<g id="edge5" class="edge">
<title>finalVisitSummary:0&#45;&gt;forcedPhotDiffOnDiaObjects:2</title>
<path fill="none" stroke="black" stroke-width="1.5" d="M829.83,-311.92C829.83,-311.92 829.83,-273.19 829.83,-273.19"/>
<polygon fill="black" stroke="black" stroke-width="1.5" points="835.08,-273.19 829.83,-258.19 824.58,-273.2 835.08,-273.19"/>
</g>
<!-- injected_calexp:0 -->
<g id="node4" class="node">
<title>injected_calexp:0</title>
<path fill="#f5f5f5" stroke="#00babc" stroke-width="3" d="M270,-414C270,-414 12,-414 12,-414 6,-414 0,-408 0,-402 0,-402 0,-324 0,-324 0,-318 6,-312 12,-312 12,-312 270,-312 270,-312 276,-312 282,-318 282,-324 282,-324 282,-402 282,-402 282,-408 276,-414 270,-414"/>
<text text-anchor="start" x="21" y="-386.6" font-family="Monospace" font-weight="bold" font-size="18.00">injected_calexp</text>
<text text-anchor="start" x="21" y="-357.8" font-family="Monospace" font-style="italic" font-size="14.00">dimensions:</text>
<text text-anchor="start" x="112" y="-357.8" font-family="Monospace" font-size="14.00"> {detector, visit}</text>
<text text-anchor="start" x="21" y="-330.8" font-family="Monospace" font-style="italic" font-size="14.00">storage class:</text>
<text text-anchor="start" x="137" y="-330.8" font-family="Monospace" font-size="14.00"> ExposureF</text>
</g>
<!-- injected_calexp:0&#45;&gt;forcedPhotCcdOnDiaObjects:2 -->
<g id="edge6" class="edge">
<title>injected_calexp:0&#45;&gt;forcedPhotCcdOnDiaObjects:2</title>
<path fill="none" stroke="black" stroke-width="1.5" d="M235.25,-311.92C235.25,-311.92 235.25,-273.19 235.25,-273.19"/>
<polygon fill="black" stroke="black" stroke-width="1.5" points="240.5,-273.19 235.25,-258.19 230,-273.2 240.5,-273.19"/>
</g>
<!-- deepDiff_fullDiaObjTable:0 -->
<g id="node5" class="node">
<title>deepDiff_fullDiaObjTable:0</title>
<path fill="#f5f5f5" stroke="#00babc" stroke-width="3" d="M1180.5,-414C1180.5,-414 909.5,-414 909.5,-414 903.5,-414 897.5,-408 897.5,-402 897.5,-402 897.5,-324 897.5,-324 897.5,-318 903.5,-312 909.5,-312 909.5,-312 1180.5,-312 1180.5,-312 1186.5,-312 1192.5,-318 1192.5,-324 1192.5,-324 1192.5,-402 1192.5,-402 1192.5,-408 1186.5,-414 1180.5,-414"/>
<text text-anchor="start" x="919" y="-386.6" font-family="Monospace" font-weight="bold" font-size="18.00">deepDiff_fullDiaObjTable</text>
<text text-anchor="start" x="919" y="-357.8" font-family="Monospace" font-style="italic" font-size="14.00">dimensions:</text>
<text text-anchor="start" x="1010" y="-357.8" font-family="Monospace" font-size="14.00"> {patch}</text>
<text text-anchor="start" x="919" y="-330.8" font-family="Monospace" font-style="italic" font-size="14.00">storage class:</text>
<text text-anchor="start" x="1035" y="-330.8" font-family="Monospace" font-size="14.00"> DataFrame</text>
</g>
<!-- deepDiff_fullDiaObjTable:0&#45;&gt;forcedPhotCcdOnDiaObjects:2 -->
<g id="edge7" class="edge">
<title>deepDiff_fullDiaObjTable:0&#45;&gt;forcedPhotCcdOnDiaObjects:2</title>
<path fill="none" stroke="black" stroke-width="1.5" d="M995.83,-311.89C995.83,-292.95 995.83,-276 995.83,-276 995.83,-276 668.5,-276 668.5,-276 668.5,-276 668.5,-273.23 668.5,-273.23"/>
<polygon fill="black" stroke="black" stroke-width="1.5" points="673.75,-273.23 668.5,-258.23 663.25,-273.23 673.75,-273.23"/>
</g>
<!-- deepDiff_fullDiaObjTable:0&#45;&gt;forcedPhotDiffOnDiaObjects:2 -->
<g id="edge8" class="edge">
<title>deepDiff_fullDiaObjTable:0&#45;&gt;forcedPhotDiffOnDiaObjects:2</title>
<path fill="none" stroke="black" stroke-width="1.5" d="M1094.17,-311.92C1094.17,-311.92 1094.17,-273.19 1094.17,-273.19"/>
<polygon fill="black" stroke="black" stroke-width="1.5" points="1099.42,-273.19 1094.17,-258.19 1088.92,-273.2 1099.42,-273.19"/>
</g>
<!-- forced_diff_diaObject:0 -->
<g id="node9" class="node">
<title>forced_diff_diaObject:0</title>
<path fill="#f5f5f5" stroke="#00babc" stroke-width="3" d="M1189,-102C1189,-102 873,-102 873,-102 867,-102 861,-96 861,-90 861,-90 861,-12 861,-12 861,-6 867,0 873,0 873,0 1189,0 1189,0 1195,0 1201,-6 1201,-12 1201,-12 1201,-90 1201,-90 1201,-96 1195,-102 1189,-102"/>
<text text-anchor="start" x="882" y="-74.6" font-family="Monospace" font-weight="bold" font-size="18.00">forced_diff_diaObject</text>
<text text-anchor="start" x="882" y="-45.8" font-family="Monospace" font-style="italic" font-size="14.00">dimensions:</text>
<text text-anchor="start" x="973" y="-45.8" font-family="Monospace" font-size="14.00"> {detector, tract, visit}</text>
<text text-anchor="start" x="882" y="-18.8" font-family="Monospace" font-style="italic" font-size="14.00">storage class:</text>
<text text-anchor="start" x="998" y="-18.8" font-family="Monospace" font-size="14.00"> SourceCatalog</text>
</g>
<!-- forcedPhotDiffOnDiaObjects:2&#45;&gt;forced_diff_diaObject:0 -->
<g id="edge9" class="edge">
<title>forcedPhotDiffOnDiaObjects:2&#45;&gt;forced_diff_diaObject:0</title>
<path fill="none" stroke="black" stroke-width="1.5" d="M1031,-155.92C1031,-155.92 1031,-117.19 1031,-117.19"/>
<polygon fill="black" stroke="black" stroke-width="1.5" points="1036.25,-117.19 1031,-102.19 1025.75,-117.2 1036.25,-117.19"/>
</g>
<!-- deepDiff_differenceExp:0 -->
<g id="node8" class="node">
<title>deepDiff_differenceExp:0</title>
<path fill="#f5f5f5" stroke="#00babc" stroke-width="3" d="M1499,-414C1499,-414 1241,-414 1241,-414 1235,-414 1229,-408 1229,-402 1229,-402 1229,-324 1229,-324 1229,-318 1235,-312 1241,-312 1241,-312 1499,-312 1499,-312 1505,-312 1511,-318 1511,-324 1511,-324 1511,-402 1511,-402 1511,-408 1505,-414 1499,-414"/>
<text text-anchor="start" x="1250" y="-386.6" font-family="Monospace" font-weight="bold" font-size="18.00">deepDiff_differenceExp</text>
<text text-anchor="start" x="1250" y="-357.8" font-family="Monospace" font-style="italic" font-size="14.00">dimensions:</text>
<text text-anchor="start" x="1341" y="-357.8" font-family="Monospace" font-size="14.00"> {detector, visit}</text>
<text text-anchor="start" x="1250" y="-330.8" font-family="Monospace" font-style="italic" font-size="14.00">storage class:</text>
<text text-anchor="start" x="1366" y="-330.8" font-family="Monospace" font-size="14.00"> ExposureF</text>
</g>
<!-- deepDiff_differenceExp:0&#45;&gt;forcedPhotDiffOnDiaObjects:2 -->
<g id="edge10" class="edge">
<title>deepDiff_differenceExp:0&#45;&gt;forcedPhotDiffOnDiaObjects:2</title>
<path fill="none" stroke="black" stroke-width="1.5" d="M1262.25,-311.92C1262.25,-311.92 1262.25,-273.19 1262.25,-273.19"/>
<polygon fill="black" stroke="black" stroke-width="1.5" points="1267.5,-273.19 1262.25,-258.19 1257,-273.2 1267.5,-273.19"/>
</g>
</g>
</svg>
