<?xml version="1.0" encoding="UTF-8" standalone="no"?>
<!DOCTYPE svg PUBLIC "-//W3C//DTD SVG 1.1//EN"
 "http://www.w3.org/Graphics/SVG/1.1/DTD/svg11.dtd">
<!-- Generated by graphviz version 2.44.0 (0)
 -->
<!-- Title: Pipeline Pages: 1 -->
<svg width="496pt" height="422pt"
 viewBox="0.00 0.00 496.00 422.00" xmlns="http://www.w3.org/2000/svg" xmlns:xlink="http://www.w3.org/1999/xlink">
<g id="graph0" class="graph" transform="scale(1 1) rotate(0) translate(4 418)">
<title>Pipeline</title>
<polygon fill="white" stroke="transparent" points="-4,4 -4,-418 492,-418 492,4 -4,4"/>
<!-- consolidateObjectTable:2 -->
<g id="node1" class="node">
<title>consolidateObjectTable:2</title>
<polygon fill="#b1f2ef" stroke="black" stroke-width="3" points="488,-258 0,-258 0,-156 488,-156 488,-258"/>
<text text-anchor="start" x="21" y="-230.6" font-family="Monospace" font-weight="bold" font-size="18.00">consolidateObjectTable</text>
<text text-anchor="start" x="21" y="-200.8" font-family="Monospace" font-size="14.00">lsst.pipe.tasks.postprocess.ConsolidateObjectTableTask</text>
<text text-anchor="start" x="21" y="-174.8" font-family="Monospace" font-style="italic" font-size="14.00">dimensions:</text>
<text text-anchor="start" x="112" y="-174.8" font-family="Monospace" font-size="14.00"> {tract}</text>
</g>
<!-- objectTable_tract:0 -->
<g id="node3" class="node">
<title>objectTable_tract:0</title>
<path fill="#f5f5f5" stroke="#00babc" stroke-width="3" d="M352.5,-102C352.5,-102 135.5,-102 135.5,-102 129.5,-102 123.5,-96 123.5,-90 123.5,-90 123.5,-12 123.5,-12 123.5,-6 129.5,0 135.5,0 135.5,0 352.5,0 352.5,0 358.5,0 364.5,-6 364.5,-12 364.5,-12 364.5,-90 364.5,-90 364.5,-96 358.5,-102 352.5,-102"/>
<text text-anchor="start" x="145" y="-74.6" font-family="Monospace" font-weight="bold" font-size="18.00">objectTable_tract</text>
<text text-anchor="start" x="145" y="-45.8" font-family="Monospace" font-style="italic" font-size="14.00">dimensions:</text>
<text text-anchor="start" x="236" y="-45.8" font-family="Monospace" font-size="14.00"> {tract}</text>
<text text-anchor="start" x="145" y="-18.8" font-family="Monospace" font-style="italic" font-size="14.00">storage class:</text>
<text text-anchor="start" x="261" y="-18.8" font-family="Monospace" font-size="14.00"> DataFrame</text>
</g>
<!-- consolidateObjectTable:2&#45;&gt;objectTable_tract:0 -->
<g id="edge1" class="edge">
<title>consolidateObjectTable:2&#45;&gt;objectTable_tract:0</title>
<path fill="none" stroke="black" stroke-width="1.5" d="M244,-155.92C244,-155.92 244,-117.19 244,-117.19"/>
<polygon fill="black" stroke="black" stroke-width="1.5" points="249.25,-117.19 244,-102.19 238.75,-117.2 249.25,-117.19"/>
</g>
<!-- objectTable:0 -->
<g id="node2" class="node">
<title>objectTable:0</title>
<path fill="#f5f5f5" stroke="#00babc" stroke-width="3" d="M352.5,-414C352.5,-414 135.5,-414 135.5,-414 129.5,-414 123.5,-408 123.5,-402 123.5,-402 123.5,-324 123.5,-324 123.5,-318 129.5,-312 135.5,-312 135.5,-312 352.5,-312 352.5,-312 358.5,-312 364.5,-318 364.5,-324 364.5,-324 364.5,-402 364.5,-402 364.5,-408 358.5,-414 352.5,-414"/>
<text text-anchor="start" x="145" y="-386.6" font-family="Monospace" font-weight="bold" font-size="18.00">objectTable</text>
<text text-anchor="start" x="145" y="-357.8" font-family="Monospace" font-style="italic" font-size="14.00">dimensions:</text>
<text text-anchor="start" x="236" y="-357.8" font-family="Monospace" font-size="14.00"> {patch}</text>
<text text-anchor="start" x="145" y="-330.8" font-family="Monospace" font-style="italic" font-size="14.00">storage class:</text>
<text text-anchor="start" x="261" y="-330.8" font-family="Monospace" font-size="14.00"> DataFrame</text>
</g>
<!-- objectTable:0&#45;&gt;consolidateObjectTable:2 -->
<g id="edge2" class="edge">
<title>objectTable:0&#45;&gt;consolidateObjectTable:2</title>
<path fill="none" stroke="black" stroke-width="1.5" d="M244,-311.92C244,-311.92 244,-273.19 244,-273.19"/>
<polygon fill="black" stroke="black" stroke-width="1.5" points="249.25,-273.19 244,-258.19 238.75,-273.2 249.25,-273.19"/>
</g>
</g>
</svg>
