<?xml version="1.0" encoding="UTF-8" standalone="no"?>
<!DOCTYPE svg PUBLIC "-//W3C//DTD SVG 1.1//EN"
 "http://www.w3.org/Graphics/SVG/1.1/DTD/svg11.dtd">
<!-- Generated by graphviz version 2.44.0 (0)
 -->
<!-- Title: Pipeline Pages: 1 -->
<svg width="1473pt" height="766pt"
 viewBox="0.00 0.00 1473.00 766.00" xmlns="http://www.w3.org/2000/svg" xmlns:xlink="http://www.w3.org/1999/xlink">
<g id="graph0" class="graph" transform="scale(1 1) rotate(0) translate(4 762)">
<title>Pipeline</title>
<polygon fill="white" stroke="transparent" points="-4,4 -4,-762 1469,-762 1469,4 -4,4"/>
<!-- cpFlatIsr:2 -->
<g id="node1" class="node">
<title>cpFlatIsr:2</title>
<polygon fill="#b1f2ef" stroke="black" stroke-width="3" points="857,-570 550,-570 550,-468 857,-468 857,-570"/>
<text text-anchor="start" x="571.5" y="-542.6" font-family="Monospace" font-weight="bold" font-size="18.00">cpFlatIsr</text>
<text text-anchor="start" x="571.5" y="-512.8" font-family="Monospace" font-size="14.00">lsst.ip.isr.isrTask.IsrTask</text>
<text text-anchor="start" x="571.5" y="-486.8" font-family="Monospace" font-style="italic" font-size="14.00">dimensions:</text>
<text text-anchor="start" x="662.5" y="-486.8" font-family="Monospace" font-size="14.00"> {detector, exposure}</text>
</g>
<!-- cpFlatIsrExp:0 -->
<g id="node6" class="node">
<title>cpFlatIsrExp:0</title>
<path fill="#f5f5f5" stroke="#00babc" stroke-width="3" d="M845,-414C845,-414 562,-414 562,-414 556,-414 550,-408 550,-402 550,-402 550,-324 550,-324 550,-318 556,-312 562,-312 562,-312 845,-312 845,-312 851,-312 857,-318 857,-324 857,-324 857,-402 857,-402 857,-408 851,-414 845,-414"/>
<text text-anchor="start" x="571.5" y="-386.6" font-family="Monospace" font-weight="bold" font-size="18.00">cpFlatIsrExp</text>
<text text-anchor="start" x="571.5" y="-357.8" font-family="Monospace" font-style="italic" font-size="14.00">dimensions:</text>
<text text-anchor="start" x="662.5" y="-357.8" font-family="Monospace" font-size="14.00"> {detector, exposure}</text>
<text text-anchor="start" x="571.5" y="-330.8" font-family="Monospace" font-style="italic" font-size="14.00">storage class:</text>
<text text-anchor="start" x="687.5" y="-330.8" font-family="Monospace" font-size="14.00"> Exposure</text>
</g>
<!-- cpFlatIsr:2&#45;&gt;cpFlatIsrExp:0 -->
<g id="edge1" class="edge">
<title>cpFlatIsr:2&#45;&gt;cpFlatIsrExp:0</title>
<path fill="none" stroke="black" stroke-width="1.5" d="M703.5,-467.92C703.5,-467.92 703.5,-429.19 703.5,-429.19"/>
<polygon fill="black" stroke="black" stroke-width="1.5" points="708.75,-429.19 703.5,-414.19 698.25,-429.2 708.75,-429.19"/>
</g>
<!-- linearizer:0 -->
<g id="node2" class="node">
<title>linearizer:0</title>
<path fill="#f5f5f5" stroke="#00babc" stroke-width="3" d="M237,-742C237,-742 12,-742 12,-742 6,-742 0,-736 0,-730 0,-730 0,-652 0,-652 0,-646 6,-640 12,-640 12,-640 237,-640 237,-640 243,-640 249,-646 249,-652 249,-652 249,-730 249,-730 249,-736 243,-742 237,-742"/>
<text text-anchor="start" x="21.5" y="-714.6" font-family="Monospace" font-weight="bold" font-size="18.00">linearizer</text>
<text text-anchor="start" x="21.5" y="-685.8" font-family="Monospace" font-style="italic" font-size="14.00">dimensions:</text>
<text text-anchor="start" x="112.5" y="-685.8" font-family="Monospace" font-size="14.00"> {detector}</text>
<text text-anchor="start" x="21.5" y="-658.8" font-family="Monospace" font-style="italic" font-size="14.00">storage class:</text>
<text text-anchor="start" x="137.5" y="-658.8" font-family="Monospace" font-size="14.00"> Linearizer</text>
</g>
<!-- linearizer:0&#45;&gt;cpFlatIsr:2 -->
<g id="edge2" class="edge">
<title>linearizer:0&#45;&gt;cpFlatIsr:2</title>
<path fill="none" stroke="black" stroke-width="1.5" stroke-dasharray="5,2" d="M124.5,-639.86C124.5,-589.16 124.5,-519 124.5,-519 124.5,-519 534.86,-519 534.86,-519"/>
<polygon fill="black" stroke="black" stroke-width="1.5" points="534.86,-524.25 549.86,-519 534.86,-513.75 534.86,-524.25"/>
</g>
<!-- bias:0 -->
<g id="node3" class="node">
<title>bias:0</title>
<path fill="#f5f5f5" stroke="#00babc" stroke-width="3" d="M514,-742C514,-742 297,-742 297,-742 291,-742 285,-736 285,-730 285,-730 285,-652 285,-652 285,-646 291,-640 297,-640 297,-640 514,-640 514,-640 520,-640 526,-646 526,-652 526,-652 526,-730 526,-730 526,-736 520,-742 514,-742"/>
<text text-anchor="start" x="306.5" y="-714.6" font-family="Monospace" font-weight="bold" font-size="18.00">bias</text>
<text text-anchor="start" x="306.5" y="-685.8" font-family="Monospace" font-style="italic" font-size="14.00">dimensions:</text>
<text text-anchor="start" x="397.5" y="-685.8" font-family="Monospace" font-size="14.00"> {detector}</text>
<text text-anchor="start" x="306.5" y="-658.8" font-family="Monospace" font-style="italic" font-size="14.00">storage class:</text>
<text text-anchor="start" x="422.5" y="-658.8" font-family="Monospace" font-size="14.00"> ExposureF</text>
</g>
<!-- bias:0&#45;&gt;cpFlatIsr:2 -->
<g id="edge3" class="edge">
<title>bias:0&#45;&gt;cpFlatIsr:2</title>
<path fill="none" stroke="black" stroke-width="1.5" stroke-dasharray="5,2" d="M526.11,-691C543.82,-691 556.25,-691 556.25,-691 556.25,-691 556.25,-585.14 556.25,-585.14"/>
<polygon fill="black" stroke="black" stroke-width="1.5" points="561.5,-585.14 556.25,-570.14 551,-585.14 561.5,-585.14"/>
</g>
<!-- crosstalk:0 -->
<g id="node4" class="node">
<title>crosstalk:0</title>
<path fill="#f5f5f5" stroke="#00babc" stroke-width="3" d="M832.5,-742C832.5,-742 574.5,-742 574.5,-742 568.5,-742 562.5,-736 562.5,-730 562.5,-730 562.5,-652 562.5,-652 562.5,-646 568.5,-640 574.5,-640 574.5,-640 832.5,-640 832.5,-640 838.5,-640 844.5,-646 844.5,-652 844.5,-652 844.5,-730 844.5,-730 844.5,-736 838.5,-742 832.5,-742"/>
<text text-anchor="start" x="583.5" y="-714.6" font-family="Monospace" font-weight="bold" font-size="18.00">crosstalk</text>
<text text-anchor="start" x="583.5" y="-685.8" font-family="Monospace" font-style="italic" font-size="14.00">dimensions:</text>
<text text-anchor="start" x="674.5" y="-685.8" font-family="Monospace" font-size="14.00"> {detector}</text>
<text text-anchor="start" x="583.5" y="-658.8" font-family="Monospace" font-style="italic" font-size="14.00">storage class:</text>
<text text-anchor="start" x="699.5" y="-658.8" font-family="Monospace" font-size="14.00"> CrosstalkCalib</text>
</g>
<!-- crosstalk:0&#45;&gt;cpFlatIsr:2 -->
<g id="edge4" class="edge">
<title>crosstalk:0&#45;&gt;cpFlatIsr:2</title>
<path fill="none" stroke="black" stroke-width="1.5" stroke-dasharray="5,2" d="M703.5,-639.86C703.5,-639.86 703.5,-585.24 703.5,-585.24"/>
<polygon fill="black" stroke="black" stroke-width="1.5" points="708.75,-585.24 703.5,-570.24 698.25,-585.24 708.75,-585.24"/>
</g>
<!-- camera:0 -->
<g id="node5" class="node">
<title>camera:0</title>
<path fill="#f5f5f5" stroke="#00babc" stroke-width="3" d="M1110,-742C1110,-742 893,-742 893,-742 887,-742 881,-736 881,-730 881,-730 881,-652 881,-652 881,-646 887,-640 893,-640 893,-640 1110,-640 1110,-640 1116,-640 1122,-646 1122,-652 1122,-652 1122,-730 1122,-730 1122,-736 1116,-742 1110,-742"/>
<text text-anchor="start" x="902.5" y="-714.6" font-family="Monospace" font-weight="bold" font-size="18.00">camera</text>
<text text-anchor="start" x="902.5" y="-685.8" font-family="Monospace" font-style="italic" font-size="14.00">dimensions:</text>
<text text-anchor="start" x="993.5" y="-685.8" font-family="Monospace" font-size="14.00"> {instrument}</text>
<text text-anchor="start" x="902.5" y="-658.8" font-family="Monospace" font-style="italic" font-size="14.00">storage class:</text>
<text text-anchor="start" x="1018.5" y="-658.8" font-family="Monospace" font-size="14.00"> Camera</text>
</g>
<!-- camera:0&#45;&gt;cpFlatIsr:2 -->
<g id="edge5" class="edge">
<title>camera:0&#45;&gt;cpFlatIsr:2</title>
<path fill="none" stroke="black" stroke-width="1.5" stroke-dasharray="5,2" d="M880.71,-691C861.96,-691 848.67,-691 848.67,-691 848.67,-691 848.67,-585.14 848.67,-585.14"/>
<polygon fill="black" stroke="black" stroke-width="1.5" points="853.92,-585.14 848.67,-570.14 843.42,-585.14 853.92,-585.14"/>
</g>
<!-- cpFlatMeasure:2 -->
<g id="node7" class="node">
<title>cpFlatMeasure:2</title>
<polygon fill="#b1f2ef" stroke="black" stroke-width="3" points="906.5,-258 500.5,-258 500.5,-156 906.5,-156 906.5,-258"/>
<text text-anchor="start" x="521.5" y="-230.6" font-family="Monospace" font-weight="bold" font-size="18.00">cpFlatMeasure</text>
<text text-anchor="start" x="521.5" y="-200.8" font-family="Monospace" font-size="14.00">lsst.cp.pipe.cpFlatMeasure.CpFlatMeasureTask</text>
<text text-anchor="start" x="521.5" y="-174.8" font-family="Monospace" font-style="italic" font-size="14.00">dimensions:</text>
<text text-anchor="start" x="612.5" y="-174.8" font-family="Monospace" font-size="14.00"> {detector, exposure}</text>
</g>
<!-- cpFlatIsrExp:0&#45;&gt;cpFlatMeasure:2 -->
<g id="edge6" class="edge">
<title>cpFlatIsrExp:0&#45;&gt;cpFlatMeasure:2</title>
<path fill="none" stroke="black" stroke-width="1.5" d="M703.5,-311.92C703.5,-311.92 703.5,-273.19 703.5,-273.19"/>
<polygon fill="black" stroke="black" stroke-width="1.5" points="708.75,-273.19 703.5,-258.19 698.25,-273.2 708.75,-273.19"/>
</g>
<!-- cpFlatStatistics:0 -->
<g id="node8" class="node">
<title>cpFlatStatistics:0</title>
<path fill="#f5f5f5" stroke="#00babc" stroke-width="3" d="M845,-102C845,-102 562,-102 562,-102 556,-102 550,-96 550,-90 550,-90 550,-12 550,-12 550,-6 556,0 562,0 562,0 845,0 845,0 851,0 857,-6 857,-12 857,-12 857,-90 857,-90 857,-96 851,-102 845,-102"/>
<text text-anchor="start" x="571.5" y="-74.6" font-family="Monospace" font-weight="bold" font-size="18.00">cpFlatStatistics</text>
<text text-anchor="start" x="571.5" y="-45.8" font-family="Monospace" font-style="italic" font-size="14.00">dimensions:</text>
<text text-anchor="start" x="662.5" y="-45.8" font-family="Monospace" font-size="14.00"> {detector, exposure}</text>
<text text-anchor="start" x="571.5" y="-18.8" font-family="Monospace" font-style="italic" font-size="14.00">storage class:</text>
<text text-anchor="start" x="687.5" y="-18.8" font-family="Monospace" font-size="14.00"> PropertyList</text>
</g>
<!-- cpFlatMeasure:2&#45;&gt;cpFlatStatistics:0 -->
<g id="edge7" class="edge">
<title>cpFlatMeasure:2&#45;&gt;cpFlatStatistics:0</title>
<path fill="none" stroke="black" stroke-width="1.5" d="M703.5,-155.92C703.5,-155.92 703.5,-117.19 703.5,-117.19"/>
<polygon fill="black" stroke="black" stroke-width="1.5" points="708.75,-117.19 703.5,-102.19 698.25,-117.2 708.75,-117.19"/>
</g>
<!-- 998e6c26:0 -->
<g id="node9" class="node">
<title>998e6c26:0</title>
<path fill="#f5f5f5" stroke="#00babc" stroke-width="3" d="M1453,-758C1453,-758 1170,-758 1170,-758 1164,-758 1158,-752 1158,-746 1158,-746 1158,-636 1158,-636 1158,-630 1164,-624 1170,-624 1170,-624 1453,-624 1453,-624 1459,-624 1465,-630 1465,-636 1465,-636 1465,-746 1465,-746 1465,-752 1459,-758 1453,-758"/>
<text text-anchor="start" x="1179.5" y="-730.6" font-family="Monospace" font-weight="bold" font-size="18.00">raw</text>
<text text-anchor="start" x="1179.5" y="-698.6" font-family="Monospace" font-weight="bold" font-size="18.00">overscanRaw</text>
<text text-anchor="start" x="1179.5" y="-669.8" font-family="Monospace" font-style="italic" font-size="14.00">dimensions:</text>
<text text-anchor="start" x="1270.5" y="-669.8" font-family="Monospace" font-size="14.00"> {detector, exposure}</text>
<text text-anchor="start" x="1179.5" y="-642.8" font-family="Monospace" font-style="italic" font-size="14.00">storage class:</text>
<text text-anchor="start" x="1295.5" y="-642.8" font-family="Monospace" font-size="14.00"> Exposure</text>
</g>
<!-- 998e6c26:0&#45;&gt;cpFlatIsr:2 -->
<g id="edge8" class="edge">
<title>998e6c26:0&#45;&gt;cpFlatIsr:2</title>
<path fill="none" stroke="black" stroke-width="1.5" d="M1157.81,-632C1024.52,-632 852.83,-632 852.83,-632 852.83,-632 852.83,-585.21 852.83,-585.21"/>
<polygon fill="black" stroke="black" stroke-width="1.5" points="858.08,-585.21 852.83,-570.21 847.58,-585.21 858.08,-585.21"/>
</g>
</g>
</svg>
