<?xml version="1.0" encoding="UTF-8" standalone="no"?>
<!DOCTYPE svg PUBLIC "-//W3C//DTD SVG 1.1//EN"
 "http://www.w3.org/Graphics/SVG/1.1/DTD/svg11.dtd">
<!-- Generated by graphviz version 2.44.0 (0)
 -->
<!-- Title: Pipeline Pages: 1 -->
<svg width="372pt" height="422pt"
 viewBox="0.00 0.00 372.00 422.00" xmlns="http://www.w3.org/2000/svg" xmlns:xlink="http://www.w3.org/1999/xlink">
<g id="graph0" class="graph" transform="scale(1 1) rotate(0) translate(4 418)">
<title>Pipeline</title>
<polygon fill="white" stroke="transparent" points="-4,4 -4,-418 368,-418 368,4 -4,4"/>
<!-- cpBiasCombine:2 -->
<g id="node1" class="node">
<title>cpBiasCombine:2</title>
<polygon fill="#b1f2ef" stroke="black" stroke-width="3" points="364,-258 0,-258 0,-156 364,-156 364,-258"/>
<text text-anchor="start" x="21" y="-230.6" font-family="Monospace" font-weight="bold" font-size="18.00">cpBiasCombine</text>
<text text-anchor="start" x="21" y="-200.8" font-family="Monospace" font-size="14.00">lsst.cp.pipe.cpCombine.CalibCombineTask</text>
<text text-anchor="start" x="21" y="-174.8" font-family="Monospace" font-style="italic" font-size="14.00">dimensions:</text>
<text text-anchor="start" x="112" y="-174.8" font-family="Monospace" font-size="14.00"> {detector}</text>
</g>
<!-- bias:0 -->
<g id="node3" class="node">
<title>bias:0</title>
<path fill="#f5f5f5" stroke="#00babc" stroke-width="3" d="M290.5,-102C290.5,-102 73.5,-102 73.5,-102 67.5,-102 61.5,-96 61.5,-90 61.5,-90 61.5,-12 61.5,-12 61.5,-6 67.5,0 73.5,0 73.5,0 290.5,0 290.5,0 296.5,0 302.5,-6 302.5,-12 302.5,-12 302.5,-90 302.5,-90 302.5,-96 296.5,-102 290.5,-102"/>
<text text-anchor="start" x="83" y="-74.6" font-family="Monospace" font-weight="bold" font-size="18.00">bias</text>
<text text-anchor="start" x="83" y="-45.8" font-family="Monospace" font-style="italic" font-size="14.00">dimensions:</text>
<text text-anchor="start" x="174" y="-45.8" font-family="Monospace" font-size="14.00"> {detector}</text>
<text text-anchor="start" x="83" y="-18.8" font-family="Monospace" font-style="italic" font-size="14.00">storage class:</text>
<text text-anchor="start" x="199" y="-18.8" font-family="Monospace" font-size="14.00"> ExposureF</text>
</g>
<!-- cpBiasCombine:2&#45;&gt;bias:0 -->
<g id="edge1" class="edge">
<title>cpBiasCombine:2&#45;&gt;bias:0</title>
<path fill="none" stroke="black" stroke-width="1.5" d="M182,-155.92C182,-155.92 182,-117.19 182,-117.19"/>
<polygon fill="black" stroke="black" stroke-width="1.5" points="187.25,-117.19 182,-102.19 176.75,-117.2 187.25,-117.19"/>
</g>
<!-- cpBiasIsrExp:0 -->
<g id="node2" class="node">
<title>cpBiasIsrExp:0</title>
<path fill="#f5f5f5" stroke="#00babc" stroke-width="3" d="M323.5,-414C323.5,-414 40.5,-414 40.5,-414 34.5,-414 28.5,-408 28.5,-402 28.5,-402 28.5,-324 28.5,-324 28.5,-318 34.5,-312 40.5,-312 40.5,-312 323.5,-312 323.5,-312 329.5,-312 335.5,-318 335.5,-324 335.5,-324 335.5,-402 335.5,-402 335.5,-408 329.5,-414 323.5,-414"/>
<text text-anchor="start" x="50" y="-386.6" font-family="Monospace" font-weight="bold" font-size="18.00">cpBiasIsrExp</text>
<text text-anchor="start" x="50" y="-357.8" font-family="Monospace" font-style="italic" font-size="14.00">dimensions:</text>
<text text-anchor="start" x="141" y="-357.8" font-family="Monospace" font-size="14.00"> {detector, exposure}</text>
<text text-anchor="start" x="50" y="-330.8" font-family="Monospace" font-style="italic" font-size="14.00">storage class:</text>
<text text-anchor="start" x="166" y="-330.8" font-family="Monospace" font-size="14.00"> Exposure</text>
</g>
<!-- cpBiasIsrExp:0&#45;&gt;cpBiasCombine:2 -->
<g id="edge2" class="edge">
<title>cpBiasIsrExp:0&#45;&gt;cpBiasCombine:2</title>
<path fill="none" stroke="black" stroke-width="1.5" d="M182,-311.92C182,-311.92 182,-273.19 182,-273.19"/>
<polygon fill="black" stroke="black" stroke-width="1.5" points="187.25,-273.19 182,-258.19 176.75,-273.2 187.25,-273.19"/>
</g>
</g>
</svg>
