<?xml version="1.0" encoding="UTF-8" standalone="no"?>
<!DOCTYPE svg PUBLIC "-//W3C//DTD SVG 1.1//EN"
 "http://www.w3.org/Graphics/SVG/1.1/DTD/svg11.dtd">
<!-- Generated by graphviz version 2.44.0 (0)
 -->
<!-- Title: Pipeline Pages: 1 -->
<svg width="1574pt" height="1734pt"
 viewBox="0.00 0.00 1574.00 1734.00" xmlns="http://www.w3.org/2000/svg" xmlns:xlink="http://www.w3.org/1999/xlink">
<g id="graph0" class="graph" transform="scale(1 1) rotate(0) translate(4 1730)">
<title>Pipeline</title>
<polygon fill="white" stroke="transparent" points="-4,4 -4,-1730 1570,-1730 1570,4 -4,4"/>
<!-- transformSourceTable:2 -->
<g id="node1" class="node">
<title>transformSourceTable:2</title>
<polygon fill="#b1f2ef" stroke="black" stroke-width="3" points="505,-258 33,-258 33,-156 505,-156 505,-258"/>
<text text-anchor="start" x="54" y="-230.6" font-family="Monospace" font-weight="bold" font-size="18.00">transformSourceTable</text>
<text text-anchor="start" x="54" y="-200.8" font-family="Monospace" font-size="14.00">lsst.pipe.tasks.postprocess.TransformSourceTableTask</text>
<text text-anchor="start" x="54" y="-174.8" font-family="Monospace" font-style="italic" font-size="14.00">dimensions:</text>
<text text-anchor="start" x="145" y="-174.8" font-family="Monospace" font-size="14.00"> {detector, visit}</text>
</g>
<!-- injected_sourceTable:0 -->
<g id="node3" class="node">
<title>injected_sourceTable:0</title>
<path fill="#f5f5f5" stroke="#00babc" stroke-width="3" d="M398,-102C398,-102 140,-102 140,-102 134,-102 128,-96 128,-90 128,-90 128,-12 128,-12 128,-6 134,0 140,0 140,0 398,0 398,0 404,0 410,-6 410,-12 410,-12 410,-90 410,-90 410,-96 404,-102 398,-102"/>
<text text-anchor="start" x="149" y="-74.6" font-family="Monospace" font-weight="bold" font-size="18.00">injected_sourceTable</text>
<text text-anchor="start" x="149" y="-45.8" font-family="Monospace" font-style="italic" font-size="14.00">dimensions:</text>
<text text-anchor="start" x="240" y="-45.8" font-family="Monospace" font-size="14.00"> {detector, visit}</text>
<text text-anchor="start" x="149" y="-18.8" font-family="Monospace" font-style="italic" font-size="14.00">storage class:</text>
<text text-anchor="start" x="265" y="-18.8" font-family="Monospace" font-size="14.00"> DataFrame</text>
</g>
<!-- transformSourceTable:2&#45;&gt;injected_sourceTable:0 -->
<g id="edge1" class="edge">
<title>transformSourceTable:2&#45;&gt;injected_sourceTable:0</title>
<path fill="none" stroke="black" stroke-width="1.5" d="M269,-155.92C269,-155.92 269,-117.19 269,-117.19"/>
<polygon fill="black" stroke="black" stroke-width="1.5" points="274.25,-117.19 269,-102.19 263.75,-117.2 274.25,-117.19"/>
</g>
<!-- injected_source:0 -->
<g id="node2" class="node">
<title>injected_source:0</title>
<path fill="#f5f5f5" stroke="#00babc" stroke-width="3" d="M398,-414C398,-414 140,-414 140,-414 134,-414 128,-408 128,-402 128,-402 128,-324 128,-324 128,-318 134,-312 140,-312 140,-312 398,-312 398,-312 404,-312 410,-318 410,-324 410,-324 410,-402 410,-402 410,-408 404,-414 398,-414"/>
<text text-anchor="start" x="149" y="-386.6" font-family="Monospace" font-weight="bold" font-size="18.00">injected_source</text>
<text text-anchor="start" x="149" y="-357.8" font-family="Monospace" font-style="italic" font-size="14.00">dimensions:</text>
<text text-anchor="start" x="240" y="-357.8" font-family="Monospace" font-size="14.00"> {detector, visit}</text>
<text text-anchor="start" x="149" y="-330.8" font-family="Monospace" font-style="italic" font-size="14.00">storage class:</text>
<text text-anchor="start" x="265" y="-330.8" font-family="Monospace" font-size="14.00"> DataFrame</text>
</g>
<!-- injected_source:0&#45;&gt;transformSourceTable:2 -->
<g id="edge2" class="edge">
<title>injected_source:0&#45;&gt;transformSourceTable:2</title>
<path fill="none" stroke="black" stroke-width="1.5" d="M269,-311.92C269,-311.92 269,-273.19 269,-273.19"/>
<polygon fill="black" stroke="black" stroke-width="1.5" points="274.25,-273.19 269,-258.19 263.75,-273.2 274.25,-273.19"/>
</g>
<!-- writeRecalibratedSourceTable:2 -->
<g id="node4" class="node">
<title>writeRecalibratedSourceTable:2</title>
<polygon fill="#b1f2ef" stroke="black" stroke-width="3" points="538,-570 0,-570 0,-468 538,-468 538,-570"/>
<text text-anchor="start" x="21" y="-542.6" font-family="Monospace" font-weight="bold" font-size="18.00">writeRecalibratedSourceTable</text>
<text text-anchor="start" x="21" y="-512.8" font-family="Monospace" font-size="14.00">lsst.pipe.tasks.postprocess.WriteRecalibratedSourceTableTask</text>
<text text-anchor="start" x="21" y="-486.8" font-family="Monospace" font-style="italic" font-size="14.00">dimensions:</text>
<text text-anchor="start" x="112" y="-486.8" font-family="Monospace" font-size="14.00"> {skymap, detector, visit}</text>
</g>
<!-- writeRecalibratedSourceTable:2&#45;&gt;injected_source:0 -->
<g id="edge3" class="edge">
<title>writeRecalibratedSourceTable:2&#45;&gt;injected_source:0</title>
<path fill="none" stroke="black" stroke-width="1.5" d="M269,-467.92C269,-467.92 269,-429.19 269,-429.19"/>
<polygon fill="black" stroke="black" stroke-width="1.5" points="274.25,-429.19 269,-414.19 263.75,-429.2 274.25,-429.19"/>
</g>
<!-- injected_src:0 -->
<g id="node5" class="node">
<title>injected_src:0</title>
<path fill="#f5f5f5" stroke="#00babc" stroke-width="3" d="M496,-742C496,-742 238,-742 238,-742 232,-742 226,-736 226,-730 226,-730 226,-652 226,-652 226,-646 232,-640 238,-640 238,-640 496,-640 496,-640 502,-640 508,-646 508,-652 508,-652 508,-730 508,-730 508,-736 502,-742 496,-742"/>
<text text-anchor="start" x="247" y="-714.6" font-family="Monospace" font-weight="bold" font-size="18.00">injected_src</text>
<text text-anchor="start" x="247" y="-685.8" font-family="Monospace" font-style="italic" font-size="14.00">dimensions:</text>
<text text-anchor="start" x="338" y="-685.8" font-family="Monospace" font-size="14.00"> {detector, visit}</text>
<text text-anchor="start" x="247" y="-658.8" font-family="Monospace" font-style="italic" font-size="14.00">storage class:</text>
<text text-anchor="start" x="363" y="-658.8" font-family="Monospace" font-size="14.00"> SourceCatalog</text>
</g>
<!-- injected_src:0&#45;&gt;writeRecalibratedSourceTable:2 -->
<g id="edge4" class="edge">
<title>injected_src:0&#45;&gt;writeRecalibratedSourceTable:2</title>
<path fill="none" stroke="black" stroke-width="1.5" d="M367,-639.86C367,-639.86 367,-585.24 367,-585.24"/>
<polygon fill="black" stroke="black" stroke-width="1.5" points="372.25,-585.24 367,-570.24 361.75,-585.24 372.25,-585.24"/>
</g>
<!-- finalVisitSummary:0 -->
<g id="node6" class="node">
<title>finalVisitSummary:0</title>
<path fill="#f5f5f5" stroke="#00babc" stroke-width="3" d="M304.5,-1726C304.5,-1726 37.5,-1726 37.5,-1726 31.5,-1726 25.5,-1720 25.5,-1714 25.5,-1714 25.5,-1636 25.5,-1636 25.5,-1630 31.5,-1624 37.5,-1624 37.5,-1624 304.5,-1624 304.5,-1624 310.5,-1624 316.5,-1630 316.5,-1636 316.5,-1636 316.5,-1714 316.5,-1714 316.5,-1720 310.5,-1726 304.5,-1726"/>
<text text-anchor="start" x="47" y="-1698.6" font-family="Monospace" font-weight="bold" font-size="18.00">finalVisitSummary</text>
<text text-anchor="start" x="47" y="-1669.8" font-family="Monospace" font-style="italic" font-size="14.00">dimensions:</text>
<text text-anchor="start" x="138" y="-1669.8" font-family="Monospace" font-size="14.00"> {visit}</text>
<text text-anchor="start" x="47" y="-1642.8" font-family="Monospace" font-style="italic" font-size="14.00">storage class:</text>
<text text-anchor="start" x="163" y="-1642.8" font-family="Monospace" font-size="14.00"> ExposureCatalog</text>
</g>
<!-- finalVisitSummary:0&#45;&gt;writeRecalibratedSourceTable:2 -->
<g id="edge5" class="edge">
<title>finalVisitSummary:0&#45;&gt;writeRecalibratedSourceTable:2</title>
<path fill="none" stroke="black" stroke-width="1.5" d="M125.75,-1623.84C125.75,-1623.84 125.75,-585.23 125.75,-585.23"/>
<polygon fill="black" stroke="black" stroke-width="1.5" points="131,-585.23 125.75,-570.23 120.5,-585.23 131,-585.23"/>
</g>
<!-- inject_exposure:2 -->
<g id="node7" class="node">
<title>inject_exposure:2</title>
<polygon fill="#b1f2ef" stroke="black" stroke-width="3" points="738.5,-1570 233.5,-1570 233.5,-1468 738.5,-1468 738.5,-1570"/>
<text text-anchor="start" x="255" y="-1542.6" font-family="Monospace" font-weight="bold" font-size="18.00">inject_exposure</text>
<text text-anchor="start" x="255" y="-1512.8" font-family="Monospace" font-size="14.00">lsst.source.injection.inject_exposure.ExposureInjectTask</text>
<text text-anchor="start" x="255" y="-1486.8" font-family="Monospace" font-style="italic" font-size="14.00">dimensions:</text>
<text text-anchor="start" x="346" y="-1486.8" font-family="Monospace" font-size="14.00"> {detector, visit}</text>
</g>
<!-- finalVisitSummary:0&#45;&gt;inject_exposure:2 -->
<g id="edge6" class="edge">
<title>finalVisitSummary:0&#45;&gt;inject_exposure:2</title>
<path fill="none" stroke="black" stroke-width="1.5" d="M275,-1623.92C275,-1623.92 275,-1585.19 275,-1585.19"/>
<polygon fill="black" stroke="black" stroke-width="1.5" points="280.25,-1585.19 275,-1570.19 269.75,-1585.2 280.25,-1585.19"/>
</g>
<!-- injected_postISRCCD_catalog:0 -->
<g id="node10" class="node">
<title>injected_postISRCCD_catalog:0</title>
<path fill="#f5f5f5" stroke="#00babc" stroke-width="3" d="M588,-1414C588,-1414 286,-1414 286,-1414 280,-1414 274,-1408 274,-1402 274,-1402 274,-1324 274,-1324 274,-1318 280,-1312 286,-1312 286,-1312 588,-1312 588,-1312 594,-1312 600,-1318 600,-1324 600,-1324 600,-1402 600,-1402 600,-1408 594,-1414 588,-1414"/>
<text text-anchor="start" x="295" y="-1386.6" font-family="Monospace" font-weight="bold" font-size="18.00">injected_postISRCCD_catalog</text>
<text text-anchor="start" x="295" y="-1357.8" font-family="Monospace" font-style="italic" font-size="14.00">dimensions:</text>
<text text-anchor="start" x="386" y="-1357.8" font-family="Monospace" font-size="14.00"> {detector, exposure}</text>
<text text-anchor="start" x="295" y="-1330.8" font-family="Monospace" font-style="italic" font-size="14.00">storage class:</text>
<text text-anchor="start" x="411" y="-1330.8" font-family="Monospace" font-size="14.00"> ArrowAstropy</text>
</g>
<!-- inject_exposure:2&#45;&gt;injected_postISRCCD_catalog:0 -->
<g id="edge7" class="edge">
<title>inject_exposure:2&#45;&gt;injected_postISRCCD_catalog:0</title>
<path fill="none" stroke="black" stroke-width="1.5" d="M437,-1467.92C437,-1467.92 437,-1429.19 437,-1429.19"/>
<polygon fill="black" stroke="black" stroke-width="1.5" points="442.25,-1429.19 437,-1414.19 431.75,-1429.2 442.25,-1429.19"/>
</g>
<!-- injected_postISRCCD:0 -->
<g id="node11" class="node">
<title>injected_postISRCCD:0</title>
<path fill="#f5f5f5" stroke="#00babc" stroke-width="3" d="M931.5,-1414C931.5,-1414 648.5,-1414 648.5,-1414 642.5,-1414 636.5,-1408 636.5,-1402 636.5,-1402 636.5,-1324 636.5,-1324 636.5,-1318 642.5,-1312 648.5,-1312 648.5,-1312 931.5,-1312 931.5,-1312 937.5,-1312 943.5,-1318 943.5,-1324 943.5,-1324 943.5,-1402 943.5,-1402 943.5,-1408 937.5,-1414 931.5,-1414"/>
<text text-anchor="start" x="658" y="-1386.6" font-family="Monospace" font-weight="bold" font-size="18.00">injected_postISRCCD</text>
<text text-anchor="start" x="658" y="-1357.8" font-family="Monospace" font-style="italic" font-size="14.00">dimensions:</text>
<text text-anchor="start" x="749" y="-1357.8" font-family="Monospace" font-size="14.00"> {detector, exposure}</text>
<text text-anchor="start" x="658" y="-1330.8" font-family="Monospace" font-style="italic" font-size="14.00">storage class:</text>
<text text-anchor="start" x="774" y="-1330.8" font-family="Monospace" font-size="14.00"> Exposure</text>
</g>
<!-- inject_exposure:2&#45;&gt;injected_postISRCCD:0 -->
<g id="edge8" class="edge">
<title>inject_exposure:2&#45;&gt;injected_postISRCCD:0</title>
<path fill="none" stroke="black" stroke-width="1.5" d="M687.5,-1467.92C687.5,-1467.92 687.5,-1429.19 687.5,-1429.19"/>
<polygon fill="black" stroke="black" stroke-width="1.5" points="692.75,-1429.19 687.5,-1414.19 682.25,-1429.2 692.75,-1429.19"/>
</g>
<!-- injection_catalog:0 -->
<g id="node8" class="node">
<title>injection_catalog:0</title>
<path fill="#f5f5f5" stroke="#00babc" stroke-width="3" d="M607,-1726C607,-1726 365,-1726 365,-1726 359,-1726 353,-1720 353,-1714 353,-1714 353,-1636 353,-1636 353,-1630 359,-1624 365,-1624 365,-1624 607,-1624 607,-1624 613,-1624 619,-1630 619,-1636 619,-1636 619,-1714 619,-1714 619,-1720 613,-1726 607,-1726"/>
<text text-anchor="start" x="374" y="-1698.6" font-family="Monospace" font-weight="bold" font-size="18.00">injection_catalog</text>
<text text-anchor="start" x="374" y="-1669.8" font-family="Monospace" font-style="italic" font-size="14.00">dimensions:</text>
<text text-anchor="start" x="465" y="-1669.8" font-family="Monospace" font-size="14.00"> {band, htm7}</text>
<text text-anchor="start" x="374" y="-1642.8" font-family="Monospace" font-style="italic" font-size="14.00">storage class:</text>
<text text-anchor="start" x="490" y="-1642.8" font-family="Monospace" font-size="14.00"> ArrowAstropy</text>
</g>
<!-- injection_catalog:0&#45;&gt;inject_exposure:2 -->
<g id="edge9" class="edge">
<title>injection_catalog:0&#45;&gt;inject_exposure:2</title>
<path fill="none" stroke="black" stroke-width="1.5" stroke-dasharray="5,2" d="M486,-1623.92C486,-1623.92 486,-1585.19 486,-1585.19"/>
<polygon fill="black" stroke="black" stroke-width="1.5" points="491.25,-1585.19 486,-1570.19 480.75,-1585.2 491.25,-1585.19"/>
</g>
<!-- postISRCCD_masked:0 -->
<g id="node9" class="node">
<title>postISRCCD_masked:0</title>
<path fill="#f5f5f5" stroke="#00babc" stroke-width="3" d="M950.5,-1726C950.5,-1726 667.5,-1726 667.5,-1726 661.5,-1726 655.5,-1720 655.5,-1714 655.5,-1714 655.5,-1636 655.5,-1636 655.5,-1630 661.5,-1624 667.5,-1624 667.5,-1624 950.5,-1624 950.5,-1624 956.5,-1624 962.5,-1630 962.5,-1636 962.5,-1636 962.5,-1714 962.5,-1714 962.5,-1720 956.5,-1726 950.5,-1726"/>
<text text-anchor="start" x="677" y="-1698.6" font-family="Monospace" font-weight="bold" font-size="18.00">postISRCCD_masked</text>
<text text-anchor="start" x="677" y="-1669.8" font-family="Monospace" font-style="italic" font-size="14.00">dimensions:</text>
<text text-anchor="start" x="768" y="-1669.8" font-family="Monospace" font-size="14.00"> {detector, exposure}</text>
<text text-anchor="start" x="677" y="-1642.8" font-family="Monospace" font-style="italic" font-size="14.00">storage class:</text>
<text text-anchor="start" x="793" y="-1642.8" font-family="Monospace" font-size="14.00"> Exposure</text>
</g>
<!-- postISRCCD_masked:0&#45;&gt;inject_exposure:2 -->
<g id="edge10" class="edge">
<title>postISRCCD_masked:0&#45;&gt;inject_exposure:2</title>
<path fill="none" stroke="black" stroke-width="1.5" d="M697,-1623.92C697,-1623.92 697,-1585.19 697,-1585.19"/>
<polygon fill="black" stroke="black" stroke-width="1.5" points="702.25,-1585.19 697,-1570.19 691.75,-1585.2 702.25,-1585.19"/>
</g>
<!-- injected_characterizeImage:2 -->
<g id="node12" class="node">
<title>injected_characterizeImage:2</title>
<polygon fill="#b1f2ef" stroke="black" stroke-width="3" points="1038,-1258 542,-1258 542,-1156 1038,-1156 1038,-1258"/>
<text text-anchor="start" x="563" y="-1230.6" font-family="Monospace" font-weight="bold" font-size="18.00">injected_characterizeImage</text>
<text text-anchor="start" x="563" y="-1200.8" font-family="Monospace" font-size="14.00">lsst.pipe.tasks.characterizeImage.CharacterizeImageTask</text>
<text text-anchor="start" x="563" y="-1174.8" font-family="Monospace" font-style="italic" font-size="14.00">dimensions:</text>
<text text-anchor="start" x="654" y="-1174.8" font-family="Monospace" font-size="14.00"> {detector, visit}</text>
</g>
<!-- injected_postISRCCD:0&#45;&gt;injected_characterizeImage:2 -->
<g id="edge11" class="edge">
<title>injected_postISRCCD:0&#45;&gt;injected_characterizeImage:2</title>
<path fill="none" stroke="black" stroke-width="1.5" d="M790,-1311.92C790,-1311.92 790,-1273.19 790,-1273.19"/>
<polygon fill="black" stroke="black" stroke-width="1.5" points="795.25,-1273.19 790,-1258.19 784.75,-1273.2 795.25,-1273.19"/>
</g>
<!-- injected_icSrc:0 -->
<g id="node13" class="node">
<title>injected_icSrc:0</title>
<path fill="#f5f5f5" stroke="#00babc" stroke-width="3" d="M594,-1086C594,-1086 336,-1086 336,-1086 330,-1086 324,-1080 324,-1074 324,-1074 324,-996 324,-996 324,-990 330,-984 336,-984 336,-984 594,-984 594,-984 600,-984 606,-990 606,-996 606,-996 606,-1074 606,-1074 606,-1080 600,-1086 594,-1086"/>
<text text-anchor="start" x="345" y="-1058.6" font-family="Monospace" font-weight="bold" font-size="18.00">injected_icSrc</text>
<text text-anchor="start" x="345" y="-1029.8" font-family="Monospace" font-style="italic" font-size="14.00">dimensions:</text>
<text text-anchor="start" x="436" y="-1029.8" font-family="Monospace" font-size="14.00"> {detector, visit}</text>
<text text-anchor="start" x="345" y="-1002.8" font-family="Monospace" font-style="italic" font-size="14.00">storage class:</text>
<text text-anchor="start" x="461" y="-1002.8" font-family="Monospace" font-size="14.00"> SourceCatalog</text>
</g>
<!-- injected_characterizeImage:2&#45;&gt;injected_icSrc:0 -->
<g id="edge12" class="edge">
<title>injected_characterizeImage:2&#45;&gt;injected_icSrc:0</title>
<path fill="none" stroke="black" stroke-width="1.5" d="M574,-1155.86C574,-1155.86 574,-1101.24 574,-1101.24"/>
<polygon fill="black" stroke="black" stroke-width="1.5" points="579.25,-1101.24 574,-1086.24 568.75,-1101.24 579.25,-1101.24"/>
</g>
<!-- injected_icExpBackground:0 -->
<g id="node14" class="node">
<title>injected_icExpBackground:0</title>
<path fill="#f5f5f5" stroke="#00babc" stroke-width="3" d="M925.5,-1086C925.5,-1086 654.5,-1086 654.5,-1086 648.5,-1086 642.5,-1080 642.5,-1074 642.5,-1074 642.5,-996 642.5,-996 642.5,-990 648.5,-984 654.5,-984 654.5,-984 925.5,-984 925.5,-984 931.5,-984 937.5,-990 937.5,-996 937.5,-996 937.5,-1074 937.5,-1074 937.5,-1080 931.5,-1086 925.5,-1086"/>
<text text-anchor="start" x="664" y="-1058.6" font-family="Monospace" font-weight="bold" font-size="18.00">injected_icExpBackground</text>
<text text-anchor="start" x="664" y="-1029.8" font-family="Monospace" font-style="italic" font-size="14.00">dimensions:</text>
<text text-anchor="start" x="755" y="-1029.8" font-family="Monospace" font-size="14.00"> {detector, visit}</text>
<text text-anchor="start" x="664" y="-1002.8" font-family="Monospace" font-style="italic" font-size="14.00">storage class:</text>
<text text-anchor="start" x="780" y="-1002.8" font-family="Monospace" font-size="14.00"> Background</text>
</g>
<!-- injected_characterizeImage:2&#45;&gt;injected_icExpBackground:0 -->
<g id="edge13" class="edge">
<title>injected_characterizeImage:2&#45;&gt;injected_icExpBackground:0</title>
<path fill="none" stroke="black" stroke-width="1.5" d="M790,-1155.86C790,-1155.86 790,-1101.24 790,-1101.24"/>
<polygon fill="black" stroke="black" stroke-width="1.5" points="795.25,-1101.24 790,-1086.24 784.75,-1101.24 795.25,-1101.24"/>
</g>
<!-- injected_icExp:0 -->
<g id="node15" class="node">
<title>injected_icExp:0</title>
<path fill="#f5f5f5" stroke="#00babc" stroke-width="3" d="M1244,-1086C1244,-1086 986,-1086 986,-1086 980,-1086 974,-1080 974,-1074 974,-1074 974,-996 974,-996 974,-990 980,-984 986,-984 986,-984 1244,-984 1244,-984 1250,-984 1256,-990 1256,-996 1256,-996 1256,-1074 1256,-1074 1256,-1080 1250,-1086 1244,-1086"/>
<text text-anchor="start" x="995" y="-1058.6" font-family="Monospace" font-weight="bold" font-size="18.00">injected_icExp</text>
<text text-anchor="start" x="995" y="-1029.8" font-family="Monospace" font-style="italic" font-size="14.00">dimensions:</text>
<text text-anchor="start" x="1086" y="-1029.8" font-family="Monospace" font-size="14.00"> {detector, visit}</text>
<text text-anchor="start" x="995" y="-1002.8" font-family="Monospace" font-style="italic" font-size="14.00">storage class:</text>
<text text-anchor="start" x="1111" y="-1002.8" font-family="Monospace" font-size="14.00"> ExposureF</text>
</g>
<!-- injected_characterizeImage:2&#45;&gt;injected_icExp:0 -->
<g id="edge14" class="edge">
<title>injected_characterizeImage:2&#45;&gt;injected_icExp:0</title>
<path fill="none" stroke="black" stroke-width="1.5" d="M1006,-1155.86C1006,-1155.86 1006,-1101.24 1006,-1101.24"/>
<polygon fill="black" stroke="black" stroke-width="1.5" points="1011.25,-1101.24 1006,-1086.24 1000.75,-1101.24 1011.25,-1101.24"/>
</g>
<!-- injected_calibrate:2 -->
<g id="node16" class="node">
<title>injected_calibrate:2</title>
<polygon fill="#b1f2ef" stroke="black" stroke-width="3" points="1090,-914 726,-914 726,-812 1090,-812 1090,-914"/>
<text text-anchor="start" x="747" y="-886.6" font-family="Monospace" font-weight="bold" font-size="18.00">injected_calibrate</text>
<text text-anchor="start" x="747" y="-856.8" font-family="Monospace" font-size="14.00">lsst.pipe.tasks.calibrate.CalibrateTask</text>
<text text-anchor="start" x="747" y="-830.8" font-family="Monospace" font-style="italic" font-size="14.00">dimensions:</text>
<text text-anchor="start" x="838" y="-830.8" font-family="Monospace" font-size="14.00"> {detector, visit}</text>
</g>
<!-- injected_icSrc:0&#45;&gt;injected_calibrate:2 -->
<g id="edge15" class="edge">
<title>injected_icSrc:0&#45;&gt;injected_calibrate:2</title>
<path fill="none" stroke="black" stroke-width="1.5" d="M575.25,-983.82C575.25,-938.67 575.25,-880 575.25,-880 575.25,-880 710.56,-880 710.56,-880"/>
<polygon fill="black" stroke="black" stroke-width="1.5" points="710.56,-885.25 725.56,-880 710.56,-874.75 710.56,-885.25"/>
</g>
<!-- injected_icExpBackground:0&#45;&gt;injected_calibrate:2 -->
<g id="edge16" class="edge">
<title>injected_icExpBackground:0&#45;&gt;injected_calibrate:2</title>
<path fill="none" stroke="black" stroke-width="1.5" d="M831.75,-983.86C831.75,-983.86 831.75,-929.24 831.75,-929.24"/>
<polygon fill="black" stroke="black" stroke-width="1.5" points="837,-929.24 831.75,-914.24 826.5,-929.24 837,-929.24"/>
</g>
<!-- injected_icExp:0&#45;&gt;injected_calibrate:2 -->
<g id="edge17" class="edge">
<title>injected_icExp:0&#45;&gt;injected_calibrate:2</title>
<path fill="none" stroke="black" stroke-width="1.5" d="M1012.67,-983.86C1012.67,-983.86 1012.67,-929.24 1012.67,-929.24"/>
<polygon fill="black" stroke="black" stroke-width="1.5" points="1017.92,-929.24 1012.67,-914.24 1007.42,-929.24 1017.92,-929.24"/>
</g>
<!-- injected_calibrate:2&#45;&gt;injected_src:0 -->
<g id="edge20" class="edge">
<title>injected_calibrate:2&#45;&gt;injected_src:0</title>
<path fill="none" stroke="black" stroke-width="1.5" d="M725.85,-846C585.76,-846 416,-846 416,-846 416,-846 416,-757.18 416,-757.18"/>
<polygon fill="black" stroke="black" stroke-width="1.5" points="421.25,-757.18 416,-742.18 410.75,-757.18 421.25,-757.18"/>
</g>
<!-- injected_calexpBackground:0 -->
<g id="node17" class="node">
<title>injected_calexpBackground:0</title>
<path fill="#f5f5f5" stroke="#00babc" stroke-width="3" d="M837.5,-742C837.5,-742 556.5,-742 556.5,-742 550.5,-742 544.5,-736 544.5,-730 544.5,-730 544.5,-652 544.5,-652 544.5,-646 550.5,-640 556.5,-640 556.5,-640 837.5,-640 837.5,-640 843.5,-640 849.5,-646 849.5,-652 849.5,-652 849.5,-730 849.5,-730 849.5,-736 843.5,-742 837.5,-742"/>
<text text-anchor="start" x="566" y="-714.6" font-family="Monospace" font-weight="bold" font-size="18.00">injected_calexpBackground</text>
<text text-anchor="start" x="566" y="-685.8" font-family="Monospace" font-style="italic" font-size="14.00">dimensions:</text>
<text text-anchor="start" x="657" y="-685.8" font-family="Monospace" font-size="14.00"> {detector, visit}</text>
<text text-anchor="start" x="566" y="-658.8" font-family="Monospace" font-style="italic" font-size="14.00">storage class:</text>
<text text-anchor="start" x="682" y="-658.8" font-family="Monospace" font-size="14.00"> Background</text>
</g>
<!-- injected_calibrate:2&#45;&gt;injected_calexpBackground:0 -->
<g id="edge18" class="edge">
<title>injected_calibrate:2&#45;&gt;injected_calexpBackground:0</title>
<path fill="none" stroke="black" stroke-width="1.5" d="M787.75,-811.86C787.75,-811.86 787.75,-757.24 787.75,-757.24"/>
<polygon fill="black" stroke="black" stroke-width="1.5" points="793,-757.24 787.75,-742.24 782.5,-757.24 793,-757.24"/>
</g>
<!-- injected_calexp:0 -->
<g id="node18" class="node">
<title>injected_calexp:0</title>
<path fill="#f5f5f5" stroke="#00babc" stroke-width="3" d="M1156,-742C1156,-742 898,-742 898,-742 892,-742 886,-736 886,-730 886,-730 886,-652 886,-652 886,-646 892,-640 898,-640 898,-640 1156,-640 1156,-640 1162,-640 1168,-646 1168,-652 1168,-652 1168,-730 1168,-730 1168,-736 1162,-742 1156,-742"/>
<text text-anchor="start" x="907" y="-714.6" font-family="Monospace" font-weight="bold" font-size="18.00">injected_calexp</text>
<text text-anchor="start" x="907" y="-685.8" font-family="Monospace" font-style="italic" font-size="14.00">dimensions:</text>
<text text-anchor="start" x="998" y="-685.8" font-family="Monospace" font-size="14.00"> {detector, visit}</text>
<text text-anchor="start" x="907" y="-658.8" font-family="Monospace" font-style="italic" font-size="14.00">storage class:</text>
<text text-anchor="start" x="1023" y="-658.8" font-family="Monospace" font-size="14.00"> ExposureF</text>
</g>
<!-- injected_calibrate:2&#45;&gt;injected_calexp:0 -->
<g id="edge19" class="edge">
<title>injected_calibrate:2&#45;&gt;injected_calexp:0</title>
<path fill="none" stroke="black" stroke-width="1.5" d="M988,-811.86C988,-811.86 988,-757.24 988,-757.24"/>
<polygon fill="black" stroke="black" stroke-width="1.5" points="993.25,-757.24 988,-742.24 982.75,-757.24 993.25,-757.24"/>
</g>
<!-- 25c862bf:0 -->
<g id="node20" class="node">
<title>25c862bf:0</title>
<path fill="#f5f5f5" stroke="#00babc" stroke-width="3" d="M1474,-758C1474,-758 1216,-758 1216,-758 1210,-758 1204,-752 1204,-746 1204,-746 1204,-636 1204,-636 1204,-630 1210,-624 1216,-624 1216,-624 1474,-624 1474,-624 1480,-624 1486,-630 1486,-636 1486,-636 1486,-746 1486,-746 1486,-752 1480,-758 1474,-758"/>
<text text-anchor="start" x="1225" y="-730.6" font-family="Monospace" font-weight="bold" font-size="18.00">injected_srcMatchFull</text>
<text text-anchor="start" x="1225" y="-698.6" font-family="Monospace" font-weight="bold" font-size="18.00">injected_srcMatch</text>
<text text-anchor="start" x="1225" y="-669.8" font-family="Monospace" font-style="italic" font-size="14.00">dimensions:</text>
<text text-anchor="start" x="1316" y="-669.8" font-family="Monospace" font-size="14.00"> {detector, visit}</text>
<text text-anchor="start" x="1225" y="-642.8" font-family="Monospace" font-style="italic" font-size="14.00">storage class:</text>
<text text-anchor="start" x="1341" y="-642.8" font-family="Monospace" font-size="14.00"> Catalog</text>
</g>
<!-- injected_calibrate:2&#45;&gt;25c862bf:0 -->
<g id="edge21" class="edge">
<title>injected_calibrate:2&#45;&gt;25c862bf:0</title>
<path fill="none" stroke="black" stroke-width="1.5" d="M1090.17,-863C1163.03,-863 1230,-863 1230,-863 1230,-863 1230,-773.49 1230,-773.49"/>
<polygon fill="black" stroke="black" stroke-width="1.5" points="1235.25,-773.49 1230,-758.49 1224.75,-773.49 1235.25,-773.49"/>
</g>
<!-- c1110ee2:0 -->
<g id="node19" class="node">
<title>c1110ee2:0</title>
<path fill="#f5f5f5" stroke="#00babc" stroke-width="3" d="M1554,-1102C1554,-1102 1304,-1102 1304,-1102 1298,-1102 1292,-1096 1292,-1090 1292,-1090 1292,-980 1292,-980 1292,-974 1298,-968 1304,-968 1304,-968 1554,-968 1554,-968 1560,-968 1566,-974 1566,-980 1566,-980 1566,-1090 1566,-1090 1566,-1096 1560,-1102 1554,-1102"/>
<text text-anchor="start" x="1313" y="-1074.6" font-family="Monospace" font-weight="bold" font-size="18.00">ps1_pv3_3pi_20170110</text>
<text text-anchor="start" x="1313" y="-1042.6" font-family="Monospace" font-weight="bold" font-size="18.00">gaia_dr3_20230707</text>
<text text-anchor="start" x="1313" y="-1013.8" font-family="Monospace" font-style="italic" font-size="14.00">dimensions:</text>
<text text-anchor="start" x="1404" y="-1013.8" font-family="Monospace" font-size="14.00"> {htm7}</text>
<text text-anchor="start" x="1313" y="-986.8" font-family="Monospace" font-style="italic" font-size="14.00">storage class:</text>
<text text-anchor="start" x="1429" y="-986.8" font-family="Monospace" font-size="14.00"> SimpleCatalog</text>
</g>
<!-- c1110ee2:0&#45;&gt;injected_calibrate:2 -->
<g id="edge22" class="edge">
<title>c1110ee2:0&#45;&gt;injected_calibrate:2</title>
<path fill="none" stroke="black" stroke-width="1.5" d="M1291.85,-976C1183.82,-976 1051.33,-976 1051.33,-976 1051.33,-976 1051.33,-929.21 1051.33,-929.21"/>
<polygon fill="black" stroke="black" stroke-width="1.5" points="1056.58,-929.21 1051.33,-914.21 1046.08,-929.21 1056.58,-929.21"/>
</g>
</g>
</svg>
