<?xml version="1.0" encoding="UTF-8" standalone="no"?>
<!DOCTYPE svg PUBLIC "-//W3C//DTD SVG 1.1//EN"
 "http://www.w3.org/Graphics/SVG/1.1/DTD/svg11.dtd">
<!-- Generated by graphviz version 2.44.0 (0)
 -->
<!-- Title: Pipeline Pages: 1 -->
<svg width="1974pt" height="422pt"
 viewBox="0.00 0.00 1973.50 422.00" xmlns="http://www.w3.org/2000/svg" xmlns:xlink="http://www.w3.org/1999/xlink">
<g id="graph0" class="graph" transform="scale(1 1) rotate(0) translate(4 418)">
<title>Pipeline</title>
<polygon fill="white" stroke="transparent" points="-4,4 -4,-418 1969.5,-418 1969.5,4 -4,4"/>
<!-- forcedPhotCcd:2 -->
<g id="node1" class="node">
<title>forcedPhotCcd:2</title>
<polygon fill="#b1f2ef" stroke="black" stroke-width="3" points="741,-258 319,-258 319,-156 741,-156 741,-258"/>
<text text-anchor="start" x="340" y="-230.6" font-family="Monospace" font-weight="bold" font-size="18.00">forcedPhotCcd</text>
<text text-anchor="start" x="340" y="-200.8" font-family="Monospace" font-size="14.00">lsst.meas.base.forcedPhotCcd.ForcedPhotCcdTask</text>
<text text-anchor="start" x="340" y="-174.8" font-family="Monospace" font-style="italic" font-size="14.00">dimensions:</text>
<text text-anchor="start" x="431" y="-174.8" font-family="Monospace" font-size="14.00"> {detector, tract, visit}</text>
</g>
<!-- forced_calexp:0 -->
<g id="node6" class="node">
<title>forced_calexp:0</title>
<path fill="#f5f5f5" stroke="#00babc" stroke-width="3" d="M688,-102C688,-102 372,-102 372,-102 366,-102 360,-96 360,-90 360,-90 360,-12 360,-12 360,-6 366,0 372,0 372,0 688,0 688,0 694,0 700,-6 700,-12 700,-12 700,-90 700,-90 700,-96 694,-102 688,-102"/>
<text text-anchor="start" x="381" y="-74.6" font-family="Monospace" font-weight="bold" font-size="18.00">forced_calexp</text>
<text text-anchor="start" x="381" y="-45.8" font-family="Monospace" font-style="italic" font-size="14.00">dimensions:</text>
<text text-anchor="start" x="472" y="-45.8" font-family="Monospace" font-size="14.00"> {detector, tract, visit}</text>
<text text-anchor="start" x="381" y="-18.8" font-family="Monospace" font-style="italic" font-size="14.00">storage class:</text>
<text text-anchor="start" x="497" y="-18.8" font-family="Monospace" font-size="14.00"> SourceCatalog</text>
</g>
<!-- forcedPhotCcd:2&#45;&gt;forced_calexp:0 -->
<g id="edge1" class="edge">
<title>forcedPhotCcd:2&#45;&gt;forced_calexp:0</title>
<path fill="none" stroke="black" stroke-width="1.5" d="M530,-155.92C530,-155.92 530,-117.19 530,-117.19"/>
<polygon fill="black" stroke="black" stroke-width="1.5" points="535.25,-117.19 530,-102.19 524.75,-117.2 535.25,-117.19"/>
</g>
<!-- deepCoadd_ref:0 -->
<g id="node2" class="node">
<title>deepCoadd_ref:0</title>
<path fill="#f5f5f5" stroke="#00babc" stroke-width="3" d="M580,-414C580,-414 330,-414 330,-414 324,-414 318,-408 318,-402 318,-402 318,-324 318,-324 318,-318 324,-312 330,-312 330,-312 580,-312 580,-312 586,-312 592,-318 592,-324 592,-324 592,-402 592,-402 592,-408 586,-414 580,-414"/>
<text text-anchor="start" x="339" y="-386.6" font-family="Monospace" font-weight="bold" font-size="18.00">deepCoadd_ref</text>
<text text-anchor="start" x="339" y="-357.8" font-family="Monospace" font-style="italic" font-size="14.00">dimensions:</text>
<text text-anchor="start" x="430" y="-357.8" font-family="Monospace" font-size="14.00"> {patch}</text>
<text text-anchor="start" x="339" y="-330.8" font-family="Monospace" font-style="italic" font-size="14.00">storage class:</text>
<text text-anchor="start" x="455" y="-330.8" font-family="Monospace" font-size="14.00"> SourceCatalog</text>
</g>
<!-- deepCoadd_ref:0&#45;&gt;forcedPhotCcd:2 -->
<g id="edge2" class="edge">
<title>deepCoadd_ref:0&#45;&gt;forcedPhotCcd:2</title>
<path fill="none" stroke="black" stroke-width="1.5" d="M410,-311.92C410,-311.92 410,-273.19 410,-273.19"/>
<polygon fill="black" stroke="black" stroke-width="1.5" points="415.25,-273.19 410,-258.19 404.75,-273.2 415.25,-273.19"/>
</g>
<!-- forcedPhotDiffim:2 -->
<g id="node11" class="node">
<title>forcedPhotDiffim:2</title>
<polygon fill="#b1f2ef" stroke="black" stroke-width="3" points="1237,-258 815,-258 815,-156 1237,-156 1237,-258"/>
<text text-anchor="start" x="836" y="-230.6" font-family="Monospace" font-weight="bold" font-size="18.00">forcedPhotDiffim</text>
<text text-anchor="start" x="836" y="-200.8" font-family="Monospace" font-size="14.00">lsst.meas.base.forcedPhotCcd.ForcedPhotCcdTask</text>
<text text-anchor="start" x="836" y="-174.8" font-family="Monospace" font-style="italic" font-size="14.00">dimensions:</text>
<text text-anchor="start" x="927" y="-174.8" font-family="Monospace" font-size="14.00"> {detector, tract, visit}</text>
</g>
<!-- deepCoadd_ref:0&#45;&gt;forcedPhotDiffim:2 -->
<g id="edge3" class="edge">
<title>deepCoadd_ref:0&#45;&gt;forcedPhotDiffim:2</title>
<path fill="none" stroke="black" stroke-width="1.5" d="M501,-311.77C501,-301.61 501,-294 501,-294 501,-294 849.83,-294 849.83,-294 849.83,-294 849.83,-273.11 849.83,-273.11"/>
<polygon fill="black" stroke="black" stroke-width="1.5" points="855.08,-273.11 849.83,-258.11 844.58,-273.11 855.08,-273.11"/>
</g>
<!-- finalVisitSummary:0 -->
<g id="node3" class="node">
<title>finalVisitSummary:0</title>
<path fill="#f5f5f5" stroke="#00babc" stroke-width="3" d="M907.5,-414C907.5,-414 640.5,-414 640.5,-414 634.5,-414 628.5,-408 628.5,-402 628.5,-402 628.5,-324 628.5,-324 628.5,-318 634.5,-312 640.5,-312 640.5,-312 907.5,-312 907.5,-312 913.5,-312 919.5,-318 919.5,-324 919.5,-324 919.5,-402 919.5,-402 919.5,-408 913.5,-414 907.5,-414"/>
<text text-anchor="start" x="650" y="-386.6" font-family="Monospace" font-weight="bold" font-size="18.00">finalVisitSummary</text>
<text text-anchor="start" x="650" y="-357.8" font-family="Monospace" font-style="italic" font-size="14.00">dimensions:</text>
<text text-anchor="start" x="741" y="-357.8" font-family="Monospace" font-size="14.00"> {visit}</text>
<text text-anchor="start" x="650" y="-330.8" font-family="Monospace" font-style="italic" font-size="14.00">storage class:</text>
<text text-anchor="start" x="766" y="-330.8" font-family="Monospace" font-size="14.00"> ExposureCatalog</text>
</g>
<!-- finalVisitSummary:0&#45;&gt;forcedPhotCcd:2 -->
<g id="edge4" class="edge">
<title>finalVisitSummary:0&#45;&gt;forcedPhotCcd:2</title>
<path fill="none" stroke="black" stroke-width="1.5" d="M666,-311.92C666,-311.92 666,-273.19 666,-273.19"/>
<polygon fill="black" stroke="black" stroke-width="1.5" points="671.25,-273.19 666,-258.19 660.75,-273.2 671.25,-273.19"/>
</g>
<!-- finalVisitSummary:0&#45;&gt;forcedPhotDiffim:2 -->
<g id="edge5" class="edge">
<title>finalVisitSummary:0&#45;&gt;forcedPhotDiffim:2</title>
<path fill="none" stroke="black" stroke-width="1.5" d="M884.67,-311.92C884.67,-311.92 884.67,-273.19 884.67,-273.19"/>
<polygon fill="black" stroke="black" stroke-width="1.5" points="889.92,-273.19 884.67,-258.19 879.42,-273.2 889.92,-273.19"/>
</g>
<!-- injected_calexp:0 -->
<g id="node4" class="node">
<title>injected_calexp:0</title>
<path fill="#f5f5f5" stroke="#00babc" stroke-width="3" d="M270,-414C270,-414 12,-414 12,-414 6,-414 0,-408 0,-402 0,-402 0,-324 0,-324 0,-318 6,-312 12,-312 12,-312 270,-312 270,-312 276,-312 282,-318 282,-324 282,-324 282,-402 282,-402 282,-408 276,-414 270,-414"/>
<text text-anchor="start" x="21" y="-386.6" font-family="Monospace" font-weight="bold" font-size="18.00">injected_calexp</text>
<text text-anchor="start" x="21" y="-357.8" font-family="Monospace" font-style="italic" font-size="14.00">dimensions:</text>
<text text-anchor="start" x="112" y="-357.8" font-family="Monospace" font-size="14.00"> {detector, visit}</text>
<text text-anchor="start" x="21" y="-330.8" font-family="Monospace" font-style="italic" font-size="14.00">storage class:</text>
<text text-anchor="start" x="137" y="-330.8" font-family="Monospace" font-size="14.00"> ExposureF</text>
</g>
<!-- injected_calexp:0&#45;&gt;forcedPhotCcd:2 -->
<g id="edge6" class="edge">
<title>injected_calexp:0&#45;&gt;forcedPhotCcd:2</title>
<path fill="none" stroke="black" stroke-width="1.5" d="M141,-311.92C141,-266.42 141,-207 141,-207 141,-207 303.99,-207 303.99,-207"/>
<polygon fill="black" stroke="black" stroke-width="1.5" points="303.99,-212.25 318.99,-207 303.99,-201.75 303.99,-212.25"/>
</g>
<!-- skyMap:0 -->
<g id="node5" class="node">
<title>skyMap:0</title>
<path fill="#f5f5f5" stroke="#00babc" stroke-width="3" d="M1160,-414C1160,-414 968,-414 968,-414 962,-414 956,-408 956,-402 956,-402 956,-324 956,-324 956,-318 962,-312 968,-312 968,-312 1160,-312 1160,-312 1166,-312 1172,-318 1172,-324 1172,-324 1172,-402 1172,-402 1172,-408 1166,-414 1160,-414"/>
<text text-anchor="start" x="977" y="-386.6" font-family="Monospace" font-weight="bold" font-size="18.00">skyMap</text>
<text text-anchor="start" x="977" y="-357.8" font-family="Monospace" font-style="italic" font-size="14.00">dimensions:</text>
<text text-anchor="start" x="1068" y="-357.8" font-family="Monospace" font-size="14.00"> {skymap}</text>
<text text-anchor="start" x="977" y="-330.8" font-family="Monospace" font-style="italic" font-size="14.00">storage class:</text>
<text text-anchor="start" x="1093" y="-330.8" font-family="Monospace" font-size="14.00"> SkyMap</text>
</g>
<!-- skyMap:0&#45;&gt;forcedPhotCcd:2 -->
<g id="edge7" class="edge">
<title>skyMap:0&#45;&gt;forcedPhotCcd:2</title>
<path fill="none" stroke="black" stroke-width="1.5" d="M1028,-311.89C1028,-292.95 1028,-276 1028,-276 1028,-276 703.5,-276 703.5,-276 703.5,-276 703.5,-273.23 703.5,-273.23"/>
<polygon fill="black" stroke="black" stroke-width="1.5" points="708.75,-273.23 703.5,-258.23 698.25,-273.23 708.75,-273.23"/>
</g>
<!-- skyMap:0&#45;&gt;forcedPhotDiffim:2 -->
<g id="edge8" class="edge">
<title>skyMap:0&#45;&gt;forcedPhotDiffim:2</title>
<path fill="none" stroke="black" stroke-width="1.5" d="M1100,-311.92C1100,-311.92 1100,-273.19 1100,-273.19"/>
<polygon fill="black" stroke="black" stroke-width="1.5" points="1105.25,-273.19 1100,-258.19 1094.75,-273.2 1105.25,-273.19"/>
</g>
<!-- transformDiaSourceCat:2 -->
<g id="node7" class="node">
<title>transformDiaSourceCat:2</title>
<polygon fill="#b1f2ef" stroke="black" stroke-width="3" points="1965.5,-258 1304.5,-258 1304.5,-156 1965.5,-156 1965.5,-258"/>
<text text-anchor="start" x="1326" y="-230.6" font-family="Monospace" font-weight="bold" font-size="18.00">transformDiaSourceCat</text>
<text text-anchor="start" x="1326" y="-200.8" font-family="Monospace" font-size="14.00">lsst.ap.association.transformDiaSourceCatalog.TransformDiaSourceCatalogTask</text>
<text text-anchor="start" x="1326" y="-174.8" font-family="Monospace" font-style="italic" font-size="14.00">dimensions:</text>
<text text-anchor="start" x="1417" y="-174.8" font-family="Monospace" font-size="14.00"> {detector, visit}</text>
</g>
<!-- deepDiff_diaSrcTable:0 -->
<g id="node10" class="node">
<title>deepDiff_diaSrcTable:0</title>
<path fill="#f5f5f5" stroke="#00babc" stroke-width="3" d="M1764,-102C1764,-102 1506,-102 1506,-102 1500,-102 1494,-96 1494,-90 1494,-90 1494,-12 1494,-12 1494,-6 1500,0 1506,0 1506,0 1764,0 1764,0 1770,0 1776,-6 1776,-12 1776,-12 1776,-90 1776,-90 1776,-96 1770,-102 1764,-102"/>
<text text-anchor="start" x="1515" y="-74.6" font-family="Monospace" font-weight="bold" font-size="18.00">deepDiff_diaSrcTable</text>
<text text-anchor="start" x="1515" y="-45.8" font-family="Monospace" font-style="italic" font-size="14.00">dimensions:</text>
<text text-anchor="start" x="1606" y="-45.8" font-family="Monospace" font-size="14.00"> {detector, visit}</text>
<text text-anchor="start" x="1515" y="-18.8" font-family="Monospace" font-style="italic" font-size="14.00">storage class:</text>
<text text-anchor="start" x="1631" y="-18.8" font-family="Monospace" font-size="14.00"> DataFrame</text>
</g>
<!-- transformDiaSourceCat:2&#45;&gt;deepDiff_diaSrcTable:0 -->
<g id="edge9" class="edge">
<title>transformDiaSourceCat:2&#45;&gt;deepDiff_diaSrcTable:0</title>
<path fill="none" stroke="black" stroke-width="1.5" d="M1635,-155.92C1635,-155.92 1635,-117.19 1635,-117.19"/>
<polygon fill="black" stroke="black" stroke-width="1.5" points="1640.25,-117.19 1635,-102.19 1629.75,-117.2 1640.25,-117.19"/>
</g>
<!-- deepDiff_differenceExp:0 -->
<g id="node8" class="node">
<title>deepDiff_differenceExp:0</title>
<path fill="#f5f5f5" stroke="#00babc" stroke-width="3" d="M1478,-414C1478,-414 1220,-414 1220,-414 1214,-414 1208,-408 1208,-402 1208,-402 1208,-324 1208,-324 1208,-318 1214,-312 1220,-312 1220,-312 1478,-312 1478,-312 1484,-312 1490,-318 1490,-324 1490,-324 1490,-402 1490,-402 1490,-408 1484,-414 1478,-414"/>
<text text-anchor="start" x="1229" y="-386.6" font-family="Monospace" font-weight="bold" font-size="18.00">deepDiff_differenceExp</text>
<text text-anchor="start" x="1229" y="-357.8" font-family="Monospace" font-style="italic" font-size="14.00">dimensions:</text>
<text text-anchor="start" x="1320" y="-357.8" font-family="Monospace" font-size="14.00"> {detector, visit}</text>
<text text-anchor="start" x="1229" y="-330.8" font-family="Monospace" font-style="italic" font-size="14.00">storage class:</text>
<text text-anchor="start" x="1345" y="-330.8" font-family="Monospace" font-size="14.00"> ExposureF</text>
</g>
<!-- deepDiff_differenceExp:0&#45;&gt;transformDiaSourceCat:2 -->
<g id="edge10" class="edge">
<title>deepDiff_differenceExp:0&#45;&gt;transformDiaSourceCat:2</title>
<path fill="none" stroke="black" stroke-width="1.5" d="M1397.25,-311.92C1397.25,-311.92 1397.25,-273.19 1397.25,-273.19"/>
<polygon fill="black" stroke="black" stroke-width="1.5" points="1402.5,-273.19 1397.25,-258.19 1392,-273.2 1402.5,-273.19"/>
</g>
<!-- deepDiff_differenceExp:0&#45;&gt;forcedPhotDiffim:2 -->
<g id="edge11" class="edge">
<title>deepDiff_differenceExp:0&#45;&gt;forcedPhotDiffim:2</title>
<path fill="none" stroke="black" stroke-width="1.5" d="M1222.5,-311.92C1222.5,-311.92 1222.5,-273.19 1222.5,-273.19"/>
<polygon fill="black" stroke="black" stroke-width="1.5" points="1227.75,-273.19 1222.5,-258.19 1217.25,-273.2 1227.75,-273.19"/>
</g>
<!-- deepDiff_diaSrc:0 -->
<g id="node9" class="node">
<title>deepDiff_diaSrc:0</title>
<path fill="#f5f5f5" stroke="#00babc" stroke-width="3" d="M1796,-414C1796,-414 1538,-414 1538,-414 1532,-414 1526,-408 1526,-402 1526,-402 1526,-324 1526,-324 1526,-318 1532,-312 1538,-312 1538,-312 1796,-312 1796,-312 1802,-312 1808,-318 1808,-324 1808,-324 1808,-402 1808,-402 1808,-408 1802,-414 1796,-414"/>
<text text-anchor="start" x="1547" y="-386.6" font-family="Monospace" font-weight="bold" font-size="18.00">deepDiff_diaSrc</text>
<text text-anchor="start" x="1547" y="-357.8" font-family="Monospace" font-style="italic" font-size="14.00">dimensions:</text>
<text text-anchor="start" x="1638" y="-357.8" font-family="Monospace" font-size="14.00"> {detector, visit}</text>
<text text-anchor="start" x="1547" y="-330.8" font-family="Monospace" font-style="italic" font-size="14.00">storage class:</text>
<text text-anchor="start" x="1663" y="-330.8" font-family="Monospace" font-size="14.00"> SourceCatalog</text>
</g>
<!-- deepDiff_diaSrc:0&#45;&gt;transformDiaSourceCat:2 -->
<g id="edge12" class="edge">
<title>deepDiff_diaSrc:0&#45;&gt;transformDiaSourceCat:2</title>
<path fill="none" stroke="black" stroke-width="1.5" d="M1667,-311.92C1667,-311.92 1667,-273.19 1667,-273.19"/>
<polygon fill="black" stroke="black" stroke-width="1.5" points="1672.25,-273.19 1667,-258.19 1661.75,-273.2 1672.25,-273.19"/>
</g>
<!-- forced_diff:0 -->
<g id="node12" class="node">
<title>forced_diff:0</title>
<path fill="#f5f5f5" stroke="#00babc" stroke-width="3" d="M1184,-102C1184,-102 868,-102 868,-102 862,-102 856,-96 856,-90 856,-90 856,-12 856,-12 856,-6 862,0 868,0 868,0 1184,0 1184,0 1190,0 1196,-6 1196,-12 1196,-12 1196,-90 1196,-90 1196,-96 1190,-102 1184,-102"/>
<text text-anchor="start" x="877" y="-74.6" font-family="Monospace" font-weight="bold" font-size="18.00">forced_diff</text>
<text text-anchor="start" x="877" y="-45.8" font-family="Monospace" font-style="italic" font-size="14.00">dimensions:</text>
<text text-anchor="start" x="968" y="-45.8" font-family="Monospace" font-size="14.00"> {detector, tract, visit}</text>
<text text-anchor="start" x="877" y="-18.8" font-family="Monospace" font-style="italic" font-size="14.00">storage class:</text>
<text text-anchor="start" x="993" y="-18.8" font-family="Monospace" font-size="14.00"> SourceCatalog</text>
</g>
<!-- forcedPhotDiffim:2&#45;&gt;forced_diff:0 -->
<g id="edge13" class="edge">
<title>forcedPhotDiffim:2&#45;&gt;forced_diff:0</title>
<path fill="none" stroke="black" stroke-width="1.5" d="M1026,-155.92C1026,-155.92 1026,-117.19 1026,-117.19"/>
<polygon fill="black" stroke="black" stroke-width="1.5" points="1031.25,-117.19 1026,-102.19 1020.75,-117.2 1031.25,-117.19"/>
</g>
</g>
</svg>
