<?xml version="1.0" encoding="UTF-8" standalone="no"?>
<!DOCTYPE svg PUBLIC "-//W3C//DTD SVG 1.1//EN"
 "http://www.w3.org/Graphics/SVG/1.1/DTD/svg11.dtd">
<!-- Generated by graphviz version 2.44.0 (0)
 -->
<!-- Title: Pipeline Pages: 1 -->
<svg width="1028pt" height="422pt"
 viewBox="0.00 0.00 1028.00 422.00" xmlns="http://www.w3.org/2000/svg" xmlns:xlink="http://www.w3.org/1999/xlink">
<g id="graph0" class="graph" transform="scale(1 1) rotate(0) translate(4 418)">
<title>Pipeline</title>
<polygon fill="white" stroke="transparent" points="-4,4 -4,-418 1024,-418 1024,4 -4,4"/>
<!-- consolidateVisitSummary:2 -->
<g id="node1" class="node">
<title>consolidateVisitSummary:2</title>
<polygon fill="#b1f2ef" stroke="black" stroke-width="3" points="496,-258 0,-258 0,-156 496,-156 496,-258"/>
<text text-anchor="start" x="21" y="-230.6" font-family="Monospace" font-weight="bold" font-size="18.00">consolidateVisitSummary</text>
<text text-anchor="start" x="21" y="-200.8" font-family="Monospace" font-size="14.00">lsst.pipe.tasks.postprocess.ConsolidateVisitSummaryTask</text>
<text text-anchor="start" x="21" y="-174.8" font-family="Monospace" font-style="italic" font-size="14.00">dimensions:</text>
<text text-anchor="start" x="112" y="-174.8" font-family="Monospace" font-size="14.00"> {visit}</text>
</g>
<!-- visitSummary:0 -->
<g id="node3" class="node">
<title>visitSummary:0</title>
<path fill="#f5f5f5" stroke="#00babc" stroke-width="3" d="M381.5,-102C381.5,-102 114.5,-102 114.5,-102 108.5,-102 102.5,-96 102.5,-90 102.5,-90 102.5,-12 102.5,-12 102.5,-6 108.5,0 114.5,0 114.5,0 381.5,0 381.5,0 387.5,0 393.5,-6 393.5,-12 393.5,-12 393.5,-90 393.5,-90 393.5,-96 387.5,-102 381.5,-102"/>
<text text-anchor="start" x="124" y="-74.6" font-family="Monospace" font-weight="bold" font-size="18.00">visitSummary</text>
<text text-anchor="start" x="124" y="-45.8" font-family="Monospace" font-style="italic" font-size="14.00">dimensions:</text>
<text text-anchor="start" x="215" y="-45.8" font-family="Monospace" font-size="14.00"> {visit}</text>
<text text-anchor="start" x="124" y="-18.8" font-family="Monospace" font-style="italic" font-size="14.00">storage class:</text>
<text text-anchor="start" x="240" y="-18.8" font-family="Monospace" font-size="14.00"> ExposureCatalog</text>
</g>
<!-- consolidateVisitSummary:2&#45;&gt;visitSummary:0 -->
<g id="edge1" class="edge">
<title>consolidateVisitSummary:2&#45;&gt;visitSummary:0</title>
<path fill="none" stroke="black" stroke-width="1.5" d="M248,-155.92C248,-155.92 248,-117.19 248,-117.19"/>
<polygon fill="black" stroke="black" stroke-width="1.5" points="253.25,-117.19 248,-102.19 242.75,-117.2 253.25,-117.19"/>
</g>
<!-- calexp:0 -->
<g id="node2" class="node">
<title>calexp:0</title>
<path fill="#f5f5f5" stroke="#00babc" stroke-width="3" d="M377,-414C377,-414 119,-414 119,-414 113,-414 107,-408 107,-402 107,-402 107,-324 107,-324 107,-318 113,-312 119,-312 119,-312 377,-312 377,-312 383,-312 389,-318 389,-324 389,-324 389,-402 389,-402 389,-408 383,-414 377,-414"/>
<text text-anchor="start" x="128" y="-386.6" font-family="Monospace" font-weight="bold" font-size="18.00">calexp</text>
<text text-anchor="start" x="128" y="-357.8" font-family="Monospace" font-style="italic" font-size="14.00">dimensions:</text>
<text text-anchor="start" x="219" y="-357.8" font-family="Monospace" font-size="14.00"> {detector, visit}</text>
<text text-anchor="start" x="128" y="-330.8" font-family="Monospace" font-style="italic" font-size="14.00">storage class:</text>
<text text-anchor="start" x="244" y="-330.8" font-family="Monospace" font-size="14.00"> ExposureF</text>
</g>
<!-- calexp:0&#45;&gt;consolidateVisitSummary:2 -->
<g id="edge2" class="edge">
<title>calexp:0&#45;&gt;consolidateVisitSummary:2</title>
<path fill="none" stroke="black" stroke-width="1.5" d="M248,-311.92C248,-311.92 248,-273.19 248,-273.19"/>
<polygon fill="black" stroke="black" stroke-width="1.5" points="253.25,-273.19 248,-258.19 242.75,-273.2 253.25,-273.19"/>
</g>
<!-- consolidatePreSourceTable:2 -->
<g id="node4" class="node">
<title>consolidatePreSourceTable:2</title>
<polygon fill="#b1f2ef" stroke="black" stroke-width="3" points="1020,-258 532,-258 532,-156 1020,-156 1020,-258"/>
<text text-anchor="start" x="553" y="-230.6" font-family="Monospace" font-weight="bold" font-size="18.00">consolidatePreSourceTable</text>
<text text-anchor="start" x="553" y="-200.8" font-family="Monospace" font-size="14.00">lsst.pipe.tasks.postprocess.ConsolidateSourceTableTask</text>
<text text-anchor="start" x="553" y="-174.8" font-family="Monospace" font-style="italic" font-size="14.00">dimensions:</text>
<text text-anchor="start" x="644" y="-174.8" font-family="Monospace" font-size="14.00"> {visit}</text>
</g>
<!-- preSourceTable_visit:0 -->
<g id="node6" class="node">
<title>preSourceTable_visit:0</title>
<path fill="#f5f5f5" stroke="#00babc" stroke-width="3" d="M890.5,-102C890.5,-102 661.5,-102 661.5,-102 655.5,-102 649.5,-96 649.5,-90 649.5,-90 649.5,-12 649.5,-12 649.5,-6 655.5,0 661.5,0 661.5,0 890.5,0 890.5,0 896.5,0 902.5,-6 902.5,-12 902.5,-12 902.5,-90 902.5,-90 902.5,-96 896.5,-102 890.5,-102"/>
<text text-anchor="start" x="671" y="-74.6" font-family="Monospace" font-weight="bold" font-size="18.00">preSourceTable_visit</text>
<text text-anchor="start" x="671" y="-45.8" font-family="Monospace" font-style="italic" font-size="14.00">dimensions:</text>
<text text-anchor="start" x="762" y="-45.8" font-family="Monospace" font-size="14.00"> {visit}</text>
<text text-anchor="start" x="671" y="-18.8" font-family="Monospace" font-style="italic" font-size="14.00">storage class:</text>
<text text-anchor="start" x="787" y="-18.8" font-family="Monospace" font-size="14.00"> DataFrame</text>
</g>
<!-- consolidatePreSourceTable:2&#45;&gt;preSourceTable_visit:0 -->
<g id="edge3" class="edge">
<title>consolidatePreSourceTable:2&#45;&gt;preSourceTable_visit:0</title>
<path fill="none" stroke="black" stroke-width="1.5" d="M776,-155.92C776,-155.92 776,-117.19 776,-117.19"/>
<polygon fill="black" stroke="black" stroke-width="1.5" points="781.25,-117.19 776,-102.19 770.75,-117.2 781.25,-117.19"/>
</g>
<!-- preSourceTable:0 -->
<g id="node5" class="node">
<title>preSourceTable:0</title>
<path fill="#f5f5f5" stroke="#00babc" stroke-width="3" d="M905,-414C905,-414 647,-414 647,-414 641,-414 635,-408 635,-402 635,-402 635,-324 635,-324 635,-318 641,-312 647,-312 647,-312 905,-312 905,-312 911,-312 917,-318 917,-324 917,-324 917,-402 917,-402 917,-408 911,-414 905,-414"/>
<text text-anchor="start" x="656" y="-386.6" font-family="Monospace" font-weight="bold" font-size="18.00">preSourceTable</text>
<text text-anchor="start" x="656" y="-357.8" font-family="Monospace" font-style="italic" font-size="14.00">dimensions:</text>
<text text-anchor="start" x="747" y="-357.8" font-family="Monospace" font-size="14.00"> {detector, visit}</text>
<text text-anchor="start" x="656" y="-330.8" font-family="Monospace" font-style="italic" font-size="14.00">storage class:</text>
<text text-anchor="start" x="772" y="-330.8" font-family="Monospace" font-size="14.00"> DataFrame</text>
</g>
<!-- preSourceTable:0&#45;&gt;consolidatePreSourceTable:2 -->
<g id="edge4" class="edge">
<title>preSourceTable:0&#45;&gt;consolidatePreSourceTable:2</title>
<path fill="none" stroke="black" stroke-width="1.5" d="M776,-311.92C776,-311.92 776,-273.19 776,-273.19"/>
<polygon fill="black" stroke="black" stroke-width="1.5" points="781.25,-273.19 776,-258.19 770.75,-273.2 781.25,-273.19"/>
</g>
</g>
</svg>
