<?xml version="1.0" encoding="UTF-8" standalone="no"?>
<!DOCTYPE svg PUBLIC "-//W3C//DTD SVG 1.1//EN"
 "http://www.w3.org/Graphics/SVG/1.1/DTD/svg11.dtd">
<!-- Generated by graphviz version 2.44.0 (0)
 -->
<!-- Title: Pipeline Pages: 1 -->
<svg width="603pt" height="454pt"
 viewBox="0.00 0.00 603.00 454.00" xmlns="http://www.w3.org/2000/svg" xmlns:xlink="http://www.w3.org/1999/xlink">
<g id="graph0" class="graph" transform="scale(1 1) rotate(0) translate(4 450)">
<title>Pipeline</title>
<polygon fill="white" stroke="transparent" points="-4,4 -4,-450 599,-450 599,4 -4,4"/>
<!-- isolatedStarAssociation:2 -->
<g id="node1" class="node">
<title>isolatedStarAssociation:2</title>
<polygon fill="#b1f2ef" stroke="black" stroke-width="3" points="595,-290 0,-290 0,-188 595,-188 595,-290"/>
<text text-anchor="start" x="21.5" y="-262.6" font-family="Monospace" font-weight="bold" font-size="18.00">isolatedStarAssociation</text>
<text text-anchor="start" x="21.5" y="-232.8" font-family="Monospace" font-size="14.00">lsst.pipe.tasks.isolatedStarAssociation.IsolatedStarAssociationTask</text>
<text text-anchor="start" x="21.5" y="-206.8" font-family="Monospace" font-style="italic" font-size="14.00">dimensions:</text>
<text text-anchor="start" x="112.5" y="-206.8" font-family="Monospace" font-size="14.00"> {instrument, tract}</text>
</g>
<!-- 2e69bcb2:0 -->
<g id="node4" class="node">
<title>2e69bcb2:0</title>
<path fill="#f5f5f5" stroke="#00babc" stroke-width="3" d="M435,-134C435,-134 160,-134 160,-134 154,-134 148,-128 148,-122 148,-122 148,-12 148,-12 148,-6 154,0 160,0 160,0 435,0 435,0 441,0 447,-6 447,-12 447,-12 447,-122 447,-122 447,-128 441,-134 435,-134"/>
<text text-anchor="start" x="169.5" y="-106.6" font-family="Monospace" font-weight="bold" font-size="18.00">isolated_star_sources</text>
<text text-anchor="start" x="169.5" y="-74.6" font-family="Monospace" font-weight="bold" font-size="18.00">isolated_star_cat</text>
<text text-anchor="start" x="169.5" y="-45.8" font-family="Monospace" font-style="italic" font-size="14.00">dimensions:</text>
<text text-anchor="start" x="260.5" y="-45.8" font-family="Monospace" font-size="14.00"> {instrument, tract}</text>
<text text-anchor="start" x="169.5" y="-18.8" font-family="Monospace" font-style="italic" font-size="14.00">storage class:</text>
<text text-anchor="start" x="285.5" y="-18.8" font-family="Monospace" font-size="14.00"> DataFrame</text>
</g>
<!-- isolatedStarAssociation:2&#45;&gt;2e69bcb2:0 -->
<g id="edge1" class="edge">
<title>isolatedStarAssociation:2&#45;&gt;2e69bcb2:0</title>
<path fill="none" stroke="black" stroke-width="1.5" d="M297.5,-187.86C297.5,-187.86 297.5,-149.2 297.5,-149.2"/>
<polygon fill="black" stroke="black" stroke-width="1.5" points="302.75,-149.2 297.5,-134.2 292.25,-149.2 302.75,-149.2"/>
</g>
<!-- skyMap:0 -->
<g id="node2" class="node">
<title>skyMap:0</title>
<path fill="#f5f5f5" stroke="#00babc" stroke-width="3" d="M258.5,-446C258.5,-446 66.5,-446 66.5,-446 60.5,-446 54.5,-440 54.5,-434 54.5,-434 54.5,-356 54.5,-356 54.5,-350 60.5,-344 66.5,-344 66.5,-344 258.5,-344 258.5,-344 264.5,-344 270.5,-350 270.5,-356 270.5,-356 270.5,-434 270.5,-434 270.5,-440 264.5,-446 258.5,-446"/>
<text text-anchor="start" x="75.5" y="-418.6" font-family="Monospace" font-weight="bold" font-size="18.00">skyMap</text>
<text text-anchor="start" x="75.5" y="-389.8" font-family="Monospace" font-style="italic" font-size="14.00">dimensions:</text>
<text text-anchor="start" x="166.5" y="-389.8" font-family="Monospace" font-size="14.00"> {skymap}</text>
<text text-anchor="start" x="75.5" y="-362.8" font-family="Monospace" font-style="italic" font-size="14.00">storage class:</text>
<text text-anchor="start" x="191.5" y="-362.8" font-family="Monospace" font-size="14.00"> SkyMap</text>
</g>
<!-- skyMap:0&#45;&gt;isolatedStarAssociation:2 -->
<g id="edge2" class="edge">
<title>skyMap:0&#45;&gt;isolatedStarAssociation:2</title>
<path fill="none" stroke="black" stroke-width="1.5" d="M162.5,-343.92C162.5,-343.92 162.5,-305.19 162.5,-305.19"/>
<polygon fill="black" stroke="black" stroke-width="1.5" points="167.75,-305.19 162.5,-290.19 157.25,-305.2 167.75,-305.19"/>
</g>
<!-- preSourceTable_visit:0 -->
<g id="node3" class="node">
<title>preSourceTable_visit:0</title>
<path fill="#f5f5f5" stroke="#00babc" stroke-width="3" d="M548,-446C548,-446 319,-446 319,-446 313,-446 307,-440 307,-434 307,-434 307,-356 307,-356 307,-350 313,-344 319,-344 319,-344 548,-344 548,-344 554,-344 560,-350 560,-356 560,-356 560,-434 560,-434 560,-440 554,-446 548,-446"/>
<text text-anchor="start" x="328.5" y="-418.6" font-family="Monospace" font-weight="bold" font-size="18.00">preSourceTable_visit</text>
<text text-anchor="start" x="328.5" y="-389.8" font-family="Monospace" font-style="italic" font-size="14.00">dimensions:</text>
<text text-anchor="start" x="419.5" y="-389.8" font-family="Monospace" font-size="14.00"> {visit}</text>
<text text-anchor="start" x="328.5" y="-362.8" font-family="Monospace" font-style="italic" font-size="14.00">storage class:</text>
<text text-anchor="start" x="444.5" y="-362.8" font-family="Monospace" font-size="14.00"> DataFrame</text>
</g>
<!-- preSourceTable_visit:0&#45;&gt;isolatedStarAssociation:2 -->
<g id="edge3" class="edge">
<title>preSourceTable_visit:0&#45;&gt;isolatedStarAssociation:2</title>
<path fill="none" stroke="black" stroke-width="1.5" d="M433.5,-343.92C433.5,-343.92 433.5,-305.19 433.5,-305.19"/>
<polygon fill="black" stroke="black" stroke-width="1.5" points="438.75,-305.19 433.5,-290.19 428.25,-305.2 438.75,-305.19"/>
</g>
</g>
</svg>
