<?xml version="1.0" encoding="UTF-8" standalone="no"?>
<!DOCTYPE svg PUBLIC "-//W3C//DTD SVG 1.1//EN"
 "http://www.w3.org/Graphics/SVG/1.1/DTD/svg11.dtd">
<!-- Generated by graphviz version 2.44.0 (0)
 -->
<!-- Title: Pipeline Pages: 1 -->
<svg width="853pt" height="454pt"
 viewBox="0.00 0.00 853.00 454.00" xmlns="http://www.w3.org/2000/svg" xmlns:xlink="http://www.w3.org/1999/xlink">
<g id="graph0" class="graph" transform="scale(1 1) rotate(0) translate(4 450)">
<title>Pipeline</title>
<polygon fill="white" stroke="transparent" points="-4,4 -4,-450 849,-450 849,4 -4,4"/>
<!-- assembleCoadd:2 -->
<g id="node1" class="node">
<title>assembleCoadd:2</title>
<polygon fill="#b1f2ef" stroke="black" stroke-width="3" points="683,-258 162,-258 162,-156 683,-156 683,-258"/>
<text text-anchor="start" x="183.5" y="-230.6" font-family="Monospace" font-weight="bold" font-size="18.00">assembleCoadd</text>
<text text-anchor="start" x="183.5" y="-200.8" font-family="Monospace" font-size="14.00">lsst.drp.tasks.assemble_coadd.CompareWarpAssembleCoaddTask</text>
<text text-anchor="start" x="183.5" y="-174.8" font-family="Monospace" font-style="italic" font-size="14.00">dimensions:</text>
<text text-anchor="start" x="274.5" y="-174.8" font-family="Monospace" font-size="14.00"> {band, patch}</text>
</g>
<!-- deepCoadd:0 -->
<g id="node3" class="node">
<title>deepCoadd:0</title>
<path fill="#f5f5f5" stroke="#00babc" stroke-width="3" d="M237,-102C237,-102 12,-102 12,-102 6,-102 0,-96 0,-90 0,-90 0,-12 0,-12 0,-6 6,0 12,0 12,0 237,0 237,0 243,0 249,-6 249,-12 249,-12 249,-90 249,-90 249,-96 243,-102 237,-102"/>
<text text-anchor="start" x="21.5" y="-74.6" font-family="Monospace" font-weight="bold" font-size="18.00">deepCoadd</text>
<text text-anchor="start" x="21.5" y="-45.8" font-family="Monospace" font-style="italic" font-size="14.00">dimensions:</text>
<text text-anchor="start" x="112.5" y="-45.8" font-family="Monospace" font-size="14.00"> {band, patch}</text>
<text text-anchor="start" x="21.5" y="-18.8" font-family="Monospace" font-style="italic" font-size="14.00">storage class:</text>
<text text-anchor="start" x="137.5" y="-18.8" font-family="Monospace" font-size="14.00"> ExposureF</text>
</g>
<!-- assembleCoadd:2&#45;&gt;deepCoadd:0 -->
<g id="edge1" class="edge">
<title>assembleCoadd:2&#45;&gt;deepCoadd:0</title>
<path fill="none" stroke="black" stroke-width="1.5" d="M205.5,-155.92C205.5,-155.92 205.5,-117.19 205.5,-117.19"/>
<polygon fill="black" stroke="black" stroke-width="1.5" points="210.75,-117.19 205.5,-102.19 200.25,-117.2 210.75,-117.19"/>
</g>
<!-- deepCoadd_inputMap:0 -->
<g id="node4" class="node">
<title>deepCoadd_inputMap:0</title>
<path fill="#f5f5f5" stroke="#00babc" stroke-width="3" d="M547.5,-102C547.5,-102 297.5,-102 297.5,-102 291.5,-102 285.5,-96 285.5,-90 285.5,-90 285.5,-12 285.5,-12 285.5,-6 291.5,0 297.5,0 297.5,0 547.5,0 547.5,0 553.5,0 559.5,-6 559.5,-12 559.5,-12 559.5,-90 559.5,-90 559.5,-96 553.5,-102 547.5,-102"/>
<text text-anchor="start" x="306.5" y="-74.6" font-family="Monospace" font-weight="bold" font-size="18.00">deepCoadd_inputMap</text>
<text text-anchor="start" x="306.5" y="-45.8" font-family="Monospace" font-style="italic" font-size="14.00">dimensions:</text>
<text text-anchor="start" x="397.5" y="-45.8" font-family="Monospace" font-size="14.00"> {band, patch}</text>
<text text-anchor="start" x="306.5" y="-18.8" font-family="Monospace" font-style="italic" font-size="14.00">storage class:</text>
<text text-anchor="start" x="422.5" y="-18.8" font-family="Monospace" font-size="14.00"> HealSparseMap</text>
</g>
<!-- assembleCoadd:2&#45;&gt;deepCoadd_inputMap:0 -->
<g id="edge2" class="edge">
<title>assembleCoadd:2&#45;&gt;deepCoadd_inputMap:0</title>
<path fill="none" stroke="black" stroke-width="1.5" d="M422.5,-155.92C422.5,-155.92 422.5,-117.19 422.5,-117.19"/>
<polygon fill="black" stroke="black" stroke-width="1.5" points="427.75,-117.19 422.5,-102.19 417.25,-117.2 427.75,-117.19"/>
</g>
<!-- deepCoadd_nImage:0 -->
<g id="node5" class="node">
<title>deepCoadd_nImage:0</title>
<path fill="#f5f5f5" stroke="#00babc" stroke-width="3" d="M833,-102C833,-102 608,-102 608,-102 602,-102 596,-96 596,-90 596,-90 596,-12 596,-12 596,-6 602,0 608,0 608,0 833,0 833,0 839,0 845,-6 845,-12 845,-12 845,-90 845,-90 845,-96 839,-102 833,-102"/>
<text text-anchor="start" x="617.5" y="-74.6" font-family="Monospace" font-weight="bold" font-size="18.00">deepCoadd_nImage</text>
<text text-anchor="start" x="617.5" y="-45.8" font-family="Monospace" font-style="italic" font-size="14.00">dimensions:</text>
<text text-anchor="start" x="708.5" y="-45.8" font-family="Monospace" font-size="14.00"> {band, patch}</text>
<text text-anchor="start" x="617.5" y="-18.8" font-family="Monospace" font-style="italic" font-size="14.00">storage class:</text>
<text text-anchor="start" x="733.5" y="-18.8" font-family="Monospace" font-size="14.00"> ImageU</text>
</g>
<!-- assembleCoadd:2&#45;&gt;deepCoadd_nImage:0 -->
<g id="edge3" class="edge">
<title>assembleCoadd:2&#45;&gt;deepCoadd_nImage:0</title>
<path fill="none" stroke="black" stroke-width="1.5" d="M639.5,-155.92C639.5,-155.92 639.5,-117.19 639.5,-117.19"/>
<polygon fill="black" stroke="black" stroke-width="1.5" points="644.75,-117.19 639.5,-102.19 634.25,-117.2 644.75,-117.19"/>
</g>
<!-- skyMap:0 -->
<g id="node2" class="node">
<title>skyMap:0</title>
<path fill="#f5f5f5" stroke="#00babc" stroke-width="3" d="M372.5,-430C372.5,-430 180.5,-430 180.5,-430 174.5,-430 168.5,-424 168.5,-418 168.5,-418 168.5,-340 168.5,-340 168.5,-334 174.5,-328 180.5,-328 180.5,-328 372.5,-328 372.5,-328 378.5,-328 384.5,-334 384.5,-340 384.5,-340 384.5,-418 384.5,-418 384.5,-424 378.5,-430 372.5,-430"/>
<text text-anchor="start" x="189.5" y="-402.6" font-family="Monospace" font-weight="bold" font-size="18.00">skyMap</text>
<text text-anchor="start" x="189.5" y="-373.8" font-family="Monospace" font-style="italic" font-size="14.00">dimensions:</text>
<text text-anchor="start" x="280.5" y="-373.8" font-family="Monospace" font-size="14.00"> {skymap}</text>
<text text-anchor="start" x="189.5" y="-346.8" font-family="Monospace" font-style="italic" font-size="14.00">storage class:</text>
<text text-anchor="start" x="305.5" y="-346.8" font-family="Monospace" font-size="14.00"> SkyMap</text>
</g>
<!-- skyMap:0&#45;&gt;assembleCoadd:2 -->
<g id="edge4" class="edge">
<title>skyMap:0&#45;&gt;assembleCoadd:2</title>
<path fill="none" stroke="black" stroke-width="1.5" d="M276.5,-327.86C276.5,-327.86 276.5,-273.24 276.5,-273.24"/>
<polygon fill="black" stroke="black" stroke-width="1.5" points="281.75,-273.24 276.5,-258.24 271.25,-273.24 281.75,-273.24"/>
</g>
<!-- 407c682f:0 -->
<g id="node6" class="node">
<title>407c682f:0</title>
<path fill="#f5f5f5" stroke="#00babc" stroke-width="3" d="M704,-446C704,-446 433,-446 433,-446 427,-446 421,-440 421,-434 421,-434 421,-324 421,-324 421,-318 427,-312 433,-312 433,-312 704,-312 704,-312 710,-312 716,-318 716,-324 716,-324 716,-434 716,-434 716,-440 710,-446 704,-446"/>
<text text-anchor="start" x="442.5" y="-418.6" font-family="Monospace" font-weight="bold" font-size="18.00">deepCoadd_psfMatchedWarp</text>
<text text-anchor="start" x="442.5" y="-386.6" font-family="Monospace" font-weight="bold" font-size="18.00">deepCoadd_directWarp</text>
<text text-anchor="start" x="442.5" y="-357.8" font-family="Monospace" font-style="italic" font-size="14.00">dimensions:</text>
<text text-anchor="start" x="533.5" y="-357.8" font-family="Monospace" font-size="14.00"> {patch, visit}</text>
<text text-anchor="start" x="442.5" y="-330.8" font-family="Monospace" font-style="italic" font-size="14.00">storage class:</text>
<text text-anchor="start" x="558.5" y="-330.8" font-family="Monospace" font-size="14.00"> ExposureF</text>
</g>
<!-- 407c682f:0&#45;&gt;assembleCoadd:2 -->
<g id="edge5" class="edge">
<title>407c682f:0&#45;&gt;assembleCoadd:2</title>
<path fill="none" stroke="black" stroke-width="1.5" d="M552,-311.51C552,-311.51 552,-273.07 552,-273.07"/>
<polygon fill="black" stroke="black" stroke-width="1.5" points="557.25,-273.07 552,-258.07 546.75,-273.07 557.25,-273.07"/>
</g>
</g>
</svg>
