<?xml version="1.0" encoding="UTF-8" standalone="no"?>
<!DOCTYPE svg PUBLIC "-//W3C//DTD SVG 1.1//EN"
 "http://www.w3.org/Graphics/SVG/1.1/DTD/svg11.dtd">
<!-- Generated by graphviz version 2.44.0 (0)
 -->
<!-- Title: Pipeline Pages: 1 -->
<svg width="853pt" height="454pt"
 viewBox="0.00 0.00 852.50 454.00" xmlns="http://www.w3.org/2000/svg" xmlns:xlink="http://www.w3.org/1999/xlink">
<g id="graph0" class="graph" transform="scale(1 1) rotate(0) translate(4 450)">
<title>Pipeline</title>
<polygon fill="white" stroke="transparent" points="-4,4 -4,-450 848.5,-450 848.5,4 -4,4"/>
<!-- assembleCoadd:2 -->
<g id="node1" class="node">
<title>assembleCoadd:2</title>
<polygon fill="#b1f2ef" stroke="black" stroke-width="3" points="670,-258 149,-258 149,-156 670,-156 670,-258"/>
<text text-anchor="start" x="170.5" y="-230.6" font-family="Monospace" font-weight="bold" font-size="18.00">assembleCoadd</text>
<text text-anchor="start" x="170.5" y="-200.8" font-family="Monospace" font-size="14.00">lsst.drp.tasks.assemble_coadd.CompareWarpAssembleCoaddTask</text>
<text text-anchor="start" x="170.5" y="-174.8" font-family="Monospace" font-style="italic" font-size="14.00">dimensions:</text>
<text text-anchor="start" x="261.5" y="-174.8" font-family="Monospace" font-size="14.00"> {band, patch}</text>
</g>
<!-- deepCoadd:0 -->
<g id="node3" class="node">
<title>deepCoadd:0</title>
<path fill="#f5f5f5" stroke="#00babc" stroke-width="3" d="M237,-102C237,-102 12,-102 12,-102 6,-102 0,-96 0,-90 0,-90 0,-12 0,-12 0,-6 6,0 12,0 12,0 237,0 237,0 243,0 249,-6 249,-12 249,-12 249,-90 249,-90 249,-96 243,-102 237,-102"/>
<text text-anchor="start" x="21.5" y="-74.6" font-family="Monospace" font-weight="bold" font-size="18.00">deepCoadd</text>
<text text-anchor="start" x="21.5" y="-45.8" font-family="Monospace" font-style="italic" font-size="14.00">dimensions:</text>
<text text-anchor="start" x="112.5" y="-45.8" font-family="Monospace" font-size="14.00"> {band, patch}</text>
<text text-anchor="start" x="21.5" y="-18.8" font-family="Monospace" font-style="italic" font-size="14.00">storage class:</text>
<text text-anchor="start" x="137.5" y="-18.8" font-family="Monospace" font-size="14.00"> ExposureF</text>
</g>
<!-- assembleCoadd:2&#45;&gt;deepCoadd:0 -->
<g id="edge1" class="edge">
<title>assembleCoadd:2&#45;&gt;deepCoadd:0</title>
<path fill="none" stroke="black" stroke-width="1.5" d="M199,-155.92C199,-155.92 199,-117.19 199,-117.19"/>
<polygon fill="black" stroke="black" stroke-width="1.5" points="204.25,-117.19 199,-102.19 193.75,-117.2 204.25,-117.19"/>
</g>
<!-- deepCoadd_nImage:0 -->
<g id="node4" class="node">
<title>deepCoadd_nImage:0</title>
<path fill="#f5f5f5" stroke="#00babc" stroke-width="3" d="M522,-102C522,-102 297,-102 297,-102 291,-102 285,-96 285,-90 285,-90 285,-12 285,-12 285,-6 291,0 297,0 297,0 522,0 522,0 528,0 534,-6 534,-12 534,-12 534,-90 534,-90 534,-96 528,-102 522,-102"/>
<text text-anchor="start" x="306.5" y="-74.6" font-family="Monospace" font-weight="bold" font-size="18.00">deepCoadd_nImage</text>
<text text-anchor="start" x="306.5" y="-45.8" font-family="Monospace" font-style="italic" font-size="14.00">dimensions:</text>
<text text-anchor="start" x="397.5" y="-45.8" font-family="Monospace" font-size="14.00"> {band, patch}</text>
<text text-anchor="start" x="306.5" y="-18.8" font-family="Monospace" font-style="italic" font-size="14.00">storage class:</text>
<text text-anchor="start" x="422.5" y="-18.8" font-family="Monospace" font-size="14.00"> ImageU</text>
</g>
<!-- assembleCoadd:2&#45;&gt;deepCoadd_nImage:0 -->
<g id="edge2" class="edge">
<title>assembleCoadd:2&#45;&gt;deepCoadd_nImage:0</title>
<path fill="none" stroke="black" stroke-width="1.5" d="M409.5,-155.92C409.5,-155.92 409.5,-117.19 409.5,-117.19"/>
<polygon fill="black" stroke="black" stroke-width="1.5" points="414.75,-117.19 409.5,-102.19 404.25,-117.2 414.75,-117.19"/>
</g>
<!-- deepCoadd_inputMap:0 -->
<g id="node5" class="node">
<title>deepCoadd_inputMap:0</title>
<path fill="#f5f5f5" stroke="#00babc" stroke-width="3" d="M832.5,-102C832.5,-102 582.5,-102 582.5,-102 576.5,-102 570.5,-96 570.5,-90 570.5,-90 570.5,-12 570.5,-12 570.5,-6 576.5,0 582.5,0 582.5,0 832.5,0 832.5,0 838.5,0 844.5,-6 844.5,-12 844.5,-12 844.5,-90 844.5,-90 844.5,-96 838.5,-102 832.5,-102"/>
<text text-anchor="start" x="591.5" y="-74.6" font-family="Monospace" font-weight="bold" font-size="18.00">deepCoadd_inputMap</text>
<text text-anchor="start" x="591.5" y="-45.8" font-family="Monospace" font-style="italic" font-size="14.00">dimensions:</text>
<text text-anchor="start" x="682.5" y="-45.8" font-family="Monospace" font-size="14.00"> {band, patch}</text>
<text text-anchor="start" x="591.5" y="-18.8" font-family="Monospace" font-style="italic" font-size="14.00">storage class:</text>
<text text-anchor="start" x="707.5" y="-18.8" font-family="Monospace" font-size="14.00"> HealSparseMap</text>
</g>
<!-- assembleCoadd:2&#45;&gt;deepCoadd_inputMap:0 -->
<g id="edge3" class="edge">
<title>assembleCoadd:2&#45;&gt;deepCoadd_inputMap:0</title>
<path fill="none" stroke="black" stroke-width="1.5" d="M620.25,-155.92C620.25,-155.92 620.25,-117.19 620.25,-117.19"/>
<polygon fill="black" stroke="black" stroke-width="1.5" points="625.5,-117.19 620.25,-102.19 615,-117.2 625.5,-117.19"/>
</g>
<!-- skyMap:0 -->
<g id="node2" class="node">
<title>skyMap:0</title>
<path fill="#f5f5f5" stroke="#00babc" stroke-width="3" d="M359.5,-430C359.5,-430 167.5,-430 167.5,-430 161.5,-430 155.5,-424 155.5,-418 155.5,-418 155.5,-340 155.5,-340 155.5,-334 161.5,-328 167.5,-328 167.5,-328 359.5,-328 359.5,-328 365.5,-328 371.5,-334 371.5,-340 371.5,-340 371.5,-418 371.5,-418 371.5,-424 365.5,-430 359.5,-430"/>
<text text-anchor="start" x="176.5" y="-402.6" font-family="Monospace" font-weight="bold" font-size="18.00">skyMap</text>
<text text-anchor="start" x="176.5" y="-373.8" font-family="Monospace" font-style="italic" font-size="14.00">dimensions:</text>
<text text-anchor="start" x="267.5" y="-373.8" font-family="Monospace" font-size="14.00"> {skymap}</text>
<text text-anchor="start" x="176.5" y="-346.8" font-family="Monospace" font-style="italic" font-size="14.00">storage class:</text>
<text text-anchor="start" x="292.5" y="-346.8" font-family="Monospace" font-size="14.00"> SkyMap</text>
</g>
<!-- skyMap:0&#45;&gt;assembleCoadd:2 -->
<g id="edge4" class="edge">
<title>skyMap:0&#45;&gt;assembleCoadd:2</title>
<path fill="none" stroke="black" stroke-width="1.5" d="M263.5,-327.86C263.5,-327.86 263.5,-273.24 263.5,-273.24"/>
<polygon fill="black" stroke="black" stroke-width="1.5" points="268.75,-273.24 263.5,-258.24 258.25,-273.24 268.75,-273.24"/>
</g>
<!-- 407c682f:0 -->
<g id="node6" class="node">
<title>407c682f:0</title>
<path fill="#f5f5f5" stroke="#00babc" stroke-width="3" d="M691,-446C691,-446 420,-446 420,-446 414,-446 408,-440 408,-434 408,-434 408,-324 408,-324 408,-318 414,-312 420,-312 420,-312 691,-312 691,-312 697,-312 703,-318 703,-324 703,-324 703,-434 703,-434 703,-440 697,-446 691,-446"/>
<text text-anchor="start" x="429.5" y="-418.6" font-family="Monospace" font-weight="bold" font-size="18.00">deepCoadd_psfMatchedWarp</text>
<text text-anchor="start" x="429.5" y="-386.6" font-family="Monospace" font-weight="bold" font-size="18.00">deepCoadd_directWarp</text>
<text text-anchor="start" x="429.5" y="-357.8" font-family="Monospace" font-style="italic" font-size="14.00">dimensions:</text>
<text text-anchor="start" x="520.5" y="-357.8" font-family="Monospace" font-size="14.00"> {patch, visit}</text>
<text text-anchor="start" x="429.5" y="-330.8" font-family="Monospace" font-style="italic" font-size="14.00">storage class:</text>
<text text-anchor="start" x="545.5" y="-330.8" font-family="Monospace" font-size="14.00"> ExposureF</text>
</g>
<!-- 407c682f:0&#45;&gt;assembleCoadd:2 -->
<g id="edge5" class="edge">
<title>407c682f:0&#45;&gt;assembleCoadd:2</title>
<path fill="none" stroke="black" stroke-width="1.5" d="M539,-311.51C539,-311.51 539,-273.07 539,-273.07"/>
<polygon fill="black" stroke="black" stroke-width="1.5" points="544.25,-273.07 539,-258.07 533.75,-273.07 544.25,-273.07"/>
</g>
</g>
</svg>
