<?xml version="1.0" encoding="UTF-8" standalone="no"?>
<!DOCTYPE svg PUBLIC "-//W3C//DTD SVG 1.1//EN"
 "http://www.w3.org/Graphics/SVG/1.1/DTD/svg11.dtd">
<!-- Generated by graphviz version 2.44.0 (0)
 -->
<!-- Title: Pipeline Pages: 1 -->
<svg width="496pt" height="422pt"
 viewBox="0.00 0.00 496.00 422.00" xmlns="http://www.w3.org/2000/svg" xmlns:xlink="http://www.w3.org/1999/xlink">
<g id="graph0" class="graph" transform="scale(1 1) rotate(0) translate(4 418)">
<title>Pipeline</title>
<polygon fill="white" stroke="transparent" points="-4,4 -4,-418 492,-418 492,4 -4,4"/>
<!-- consolidateDiaSourceTable:2 -->
<g id="node1" class="node">
<title>consolidateDiaSourceTable:2</title>
<polygon fill="#b1f2ef" stroke="black" stroke-width="3" points="488,-258 0,-258 0,-156 488,-156 488,-258"/>
<text text-anchor="start" x="21" y="-230.6" font-family="Monospace" font-weight="bold" font-size="18.00">consolidateDiaSourceTable</text>
<text text-anchor="start" x="21" y="-200.8" font-family="Monospace" font-size="14.00">lsst.pipe.tasks.postprocess.ConsolidateSourceTableTask</text>
<text text-anchor="start" x="21" y="-174.8" font-family="Monospace" font-style="italic" font-size="14.00">dimensions:</text>
<text text-anchor="start" x="112" y="-174.8" font-family="Monospace" font-size="14.00"> {visit}</text>
</g>
<!-- diaSourceTable:0 -->
<g id="node3" class="node">
<title>diaSourceTable:0</title>
<path fill="#f5f5f5" stroke="#00babc" stroke-width="3" d="M352.5,-102C352.5,-102 135.5,-102 135.5,-102 129.5,-102 123.5,-96 123.5,-90 123.5,-90 123.5,-12 123.5,-12 123.5,-6 129.5,0 135.5,0 135.5,0 352.5,0 352.5,0 358.5,0 364.5,-6 364.5,-12 364.5,-12 364.5,-90 364.5,-90 364.5,-96 358.5,-102 352.5,-102"/>
<text text-anchor="start" x="145" y="-74.6" font-family="Monospace" font-weight="bold" font-size="18.00">diaSourceTable</text>
<text text-anchor="start" x="145" y="-45.8" font-family="Monospace" font-style="italic" font-size="14.00">dimensions:</text>
<text text-anchor="start" x="236" y="-45.8" font-family="Monospace" font-size="14.00"> {visit}</text>
<text text-anchor="start" x="145" y="-18.8" font-family="Monospace" font-style="italic" font-size="14.00">storage class:</text>
<text text-anchor="start" x="261" y="-18.8" font-family="Monospace" font-size="14.00"> DataFrame</text>
</g>
<!-- consolidateDiaSourceTable:2&#45;&gt;diaSourceTable:0 -->
<g id="edge1" class="edge">
<title>consolidateDiaSourceTable:2&#45;&gt;diaSourceTable:0</title>
<path fill="none" stroke="black" stroke-width="1.5" d="M244,-155.92C244,-155.92 244,-117.19 244,-117.19"/>
<polygon fill="black" stroke="black" stroke-width="1.5" points="249.25,-117.19 244,-102.19 238.75,-117.2 249.25,-117.19"/>
</g>
<!-- deepDiff_diaSrcTable:0 -->
<g id="node2" class="node">
<title>deepDiff_diaSrcTable:0</title>
<path fill="#f5f5f5" stroke="#00babc" stroke-width="3" d="M373,-414C373,-414 115,-414 115,-414 109,-414 103,-408 103,-402 103,-402 103,-324 103,-324 103,-318 109,-312 115,-312 115,-312 373,-312 373,-312 379,-312 385,-318 385,-324 385,-324 385,-402 385,-402 385,-408 379,-414 373,-414"/>
<text text-anchor="start" x="124" y="-386.6" font-family="Monospace" font-weight="bold" font-size="18.00">deepDiff_diaSrcTable</text>
<text text-anchor="start" x="124" y="-357.8" font-family="Monospace" font-style="italic" font-size="14.00">dimensions:</text>
<text text-anchor="start" x="215" y="-357.8" font-family="Monospace" font-size="14.00"> {detector, visit}</text>
<text text-anchor="start" x="124" y="-330.8" font-family="Monospace" font-style="italic" font-size="14.00">storage class:</text>
<text text-anchor="start" x="240" y="-330.8" font-family="Monospace" font-size="14.00"> DataFrame</text>
</g>
<!-- deepDiff_diaSrcTable:0&#45;&gt;consolidateDiaSourceTable:2 -->
<g id="edge2" class="edge">
<title>deepDiff_diaSrcTable:0&#45;&gt;consolidateDiaSourceTable:2</title>
<path fill="none" stroke="black" stroke-width="1.5" d="M244,-311.92C244,-311.92 244,-273.19 244,-273.19"/>
<polygon fill="black" stroke="black" stroke-width="1.5" points="249.25,-273.19 244,-258.19 238.75,-273.2 249.25,-273.19"/>
</g>
</g>
</svg>
