<?xml version="1.0" encoding="UTF-8" standalone="no"?>
<!DOCTYPE svg PUBLIC "-//W3C//DTD SVG 1.1//EN"
 "http://www.w3.org/Graphics/SVG/1.1/DTD/svg11.dtd">
<!-- Generated by graphviz version 2.44.0 (0)
 -->
<!-- Title: Pipeline Pages: 1 -->
<svg width="592pt" height="422pt"
 viewBox="0.00 0.00 592.00 422.00" xmlns="http://www.w3.org/2000/svg" xmlns:xlink="http://www.w3.org/1999/xlink">
<g id="graph0" class="graph" transform="scale(1 1) rotate(0) translate(4 418)">
<title>Pipeline</title>
<polygon fill="white" stroke="transparent" points="-4,4 -4,-418 588,-418 588,4 -4,4"/>
<!-- cpFlatNormalize:2 -->
<g id="node1" class="node">
<title>cpFlatNormalize:2</title>
<polygon fill="#b1f2ef" stroke="black" stroke-width="3" points="503,-258 48,-258 48,-156 503,-156 503,-258"/>
<text text-anchor="start" x="69.5" y="-230.6" font-family="Monospace" font-weight="bold" font-size="18.00">cpFlatNormalize</text>
<text text-anchor="start" x="69.5" y="-200.8" font-family="Monospace" font-size="14.00">lsst.cp.pipe.cpFlatMeasure.CpFlatNormalizationTask</text>
<text text-anchor="start" x="69.5" y="-174.8" font-family="Monospace" font-style="italic" font-size="14.00">dimensions:</text>
<text text-anchor="start" x="160.5" y="-174.8" font-family="Monospace" font-size="14.00"> {physical_filter}</text>
</g>
<!-- cpFlatNormalizeScales:0 -->
<g id="node4" class="node">
<title>cpFlatNormalizeScales:0</title>
<path fill="#f5f5f5" stroke="#00babc" stroke-width="3" d="M421,-102C421,-102 130,-102 130,-102 124,-102 118,-96 118,-90 118,-90 118,-12 118,-12 118,-6 124,0 130,0 130,0 421,0 421,0 427,0 433,-6 433,-12 433,-12 433,-90 433,-90 433,-96 427,-102 421,-102"/>
<text text-anchor="start" x="139.5" y="-74.6" font-family="Monospace" font-weight="bold" font-size="18.00">cpFlatNormalizeScales</text>
<text text-anchor="start" x="139.5" y="-45.8" font-family="Monospace" font-style="italic" font-size="14.00">dimensions:</text>
<text text-anchor="start" x="230.5" y="-45.8" font-family="Monospace" font-size="14.00"> {physical_filter}</text>
<text text-anchor="start" x="139.5" y="-18.8" font-family="Monospace" font-style="italic" font-size="14.00">storage class:</text>
<text text-anchor="start" x="255.5" y="-18.8" font-family="Monospace" font-size="14.00"> StructuredDataDict</text>
</g>
<!-- cpFlatNormalize:2&#45;&gt;cpFlatNormalizeScales:0 -->
<g id="edge1" class="edge">
<title>cpFlatNormalize:2&#45;&gt;cpFlatNormalizeScales:0</title>
<path fill="none" stroke="black" stroke-width="1.5" d="M275.5,-155.92C275.5,-155.92 275.5,-117.19 275.5,-117.19"/>
<polygon fill="black" stroke="black" stroke-width="1.5" points="280.75,-117.19 275.5,-102.19 270.25,-117.2 280.75,-117.19"/>
</g>
<!-- camera:0 -->
<g id="node2" class="node">
<title>camera:0</title>
<path fill="#f5f5f5" stroke="#00babc" stroke-width="3" d="M229,-414C229,-414 12,-414 12,-414 6,-414 0,-408 0,-402 0,-402 0,-324 0,-324 0,-318 6,-312 12,-312 12,-312 229,-312 229,-312 235,-312 241,-318 241,-324 241,-324 241,-402 241,-402 241,-408 235,-414 229,-414"/>
<text text-anchor="start" x="21.5" y="-386.6" font-family="Monospace" font-weight="bold" font-size="18.00">camera</text>
<text text-anchor="start" x="21.5" y="-357.8" font-family="Monospace" font-style="italic" font-size="14.00">dimensions:</text>
<text text-anchor="start" x="112.5" y="-357.8" font-family="Monospace" font-size="14.00"> {instrument}</text>
<text text-anchor="start" x="21.5" y="-330.8" font-family="Monospace" font-style="italic" font-size="14.00">storage class:</text>
<text text-anchor="start" x="137.5" y="-330.8" font-family="Monospace" font-size="14.00"> Camera</text>
</g>
<!-- camera:0&#45;&gt;cpFlatNormalize:2 -->
<g id="edge2" class="edge">
<title>camera:0&#45;&gt;cpFlatNormalize:2</title>
<path fill="none" stroke="black" stroke-width="1.5" stroke-dasharray="5,2" d="M144.5,-311.92C144.5,-311.92 144.5,-273.19 144.5,-273.19"/>
<polygon fill="black" stroke="black" stroke-width="1.5" points="149.75,-273.19 144.5,-258.19 139.25,-273.2 149.75,-273.19"/>
</g>
<!-- cpFlatStatistics:0 -->
<g id="node3" class="node">
<title>cpFlatStatistics:0</title>
<path fill="#f5f5f5" stroke="#00babc" stroke-width="3" d="M572,-414C572,-414 289,-414 289,-414 283,-414 277,-408 277,-402 277,-402 277,-324 277,-324 277,-318 283,-312 289,-312 289,-312 572,-312 572,-312 578,-312 584,-318 584,-324 584,-324 584,-402 584,-402 584,-408 578,-414 572,-414"/>
<text text-anchor="start" x="298.5" y="-386.6" font-family="Monospace" font-weight="bold" font-size="18.00">cpFlatStatistics</text>
<text text-anchor="start" x="298.5" y="-357.8" font-family="Monospace" font-style="italic" font-size="14.00">dimensions:</text>
<text text-anchor="start" x="389.5" y="-357.8" font-family="Monospace" font-size="14.00"> {detector, exposure}</text>
<text text-anchor="start" x="298.5" y="-330.8" font-family="Monospace" font-style="italic" font-size="14.00">storage class:</text>
<text text-anchor="start" x="414.5" y="-330.8" font-family="Monospace" font-size="14.00"> PropertyList</text>
</g>
<!-- cpFlatStatistics:0&#45;&gt;cpFlatNormalize:2 -->
<g id="edge3" class="edge">
<title>cpFlatStatistics:0&#45;&gt;cpFlatNormalize:2</title>
<path fill="none" stroke="black" stroke-width="1.5" d="M390,-311.92C390,-311.92 390,-273.19 390,-273.19"/>
<polygon fill="black" stroke="black" stroke-width="1.5" points="395.25,-273.19 390,-258.19 384.75,-273.2 395.25,-273.19"/>
</g>
</g>
</svg>
