<?xml version="1.0" encoding="UTF-8" standalone="no"?>
<!DOCTYPE svg PUBLIC "-//W3C//DTD SVG 1.1//EN"
 "http://www.w3.org/Graphics/SVG/1.1/DTD/svg11.dtd">
<!-- Generated by graphviz version 2.44.0 (0)
 -->
<!-- Title: Pipeline Pages: 1 -->
<svg width="2135pt" height="1142pt"
 viewBox="0.00 0.00 2135.00 1142.00" xmlns="http://www.w3.org/2000/svg" xmlns:xlink="http://www.w3.org/1999/xlink">
<g id="graph0" class="graph" transform="scale(1 1) rotate(0) translate(4 1138)">
<title>Pipeline</title>
<polygon fill="white" stroke="transparent" points="-4,4 -4,-1138 2131,-1138 2131,4 -4,4"/>
<!-- isr:2 -->
<g id="node1" class="node">
<title>isr:2</title>
<polygon fill="#b1f2ef" stroke="black" stroke-width="3" points="1147,-946 840,-946 840,-844 1147,-844 1147,-946"/>
<text text-anchor="start" x="861.5" y="-918.6" font-family="Monospace" font-weight="bold" font-size="18.00">isr</text>
<text text-anchor="start" x="861.5" y="-888.8" font-family="Monospace" font-size="14.00">lsst.ip.isr.isrTask.IsrTask</text>
<text text-anchor="start" x="861.5" y="-862.8" font-family="Monospace" font-style="italic" font-size="14.00">dimensions:</text>
<text text-anchor="start" x="952.5" y="-862.8" font-family="Monospace" font-size="14.00"> {detector, exposure}</text>
</g>
<!-- postISRCCD:0 -->
<g id="node7" class="node">
<title>postISRCCD:0</title>
<path fill="#f5f5f5" stroke="#00babc" stroke-width="3" d="M1135,-790C1135,-790 852,-790 852,-790 846,-790 840,-784 840,-778 840,-778 840,-700 840,-700 840,-694 846,-688 852,-688 852,-688 1135,-688 1135,-688 1141,-688 1147,-694 1147,-700 1147,-700 1147,-778 1147,-778 1147,-784 1141,-790 1135,-790"/>
<text text-anchor="start" x="861.5" y="-762.6" font-family="Monospace" font-weight="bold" font-size="18.00">postISRCCD</text>
<text text-anchor="start" x="861.5" y="-733.8" font-family="Monospace" font-style="italic" font-size="14.00">dimensions:</text>
<text text-anchor="start" x="952.5" y="-733.8" font-family="Monospace" font-size="14.00"> {detector, exposure}</text>
<text text-anchor="start" x="861.5" y="-706.8" font-family="Monospace" font-style="italic" font-size="14.00">storage class:</text>
<text text-anchor="start" x="977.5" y="-706.8" font-family="Monospace" font-size="14.00"> Exposure</text>
</g>
<!-- isr:2&#45;&gt;postISRCCD:0 -->
<g id="edge1" class="edge">
<title>isr:2&#45;&gt;postISRCCD:0</title>
<path fill="none" stroke="black" stroke-width="1.5" d="M993.5,-843.92C993.5,-843.92 993.5,-805.19 993.5,-805.19"/>
<polygon fill="black" stroke="black" stroke-width="1.5" points="998.75,-805.19 993.5,-790.19 988.25,-805.2 998.75,-805.19"/>
</g>
<!-- linearizer:0 -->
<g id="node2" class="node">
<title>linearizer:0</title>
<path fill="#f5f5f5" stroke="#00babc" stroke-width="3" d="M237,-1118C237,-1118 12,-1118 12,-1118 6,-1118 0,-1112 0,-1106 0,-1106 0,-1028 0,-1028 0,-1022 6,-1016 12,-1016 12,-1016 237,-1016 237,-1016 243,-1016 249,-1022 249,-1028 249,-1028 249,-1106 249,-1106 249,-1112 243,-1118 237,-1118"/>
<text text-anchor="start" x="21.5" y="-1090.6" font-family="Monospace" font-weight="bold" font-size="18.00">linearizer</text>
<text text-anchor="start" x="21.5" y="-1061.8" font-family="Monospace" font-style="italic" font-size="14.00">dimensions:</text>
<text text-anchor="start" x="112.5" y="-1061.8" font-family="Monospace" font-size="14.00"> {detector}</text>
<text text-anchor="start" x="21.5" y="-1034.8" font-family="Monospace" font-style="italic" font-size="14.00">storage class:</text>
<text text-anchor="start" x="137.5" y="-1034.8" font-family="Monospace" font-size="14.00"> Linearizer</text>
</g>
<!-- linearizer:0&#45;&gt;isr:2 -->
<g id="edge2" class="edge">
<title>linearizer:0&#45;&gt;isr:2</title>
<path fill="none" stroke="black" stroke-width="1.5" stroke-dasharray="5,2" d="M236.75,-1015.85C236.75,-959.88 236.75,-878 236.75,-878 236.75,-878 824.9,-878 824.9,-878"/>
<polygon fill="black" stroke="black" stroke-width="1.5" points="824.9,-883.25 839.9,-878 824.9,-872.75 824.9,-883.25"/>
</g>
<!-- bias:0 -->
<g id="node3" class="node">
<title>bias:0</title>
<path fill="#f5f5f5" stroke="#00babc" stroke-width="3" d="M514,-1118C514,-1118 297,-1118 297,-1118 291,-1118 285,-1112 285,-1106 285,-1106 285,-1028 285,-1028 285,-1022 291,-1016 297,-1016 297,-1016 514,-1016 514,-1016 520,-1016 526,-1022 526,-1028 526,-1028 526,-1106 526,-1106 526,-1112 520,-1118 514,-1118"/>
<text text-anchor="start" x="306.5" y="-1090.6" font-family="Monospace" font-weight="bold" font-size="18.00">bias</text>
<text text-anchor="start" x="306.5" y="-1061.8" font-family="Monospace" font-style="italic" font-size="14.00">dimensions:</text>
<text text-anchor="start" x="397.5" y="-1061.8" font-family="Monospace" font-size="14.00"> {detector}</text>
<text text-anchor="start" x="306.5" y="-1034.8" font-family="Monospace" font-style="italic" font-size="14.00">storage class:</text>
<text text-anchor="start" x="422.5" y="-1034.8" font-family="Monospace" font-size="14.00"> ExposureF</text>
</g>
<!-- bias:0&#45;&gt;isr:2 -->
<g id="edge3" class="edge">
<title>bias:0&#45;&gt;isr:2</title>
<path fill="none" stroke="black" stroke-width="1.5" stroke-dasharray="5,2" d="M512.25,-1015.82C512.25,-970.67 512.25,-912 512.25,-912 512.25,-912 824.91,-912 824.91,-912"/>
<polygon fill="black" stroke="black" stroke-width="1.5" points="824.91,-917.25 839.91,-912 824.91,-906.75 824.91,-917.25"/>
</g>
<!-- crosstalk:0 -->
<g id="node4" class="node">
<title>crosstalk:0</title>
<path fill="#f5f5f5" stroke="#00babc" stroke-width="3" d="M832.5,-1118C832.5,-1118 574.5,-1118 574.5,-1118 568.5,-1118 562.5,-1112 562.5,-1106 562.5,-1106 562.5,-1028 562.5,-1028 562.5,-1022 568.5,-1016 574.5,-1016 574.5,-1016 832.5,-1016 832.5,-1016 838.5,-1016 844.5,-1022 844.5,-1028 844.5,-1028 844.5,-1106 844.5,-1106 844.5,-1112 838.5,-1118 832.5,-1118"/>
<text text-anchor="start" x="583.5" y="-1090.6" font-family="Monospace" font-weight="bold" font-size="18.00">crosstalk</text>
<text text-anchor="start" x="583.5" y="-1061.8" font-family="Monospace" font-style="italic" font-size="14.00">dimensions:</text>
<text text-anchor="start" x="674.5" y="-1061.8" font-family="Monospace" font-size="14.00"> {detector}</text>
<text text-anchor="start" x="583.5" y="-1034.8" font-family="Monospace" font-style="italic" font-size="14.00">storage class:</text>
<text text-anchor="start" x="699.5" y="-1034.8" font-family="Monospace" font-size="14.00"> CrosstalkCalib</text>
</g>
<!-- crosstalk:0&#45;&gt;isr:2 -->
<g id="edge4" class="edge">
<title>crosstalk:0&#45;&gt;isr:2</title>
<path fill="none" stroke="black" stroke-width="1.5" stroke-dasharray="5,2" d="M844.79,-1067C855.79,-1067 862.75,-1067 862.75,-1067 862.75,-1067 862.75,-961.14 862.75,-961.14"/>
<polygon fill="black" stroke="black" stroke-width="1.5" points="868,-961.14 862.75,-946.14 857.5,-961.14 868,-961.14"/>
</g>
<!-- defects:0 -->
<g id="node5" class="node">
<title>defects:0</title>
<path fill="#f5f5f5" stroke="#00babc" stroke-width="3" d="M1094,-1118C1094,-1118 893,-1118 893,-1118 887,-1118 881,-1112 881,-1106 881,-1106 881,-1028 881,-1028 881,-1022 887,-1016 893,-1016 893,-1016 1094,-1016 1094,-1016 1100,-1016 1106,-1022 1106,-1028 1106,-1028 1106,-1106 1106,-1106 1106,-1112 1100,-1118 1094,-1118"/>
<text text-anchor="start" x="902.5" y="-1090.6" font-family="Monospace" font-weight="bold" font-size="18.00">defects</text>
<text text-anchor="start" x="902.5" y="-1061.8" font-family="Monospace" font-style="italic" font-size="14.00">dimensions:</text>
<text text-anchor="start" x="993.5" y="-1061.8" font-family="Monospace" font-size="14.00"> {detector}</text>
<text text-anchor="start" x="902.5" y="-1034.8" font-family="Monospace" font-style="italic" font-size="14.00">storage class:</text>
<text text-anchor="start" x="1018.5" y="-1034.8" font-family="Monospace" font-size="14.00"> Defects</text>
</g>
<!-- defects:0&#45;&gt;isr:2 -->
<g id="edge5" class="edge">
<title>defects:0&#45;&gt;isr:2</title>
<path fill="none" stroke="black" stroke-width="1.5" stroke-dasharray="5,2" d="M993.5,-1015.86C993.5,-1015.86 993.5,-961.24 993.5,-961.24"/>
<polygon fill="black" stroke="black" stroke-width="1.5" points="998.75,-961.24 993.5,-946.24 988.25,-961.24 998.75,-961.24"/>
</g>
<!-- camera:0 -->
<g id="node6" class="node">
<title>camera:0</title>
<path fill="#f5f5f5" stroke="#00babc" stroke-width="3" d="M1371,-1118C1371,-1118 1154,-1118 1154,-1118 1148,-1118 1142,-1112 1142,-1106 1142,-1106 1142,-1028 1142,-1028 1142,-1022 1148,-1016 1154,-1016 1154,-1016 1371,-1016 1371,-1016 1377,-1016 1383,-1022 1383,-1028 1383,-1028 1383,-1106 1383,-1106 1383,-1112 1377,-1118 1371,-1118"/>
<text text-anchor="start" x="1163.5" y="-1090.6" font-family="Monospace" font-weight="bold" font-size="18.00">camera</text>
<text text-anchor="start" x="1163.5" y="-1061.8" font-family="Monospace" font-style="italic" font-size="14.00">dimensions:</text>
<text text-anchor="start" x="1254.5" y="-1061.8" font-family="Monospace" font-size="14.00"> {instrument}</text>
<text text-anchor="start" x="1163.5" y="-1034.8" font-family="Monospace" font-style="italic" font-size="14.00">storage class:</text>
<text text-anchor="start" x="1279.5" y="-1034.8" font-family="Monospace" font-size="14.00"> Camera</text>
</g>
<!-- camera:0&#45;&gt;isr:2 -->
<g id="edge6" class="edge">
<title>camera:0&#45;&gt;isr:2</title>
<path fill="none" stroke="black" stroke-width="1.5" stroke-dasharray="5,2" d="M1141.86,-1067C1127.6,-1067 1118,-1067 1118,-1067 1118,-1067 1118,-961.14 1118,-961.14"/>
<polygon fill="black" stroke="black" stroke-width="1.5" points="1123.25,-961.14 1118,-946.14 1112.75,-961.14 1123.25,-961.14"/>
</g>
<!-- characterizeImage:2 -->
<g id="node8" class="node">
<title>characterizeImage:2</title>
<polygon fill="#b1f2ef" stroke="black" stroke-width="3" points="1241.5,-634 745.5,-634 745.5,-532 1241.5,-532 1241.5,-634"/>
<text text-anchor="start" x="766.5" y="-606.6" font-family="Monospace" font-weight="bold" font-size="18.00">characterizeImage</text>
<text text-anchor="start" x="766.5" y="-576.8" font-family="Monospace" font-size="14.00">lsst.pipe.tasks.characterizeImage.CharacterizeImageTask</text>
<text text-anchor="start" x="766.5" y="-550.8" font-family="Monospace" font-style="italic" font-size="14.00">dimensions:</text>
<text text-anchor="start" x="857.5" y="-550.8" font-family="Monospace" font-size="14.00"> {detector, visit}</text>
</g>
<!-- postISRCCD:0&#45;&gt;characterizeImage:2 -->
<g id="edge7" class="edge">
<title>postISRCCD:0&#45;&gt;characterizeImage:2</title>
<path fill="none" stroke="black" stroke-width="1.5" d="M993.5,-687.92C993.5,-687.92 993.5,-649.19 993.5,-649.19"/>
<polygon fill="black" stroke="black" stroke-width="1.5" points="998.75,-649.19 993.5,-634.19 988.25,-649.2 998.75,-649.19"/>
</g>
<!-- icExpBackground:0 -->
<g id="node9" class="node">
<title>icExpBackground:0</title>
<path fill="#f5f5f5" stroke="#00babc" stroke-width="3" d="M804.5,-462C804.5,-462 546.5,-462 546.5,-462 540.5,-462 534.5,-456 534.5,-450 534.5,-450 534.5,-372 534.5,-372 534.5,-366 540.5,-360 546.5,-360 546.5,-360 804.5,-360 804.5,-360 810.5,-360 816.5,-366 816.5,-372 816.5,-372 816.5,-450 816.5,-450 816.5,-456 810.5,-462 804.5,-462"/>
<text text-anchor="start" x="555.5" y="-434.6" font-family="Monospace" font-weight="bold" font-size="18.00">icExpBackground</text>
<text text-anchor="start" x="555.5" y="-405.8" font-family="Monospace" font-style="italic" font-size="14.00">dimensions:</text>
<text text-anchor="start" x="646.5" y="-405.8" font-family="Monospace" font-size="14.00"> {detector, visit}</text>
<text text-anchor="start" x="555.5" y="-378.8" font-family="Monospace" font-style="italic" font-size="14.00">storage class:</text>
<text text-anchor="start" x="671.5" y="-378.8" font-family="Monospace" font-size="14.00"> Background</text>
</g>
<!-- characterizeImage:2&#45;&gt;icExpBackground:0 -->
<g id="edge8" class="edge">
<title>characterizeImage:2&#45;&gt;icExpBackground:0</title>
<path fill="none" stroke="black" stroke-width="1.5" d="M781,-531.86C781,-531.86 781,-477.24 781,-477.24"/>
<polygon fill="black" stroke="black" stroke-width="1.5" points="786.25,-477.24 781,-462.24 775.75,-477.24 786.25,-477.24"/>
</g>
<!-- icExp:0 -->
<g id="node10" class="node">
<title>icExp:0</title>
<path fill="#f5f5f5" stroke="#00babc" stroke-width="3" d="M1122.5,-462C1122.5,-462 864.5,-462 864.5,-462 858.5,-462 852.5,-456 852.5,-450 852.5,-450 852.5,-372 852.5,-372 852.5,-366 858.5,-360 864.5,-360 864.5,-360 1122.5,-360 1122.5,-360 1128.5,-360 1134.5,-366 1134.5,-372 1134.5,-372 1134.5,-450 1134.5,-450 1134.5,-456 1128.5,-462 1122.5,-462"/>
<text text-anchor="start" x="873.5" y="-434.6" font-family="Monospace" font-weight="bold" font-size="18.00">icExp</text>
<text text-anchor="start" x="873.5" y="-405.8" font-family="Monospace" font-style="italic" font-size="14.00">dimensions:</text>
<text text-anchor="start" x="964.5" y="-405.8" font-family="Monospace" font-size="14.00"> {detector, visit}</text>
<text text-anchor="start" x="873.5" y="-378.8" font-family="Monospace" font-style="italic" font-size="14.00">storage class:</text>
<text text-anchor="start" x="989.5" y="-378.8" font-family="Monospace" font-size="14.00"> ExposureF</text>
</g>
<!-- characterizeImage:2&#45;&gt;icExp:0 -->
<g id="edge9" class="edge">
<title>characterizeImage:2&#45;&gt;icExp:0</title>
<path fill="none" stroke="black" stroke-width="1.5" d="M993.5,-531.86C993.5,-531.86 993.5,-477.24 993.5,-477.24"/>
<polygon fill="black" stroke="black" stroke-width="1.5" points="998.75,-477.24 993.5,-462.24 988.25,-477.24 998.75,-477.24"/>
</g>
<!-- icSrc:0 -->
<g id="node11" class="node">
<title>icSrc:0</title>
<path fill="#f5f5f5" stroke="#00babc" stroke-width="3" d="M1440.5,-462C1440.5,-462 1182.5,-462 1182.5,-462 1176.5,-462 1170.5,-456 1170.5,-450 1170.5,-450 1170.5,-372 1170.5,-372 1170.5,-366 1176.5,-360 1182.5,-360 1182.5,-360 1440.5,-360 1440.5,-360 1446.5,-360 1452.5,-366 1452.5,-372 1452.5,-372 1452.5,-450 1452.5,-450 1452.5,-456 1446.5,-462 1440.5,-462"/>
<text text-anchor="start" x="1191.5" y="-434.6" font-family="Monospace" font-weight="bold" font-size="18.00">icSrc</text>
<text text-anchor="start" x="1191.5" y="-405.8" font-family="Monospace" font-style="italic" font-size="14.00">dimensions:</text>
<text text-anchor="start" x="1282.5" y="-405.8" font-family="Monospace" font-size="14.00"> {detector, visit}</text>
<text text-anchor="start" x="1191.5" y="-378.8" font-family="Monospace" font-style="italic" font-size="14.00">storage class:</text>
<text text-anchor="start" x="1307.5" y="-378.8" font-family="Monospace" font-size="14.00"> SourceCatalog</text>
</g>
<!-- characterizeImage:2&#45;&gt;icSrc:0 -->
<g id="edge10" class="edge">
<title>characterizeImage:2&#45;&gt;icSrc:0</title>
<path fill="none" stroke="black" stroke-width="1.5" d="M1206,-531.86C1206,-531.86 1206,-477.24 1206,-477.24"/>
<polygon fill="black" stroke="black" stroke-width="1.5" points="1211.25,-477.24 1206,-462.24 1200.75,-477.24 1211.25,-477.24"/>
</g>
<!-- calibrate:2 -->
<g id="node12" class="node">
<title>calibrate:2</title>
<polygon fill="#b1f2ef" stroke="black" stroke-width="3" points="1016.5,-290 652.5,-290 652.5,-188 1016.5,-188 1016.5,-290"/>
<text text-anchor="start" x="673.5" y="-262.6" font-family="Monospace" font-weight="bold" font-size="18.00">calibrate</text>
<text text-anchor="start" x="673.5" y="-232.8" font-family="Monospace" font-size="14.00">lsst.pipe.tasks.calibrate.CalibrateTask</text>
<text text-anchor="start" x="673.5" y="-206.8" font-family="Monospace" font-style="italic" font-size="14.00">dimensions:</text>
<text text-anchor="start" x="764.5" y="-206.8" font-family="Monospace" font-size="14.00"> {detector, visit}</text>
</g>
<!-- icExpBackground:0&#45;&gt;calibrate:2 -->
<g id="edge11" class="edge">
<title>icExpBackground:0&#45;&gt;calibrate:2</title>
<path fill="none" stroke="black" stroke-width="1.5" d="M761.83,-359.86C761.83,-359.86 761.83,-305.24 761.83,-305.24"/>
<polygon fill="black" stroke="black" stroke-width="1.5" points="767.08,-305.24 761.83,-290.24 756.58,-305.24 767.08,-305.24"/>
</g>
<!-- icExp:0&#45;&gt;calibrate:2 -->
<g id="edge12" class="edge">
<title>icExp:0&#45;&gt;calibrate:2</title>
<path fill="none" stroke="black" stroke-width="1.5" d="M934.5,-359.86C934.5,-359.86 934.5,-305.24 934.5,-305.24"/>
<polygon fill="black" stroke="black" stroke-width="1.5" points="939.75,-305.24 934.5,-290.24 929.25,-305.24 939.75,-305.24"/>
</g>
<!-- icSrc:0&#45;&gt;calibrate:2 -->
<g id="edge13" class="edge">
<title>icSrc:0&#45;&gt;calibrate:2</title>
<path fill="none" stroke="black" stroke-width="1.5" d="M1311.5,-359.86C1311.5,-309.16 1311.5,-239 1311.5,-239 1311.5,-239 1031.53,-239 1031.53,-239"/>
<polygon fill="black" stroke="black" stroke-width="1.5" points="1031.53,-233.75 1016.53,-239 1031.53,-244.25 1031.53,-233.75"/>
</g>
<!-- calexp:0 -->
<g id="node13" class="node">
<title>calexp:0</title>
<path fill="#f5f5f5" stroke="#00babc" stroke-width="3" d="M486.5,-118C486.5,-118 228.5,-118 228.5,-118 222.5,-118 216.5,-112 216.5,-106 216.5,-106 216.5,-28 216.5,-28 216.5,-22 222.5,-16 228.5,-16 228.5,-16 486.5,-16 486.5,-16 492.5,-16 498.5,-22 498.5,-28 498.5,-28 498.5,-106 498.5,-106 498.5,-112 492.5,-118 486.5,-118"/>
<text text-anchor="start" x="237.5" y="-90.6" font-family="Monospace" font-weight="bold" font-size="18.00">calexp</text>
<text text-anchor="start" x="237.5" y="-61.8" font-family="Monospace" font-style="italic" font-size="14.00">dimensions:</text>
<text text-anchor="start" x="328.5" y="-61.8" font-family="Monospace" font-size="14.00"> {detector, visit}</text>
<text text-anchor="start" x="237.5" y="-34.8" font-family="Monospace" font-style="italic" font-size="14.00">storage class:</text>
<text text-anchor="start" x="353.5" y="-34.8" font-family="Monospace" font-size="14.00"> ExposureF</text>
</g>
<!-- calibrate:2&#45;&gt;calexp:0 -->
<g id="edge14" class="edge">
<title>calibrate:2&#45;&gt;calexp:0</title>
<path fill="none" stroke="black" stroke-width="1.5" d="M652.3,-239C519.06,-239 361.5,-239 361.5,-239 361.5,-239 361.5,-133.14 361.5,-133.14"/>
<polygon fill="black" stroke="black" stroke-width="1.5" points="366.75,-133.14 361.5,-118.14 356.25,-133.14 366.75,-133.14"/>
</g>
<!-- src:0 -->
<g id="node14" class="node">
<title>src:0</title>
<path fill="#f5f5f5" stroke="#00babc" stroke-width="3" d="M804.5,-118C804.5,-118 546.5,-118 546.5,-118 540.5,-118 534.5,-112 534.5,-106 534.5,-106 534.5,-28 534.5,-28 534.5,-22 540.5,-16 546.5,-16 546.5,-16 804.5,-16 804.5,-16 810.5,-16 816.5,-22 816.5,-28 816.5,-28 816.5,-106 816.5,-106 816.5,-112 810.5,-118 804.5,-118"/>
<text text-anchor="start" x="555.5" y="-90.6" font-family="Monospace" font-weight="bold" font-size="18.00">src</text>
<text text-anchor="start" x="555.5" y="-61.8" font-family="Monospace" font-style="italic" font-size="14.00">dimensions:</text>
<text text-anchor="start" x="646.5" y="-61.8" font-family="Monospace" font-size="14.00"> {detector, visit}</text>
<text text-anchor="start" x="555.5" y="-34.8" font-family="Monospace" font-style="italic" font-size="14.00">storage class:</text>
<text text-anchor="start" x="671.5" y="-34.8" font-family="Monospace" font-size="14.00"> SourceCatalog</text>
</g>
<!-- calibrate:2&#45;&gt;src:0 -->
<g id="edge15" class="edge">
<title>calibrate:2&#45;&gt;src:0</title>
<path fill="none" stroke="black" stroke-width="1.5" d="M734.5,-187.86C734.5,-187.86 734.5,-133.24 734.5,-133.24"/>
<polygon fill="black" stroke="black" stroke-width="1.5" points="739.75,-133.24 734.5,-118.24 729.25,-133.24 739.75,-133.24"/>
</g>
<!-- calexpBackground:0 -->
<g id="node15" class="node">
<title>calexpBackground:0</title>
<path fill="#f5f5f5" stroke="#00babc" stroke-width="3" d="M1122.5,-118C1122.5,-118 864.5,-118 864.5,-118 858.5,-118 852.5,-112 852.5,-106 852.5,-106 852.5,-28 852.5,-28 852.5,-22 858.5,-16 864.5,-16 864.5,-16 1122.5,-16 1122.5,-16 1128.5,-16 1134.5,-22 1134.5,-28 1134.5,-28 1134.5,-106 1134.5,-106 1134.5,-112 1128.5,-118 1122.5,-118"/>
<text text-anchor="start" x="873.5" y="-90.6" font-family="Monospace" font-weight="bold" font-size="18.00">calexpBackground</text>
<text text-anchor="start" x="873.5" y="-61.8" font-family="Monospace" font-style="italic" font-size="14.00">dimensions:</text>
<text text-anchor="start" x="964.5" y="-61.8" font-family="Monospace" font-size="14.00"> {detector, visit}</text>
<text text-anchor="start" x="873.5" y="-34.8" font-family="Monospace" font-style="italic" font-size="14.00">storage class:</text>
<text text-anchor="start" x="989.5" y="-34.8" font-family="Monospace" font-size="14.00"> Background</text>
</g>
<!-- calibrate:2&#45;&gt;calexpBackground:0 -->
<g id="edge16" class="edge">
<title>calibrate:2&#45;&gt;calexpBackground:0</title>
<path fill="none" stroke="black" stroke-width="1.5" d="M907.17,-187.86C907.17,-187.86 907.17,-133.24 907.17,-133.24"/>
<polygon fill="black" stroke="black" stroke-width="1.5" points="912.42,-133.24 907.17,-118.24 901.92,-133.24 912.42,-133.24"/>
</g>
<!-- 45e3f18b:0 -->
<g id="node19" class="node">
<title>45e3f18b:0</title>
<path fill="#f5f5f5" stroke="#00babc" stroke-width="3" d="M1440.5,-134C1440.5,-134 1182.5,-134 1182.5,-134 1176.5,-134 1170.5,-128 1170.5,-122 1170.5,-122 1170.5,-12 1170.5,-12 1170.5,-6 1176.5,0 1182.5,0 1182.5,0 1440.5,0 1440.5,0 1446.5,0 1452.5,-6 1452.5,-12 1452.5,-12 1452.5,-122 1452.5,-122 1452.5,-128 1446.5,-134 1440.5,-134"/>
<text text-anchor="start" x="1191.5" y="-106.6" font-family="Monospace" font-weight="bold" font-size="18.00">srcMatchFull</text>
<text text-anchor="start" x="1191.5" y="-74.6" font-family="Monospace" font-weight="bold" font-size="18.00">srcMatch</text>
<text text-anchor="start" x="1191.5" y="-45.8" font-family="Monospace" font-style="italic" font-size="14.00">dimensions:</text>
<text text-anchor="start" x="1282.5" y="-45.8" font-family="Monospace" font-size="14.00"> {detector, visit}</text>
<text text-anchor="start" x="1191.5" y="-18.8" font-family="Monospace" font-style="italic" font-size="14.00">storage class:</text>
<text text-anchor="start" x="1307.5" y="-18.8" font-family="Monospace" font-size="14.00"> Catalog</text>
</g>
<!-- calibrate:2&#45;&gt;45e3f18b:0 -->
<g id="edge17" class="edge">
<title>calibrate:2&#45;&gt;45e3f18b:0</title>
<path fill="none" stroke="black" stroke-width="1.5" d="M961.83,-187.79C961.83,-157.89 961.83,-126 961.83,-126 961.83,-126 1155.29,-126 1155.29,-126"/>
<polygon fill="black" stroke="black" stroke-width="1.5" points="1155.29,-131.25 1170.29,-126 1155.29,-120.75 1155.29,-131.25"/>
</g>
<!-- d28a74d6:0 -->
<g id="node16" class="node">
<title>d28a74d6:0</title>
<path fill="#f5f5f5" stroke="#00babc" stroke-width="3" d="M1772,-1134C1772,-1134 1431,-1134 1431,-1134 1425,-1134 1419,-1128 1419,-1122 1419,-1122 1419,-1012 1419,-1012 1419,-1006 1425,-1000 1431,-1000 1431,-1000 1772,-1000 1772,-1000 1778,-1000 1784,-1006 1784,-1012 1784,-1012 1784,-1122 1784,-1122 1784,-1128 1778,-1134 1772,-1134"/>
<text text-anchor="start" x="1440.5" y="-1106.6" font-family="Monospace" font-weight="bold" font-size="18.00">fringe</text>
<text text-anchor="start" x="1440.5" y="-1074.6" font-family="Monospace" font-weight="bold" font-size="18.00">flat</text>
<text text-anchor="start" x="1440.5" y="-1045.8" font-family="Monospace" font-style="italic" font-size="14.00">dimensions:</text>
<text text-anchor="start" x="1531.5" y="-1045.8" font-family="Monospace" font-size="14.00"> {detector, physical_filter}</text>
<text text-anchor="start" x="1440.5" y="-1018.8" font-family="Monospace" font-style="italic" font-size="14.00">storage class:</text>
<text text-anchor="start" x="1556.5" y="-1018.8" font-family="Monospace" font-size="14.00"> ExposureF</text>
</g>
<!-- d28a74d6:0&#45;&gt;isr:2 -->
<g id="edge18" class="edge">
<title>d28a74d6:0&#45;&gt;isr:2</title>
<path fill="none" stroke="black" stroke-width="1.5" d="M1418.87,-1008C1286.26,-1008 1130,-1008 1130,-1008 1130,-1008 1130,-961.21 1130,-961.21"/>
<polygon fill="black" stroke="black" stroke-width="1.5" points="1135.25,-961.21 1130,-946.21 1124.75,-961.21 1135.25,-961.21"/>
</g>
<!-- 998e6c26:0 -->
<g id="node17" class="node">
<title>998e6c26:0</title>
<path fill="#f5f5f5" stroke="#00babc" stroke-width="3" d="M2115,-1134C2115,-1134 1832,-1134 1832,-1134 1826,-1134 1820,-1128 1820,-1122 1820,-1122 1820,-1012 1820,-1012 1820,-1006 1826,-1000 1832,-1000 1832,-1000 2115,-1000 2115,-1000 2121,-1000 2127,-1006 2127,-1012 2127,-1012 2127,-1122 2127,-1122 2127,-1128 2121,-1134 2115,-1134"/>
<text text-anchor="start" x="1841.5" y="-1106.6" font-family="Monospace" font-weight="bold" font-size="18.00">raw</text>
<text text-anchor="start" x="1841.5" y="-1074.6" font-family="Monospace" font-weight="bold" font-size="18.00">overscanRaw</text>
<text text-anchor="start" x="1841.5" y="-1045.8" font-family="Monospace" font-style="italic" font-size="14.00">dimensions:</text>
<text text-anchor="start" x="1932.5" y="-1045.8" font-family="Monospace" font-size="14.00"> {detector, exposure}</text>
<text text-anchor="start" x="1841.5" y="-1018.8" font-family="Monospace" font-style="italic" font-size="14.00">storage class:</text>
<text text-anchor="start" x="1957.5" y="-1018.8" font-family="Monospace" font-size="14.00"> Exposure</text>
</g>
<!-- 998e6c26:0&#45;&gt;isr:2 -->
<g id="edge19" class="edge">
<title>998e6c26:0&#45;&gt;isr:2</title>
<path fill="none" stroke="black" stroke-width="1.5" d="M1973.5,-999.51C1973.5,-951.33 1973.5,-895 1973.5,-895 1973.5,-895 1162.16,-895 1162.16,-895"/>
<polygon fill="black" stroke="black" stroke-width="1.5" points="1162.16,-889.75 1147.16,-895 1162.16,-900.25 1162.16,-889.75"/>
</g>
<!-- c1110ee2:0 -->
<g id="node18" class="node">
<title>c1110ee2:0</title>
<path fill="#f5f5f5" stroke="#00babc" stroke-width="3" d="M486.5,-478C486.5,-478 236.5,-478 236.5,-478 230.5,-478 224.5,-472 224.5,-466 224.5,-466 224.5,-356 224.5,-356 224.5,-350 230.5,-344 236.5,-344 236.5,-344 486.5,-344 486.5,-344 492.5,-344 498.5,-350 498.5,-356 498.5,-356 498.5,-466 498.5,-466 498.5,-472 492.5,-478 486.5,-478"/>
<text text-anchor="start" x="245.5" y="-450.6" font-family="Monospace" font-weight="bold" font-size="18.00">ps1_pv3_3pi_20170110</text>
<text text-anchor="start" x="245.5" y="-418.6" font-family="Monospace" font-weight="bold" font-size="18.00">gaia_dr3_20230707</text>
<text text-anchor="start" x="245.5" y="-389.8" font-family="Monospace" font-style="italic" font-size="14.00">dimensions:</text>
<text text-anchor="start" x="336.5" y="-389.8" font-family="Monospace" font-size="14.00"> {htm7}</text>
<text text-anchor="start" x="245.5" y="-362.8" font-family="Monospace" font-style="italic" font-size="14.00">storage class:</text>
<text text-anchor="start" x="361.5" y="-362.8" font-family="Monospace" font-size="14.00"> SimpleCatalog</text>
</g>
<!-- c1110ee2:0&#45;&gt;calibrate:2 -->
<g id="edge20" class="edge">
<title>c1110ee2:0&#45;&gt;calibrate:2</title>
<path fill="none" stroke="black" stroke-width="1.5" d="M498.61,-352C595.12,-352 707.17,-352 707.17,-352 707.17,-352 707.17,-305.21 707.17,-305.21"/>
<polygon fill="black" stroke="black" stroke-width="1.5" points="712.42,-305.21 707.17,-290.21 701.92,-305.21 712.42,-305.21"/>
</g>
</g>
</svg>
