<?xml version="1.0" encoding="UTF-8" standalone="no"?>
<!DOCTYPE svg PUBLIC "-//W3C//DTD SVG 1.1//EN"
 "http://www.w3.org/Graphics/SVG/1.1/DTD/svg11.dtd">
<!-- Generated by graphviz version 2.44.0 (0)
 -->
<!-- Title: Pipeline Pages: 1 -->
<svg width="914pt" height="422pt"
 viewBox="0.00 0.00 913.50 422.00" xmlns="http://www.w3.org/2000/svg" xmlns:xlink="http://www.w3.org/1999/xlink">
<g id="graph0" class="graph" transform="scale(1 1) rotate(0) translate(4 418)">
<title>Pipeline</title>
<polygon fill="white" stroke="transparent" points="-4,4 -4,-418 909.5,-418 909.5,4 -4,4"/>
<!-- makeCcdVisitTable:2 -->
<g id="node1" class="node">
<title>makeCcdVisitTable:2</title>
<polygon fill="#b1f2ef" stroke="black" stroke-width="3" points="447,-258 0,-258 0,-156 447,-156 447,-258"/>
<text text-anchor="start" x="21.5" y="-230.6" font-family="Monospace" font-weight="bold" font-size="18.00">makeCcdVisitTable</text>
<text text-anchor="start" x="21.5" y="-200.8" font-family="Monospace" font-size="14.00">lsst.pipe.tasks.postprocess.MakeCcdVisitTableTask</text>
<text text-anchor="start" x="21.5" y="-174.8" font-family="Monospace" font-style="italic" font-size="14.00">dimensions:</text>
<text text-anchor="start" x="112.5" y="-174.8" font-family="Monospace" font-size="14.00"> {instrument}</text>
</g>
<!-- ccdVisitTable:0 -->
<g id="node3" class="node">
<title>ccdVisitTable:0</title>
<path fill="#f5f5f5" stroke="#00babc" stroke-width="3" d="M332,-102C332,-102 115,-102 115,-102 109,-102 103,-96 103,-90 103,-90 103,-12 103,-12 103,-6 109,0 115,0 115,0 332,0 332,0 338,0 344,-6 344,-12 344,-12 344,-90 344,-90 344,-96 338,-102 332,-102"/>
<text text-anchor="start" x="124.5" y="-74.6" font-family="Monospace" font-weight="bold" font-size="18.00">ccdVisitTable</text>
<text text-anchor="start" x="124.5" y="-45.8" font-family="Monospace" font-style="italic" font-size="14.00">dimensions:</text>
<text text-anchor="start" x="215.5" y="-45.8" font-family="Monospace" font-size="14.00"> {instrument}</text>
<text text-anchor="start" x="124.5" y="-18.8" font-family="Monospace" font-style="italic" font-size="14.00">storage class:</text>
<text text-anchor="start" x="240.5" y="-18.8" font-family="Monospace" font-size="14.00"> DataFrame</text>
</g>
<!-- makeCcdVisitTable:2&#45;&gt;ccdVisitTable:0 -->
<g id="edge1" class="edge">
<title>makeCcdVisitTable:2&#45;&gt;ccdVisitTable:0</title>
<path fill="none" stroke="black" stroke-width="1.5" d="M223.5,-155.92C223.5,-155.92 223.5,-117.19 223.5,-117.19"/>
<polygon fill="black" stroke="black" stroke-width="1.5" points="228.75,-117.19 223.5,-102.19 218.25,-117.2 228.75,-117.19"/>
</g>
<!-- finalVisitSummary:0 -->
<g id="node2" class="node">
<title>finalVisitSummary:0</title>
<path fill="#f5f5f5" stroke="#00babc" stroke-width="3" d="M592,-414C592,-414 325,-414 325,-414 319,-414 313,-408 313,-402 313,-402 313,-324 313,-324 313,-318 319,-312 325,-312 325,-312 592,-312 592,-312 598,-312 604,-318 604,-324 604,-324 604,-402 604,-402 604,-408 598,-414 592,-414"/>
<text text-anchor="start" x="334.5" y="-386.6" font-family="Monospace" font-weight="bold" font-size="18.00">finalVisitSummary</text>
<text text-anchor="start" x="334.5" y="-357.8" font-family="Monospace" font-style="italic" font-size="14.00">dimensions:</text>
<text text-anchor="start" x="425.5" y="-357.8" font-family="Monospace" font-size="14.00"> {visit}</text>
<text text-anchor="start" x="334.5" y="-330.8" font-family="Monospace" font-style="italic" font-size="14.00">storage class:</text>
<text text-anchor="start" x="450.5" y="-330.8" font-family="Monospace" font-size="14.00"> ExposureCatalog</text>
</g>
<!-- finalVisitSummary:0&#45;&gt;makeCcdVisitTable:2 -->
<g id="edge2" class="edge">
<title>finalVisitSummary:0&#45;&gt;makeCcdVisitTable:2</title>
<path fill="none" stroke="black" stroke-width="1.5" d="M380,-311.92C380,-311.92 380,-273.19 380,-273.19"/>
<polygon fill="black" stroke="black" stroke-width="1.5" points="385.25,-273.19 380,-258.19 374.75,-273.2 385.25,-273.19"/>
</g>
<!-- makeVisitTable:2 -->
<g id="node4" class="node">
<title>makeVisitTable:2</title>
<polygon fill="#b1f2ef" stroke="black" stroke-width="3" points="905.5,-258 483.5,-258 483.5,-156 905.5,-156 905.5,-258"/>
<text text-anchor="start" x="504.5" y="-230.6" font-family="Monospace" font-weight="bold" font-size="18.00">makeVisitTable</text>
<text text-anchor="start" x="504.5" y="-200.8" font-family="Monospace" font-size="14.00">lsst.pipe.tasks.postprocess.MakeVisitTableTask</text>
<text text-anchor="start" x="504.5" y="-174.8" font-family="Monospace" font-style="italic" font-size="14.00">dimensions:</text>
<text text-anchor="start" x="595.5" y="-174.8" font-family="Monospace" font-size="14.00"> {instrument}</text>
</g>
<!-- finalVisitSummary:0&#45;&gt;makeVisitTable:2 -->
<g id="edge3" class="edge">
<title>finalVisitSummary:0&#45;&gt;makeVisitTable:2</title>
<path fill="none" stroke="black" stroke-width="1.5" d="M543.75,-311.92C543.75,-311.92 543.75,-273.19 543.75,-273.19"/>
<polygon fill="black" stroke="black" stroke-width="1.5" points="549,-273.19 543.75,-258.19 538.5,-273.2 549,-273.19"/>
</g>
<!-- visitTable:0 -->
<g id="node5" class="node">
<title>visitTable:0</title>
<path fill="#f5f5f5" stroke="#00babc" stroke-width="3" d="M803,-102C803,-102 586,-102 586,-102 580,-102 574,-96 574,-90 574,-90 574,-12 574,-12 574,-6 580,0 586,0 586,0 803,0 803,0 809,0 815,-6 815,-12 815,-12 815,-90 815,-90 815,-96 809,-102 803,-102"/>
<text text-anchor="start" x="595.5" y="-74.6" font-family="Monospace" font-weight="bold" font-size="18.00">visitTable</text>
<text text-anchor="start" x="595.5" y="-45.8" font-family="Monospace" font-style="italic" font-size="14.00">dimensions:</text>
<text text-anchor="start" x="686.5" y="-45.8" font-family="Monospace" font-size="14.00"> {instrument}</text>
<text text-anchor="start" x="595.5" y="-18.8" font-family="Monospace" font-style="italic" font-size="14.00">storage class:</text>
<text text-anchor="start" x="711.5" y="-18.8" font-family="Monospace" font-size="14.00"> DataFrame</text>
</g>
<!-- makeVisitTable:2&#45;&gt;visitTable:0 -->
<g id="edge4" class="edge">
<title>makeVisitTable:2&#45;&gt;visitTable:0</title>
<path fill="none" stroke="black" stroke-width="1.5" d="M694.5,-155.92C694.5,-155.92 694.5,-117.19 694.5,-117.19"/>
<polygon fill="black" stroke="black" stroke-width="1.5" points="699.75,-117.19 694.5,-102.19 689.25,-117.2 699.75,-117.19"/>
</g>
</g>
</svg>
