<?xml version="1.0" encoding="UTF-8" standalone="no"?>
<!DOCTYPE svg PUBLIC "-//W3C//DTD SVG 1.1//EN"
 "http://www.w3.org/Graphics/SVG/1.1/DTD/svg11.dtd">
<!-- Generated by graphviz version 2.44.0 (0)
 -->
<!-- Title: Pipeline Pages: 1 -->
<svg width="870pt" height="422pt"
 viewBox="0.00 0.00 869.50 422.00" xmlns="http://www.w3.org/2000/svg" xmlns:xlink="http://www.w3.org/1999/xlink">
<g id="graph0" class="graph" transform="scale(1 1) rotate(0) translate(4 418)">
<title>Pipeline</title>
<polygon fill="white" stroke="transparent" points="-4,4 -4,-418 865.5,-418 865.5,4 -4,4"/>
<!-- makeWarp:2 -->
<g id="node1" class="node">
<title>makeWarp:2</title>
<polygon fill="#b1f2ef" stroke="black" stroke-width="3" points="609.5,-258 261.5,-258 261.5,-156 609.5,-156 609.5,-258"/>
<text text-anchor="start" x="282.5" y="-230.6" font-family="Monospace" font-weight="bold" font-size="18.00">makeWarp</text>
<text text-anchor="start" x="282.5" y="-200.8" font-family="Monospace" font-size="14.00">lsst.pipe.tasks.makeWarp.MakeWarpTask</text>
<text text-anchor="start" x="282.5" y="-174.8" font-family="Monospace" font-style="italic" font-size="14.00">dimensions:</text>
<text text-anchor="start" x="373.5" y="-174.8" font-family="Monospace" font-size="14.00"> {patch, visit}</text>
</g>
<!-- deepCoadd_directWarp:0 -->
<g id="node5" class="node">
<title>deepCoadd_directWarp:0</title>
<path fill="#f5f5f5" stroke="#00babc" stroke-width="3" d="M552,-102C552,-102 319,-102 319,-102 313,-102 307,-96 307,-90 307,-90 307,-12 307,-12 307,-6 313,0 319,0 319,0 552,0 552,0 558,0 564,-6 564,-12 564,-12 564,-90 564,-90 564,-96 558,-102 552,-102"/>
<text text-anchor="start" x="328.5" y="-74.6" font-family="Monospace" font-weight="bold" font-size="18.00">deepCoadd_directWarp</text>
<text text-anchor="start" x="328.5" y="-45.8" font-family="Monospace" font-style="italic" font-size="14.00">dimensions:</text>
<text text-anchor="start" x="419.5" y="-45.8" font-family="Monospace" font-size="14.00"> {patch, visit}</text>
<text text-anchor="start" x="328.5" y="-18.8" font-family="Monospace" font-style="italic" font-size="14.00">storage class:</text>
<text text-anchor="start" x="444.5" y="-18.8" font-family="Monospace" font-size="14.00"> ExposureF</text>
</g>
<!-- makeWarp:2&#45;&gt;deepCoadd_directWarp:0 -->
<g id="edge1" class="edge">
<title>makeWarp:2&#45;&gt;deepCoadd_directWarp:0</title>
<path fill="none" stroke="black" stroke-width="1.5" d="M435.5,-155.92C435.5,-155.92 435.5,-117.19 435.5,-117.19"/>
<polygon fill="black" stroke="black" stroke-width="1.5" points="440.75,-117.19 435.5,-102.19 430.25,-117.2 440.75,-117.19"/>
</g>
<!-- finalVisitSummary:0 -->
<g id="node2" class="node">
<title>finalVisitSummary:0</title>
<path fill="#f5f5f5" stroke="#00babc" stroke-width="3" d="M279,-414C279,-414 12,-414 12,-414 6,-414 0,-408 0,-402 0,-402 0,-324 0,-324 0,-318 6,-312 12,-312 12,-312 279,-312 279,-312 285,-312 291,-318 291,-324 291,-324 291,-402 291,-402 291,-408 285,-414 279,-414"/>
<text text-anchor="start" x="21.5" y="-386.6" font-family="Monospace" font-weight="bold" font-size="18.00">finalVisitSummary</text>
<text text-anchor="start" x="21.5" y="-357.8" font-family="Monospace" font-style="italic" font-size="14.00">dimensions:</text>
<text text-anchor="start" x="112.5" y="-357.8" font-family="Monospace" font-size="14.00"> {visit}</text>
<text text-anchor="start" x="21.5" y="-330.8" font-family="Monospace" font-style="italic" font-size="14.00">storage class:</text>
<text text-anchor="start" x="137.5" y="-330.8" font-family="Monospace" font-size="14.00"> ExposureCatalog</text>
</g>
<!-- finalVisitSummary:0&#45;&gt;makeWarp:2 -->
<g id="edge2" class="edge">
<title>finalVisitSummary:0&#45;&gt;makeWarp:2</title>
<path fill="none" stroke="black" stroke-width="1.5" d="M276.25,-311.92C276.25,-311.92 276.25,-273.19 276.25,-273.19"/>
<polygon fill="black" stroke="black" stroke-width="1.5" points="281.5,-273.19 276.25,-258.19 271,-273.2 281.5,-273.19"/>
</g>
<!-- skyMap:0 -->
<g id="node3" class="node">
<title>skyMap:0</title>
<path fill="#f5f5f5" stroke="#00babc" stroke-width="3" d="M531.5,-414C531.5,-414 339.5,-414 339.5,-414 333.5,-414 327.5,-408 327.5,-402 327.5,-402 327.5,-324 327.5,-324 327.5,-318 333.5,-312 339.5,-312 339.5,-312 531.5,-312 531.5,-312 537.5,-312 543.5,-318 543.5,-324 543.5,-324 543.5,-402 543.5,-402 543.5,-408 537.5,-414 531.5,-414"/>
<text text-anchor="start" x="348.5" y="-386.6" font-family="Monospace" font-weight="bold" font-size="18.00">skyMap</text>
<text text-anchor="start" x="348.5" y="-357.8" font-family="Monospace" font-style="italic" font-size="14.00">dimensions:</text>
<text text-anchor="start" x="439.5" y="-357.8" font-family="Monospace" font-size="14.00"> {skymap}</text>
<text text-anchor="start" x="348.5" y="-330.8" font-family="Monospace" font-style="italic" font-size="14.00">storage class:</text>
<text text-anchor="start" x="464.5" y="-330.8" font-family="Monospace" font-size="14.00"> SkyMap</text>
</g>
<!-- skyMap:0&#45;&gt;makeWarp:2 -->
<g id="edge3" class="edge">
<title>skyMap:0&#45;&gt;makeWarp:2</title>
<path fill="none" stroke="black" stroke-width="1.5" d="M435.5,-311.92C435.5,-311.92 435.5,-273.19 435.5,-273.19"/>
<polygon fill="black" stroke="black" stroke-width="1.5" points="440.75,-273.19 435.5,-258.19 430.25,-273.2 440.75,-273.19"/>
</g>
<!-- injected_calexp:0 -->
<g id="node4" class="node">
<title>injected_calexp:0</title>
<path fill="#f5f5f5" stroke="#00babc" stroke-width="3" d="M849.5,-414C849.5,-414 591.5,-414 591.5,-414 585.5,-414 579.5,-408 579.5,-402 579.5,-402 579.5,-324 579.5,-324 579.5,-318 585.5,-312 591.5,-312 591.5,-312 849.5,-312 849.5,-312 855.5,-312 861.5,-318 861.5,-324 861.5,-324 861.5,-402 861.5,-402 861.5,-408 855.5,-414 849.5,-414"/>
<text text-anchor="start" x="600.5" y="-386.6" font-family="Monospace" font-weight="bold" font-size="18.00">injected_calexp</text>
<text text-anchor="start" x="600.5" y="-357.8" font-family="Monospace" font-style="italic" font-size="14.00">dimensions:</text>
<text text-anchor="start" x="691.5" y="-357.8" font-family="Monospace" font-size="14.00"> {detector, visit}</text>
<text text-anchor="start" x="600.5" y="-330.8" font-family="Monospace" font-style="italic" font-size="14.00">storage class:</text>
<text text-anchor="start" x="716.5" y="-330.8" font-family="Monospace" font-size="14.00"> ExposureF</text>
</g>
<!-- injected_calexp:0&#45;&gt;makeWarp:2 -->
<g id="edge4" class="edge">
<title>injected_calexp:0&#45;&gt;makeWarp:2</title>
<path fill="none" stroke="black" stroke-width="1.5" d="M594.5,-311.92C594.5,-311.92 594.5,-273.19 594.5,-273.19"/>
<polygon fill="black" stroke="black" stroke-width="1.5" points="599.75,-273.19 594.5,-258.19 589.25,-273.2 599.75,-273.19"/>
</g>
</g>
</svg>
