<?xml version="1.0" encoding="UTF-8" standalone="no"?>
<!DOCTYPE svg PUBLIC "-//W3C//DTD SVG 1.1//EN"
 "http://www.w3.org/Graphics/SVG/1.1/DTD/svg11.dtd">
<!-- Generated by graphviz version 2.44.0 (0)
 -->
<!-- Title: Pipeline Pages: 1 -->
<svg width="1686pt" height="2670pt"
 viewBox="0.00 0.00 1685.50 2670.00" xmlns="http://www.w3.org/2000/svg" xmlns:xlink="http://www.w3.org/1999/xlink">
<g id="graph0" class="graph" transform="scale(1 1) rotate(0) translate(4 2666)">
<title>Pipeline</title>
<polygon fill="white" stroke="transparent" points="-4,4 -4,-2666 1681.5,-2666 1681.5,4 -4,4"/>
<!-- detection:2 -->
<g id="node1" class="node">
<title>detection:2</title>
<polygon fill="#b1f2ef" stroke="black" stroke-width="3" points="978,-2506 539,-2506 539,-2404 978,-2404 978,-2506"/>
<text text-anchor="start" x="560.5" y="-2478.6" font-family="Monospace" font-weight="bold" font-size="18.00">detection</text>
<text text-anchor="start" x="560.5" y="-2448.8" font-family="Monospace" font-size="14.00">lsst.pipe.tasks.multiBand.DetectCoaddSourcesTask</text>
<text text-anchor="start" x="560.5" y="-2422.8" font-family="Monospace" font-style="italic" font-size="14.00">dimensions:</text>
<text text-anchor="start" x="651.5" y="-2422.8" font-family="Monospace" font-size="14.00"> {band, patch}</text>
</g>
<!-- deepCoadd_calexp_background:0 -->
<g id="node3" class="node">
<title>deepCoadd_calexp_background:0</title>
<path fill="#f5f5f5" stroke="#00babc" stroke-width="3" d="M800.5,-2350C800.5,-2350 498.5,-2350 498.5,-2350 492.5,-2350 486.5,-2344 486.5,-2338 486.5,-2338 486.5,-2260 486.5,-2260 486.5,-2254 492.5,-2248 498.5,-2248 498.5,-2248 800.5,-2248 800.5,-2248 806.5,-2248 812.5,-2254 812.5,-2260 812.5,-2260 812.5,-2338 812.5,-2338 812.5,-2344 806.5,-2350 800.5,-2350"/>
<text text-anchor="start" x="507.5" y="-2322.6" font-family="Monospace" font-weight="bold" font-size="18.00">deepCoadd_calexp_background</text>
<text text-anchor="start" x="507.5" y="-2293.8" font-family="Monospace" font-style="italic" font-size="14.00">dimensions:</text>
<text text-anchor="start" x="598.5" y="-2293.8" font-family="Monospace" font-size="14.00"> {band, patch}</text>
<text text-anchor="start" x="507.5" y="-2266.8" font-family="Monospace" font-style="italic" font-size="14.00">storage class:</text>
<text text-anchor="start" x="623.5" y="-2266.8" font-family="Monospace" font-size="14.00"> Background</text>
</g>
<!-- detection:2&#45;&gt;deepCoadd_calexp_background:0 -->
<g id="edge1" class="edge">
<title>detection:2&#45;&gt;deepCoadd_calexp_background:0</title>
<path fill="none" stroke="black" stroke-width="1.5" d="M675.75,-2403.92C675.75,-2403.92 675.75,-2365.19 675.75,-2365.19"/>
<polygon fill="black" stroke="black" stroke-width="1.5" points="681,-2365.19 675.75,-2350.19 670.5,-2365.2 681,-2365.19"/>
</g>
<!-- deepCoadd_calexp:0 -->
<g id="node4" class="node">
<title>deepCoadd_calexp:0</title>
<path fill="#f5f5f5" stroke="#00babc" stroke-width="3" d="M980,-2038C980,-2038 755,-2038 755,-2038 749,-2038 743,-2032 743,-2026 743,-2026 743,-1948 743,-1948 743,-1942 749,-1936 755,-1936 755,-1936 980,-1936 980,-1936 986,-1936 992,-1942 992,-1948 992,-1948 992,-2026 992,-2026 992,-2032 986,-2038 980,-2038"/>
<text text-anchor="start" x="764.5" y="-2010.6" font-family="Monospace" font-weight="bold" font-size="18.00">deepCoadd_calexp</text>
<text text-anchor="start" x="764.5" y="-1981.8" font-family="Monospace" font-style="italic" font-size="14.00">dimensions:</text>
<text text-anchor="start" x="855.5" y="-1981.8" font-family="Monospace" font-size="14.00"> {band, patch}</text>
<text text-anchor="start" x="764.5" y="-1954.8" font-family="Monospace" font-style="italic" font-size="14.00">storage class:</text>
<text text-anchor="start" x="880.5" y="-1954.8" font-family="Monospace" font-size="14.00"> ExposureF</text>
</g>
<!-- detection:2&#45;&gt;deepCoadd_calexp:0 -->
<g id="edge2" class="edge">
<title>detection:2&#45;&gt;deepCoadd_calexp:0</title>
<path fill="none" stroke="black" stroke-width="1.5" d="M867.67,-2403.58C867.67,-2403.58 867.67,-2053.15 867.67,-2053.15"/>
<polygon fill="black" stroke="black" stroke-width="1.5" points="872.92,-2053.15 867.67,-2038.15 862.42,-2053.15 872.92,-2053.15"/>
</g>
<!-- deepCoadd_det:0 -->
<g id="node5" class="node">
<title>deepCoadd_det:0</title>
<path fill="#f5f5f5" stroke="#00babc" stroke-width="3" d="M1275.5,-2350C1275.5,-2350 1025.5,-2350 1025.5,-2350 1019.5,-2350 1013.5,-2344 1013.5,-2338 1013.5,-2338 1013.5,-2260 1013.5,-2260 1013.5,-2254 1019.5,-2248 1025.5,-2248 1025.5,-2248 1275.5,-2248 1275.5,-2248 1281.5,-2248 1287.5,-2254 1287.5,-2260 1287.5,-2260 1287.5,-2338 1287.5,-2338 1287.5,-2344 1281.5,-2350 1275.5,-2350"/>
<text text-anchor="start" x="1034.5" y="-2322.6" font-family="Monospace" font-weight="bold" font-size="18.00">deepCoadd_det</text>
<text text-anchor="start" x="1034.5" y="-2293.8" font-family="Monospace" font-style="italic" font-size="14.00">dimensions:</text>
<text text-anchor="start" x="1125.5" y="-2293.8" font-family="Monospace" font-size="14.00"> {band, patch}</text>
<text text-anchor="start" x="1034.5" y="-2266.8" font-family="Monospace" font-style="italic" font-size="14.00">storage class:</text>
<text text-anchor="start" x="1150.5" y="-2266.8" font-family="Monospace" font-size="14.00"> SourceCatalog</text>
</g>
<!-- detection:2&#45;&gt;deepCoadd_det:0 -->
<g id="edge3" class="edge">
<title>detection:2&#45;&gt;deepCoadd_det:0</title>
<path fill="none" stroke="black" stroke-width="1.5" d="M922.83,-2403.92C922.83,-2358.42 922.83,-2299 922.83,-2299 922.83,-2299 998.47,-2299 998.47,-2299"/>
<polygon fill="black" stroke="black" stroke-width="1.5" points="998.47,-2304.25 1013.47,-2299 998.47,-2293.75 998.47,-2304.25"/>
</g>
<!-- deepCoadd:0 -->
<g id="node2" class="node">
<title>deepCoadd:0</title>
<path fill="#f5f5f5" stroke="#00babc" stroke-width="3" d="M401,-2662C401,-2662 176,-2662 176,-2662 170,-2662 164,-2656 164,-2650 164,-2650 164,-2572 164,-2572 164,-2566 170,-2560 176,-2560 176,-2560 401,-2560 401,-2560 407,-2560 413,-2566 413,-2572 413,-2572 413,-2650 413,-2650 413,-2656 407,-2662 401,-2662"/>
<text text-anchor="start" x="185.5" y="-2634.6" font-family="Monospace" font-weight="bold" font-size="18.00">deepCoadd</text>
<text text-anchor="start" x="185.5" y="-2605.8" font-family="Monospace" font-style="italic" font-size="14.00">dimensions:</text>
<text text-anchor="start" x="276.5" y="-2605.8" font-family="Monospace" font-size="14.00"> {band, patch}</text>
<text text-anchor="start" x="185.5" y="-2578.8" font-family="Monospace" font-style="italic" font-size="14.00">storage class:</text>
<text text-anchor="start" x="301.5" y="-2578.8" font-family="Monospace" font-size="14.00"> ExposureF</text>
</g>
<!-- deepCoadd:0&#45;&gt;detection:2 -->
<g id="edge4" class="edge">
<title>deepCoadd:0&#45;&gt;detection:2</title>
<path fill="none" stroke="black" stroke-width="1.5" d="M399.5,-2559.92C399.5,-2514.42 399.5,-2455 399.5,-2455 399.5,-2455 523.81,-2455 523.81,-2455"/>
<polygon fill="black" stroke="black" stroke-width="1.5" points="523.81,-2460.25 538.81,-2455 523.81,-2449.75 523.81,-2460.25"/>
</g>
<!-- forcedPhotCoadd:2 -->
<g id="node22" class="node">
<title>forcedPhotCoadd:2</title>
<polygon fill="#b1f2ef" stroke="black" stroke-width="3" points="455,-882 0,-882 0,-780 455,-780 455,-882"/>
<text text-anchor="start" x="21.5" y="-854.6" font-family="Monospace" font-weight="bold" font-size="18.00">forcedPhotCoadd</text>
<text text-anchor="start" x="21.5" y="-824.8" font-family="Monospace" font-size="14.00">lsst.drp.tasks.forcedPhotCoadd.ForcedPhotCoaddTask</text>
<text text-anchor="start" x="21.5" y="-798.8" font-family="Monospace" font-style="italic" font-size="14.00">dimensions:</text>
<text text-anchor="start" x="112.5" y="-798.8" font-family="Monospace" font-size="14.00"> {band, patch}</text>
</g>
<!-- deepCoadd:0&#45;&gt;forcedPhotCoadd:2 -->
<g id="edge5" class="edge">
<title>deepCoadd:0&#45;&gt;forcedPhotCoadd:2</title>
<path fill="none" stroke="black" stroke-width="1.5" d="M163.69,-2611C93.24,-2611 19.17,-2611 19.17,-2611 19.17,-2611 19.17,-897.35 19.17,-897.35"/>
<polygon fill="black" stroke="black" stroke-width="1.5" points="24.42,-897.35 19.17,-882.35 13.92,-897.35 24.42,-897.35"/>
</g>
<!-- deblend:2 -->
<g id="node9" class="node">
<title>deblend:2</title>
<polygon fill="#b1f2ef" stroke="black" stroke-width="3" points="1560,-1882 923,-1882 923,-1780 1560,-1780 1560,-1882"/>
<text text-anchor="start" x="944.5" y="-1854.6" font-family="Monospace" font-weight="bold" font-size="18.00">deblend</text>
<text text-anchor="start" x="944.5" y="-1824.8" font-family="Monospace" font-size="14.00">lsst.pipe.tasks.deblendCoaddSourcesPipeline.DeblendCoaddSourcesMultiTask</text>
<text text-anchor="start" x="944.5" y="-1798.8" font-family="Monospace" font-style="italic" font-size="14.00">dimensions:</text>
<text text-anchor="start" x="1035.5" y="-1798.8" font-family="Monospace" font-size="14.00"> {patch}</text>
</g>
<!-- deepCoadd_calexp:0&#45;&gt;deblend:2 -->
<g id="edge6" class="edge">
<title>deepCoadd_calexp:0&#45;&gt;deblend:2</title>
<path fill="none" stroke="black" stroke-width="1.5" d="M957.5,-1935.92C957.5,-1935.92 957.5,-1897.19 957.5,-1897.19"/>
<polygon fill="black" stroke="black" stroke-width="1.5" points="962.75,-1897.19 957.5,-1882.19 952.25,-1897.2 962.75,-1897.19"/>
</g>
<!-- measure:2 -->
<g id="node12" class="node">
<title>measure:2</title>
<polygon fill="#b1f2ef" stroke="black" stroke-width="3" points="1094.5,-1538 598.5,-1538 598.5,-1436 1094.5,-1436 1094.5,-1538"/>
<text text-anchor="start" x="619.5" y="-1510.6" font-family="Monospace" font-weight="bold" font-size="18.00">measure</text>
<text text-anchor="start" x="619.5" y="-1480.8" font-family="Monospace" font-size="14.00">lsst.pipe.tasks.multiBand.MeasureMergedCoaddSourcesTask</text>
<text text-anchor="start" x="619.5" y="-1454.8" font-family="Monospace" font-style="italic" font-size="14.00">dimensions:</text>
<text text-anchor="start" x="710.5" y="-1454.8" font-family="Monospace" font-size="14.00"> {band, patch}</text>
</g>
<!-- deepCoadd_calexp:0&#45;&gt;measure:2 -->
<g id="edge7" class="edge">
<title>deepCoadd_calexp:0&#45;&gt;measure:2</title>
<path fill="none" stroke="black" stroke-width="1.5" d="M742.72,-1970C719.17,-1970 701.75,-1970 701.75,-1970 701.75,-1970 701.75,-1553.23 701.75,-1553.23"/>
<polygon fill="black" stroke="black" stroke-width="1.5" points="707,-1553.23 701.75,-1538.23 696.5,-1553.23 707,-1553.23"/>
</g>
<!-- deepCoadd_calexp:0&#45;&gt;forcedPhotCoadd:2 -->
<g id="edge8" class="edge">
<title>deepCoadd_calexp:0&#45;&gt;forcedPhotCoadd:2</title>
<path fill="none" stroke="black" stroke-width="1.5" d="M742.92,-2004C511.44,-2004 38.33,-2004 38.33,-2004 38.33,-2004 38.33,-897.16 38.33,-897.16"/>
<polygon fill="black" stroke="black" stroke-width="1.5" points="43.58,-897.16 38.33,-882.16 33.08,-897.16 43.58,-897.16"/>
</g>
<!-- mergeDetections:2 -->
<g id="node6" class="node">
<title>mergeDetections:2</title>
<polygon fill="#b1f2ef" stroke="black" stroke-width="3" points="1473,-2194 1010,-2194 1010,-2092 1473,-2092 1473,-2194"/>
<text text-anchor="start" x="1031.5" y="-2166.6" font-family="Monospace" font-weight="bold" font-size="18.00">mergeDetections</text>
<text text-anchor="start" x="1031.5" y="-2136.8" font-family="Monospace" font-size="14.00">lsst.pipe.tasks.mergeDetections.MergeDetectionsTask</text>
<text text-anchor="start" x="1031.5" y="-2110.8" font-family="Monospace" font-style="italic" font-size="14.00">dimensions:</text>
<text text-anchor="start" x="1122.5" y="-2110.8" font-family="Monospace" font-size="14.00"> {patch}</text>
</g>
<!-- deepCoadd_det:0&#45;&gt;mergeDetections:2 -->
<g id="edge9" class="edge">
<title>deepCoadd_det:0&#45;&gt;mergeDetections:2</title>
<path fill="none" stroke="black" stroke-width="1.5" d="M1150.5,-2247.92C1150.5,-2247.92 1150.5,-2209.19 1150.5,-2209.19"/>
<polygon fill="black" stroke="black" stroke-width="1.5" points="1155.75,-2209.19 1150.5,-2194.19 1145.25,-2209.2 1155.75,-2209.19"/>
</g>
<!-- deepCoadd_mergeDet:0 -->
<g id="node8" class="node">
<title>deepCoadd_mergeDet:0</title>
<path fill="#f5f5f5" stroke="#00babc" stroke-width="3" d="M1366.5,-2038C1366.5,-2038 1116.5,-2038 1116.5,-2038 1110.5,-2038 1104.5,-2032 1104.5,-2026 1104.5,-2026 1104.5,-1948 1104.5,-1948 1104.5,-1942 1110.5,-1936 1116.5,-1936 1116.5,-1936 1366.5,-1936 1366.5,-1936 1372.5,-1936 1378.5,-1942 1378.5,-1948 1378.5,-1948 1378.5,-2026 1378.5,-2026 1378.5,-2032 1372.5,-2038 1366.5,-2038"/>
<text text-anchor="start" x="1125.5" y="-2010.6" font-family="Monospace" font-weight="bold" font-size="18.00">deepCoadd_mergeDet</text>
<text text-anchor="start" x="1125.5" y="-1981.8" font-family="Monospace" font-style="italic" font-size="14.00">dimensions:</text>
<text text-anchor="start" x="1216.5" y="-1981.8" font-family="Monospace" font-size="14.00"> {patch}</text>
<text text-anchor="start" x="1125.5" y="-1954.8" font-family="Monospace" font-style="italic" font-size="14.00">storage class:</text>
<text text-anchor="start" x="1241.5" y="-1954.8" font-family="Monospace" font-size="14.00"> SourceCatalog</text>
</g>
<!-- mergeDetections:2&#45;&gt;deepCoadd_mergeDet:0 -->
<g id="edge10" class="edge">
<title>mergeDetections:2&#45;&gt;deepCoadd_mergeDet:0</title>
<path fill="none" stroke="black" stroke-width="1.5" d="M1241.5,-2091.92C1241.5,-2091.92 1241.5,-2053.19 1241.5,-2053.19"/>
<polygon fill="black" stroke="black" stroke-width="1.5" points="1246.75,-2053.19 1241.5,-2038.19 1236.25,-2053.2 1246.75,-2053.19"/>
</g>
<!-- skyMap:0 -->
<g id="node7" class="node">
<title>skyMap:0</title>
<path fill="#f5f5f5" stroke="#00babc" stroke-width="3" d="M1665.5,-2350C1665.5,-2350 1473.5,-2350 1473.5,-2350 1467.5,-2350 1461.5,-2344 1461.5,-2338 1461.5,-2338 1461.5,-2260 1461.5,-2260 1461.5,-2254 1467.5,-2248 1473.5,-2248 1473.5,-2248 1665.5,-2248 1665.5,-2248 1671.5,-2248 1677.5,-2254 1677.5,-2260 1677.5,-2260 1677.5,-2338 1677.5,-2338 1677.5,-2344 1671.5,-2350 1665.5,-2350"/>
<text text-anchor="start" x="1482.5" y="-2322.6" font-family="Monospace" font-weight="bold" font-size="18.00">skyMap</text>
<text text-anchor="start" x="1482.5" y="-2293.8" font-family="Monospace" font-style="italic" font-size="14.00">dimensions:</text>
<text text-anchor="start" x="1573.5" y="-2293.8" font-family="Monospace" font-size="14.00"> {skymap}</text>
<text text-anchor="start" x="1482.5" y="-2266.8" font-family="Monospace" font-style="italic" font-size="14.00">storage class:</text>
<text text-anchor="start" x="1598.5" y="-2266.8" font-family="Monospace" font-size="14.00"> SkyMap</text>
</g>
<!-- skyMap:0&#45;&gt;mergeDetections:2 -->
<g id="edge11" class="edge">
<title>skyMap:0&#45;&gt;mergeDetections:2</title>
<path fill="none" stroke="black" stroke-width="1.5" d="M1467.25,-2247.92C1467.25,-2247.92 1467.25,-2209.19 1467.25,-2209.19"/>
<polygon fill="black" stroke="black" stroke-width="1.5" points="1472.5,-2209.19 1467.25,-2194.19 1462,-2209.2 1472.5,-2209.19"/>
</g>
<!-- skyMap:0&#45;&gt;measure:2 -->
<g id="edge12" class="edge">
<title>skyMap:0&#45;&gt;measure:2</title>
<path fill="none" stroke="black" stroke-width="1.5" d="M1618.75,-2247.9C1618.75,-2069.77 1618.75,-1487 1618.75,-1487 1618.75,-1487 1109.56,-1487 1109.56,-1487"/>
<polygon fill="black" stroke="black" stroke-width="1.5" points="1109.56,-1481.75 1094.56,-1487 1109.56,-1492.25 1109.56,-1481.75"/>
</g>
<!-- deepCoadd_mergeDet:0&#45;&gt;deblend:2 -->
<g id="edge13" class="edge">
<title>deepCoadd_mergeDet:0&#45;&gt;deblend:2</title>
<path fill="none" stroke="black" stroke-width="1.5" d="M1241.5,-1935.92C1241.5,-1935.92 1241.5,-1897.19 1241.5,-1897.19"/>
<polygon fill="black" stroke="black" stroke-width="1.5" points="1246.75,-1897.19 1241.5,-1882.19 1236.25,-1897.2 1246.75,-1897.19"/>
</g>
<!-- deepCoadd_deblendedCatalog:0 -->
<g id="node10" class="node">
<title>deepCoadd_deblendedCatalog:0</title>
<path fill="#f5f5f5" stroke="#00babc" stroke-width="3" d="M1387.5,-1710C1387.5,-1710 1095.5,-1710 1095.5,-1710 1089.5,-1710 1083.5,-1704 1083.5,-1698 1083.5,-1698 1083.5,-1620 1083.5,-1620 1083.5,-1614 1089.5,-1608 1095.5,-1608 1095.5,-1608 1387.5,-1608 1387.5,-1608 1393.5,-1608 1399.5,-1614 1399.5,-1620 1399.5,-1620 1399.5,-1698 1399.5,-1698 1399.5,-1704 1393.5,-1710 1387.5,-1710"/>
<text text-anchor="start" x="1104.5" y="-1682.6" font-family="Monospace" font-weight="bold" font-size="18.00">deepCoadd_deblendedCatalog</text>
<text text-anchor="start" x="1104.5" y="-1653.8" font-family="Monospace" font-style="italic" font-size="14.00">dimensions:</text>
<text text-anchor="start" x="1195.5" y="-1653.8" font-family="Monospace" font-size="14.00"> {patch}</text>
<text text-anchor="start" x="1104.5" y="-1626.8" font-family="Monospace" font-style="italic" font-size="14.00">storage class:</text>
<text text-anchor="start" x="1220.5" y="-1626.8" font-family="Monospace" font-size="14.00"> SourceCatalog</text>
</g>
<!-- deblend:2&#45;&gt;deepCoadd_deblendedCatalog:0 -->
<g id="edge14" class="edge">
<title>deblend:2&#45;&gt;deepCoadd_deblendedCatalog:0</title>
<path fill="none" stroke="black" stroke-width="1.5" d="M1241.5,-1779.86C1241.5,-1779.86 1241.5,-1725.24 1241.5,-1725.24"/>
<polygon fill="black" stroke="black" stroke-width="1.5" points="1246.75,-1725.24 1241.5,-1710.24 1236.25,-1725.24 1246.75,-1725.24"/>
</g>
<!-- deepCoadd_scarletModelData:0 -->
<g id="node11" class="node">
<title>deepCoadd_scarletModelData:0</title>
<path fill="#f5f5f5" stroke="#00babc" stroke-width="3" d="M361.5,-1710C361.5,-1710 69.5,-1710 69.5,-1710 63.5,-1710 57.5,-1704 57.5,-1698 57.5,-1698 57.5,-1620 57.5,-1620 57.5,-1614 63.5,-1608 69.5,-1608 69.5,-1608 361.5,-1608 361.5,-1608 367.5,-1608 373.5,-1614 373.5,-1620 373.5,-1620 373.5,-1698 373.5,-1698 373.5,-1704 367.5,-1710 361.5,-1710"/>
<text text-anchor="start" x="78.5" y="-1682.6" font-family="Monospace" font-weight="bold" font-size="18.00">deepCoadd_scarletModelData</text>
<text text-anchor="start" x="78.5" y="-1653.8" font-family="Monospace" font-style="italic" font-size="14.00">dimensions:</text>
<text text-anchor="start" x="169.5" y="-1653.8" font-family="Monospace" font-size="14.00"> {patch}</text>
<text text-anchor="start" x="78.5" y="-1626.8" font-family="Monospace" font-style="italic" font-size="14.00">storage class:</text>
<text text-anchor="start" x="194.5" y="-1626.8" font-family="Monospace" font-size="14.00"> ScarletModelData</text>
</g>
<!-- deblend:2&#45;&gt;deepCoadd_scarletModelData:0 -->
<g id="edge15" class="edge">
<title>deblend:2&#45;&gt;deepCoadd_scarletModelData:0</title>
<path fill="none" stroke="black" stroke-width="1.5" d="M922.99,-1831C639.29,-1831 268.75,-1831 268.75,-1831 268.75,-1831 268.75,-1725.14 268.75,-1725.14"/>
<polygon fill="black" stroke="black" stroke-width="1.5" points="274,-1725.14 268.75,-1710.14 263.5,-1725.14 274,-1725.14"/>
</g>
<!-- deepCoadd_deblendedCatalog:0&#45;&gt;measure:2 -->
<g id="edge16" class="edge">
<title>deepCoadd_deblendedCatalog:0&#45;&gt;measure:2</title>
<path fill="none" stroke="black" stroke-width="1.5" d="M1089,-1607.86C1089,-1607.86 1089,-1553.24 1089,-1553.24"/>
<polygon fill="black" stroke="black" stroke-width="1.5" points="1094.25,-1553.24 1089,-1538.24 1083.75,-1553.24 1094.25,-1553.24"/>
</g>
<!-- deepCoadd_scarletModelData:0&#45;&gt;measure:2 -->
<g id="edge17" class="edge">
<title>deepCoadd_scarletModelData:0&#45;&gt;measure:2</title>
<path fill="none" stroke="black" stroke-width="1.5" d="M346.5,-1607.86C346.5,-1557.16 346.5,-1487 346.5,-1487 346.5,-1487 583.33,-1487 583.33,-1487"/>
<polygon fill="black" stroke="black" stroke-width="1.5" points="583.33,-1492.25 598.33,-1487 583.33,-1481.75 583.33,-1492.25"/>
</g>
<!-- deepCoadd_scarletModelData:0&#45;&gt;forcedPhotCoadd:2 -->
<g id="edge18" class="edge">
<title>deepCoadd_scarletModelData:0&#45;&gt;forcedPhotCoadd:2</title>
<path fill="none" stroke="black" stroke-width="1.5" d="M188.5,-1607.83C188.5,-1607.83 188.5,-897.09 188.5,-897.09"/>
<polygon fill="black" stroke="black" stroke-width="1.5" points="193.75,-897.09 188.5,-882.09 183.25,-897.09 193.75,-897.09"/>
</g>
<!-- deepCoadd_meas:0 -->
<g id="node14" class="node">
<title>deepCoadd_meas:0</title>
<path fill="#f5f5f5" stroke="#00babc" stroke-width="3" d="M971.5,-1366C971.5,-1366 721.5,-1366 721.5,-1366 715.5,-1366 709.5,-1360 709.5,-1354 709.5,-1354 709.5,-1276 709.5,-1276 709.5,-1270 715.5,-1264 721.5,-1264 721.5,-1264 971.5,-1264 971.5,-1264 977.5,-1264 983.5,-1270 983.5,-1276 983.5,-1276 983.5,-1354 983.5,-1354 983.5,-1360 977.5,-1366 971.5,-1366"/>
<text text-anchor="start" x="730.5" y="-1338.6" font-family="Monospace" font-weight="bold" font-size="18.00">deepCoadd_meas</text>
<text text-anchor="start" x="730.5" y="-1309.8" font-family="Monospace" font-style="italic" font-size="14.00">dimensions:</text>
<text text-anchor="start" x="821.5" y="-1309.8" font-family="Monospace" font-size="14.00"> {band, patch}</text>
<text text-anchor="start" x="730.5" y="-1282.8" font-family="Monospace" font-style="italic" font-size="14.00">storage class:</text>
<text text-anchor="start" x="846.5" y="-1282.8" font-family="Monospace" font-size="14.00"> SourceCatalog</text>
</g>
<!-- measure:2&#45;&gt;deepCoadd_meas:0 -->
<g id="edge19" class="edge">
<title>measure:2&#45;&gt;deepCoadd_meas:0</title>
<path fill="none" stroke="black" stroke-width="1.5" d="M846.5,-1435.86C846.5,-1435.86 846.5,-1381.24 846.5,-1381.24"/>
<polygon fill="black" stroke="black" stroke-width="1.5" points="851.75,-1381.24 846.5,-1366.24 841.25,-1381.24 851.75,-1381.24"/>
</g>
<!-- 39210d17:0 -->
<g id="node24" class="node">
<title>39210d17:0</title>
<path fill="#f5f5f5" stroke="#00babc" stroke-width="3" d="M661.5,-1382C661.5,-1382 401.5,-1382 401.5,-1382 395.5,-1382 389.5,-1376 389.5,-1370 389.5,-1370 389.5,-1260 389.5,-1260 389.5,-1254 395.5,-1248 401.5,-1248 401.5,-1248 661.5,-1248 661.5,-1248 667.5,-1248 673.5,-1254 673.5,-1260 673.5,-1260 673.5,-1370 673.5,-1370 673.5,-1376 667.5,-1382 661.5,-1382"/>
<text text-anchor="start" x="410.5" y="-1354.6" font-family="Monospace" font-weight="bold" font-size="18.00">deepCoadd_measMatchFull</text>
<text text-anchor="start" x="410.5" y="-1322.6" font-family="Monospace" font-weight="bold" font-size="18.00">deepCoadd_measMatch</text>
<text text-anchor="start" x="410.5" y="-1293.8" font-family="Monospace" font-style="italic" font-size="14.00">dimensions:</text>
<text text-anchor="start" x="501.5" y="-1293.8" font-family="Monospace" font-size="14.00"> {band, patch}</text>
<text text-anchor="start" x="410.5" y="-1266.8" font-family="Monospace" font-style="italic" font-size="14.00">storage class:</text>
<text text-anchor="start" x="526.5" y="-1266.8" font-family="Monospace" font-size="14.00"> Catalog</text>
</g>
<!-- measure:2&#45;&gt;39210d17:0 -->
<g id="edge20" class="edge">
<title>measure:2&#45;&gt;39210d17:0</title>
<path fill="none" stroke="black" stroke-width="1.5" d="M636,-1435.86C636,-1435.86 636,-1397.2 636,-1397.2"/>
<polygon fill="black" stroke="black" stroke-width="1.5" points="641.25,-1397.2 636,-1382.2 630.75,-1397.2 641.25,-1397.2"/>
</g>
<!-- ps1_pv3_3pi_20170110:0 -->
<g id="node13" class="node">
<title>ps1_pv3_3pi_20170110:0</title>
<path fill="#f5f5f5" stroke="#00babc" stroke-width="3" d="M671.5,-1710C671.5,-1710 421.5,-1710 421.5,-1710 415.5,-1710 409.5,-1704 409.5,-1698 409.5,-1698 409.5,-1620 409.5,-1620 409.5,-1614 415.5,-1608 421.5,-1608 421.5,-1608 671.5,-1608 671.5,-1608 677.5,-1608 683.5,-1614 683.5,-1620 683.5,-1620 683.5,-1698 683.5,-1698 683.5,-1704 677.5,-1710 671.5,-1710"/>
<text text-anchor="start" x="430.5" y="-1682.6" font-family="Monospace" font-weight="bold" font-size="18.00">ps1_pv3_3pi_20170110</text>
<text text-anchor="start" x="430.5" y="-1653.8" font-family="Monospace" font-style="italic" font-size="14.00">dimensions:</text>
<text text-anchor="start" x="521.5" y="-1653.8" font-family="Monospace" font-size="14.00"> {htm7}</text>
<text text-anchor="start" x="430.5" y="-1626.8" font-family="Monospace" font-style="italic" font-size="14.00">storage class:</text>
<text text-anchor="start" x="546.5" y="-1626.8" font-family="Monospace" font-size="14.00"> SimpleCatalog</text>
</g>
<!-- ps1_pv3_3pi_20170110:0&#45;&gt;measure:2 -->
<g id="edge21" class="edge">
<title>ps1_pv3_3pi_20170110:0&#45;&gt;measure:2</title>
<path fill="none" stroke="black" stroke-width="1.5" stroke-dasharray="5,2" d="M641,-1607.86C641,-1607.86 641,-1553.24 641,-1553.24"/>
<polygon fill="black" stroke="black" stroke-width="1.5" points="646.25,-1553.24 641,-1538.24 635.75,-1553.24 646.25,-1553.24"/>
</g>
<!-- mergeMeasurements:2 -->
<g id="node15" class="node">
<title>mergeMeasurements:2</title>
<polygon fill="#b1f2ef" stroke="black" stroke-width="3" points="815.5,-1194 319.5,-1194 319.5,-1092 815.5,-1092 815.5,-1194"/>
<text text-anchor="start" x="340.5" y="-1166.6" font-family="Monospace" font-weight="bold" font-size="18.00">mergeMeasurements</text>
<text text-anchor="start" x="340.5" y="-1136.8" font-family="Monospace" font-size="14.00">lsst.pipe.tasks.mergeMeasurements.MergeMeasurementsTask</text>
<text text-anchor="start" x="340.5" y="-1110.8" font-family="Monospace" font-style="italic" font-size="14.00">dimensions:</text>
<text text-anchor="start" x="431.5" y="-1110.8" font-family="Monospace" font-size="14.00"> {patch}</text>
</g>
<!-- deepCoadd_meas:0&#45;&gt;mergeMeasurements:2 -->
<g id="edge22" class="edge">
<title>deepCoadd_meas:0&#45;&gt;mergeMeasurements:2</title>
<path fill="none" stroke="black" stroke-width="1.5" d="M762.5,-1263.86C762.5,-1263.86 762.5,-1209.24 762.5,-1209.24"/>
<polygon fill="black" stroke="black" stroke-width="1.5" points="767.75,-1209.24 762.5,-1194.24 757.25,-1209.24 767.75,-1209.24"/>
</g>
<!-- writeObjectTable:2 -->
<g id="node17" class="node">
<title>writeObjectTable:2</title>
<polygon fill="#b1f2ef" stroke="black" stroke-width="3" points="758,-570 319,-570 319,-468 758,-468 758,-570"/>
<text text-anchor="start" x="340.5" y="-542.6" font-family="Monospace" font-weight="bold" font-size="18.00">writeObjectTable</text>
<text text-anchor="start" x="340.5" y="-512.8" font-family="Monospace" font-size="14.00">lsst.pipe.tasks.postprocess.WriteObjectTableTask</text>
<text text-anchor="start" x="340.5" y="-486.8" font-family="Monospace" font-style="italic" font-size="14.00">dimensions:</text>
<text text-anchor="start" x="431.5" y="-486.8" font-family="Monospace" font-size="14.00"> {patch}</text>
</g>
<!-- deepCoadd_meas:0&#45;&gt;writeObjectTable:2 -->
<g id="edge23" class="edge">
<title>deepCoadd_meas:0&#45;&gt;writeObjectTable:2</title>
<path fill="none" stroke="black" stroke-width="1.5" d="M927.5,-1264C927.5,-1088.31 927.5,-519 927.5,-519 927.5,-519 773.01,-519 773.01,-519"/>
<polygon fill="black" stroke="black" stroke-width="1.5" points="773.01,-513.75 758.01,-519 773.01,-524.25 773.01,-513.75"/>
</g>
<!-- deepCoadd_meas:0&#45;&gt;forcedPhotCoadd:2 -->
<g id="edge24" class="edge">
<title>deepCoadd_meas:0&#45;&gt;forcedPhotCoadd:2</title>
<path fill="none" stroke="black" stroke-width="1.5" d="M871.5,-1263.66C871.5,-1139.1 871.5,-831 871.5,-831 871.5,-831 470,-831 470,-831"/>
<polygon fill="black" stroke="black" stroke-width="1.5" points="470,-825.75 455,-831 470,-836.25 470,-825.75"/>
</g>
<!-- deepCoadd_ref:0 -->
<g id="node16" class="node">
<title>deepCoadd_ref:0</title>
<path fill="#f5f5f5" stroke="#00babc" stroke-width="3" d="M663.5,-1038C663.5,-1038 413.5,-1038 413.5,-1038 407.5,-1038 401.5,-1032 401.5,-1026 401.5,-1026 401.5,-948 401.5,-948 401.5,-942 407.5,-936 413.5,-936 413.5,-936 663.5,-936 663.5,-936 669.5,-936 675.5,-942 675.5,-948 675.5,-948 675.5,-1026 675.5,-1026 675.5,-1032 669.5,-1038 663.5,-1038"/>
<text text-anchor="start" x="422.5" y="-1010.6" font-family="Monospace" font-weight="bold" font-size="18.00">deepCoadd_ref</text>
<text text-anchor="start" x="422.5" y="-981.8" font-family="Monospace" font-style="italic" font-size="14.00">dimensions:</text>
<text text-anchor="start" x="513.5" y="-981.8" font-family="Monospace" font-size="14.00"> {patch}</text>
<text text-anchor="start" x="422.5" y="-954.8" font-family="Monospace" font-style="italic" font-size="14.00">storage class:</text>
<text text-anchor="start" x="538.5" y="-954.8" font-family="Monospace" font-size="14.00"> SourceCatalog</text>
</g>
<!-- mergeMeasurements:2&#45;&gt;deepCoadd_ref:0 -->
<g id="edge25" class="edge">
<title>mergeMeasurements:2&#45;&gt;deepCoadd_ref:0</title>
<path fill="none" stroke="black" stroke-width="1.5" d="M538.5,-1091.92C538.5,-1091.92 538.5,-1053.19 538.5,-1053.19"/>
<polygon fill="black" stroke="black" stroke-width="1.5" points="543.75,-1053.19 538.5,-1038.19 533.25,-1053.2 543.75,-1053.19"/>
</g>
<!-- deepCoadd_ref:0&#45;&gt;writeObjectTable:2 -->
<g id="edge26" class="edge">
<title>deepCoadd_ref:0&#45;&gt;writeObjectTable:2</title>
<path fill="none" stroke="black" stroke-width="1.5" d="M565.25,-935.58C565.25,-935.58 565.25,-585.15 565.25,-585.15"/>
<polygon fill="black" stroke="black" stroke-width="1.5" points="570.5,-585.15 565.25,-570.15 560,-585.15 570.5,-585.15"/>
</g>
<!-- deepCoadd_ref:0&#45;&gt;forcedPhotCoadd:2 -->
<g id="edge27" class="edge">
<title>deepCoadd_ref:0&#45;&gt;forcedPhotCoadd:2</title>
<path fill="none" stroke="black" stroke-width="1.5" d="M428.25,-935.92C428.25,-935.92 428.25,-897.19 428.25,-897.19"/>
<polygon fill="black" stroke="black" stroke-width="1.5" points="433.5,-897.19 428.25,-882.19 423,-897.2 433.5,-897.19"/>
</g>
<!-- deepCoadd_obj:0 -->
<g id="node19" class="node">
<title>deepCoadd_obj:0</title>
<path fill="#f5f5f5" stroke="#00babc" stroke-width="3" d="M647,-414C647,-414 430,-414 430,-414 424,-414 418,-408 418,-402 418,-402 418,-324 418,-324 418,-318 424,-312 430,-312 430,-312 647,-312 647,-312 653,-312 659,-318 659,-324 659,-324 659,-402 659,-402 659,-408 653,-414 647,-414"/>
<text text-anchor="start" x="439.5" y="-386.6" font-family="Monospace" font-weight="bold" font-size="18.00">deepCoadd_obj</text>
<text text-anchor="start" x="439.5" y="-357.8" font-family="Monospace" font-style="italic" font-size="14.00">dimensions:</text>
<text text-anchor="start" x="530.5" y="-357.8" font-family="Monospace" font-size="14.00"> {patch}</text>
<text text-anchor="start" x="439.5" y="-330.8" font-family="Monospace" font-style="italic" font-size="14.00">storage class:</text>
<text text-anchor="start" x="555.5" y="-330.8" font-family="Monospace" font-size="14.00"> DataFrame</text>
</g>
<!-- writeObjectTable:2&#45;&gt;deepCoadd_obj:0 -->
<g id="edge28" class="edge">
<title>writeObjectTable:2&#45;&gt;deepCoadd_obj:0</title>
<path fill="none" stroke="black" stroke-width="1.5" d="M538.5,-467.92C538.5,-467.92 538.5,-429.19 538.5,-429.19"/>
<polygon fill="black" stroke="black" stroke-width="1.5" points="543.75,-429.19 538.5,-414.19 533.25,-429.2 543.75,-429.19"/>
</g>
<!-- deepCoadd_forced_src:0 -->
<g id="node18" class="node">
<title>deepCoadd_forced_src:0</title>
<path fill="#f5f5f5" stroke="#00babc" stroke-width="3" d="M426.5,-726C426.5,-726 176.5,-726 176.5,-726 170.5,-726 164.5,-720 164.5,-714 164.5,-714 164.5,-636 164.5,-636 164.5,-630 170.5,-624 176.5,-624 176.5,-624 426.5,-624 426.5,-624 432.5,-624 438.5,-630 438.5,-636 438.5,-636 438.5,-714 438.5,-714 438.5,-720 432.5,-726 426.5,-726"/>
<text text-anchor="start" x="185.5" y="-698.6" font-family="Monospace" font-weight="bold" font-size="18.00">deepCoadd_forced_src</text>
<text text-anchor="start" x="185.5" y="-669.8" font-family="Monospace" font-style="italic" font-size="14.00">dimensions:</text>
<text text-anchor="start" x="276.5" y="-669.8" font-family="Monospace" font-size="14.00"> {band, patch}</text>
<text text-anchor="start" x="185.5" y="-642.8" font-family="Monospace" font-style="italic" font-size="14.00">storage class:</text>
<text text-anchor="start" x="301.5" y="-642.8" font-family="Monospace" font-size="14.00"> SourceCatalog</text>
</g>
<!-- deepCoadd_forced_src:0&#45;&gt;writeObjectTable:2 -->
<g id="edge29" class="edge">
<title>deepCoadd_forced_src:0&#45;&gt;writeObjectTable:2</title>
<path fill="none" stroke="black" stroke-width="1.5" d="M378.75,-623.92C378.75,-623.92 378.75,-585.19 378.75,-585.19"/>
<polygon fill="black" stroke="black" stroke-width="1.5" points="384,-585.19 378.75,-570.19 373.5,-585.2 384,-585.19"/>
</g>
<!-- transformObjectTable:2 -->
<g id="node20" class="node">
<title>transformObjectTable:2</title>
<polygon fill="#b1f2ef" stroke="black" stroke-width="3" points="782.5,-258 294.5,-258 294.5,-156 782.5,-156 782.5,-258"/>
<text text-anchor="start" x="315.5" y="-230.6" font-family="Monospace" font-weight="bold" font-size="18.00">transformObjectTable</text>
<text text-anchor="start" x="315.5" y="-200.8" font-family="Monospace" font-size="14.00">lsst.pipe.tasks.postprocess.TransformObjectCatalogTask</text>
<text text-anchor="start" x="315.5" y="-174.8" font-family="Monospace" font-style="italic" font-size="14.00">dimensions:</text>
<text text-anchor="start" x="406.5" y="-174.8" font-family="Monospace" font-size="14.00"> {patch}</text>
</g>
<!-- deepCoadd_obj:0&#45;&gt;transformObjectTable:2 -->
<g id="edge30" class="edge">
<title>deepCoadd_obj:0&#45;&gt;transformObjectTable:2</title>
<path fill="none" stroke="black" stroke-width="1.5" d="M538.5,-311.92C538.5,-311.92 538.5,-273.19 538.5,-273.19"/>
<polygon fill="black" stroke="black" stroke-width="1.5" points="543.75,-273.19 538.5,-258.19 533.25,-273.2 543.75,-273.19"/>
</g>
<!-- objectTable:0 -->
<g id="node21" class="node">
<title>objectTable:0</title>
<path fill="#f5f5f5" stroke="#00babc" stroke-width="3" d="M647,-102C647,-102 430,-102 430,-102 424,-102 418,-96 418,-90 418,-90 418,-12 418,-12 418,-6 424,0 430,0 430,0 647,0 647,0 653,0 659,-6 659,-12 659,-12 659,-90 659,-90 659,-96 653,-102 647,-102"/>
<text text-anchor="start" x="439.5" y="-74.6" font-family="Monospace" font-weight="bold" font-size="18.00">objectTable</text>
<text text-anchor="start" x="439.5" y="-45.8" font-family="Monospace" font-style="italic" font-size="14.00">dimensions:</text>
<text text-anchor="start" x="530.5" y="-45.8" font-family="Monospace" font-size="14.00"> {patch}</text>
<text text-anchor="start" x="439.5" y="-18.8" font-family="Monospace" font-style="italic" font-size="14.00">storage class:</text>
<text text-anchor="start" x="555.5" y="-18.8" font-family="Monospace" font-size="14.00"> DataFrame</text>
</g>
<!-- transformObjectTable:2&#45;&gt;objectTable:0 -->
<g id="edge31" class="edge">
<title>transformObjectTable:2&#45;&gt;objectTable:0</title>
<path fill="none" stroke="black" stroke-width="1.5" d="M538.5,-155.92C538.5,-155.92 538.5,-117.19 538.5,-117.19"/>
<polygon fill="black" stroke="black" stroke-width="1.5" points="543.75,-117.19 538.5,-102.19 533.25,-117.2 543.75,-117.19"/>
</g>
<!-- forcedPhotCoadd:2&#45;&gt;deepCoadd_forced_src:0 -->
<g id="edge32" class="edge">
<title>forcedPhotCoadd:2&#45;&gt;deepCoadd_forced_src:0</title>
<path fill="none" stroke="black" stroke-width="1.5" d="M301.5,-779.92C301.5,-779.92 301.5,-741.19 301.5,-741.19"/>
<polygon fill="black" stroke="black" stroke-width="1.5" points="306.75,-741.19 301.5,-726.19 296.25,-741.2 306.75,-741.19"/>
</g>
<!-- ef90ed9f:0 -->
<g id="node23" class="node">
<title>ef90ed9f:0</title>
<path fill="#f5f5f5" stroke="#00babc" stroke-width="3" d="M961,-1726C961,-1726 732,-1726 732,-1726 726,-1726 720,-1720 720,-1714 720,-1714 720,-1604 720,-1604 720,-1598 726,-1592 732,-1592 732,-1592 961,-1592 961,-1592 967,-1592 973,-1598 973,-1604 973,-1604 973,-1714 973,-1714 973,-1720 967,-1726 961,-1726"/>
<text text-anchor="start" x="741.5" y="-1698.6" font-family="Monospace" font-weight="bold" font-size="18.00">preSourceTable_visit</text>
<text text-anchor="start" x="741.5" y="-1666.6" font-family="Monospace" font-weight="bold" font-size="18.00">finalized_src_table</text>
<text text-anchor="start" x="741.5" y="-1637.8" font-family="Monospace" font-style="italic" font-size="14.00">dimensions:</text>
<text text-anchor="start" x="832.5" y="-1637.8" font-family="Monospace" font-size="14.00"> {visit}</text>
<text text-anchor="start" x="741.5" y="-1610.8" font-family="Monospace" font-style="italic" font-size="14.00">storage class:</text>
<text text-anchor="start" x="857.5" y="-1610.8" font-family="Monospace" font-size="14.00"> DataFrame</text>
</g>
<!-- ef90ed9f:0&#45;&gt;measure:2 -->
<g id="edge33" class="edge">
<title>ef90ed9f:0&#45;&gt;measure:2</title>
<path fill="none" stroke="black" stroke-width="1.5" d="M846.5,-1591.51C846.5,-1591.51 846.5,-1553.07 846.5,-1553.07"/>
<polygon fill="black" stroke="black" stroke-width="1.5" points="851.75,-1553.07 846.5,-1538.07 841.25,-1553.07 851.75,-1553.07"/>
</g>
</g>
</svg>
