<?xml version="1.0" encoding="UTF-8" standalone="no"?>
<!DOCTYPE svg PUBLIC "-//W3C//DTD SVG 1.1//EN"
 "http://www.w3.org/Graphics/SVG/1.1/DTD/svg11.dtd">
<!-- Generated by graphviz version 2.44.0 (0)
 -->
<!-- Title: Pipeline Pages: 1 -->
<svg width="2135pt" height="1766pt"
 viewBox="0.00 0.00 2135.00 1766.00" xmlns="http://www.w3.org/2000/svg" xmlns:xlink="http://www.w3.org/1999/xlink">
<g id="graph0" class="graph" transform="scale(1 1) rotate(0) translate(4 1762)">
<title>Pipeline</title>
<polygon fill="white" stroke="transparent" points="-4,4 -4,-1762 2131,-1762 2131,4 -4,4"/>
<!-- isr:2 -->
<g id="node1" class="node">
<title>isr:2</title>
<polygon fill="#b1f2ef" stroke="black" stroke-width="3" points="1155,-1570 848,-1570 848,-1468 1155,-1468 1155,-1570"/>
<text text-anchor="start" x="869.5" y="-1542.6" font-family="Monospace" font-weight="bold" font-size="18.00">isr</text>
<text text-anchor="start" x="869.5" y="-1512.8" font-family="Monospace" font-size="14.00">lsst.ip.isr.isrTask.IsrTask</text>
<text text-anchor="start" x="869.5" y="-1486.8" font-family="Monospace" font-style="italic" font-size="14.00">dimensions:</text>
<text text-anchor="start" x="960.5" y="-1486.8" font-family="Monospace" font-size="14.00"> {detector, exposure}</text>
</g>
<!-- postISRCCD:0 -->
<g id="node7" class="node">
<title>postISRCCD:0</title>
<path fill="#f5f5f5" stroke="#00babc" stroke-width="3" d="M1143,-1414C1143,-1414 860,-1414 860,-1414 854,-1414 848,-1408 848,-1402 848,-1402 848,-1324 848,-1324 848,-1318 854,-1312 860,-1312 860,-1312 1143,-1312 1143,-1312 1149,-1312 1155,-1318 1155,-1324 1155,-1324 1155,-1402 1155,-1402 1155,-1408 1149,-1414 1143,-1414"/>
<text text-anchor="start" x="869.5" y="-1386.6" font-family="Monospace" font-weight="bold" font-size="18.00">postISRCCD</text>
<text text-anchor="start" x="869.5" y="-1357.8" font-family="Monospace" font-style="italic" font-size="14.00">dimensions:</text>
<text text-anchor="start" x="960.5" y="-1357.8" font-family="Monospace" font-size="14.00"> {detector, exposure}</text>
<text text-anchor="start" x="869.5" y="-1330.8" font-family="Monospace" font-style="italic" font-size="14.00">storage class:</text>
<text text-anchor="start" x="985.5" y="-1330.8" font-family="Monospace" font-size="14.00"> Exposure</text>
</g>
<!-- isr:2&#45;&gt;postISRCCD:0 -->
<g id="edge1" class="edge">
<title>isr:2&#45;&gt;postISRCCD:0</title>
<path fill="none" stroke="black" stroke-width="1.5" d="M1001.5,-1467.92C1001.5,-1467.92 1001.5,-1429.19 1001.5,-1429.19"/>
<polygon fill="black" stroke="black" stroke-width="1.5" points="1006.75,-1429.19 1001.5,-1414.19 996.25,-1429.2 1006.75,-1429.19"/>
</g>
<!-- linearizer:0 -->
<g id="node2" class="node">
<title>linearizer:0</title>
<path fill="#f5f5f5" stroke="#00babc" stroke-width="3" d="M237,-1742C237,-1742 12,-1742 12,-1742 6,-1742 0,-1736 0,-1730 0,-1730 0,-1652 0,-1652 0,-1646 6,-1640 12,-1640 12,-1640 237,-1640 237,-1640 243,-1640 249,-1646 249,-1652 249,-1652 249,-1730 249,-1730 249,-1736 243,-1742 237,-1742"/>
<text text-anchor="start" x="21.5" y="-1714.6" font-family="Monospace" font-weight="bold" font-size="18.00">linearizer</text>
<text text-anchor="start" x="21.5" y="-1685.8" font-family="Monospace" font-style="italic" font-size="14.00">dimensions:</text>
<text text-anchor="start" x="112.5" y="-1685.8" font-family="Monospace" font-size="14.00"> {detector}</text>
<text text-anchor="start" x="21.5" y="-1658.8" font-family="Monospace" font-style="italic" font-size="14.00">storage class:</text>
<text text-anchor="start" x="137.5" y="-1658.8" font-family="Monospace" font-size="14.00"> Linearizer</text>
</g>
<!-- linearizer:0&#45;&gt;isr:2 -->
<g id="edge2" class="edge">
<title>linearizer:0&#45;&gt;isr:2</title>
<path fill="none" stroke="black" stroke-width="1.5" stroke-dasharray="5,2" d="M155.75,-1639.75C155.75,-1581.09 155.75,-1493 155.75,-1493 155.75,-1493 832.85,-1493 832.85,-1493"/>
<polygon fill="black" stroke="black" stroke-width="1.5" points="832.85,-1498.25 847.85,-1493 832.85,-1487.75 832.85,-1498.25"/>
</g>
<!-- bias:0 -->
<g id="node3" class="node">
<title>bias:0</title>
<path fill="#f5f5f5" stroke="#00babc" stroke-width="3" d="M514,-1742C514,-1742 297,-1742 297,-1742 291,-1742 285,-1736 285,-1730 285,-1730 285,-1652 285,-1652 285,-1646 291,-1640 297,-1640 297,-1640 514,-1640 514,-1640 520,-1640 526,-1646 526,-1652 526,-1652 526,-1730 526,-1730 526,-1736 520,-1742 514,-1742"/>
<text text-anchor="start" x="306.5" y="-1714.6" font-family="Monospace" font-weight="bold" font-size="18.00">bias</text>
<text text-anchor="start" x="306.5" y="-1685.8" font-family="Monospace" font-style="italic" font-size="14.00">dimensions:</text>
<text text-anchor="start" x="397.5" y="-1685.8" font-family="Monospace" font-size="14.00"> {detector}</text>
<text text-anchor="start" x="306.5" y="-1658.8" font-family="Monospace" font-style="italic" font-size="14.00">storage class:</text>
<text text-anchor="start" x="422.5" y="-1658.8" font-family="Monospace" font-size="14.00"> ExposureF</text>
</g>
<!-- bias:0&#45;&gt;isr:2 -->
<g id="edge3" class="edge">
<title>bias:0&#45;&gt;isr:2</title>
<path fill="none" stroke="black" stroke-width="1.5" stroke-dasharray="5,2" d="M508.5,-1639.86C508.5,-1589.16 508.5,-1519 508.5,-1519 508.5,-1519 832.88,-1519 832.88,-1519"/>
<polygon fill="black" stroke="black" stroke-width="1.5" points="832.88,-1524.25 847.88,-1519 832.88,-1513.75 832.88,-1524.25"/>
</g>
<!-- crosstalk:0 -->
<g id="node4" class="node">
<title>crosstalk:0</title>
<path fill="#f5f5f5" stroke="#00babc" stroke-width="3" d="M832.5,-1742C832.5,-1742 574.5,-1742 574.5,-1742 568.5,-1742 562.5,-1736 562.5,-1730 562.5,-1730 562.5,-1652 562.5,-1652 562.5,-1646 568.5,-1640 574.5,-1640 574.5,-1640 832.5,-1640 832.5,-1640 838.5,-1640 844.5,-1646 844.5,-1652 844.5,-1652 844.5,-1730 844.5,-1730 844.5,-1736 838.5,-1742 832.5,-1742"/>
<text text-anchor="start" x="583.5" y="-1714.6" font-family="Monospace" font-weight="bold" font-size="18.00">crosstalk</text>
<text text-anchor="start" x="583.5" y="-1685.8" font-family="Monospace" font-style="italic" font-size="14.00">dimensions:</text>
<text text-anchor="start" x="674.5" y="-1685.8" font-family="Monospace" font-size="14.00"> {detector}</text>
<text text-anchor="start" x="583.5" y="-1658.8" font-family="Monospace" font-style="italic" font-size="14.00">storage class:</text>
<text text-anchor="start" x="699.5" y="-1658.8" font-family="Monospace" font-size="14.00"> CrosstalkCalib</text>
</g>
<!-- crosstalk:0&#45;&gt;isr:2 -->
<g id="edge4" class="edge">
<title>crosstalk:0&#45;&gt;isr:2</title>
<path fill="none" stroke="black" stroke-width="1.5" stroke-dasharray="5,2" d="M829.5,-1640C829.5,-1597.54 829.5,-1544 829.5,-1544 829.5,-1544 832.91,-1544 832.91,-1544"/>
<polygon fill="black" stroke="black" stroke-width="1.5" points="832.91,-1549.25 847.91,-1544 832.91,-1538.75 832.91,-1549.25"/>
</g>
<!-- camera:0 -->
<g id="node5" class="node">
<title>camera:0</title>
<path fill="#f5f5f5" stroke="#00babc" stroke-width="3" d="M1110,-1742C1110,-1742 893,-1742 893,-1742 887,-1742 881,-1736 881,-1730 881,-1730 881,-1652 881,-1652 881,-1646 887,-1640 893,-1640 893,-1640 1110,-1640 1110,-1640 1116,-1640 1122,-1646 1122,-1652 1122,-1652 1122,-1730 1122,-1730 1122,-1736 1116,-1742 1110,-1742"/>
<text text-anchor="start" x="902.5" y="-1714.6" font-family="Monospace" font-weight="bold" font-size="18.00">camera</text>
<text text-anchor="start" x="902.5" y="-1685.8" font-family="Monospace" font-style="italic" font-size="14.00">dimensions:</text>
<text text-anchor="start" x="993.5" y="-1685.8" font-family="Monospace" font-size="14.00"> {instrument}</text>
<text text-anchor="start" x="902.5" y="-1658.8" font-family="Monospace" font-style="italic" font-size="14.00">storage class:</text>
<text text-anchor="start" x="1018.5" y="-1658.8" font-family="Monospace" font-size="14.00"> Camera</text>
</g>
<!-- camera:0&#45;&gt;isr:2 -->
<g id="edge5" class="edge">
<title>camera:0&#45;&gt;isr:2</title>
<path fill="none" stroke="black" stroke-width="1.5" stroke-dasharray="5,2" d="M1001.5,-1639.86C1001.5,-1639.86 1001.5,-1585.24 1001.5,-1585.24"/>
<polygon fill="black" stroke="black" stroke-width="1.5" points="1006.75,-1585.24 1001.5,-1570.24 996.25,-1585.24 1006.75,-1585.24"/>
</g>
<!-- defects:0 -->
<g id="node6" class="node">
<title>defects:0</title>
<path fill="#f5f5f5" stroke="#00babc" stroke-width="3" d="M1371,-1742C1371,-1742 1170,-1742 1170,-1742 1164,-1742 1158,-1736 1158,-1730 1158,-1730 1158,-1652 1158,-1652 1158,-1646 1164,-1640 1170,-1640 1170,-1640 1371,-1640 1371,-1640 1377,-1640 1383,-1646 1383,-1652 1383,-1652 1383,-1730 1383,-1730 1383,-1736 1377,-1742 1371,-1742"/>
<text text-anchor="start" x="1179.5" y="-1714.6" font-family="Monospace" font-weight="bold" font-size="18.00">defects</text>
<text text-anchor="start" x="1179.5" y="-1685.8" font-family="Monospace" font-style="italic" font-size="14.00">dimensions:</text>
<text text-anchor="start" x="1270.5" y="-1685.8" font-family="Monospace" font-size="14.00"> {detector}</text>
<text text-anchor="start" x="1179.5" y="-1658.8" font-family="Monospace" font-style="italic" font-size="14.00">storage class:</text>
<text text-anchor="start" x="1295.5" y="-1658.8" font-family="Monospace" font-size="14.00"> Defects</text>
</g>
<!-- defects:0&#45;&gt;isr:2 -->
<g id="edge6" class="edge">
<title>defects:0&#45;&gt;isr:2</title>
<path fill="none" stroke="black" stroke-width="1.5" stroke-dasharray="5,2" d="M1157.9,-1691C1143.13,-1691 1133,-1691 1133,-1691 1133,-1691 1133,-1585.14 1133,-1585.14"/>
<polygon fill="black" stroke="black" stroke-width="1.5" points="1138.25,-1585.14 1133,-1570.14 1127.75,-1585.14 1138.25,-1585.14"/>
</g>
<!-- characterizeImage:2 -->
<g id="node8" class="node">
<title>characterizeImage:2</title>
<polygon fill="#b1f2ef" stroke="black" stroke-width="3" points="1384.5,-1258 888.5,-1258 888.5,-1156 1384.5,-1156 1384.5,-1258"/>
<text text-anchor="start" x="909.5" y="-1230.6" font-family="Monospace" font-weight="bold" font-size="18.00">characterizeImage</text>
<text text-anchor="start" x="909.5" y="-1200.8" font-family="Monospace" font-size="14.00">lsst.pipe.tasks.characterizeImage.CharacterizeImageTask</text>
<text text-anchor="start" x="909.5" y="-1174.8" font-family="Monospace" font-style="italic" font-size="14.00">dimensions:</text>
<text text-anchor="start" x="1000.5" y="-1174.8" font-family="Monospace" font-size="14.00"> {detector, visit}</text>
</g>
<!-- postISRCCD:0&#45;&gt;characterizeImage:2 -->
<g id="edge7" class="edge">
<title>postISRCCD:0&#45;&gt;characterizeImage:2</title>
<path fill="none" stroke="black" stroke-width="1.5" d="M1021.75,-1311.92C1021.75,-1311.92 1021.75,-1273.19 1021.75,-1273.19"/>
<polygon fill="black" stroke="black" stroke-width="1.5" points="1027,-1273.19 1021.75,-1258.19 1016.5,-1273.2 1027,-1273.19"/>
</g>
<!-- applySuspect:2 -->
<g id="node20" class="node">
<title>applySuspect:2</title>
<polygon fill="#b1f2ef" stroke="black" stroke-width="3" points="814.5,-1258 392.5,-1258 392.5,-1156 814.5,-1156 814.5,-1258"/>
<text text-anchor="start" x="413.5" y="-1230.6" font-family="Monospace" font-weight="bold" font-size="18.00">applySuspect</text>
<text text-anchor="start" x="413.5" y="-1200.8" font-family="Monospace" font-size="14.00">proc_decam.tasks.applyDefects.ApplyDefectsTask</text>
<text text-anchor="start" x="413.5" y="-1174.8" font-family="Monospace" font-style="italic" font-size="14.00">dimensions:</text>
<text text-anchor="start" x="504.5" y="-1174.8" font-family="Monospace" font-size="14.00"> {detector, exposure}</text>
</g>
<!-- postISRCCD:0&#45;&gt;applySuspect:2 -->
<g id="edge8" class="edge">
<title>postISRCCD:0&#45;&gt;applySuspect:2</title>
<path fill="none" stroke="black" stroke-width="1.5" d="M868.25,-1311.92C868.25,-1266.42 868.25,-1207 868.25,-1207 868.25,-1207 829.67,-1207 829.67,-1207"/>
<polygon fill="black" stroke="black" stroke-width="1.5" points="829.67,-1201.75 814.67,-1207 829.67,-1212.25 829.67,-1201.75"/>
</g>
<!-- icExpBackground:0 -->
<g id="node9" class="node">
<title>icExpBackground:0</title>
<path fill="#f5f5f5" stroke="#00babc" stroke-width="3" d="M986.5,-1086C986.5,-1086 728.5,-1086 728.5,-1086 722.5,-1086 716.5,-1080 716.5,-1074 716.5,-1074 716.5,-996 716.5,-996 716.5,-990 722.5,-984 728.5,-984 728.5,-984 986.5,-984 986.5,-984 992.5,-984 998.5,-990 998.5,-996 998.5,-996 998.5,-1074 998.5,-1074 998.5,-1080 992.5,-1086 986.5,-1086"/>
<text text-anchor="start" x="737.5" y="-1058.6" font-family="Monospace" font-weight="bold" font-size="18.00">icExpBackground</text>
<text text-anchor="start" x="737.5" y="-1029.8" font-family="Monospace" font-style="italic" font-size="14.00">dimensions:</text>
<text text-anchor="start" x="828.5" y="-1029.8" font-family="Monospace" font-size="14.00"> {detector, visit}</text>
<text text-anchor="start" x="737.5" y="-1002.8" font-family="Monospace" font-style="italic" font-size="14.00">storage class:</text>
<text text-anchor="start" x="853.5" y="-1002.8" font-family="Monospace" font-size="14.00"> Background</text>
</g>
<!-- characterizeImage:2&#45;&gt;icExpBackground:0 -->
<g id="edge9" class="edge">
<title>characterizeImage:2&#45;&gt;icExpBackground:0</title>
<path fill="none" stroke="black" stroke-width="1.5" d="M943.5,-1155.86C943.5,-1155.86 943.5,-1101.24 943.5,-1101.24"/>
<polygon fill="black" stroke="black" stroke-width="1.5" points="948.75,-1101.24 943.5,-1086.24 938.25,-1101.24 948.75,-1101.24"/>
</g>
<!-- icExp:0 -->
<g id="node10" class="node">
<title>icExp:0</title>
<path fill="#f5f5f5" stroke="#00babc" stroke-width="3" d="M1304.5,-1086C1304.5,-1086 1046.5,-1086 1046.5,-1086 1040.5,-1086 1034.5,-1080 1034.5,-1074 1034.5,-1074 1034.5,-996 1034.5,-996 1034.5,-990 1040.5,-984 1046.5,-984 1046.5,-984 1304.5,-984 1304.5,-984 1310.5,-984 1316.5,-990 1316.5,-996 1316.5,-996 1316.5,-1074 1316.5,-1074 1316.5,-1080 1310.5,-1086 1304.5,-1086"/>
<text text-anchor="start" x="1055.5" y="-1058.6" font-family="Monospace" font-weight="bold" font-size="18.00">icExp</text>
<text text-anchor="start" x="1055.5" y="-1029.8" font-family="Monospace" font-style="italic" font-size="14.00">dimensions:</text>
<text text-anchor="start" x="1146.5" y="-1029.8" font-family="Monospace" font-size="14.00"> {detector, visit}</text>
<text text-anchor="start" x="1055.5" y="-1002.8" font-family="Monospace" font-style="italic" font-size="14.00">storage class:</text>
<text text-anchor="start" x="1171.5" y="-1002.8" font-family="Monospace" font-size="14.00"> ExposureF</text>
</g>
<!-- characterizeImage:2&#45;&gt;icExp:0 -->
<g id="edge10" class="edge">
<title>characterizeImage:2&#45;&gt;icExp:0</title>
<path fill="none" stroke="black" stroke-width="1.5" d="M1175.5,-1155.86C1175.5,-1155.86 1175.5,-1101.24 1175.5,-1101.24"/>
<polygon fill="black" stroke="black" stroke-width="1.5" points="1180.75,-1101.24 1175.5,-1086.24 1170.25,-1101.24 1180.75,-1101.24"/>
</g>
<!-- icSrc:0 -->
<g id="node11" class="node">
<title>icSrc:0</title>
<path fill="#f5f5f5" stroke="#00babc" stroke-width="3" d="M1622.5,-1086C1622.5,-1086 1364.5,-1086 1364.5,-1086 1358.5,-1086 1352.5,-1080 1352.5,-1074 1352.5,-1074 1352.5,-996 1352.5,-996 1352.5,-990 1358.5,-984 1364.5,-984 1364.5,-984 1622.5,-984 1622.5,-984 1628.5,-984 1634.5,-990 1634.5,-996 1634.5,-996 1634.5,-1074 1634.5,-1074 1634.5,-1080 1628.5,-1086 1622.5,-1086"/>
<text text-anchor="start" x="1373.5" y="-1058.6" font-family="Monospace" font-weight="bold" font-size="18.00">icSrc</text>
<text text-anchor="start" x="1373.5" y="-1029.8" font-family="Monospace" font-style="italic" font-size="14.00">dimensions:</text>
<text text-anchor="start" x="1464.5" y="-1029.8" font-family="Monospace" font-size="14.00"> {detector, visit}</text>
<text text-anchor="start" x="1373.5" y="-1002.8" font-family="Monospace" font-style="italic" font-size="14.00">storage class:</text>
<text text-anchor="start" x="1489.5" y="-1002.8" font-family="Monospace" font-size="14.00"> SourceCatalog</text>
</g>
<!-- characterizeImage:2&#45;&gt;icSrc:0 -->
<g id="edge11" class="edge">
<title>characterizeImage:2&#45;&gt;icSrc:0</title>
<path fill="none" stroke="black" stroke-width="1.5" d="M1368.5,-1155.86C1368.5,-1155.86 1368.5,-1101.24 1368.5,-1101.24"/>
<polygon fill="black" stroke="black" stroke-width="1.5" points="1373.75,-1101.24 1368.5,-1086.24 1363.25,-1101.24 1373.75,-1101.24"/>
</g>
<!-- calibrate:2 -->
<g id="node12" class="node">
<title>calibrate:2</title>
<polygon fill="#b1f2ef" stroke="black" stroke-width="3" points="1198.5,-914 834.5,-914 834.5,-812 1198.5,-812 1198.5,-914"/>
<text text-anchor="start" x="855.5" y="-886.6" font-family="Monospace" font-weight="bold" font-size="18.00">calibrate</text>
<text text-anchor="start" x="855.5" y="-856.8" font-family="Monospace" font-size="14.00">lsst.pipe.tasks.calibrate.CalibrateTask</text>
<text text-anchor="start" x="855.5" y="-830.8" font-family="Monospace" font-style="italic" font-size="14.00">dimensions:</text>
<text text-anchor="start" x="946.5" y="-830.8" font-family="Monospace" font-size="14.00"> {detector, visit}</text>
</g>
<!-- icExpBackground:0&#45;&gt;calibrate:2 -->
<g id="edge12" class="edge">
<title>icExpBackground:0&#45;&gt;calibrate:2</title>
<path fill="none" stroke="black" stroke-width="1.5" d="M943.83,-983.86C943.83,-983.86 943.83,-929.24 943.83,-929.24"/>
<polygon fill="black" stroke="black" stroke-width="1.5" points="949.08,-929.24 943.83,-914.24 938.58,-929.24 949.08,-929.24"/>
</g>
<!-- icExp:0&#45;&gt;calibrate:2 -->
<g id="edge13" class="edge">
<title>icExp:0&#45;&gt;calibrate:2</title>
<path fill="none" stroke="black" stroke-width="1.5" d="M1116.5,-983.86C1116.5,-983.86 1116.5,-929.24 1116.5,-929.24"/>
<polygon fill="black" stroke="black" stroke-width="1.5" points="1121.75,-929.24 1116.5,-914.24 1111.25,-929.24 1121.75,-929.24"/>
</g>
<!-- icSrc:0&#45;&gt;calibrate:2 -->
<g id="edge14" class="edge">
<title>icSrc:0&#45;&gt;calibrate:2</title>
<path fill="none" stroke="black" stroke-width="1.5" d="M1493.5,-983.86C1493.5,-933.16 1493.5,-863 1493.5,-863 1493.5,-863 1213.53,-863 1213.53,-863"/>
<polygon fill="black" stroke="black" stroke-width="1.5" points="1213.53,-857.75 1198.53,-863 1213.53,-868.25 1213.53,-857.75"/>
</g>
<!-- calexpBackground:0 -->
<g id="node13" class="node">
<title>calexpBackground:0</title>
<path fill="#f5f5f5" stroke="#00babc" stroke-width="3" d="M668.5,-742C668.5,-742 410.5,-742 410.5,-742 404.5,-742 398.5,-736 398.5,-730 398.5,-730 398.5,-652 398.5,-652 398.5,-646 404.5,-640 410.5,-640 410.5,-640 668.5,-640 668.5,-640 674.5,-640 680.5,-646 680.5,-652 680.5,-652 680.5,-730 680.5,-730 680.5,-736 674.5,-742 668.5,-742"/>
<text text-anchor="start" x="419.5" y="-714.6" font-family="Monospace" font-weight="bold" font-size="18.00">calexpBackground</text>
<text text-anchor="start" x="419.5" y="-685.8" font-family="Monospace" font-style="italic" font-size="14.00">dimensions:</text>
<text text-anchor="start" x="510.5" y="-685.8" font-family="Monospace" font-size="14.00"> {detector, visit}</text>
<text text-anchor="start" x="419.5" y="-658.8" font-family="Monospace" font-style="italic" font-size="14.00">storage class:</text>
<text text-anchor="start" x="535.5" y="-658.8" font-family="Monospace" font-size="14.00"> Background</text>
</g>
<!-- calibrate:2&#45;&gt;calexpBackground:0 -->
<g id="edge15" class="edge">
<title>calibrate:2&#45;&gt;calexpBackground:0</title>
<path fill="none" stroke="black" stroke-width="1.5" d="M834.37,-863C699.57,-863 539.25,-863 539.25,-863 539.25,-863 539.25,-757.14 539.25,-757.14"/>
<polygon fill="black" stroke="black" stroke-width="1.5" points="544.5,-757.14 539.25,-742.14 534,-757.14 544.5,-757.14"/>
</g>
<!-- calexp:0 -->
<g id="node14" class="node">
<title>calexp:0</title>
<path fill="#f5f5f5" stroke="#00babc" stroke-width="3" d="M986.5,-742C986.5,-742 728.5,-742 728.5,-742 722.5,-742 716.5,-736 716.5,-730 716.5,-730 716.5,-652 716.5,-652 716.5,-646 722.5,-640 728.5,-640 728.5,-640 986.5,-640 986.5,-640 992.5,-640 998.5,-646 998.5,-652 998.5,-652 998.5,-730 998.5,-730 998.5,-736 992.5,-742 986.5,-742"/>
<text text-anchor="start" x="737.5" y="-714.6" font-family="Monospace" font-weight="bold" font-size="18.00">calexp</text>
<text text-anchor="start" x="737.5" y="-685.8" font-family="Monospace" font-style="italic" font-size="14.00">dimensions:</text>
<text text-anchor="start" x="828.5" y="-685.8" font-family="Monospace" font-size="14.00"> {detector, visit}</text>
<text text-anchor="start" x="737.5" y="-658.8" font-family="Monospace" font-style="italic" font-size="14.00">storage class:</text>
<text text-anchor="start" x="853.5" y="-658.8" font-family="Monospace" font-size="14.00"> ExposureF</text>
</g>
<!-- calibrate:2&#45;&gt;calexp:0 -->
<g id="edge16" class="edge">
<title>calibrate:2&#45;&gt;calexp:0</title>
<path fill="none" stroke="black" stroke-width="1.5" d="M916.5,-811.86C916.5,-811.86 916.5,-757.24 916.5,-757.24"/>
<polygon fill="black" stroke="black" stroke-width="1.5" points="921.75,-757.24 916.5,-742.24 911.25,-757.24 921.75,-757.24"/>
</g>
<!-- src:0 -->
<g id="node15" class="node">
<title>src:0</title>
<path fill="#f5f5f5" stroke="#00babc" stroke-width="3" d="M1304.5,-742C1304.5,-742 1046.5,-742 1046.5,-742 1040.5,-742 1034.5,-736 1034.5,-730 1034.5,-730 1034.5,-652 1034.5,-652 1034.5,-646 1040.5,-640 1046.5,-640 1046.5,-640 1304.5,-640 1304.5,-640 1310.5,-640 1316.5,-646 1316.5,-652 1316.5,-652 1316.5,-730 1316.5,-730 1316.5,-736 1310.5,-742 1304.5,-742"/>
<text text-anchor="start" x="1055.5" y="-714.6" font-family="Monospace" font-weight="bold" font-size="18.00">src</text>
<text text-anchor="start" x="1055.5" y="-685.8" font-family="Monospace" font-style="italic" font-size="14.00">dimensions:</text>
<text text-anchor="start" x="1146.5" y="-685.8" font-family="Monospace" font-size="14.00"> {detector, visit}</text>
<text text-anchor="start" x="1055.5" y="-658.8" font-family="Monospace" font-style="italic" font-size="14.00">storage class:</text>
<text text-anchor="start" x="1171.5" y="-658.8" font-family="Monospace" font-size="14.00"> SourceCatalog</text>
</g>
<!-- calibrate:2&#45;&gt;src:0 -->
<g id="edge17" class="edge">
<title>calibrate:2&#45;&gt;src:0</title>
<path fill="none" stroke="black" stroke-width="1.5" d="M1089.17,-811.86C1089.17,-811.86 1089.17,-757.24 1089.17,-757.24"/>
<polygon fill="black" stroke="black" stroke-width="1.5" points="1094.42,-757.24 1089.17,-742.24 1083.92,-757.24 1094.42,-757.24"/>
</g>
<!-- 45e3f18b:0 -->
<g id="node26" class="node">
<title>45e3f18b:0</title>
<path fill="#f5f5f5" stroke="#00babc" stroke-width="3" d="M1622.5,-758C1622.5,-758 1364.5,-758 1364.5,-758 1358.5,-758 1352.5,-752 1352.5,-746 1352.5,-746 1352.5,-636 1352.5,-636 1352.5,-630 1358.5,-624 1364.5,-624 1364.5,-624 1622.5,-624 1622.5,-624 1628.5,-624 1634.5,-630 1634.5,-636 1634.5,-636 1634.5,-746 1634.5,-746 1634.5,-752 1628.5,-758 1622.5,-758"/>
<text text-anchor="start" x="1373.5" y="-730.6" font-family="Monospace" font-weight="bold" font-size="18.00">srcMatchFull</text>
<text text-anchor="start" x="1373.5" y="-698.6" font-family="Monospace" font-weight="bold" font-size="18.00">srcMatch</text>
<text text-anchor="start" x="1373.5" y="-669.8" font-family="Monospace" font-style="italic" font-size="14.00">dimensions:</text>
<text text-anchor="start" x="1464.5" y="-669.8" font-family="Monospace" font-size="14.00"> {detector, visit}</text>
<text text-anchor="start" x="1373.5" y="-642.8" font-family="Monospace" font-style="italic" font-size="14.00">storage class:</text>
<text text-anchor="start" x="1489.5" y="-642.8" font-family="Monospace" font-size="14.00"> Catalog</text>
</g>
<!-- calibrate:2&#45;&gt;45e3f18b:0 -->
<g id="edge18" class="edge">
<title>calibrate:2&#45;&gt;45e3f18b:0</title>
<path fill="none" stroke="black" stroke-width="1.5" d="M1143.83,-811.79C1143.83,-781.89 1143.83,-750 1143.83,-750 1143.83,-750 1337.29,-750 1337.29,-750"/>
<polygon fill="black" stroke="black" stroke-width="1.5" points="1337.29,-755.25 1352.29,-750 1337.29,-744.75 1337.29,-755.25"/>
</g>
<!-- writePreSourceTable:2 -->
<g id="node16" class="node">
<title>writePreSourceTable:2</title>
<polygon fill="#b1f2ef" stroke="black" stroke-width="3" points="1395,-570 956,-570 956,-468 1395,-468 1395,-570"/>
<text text-anchor="start" x="977.5" y="-542.6" font-family="Monospace" font-weight="bold" font-size="18.00">writePreSourceTable</text>
<text text-anchor="start" x="977.5" y="-512.8" font-family="Monospace" font-size="14.00">lsst.pipe.tasks.postprocess.WriteSourceTableTask</text>
<text text-anchor="start" x="977.5" y="-486.8" font-family="Monospace" font-style="italic" font-size="14.00">dimensions:</text>
<text text-anchor="start" x="1068.5" y="-486.8" font-family="Monospace" font-size="14.00"> {detector, visit}</text>
</g>
<!-- src:0&#45;&gt;writePreSourceTable:2 -->
<g id="edge19" class="edge">
<title>src:0&#45;&gt;writePreSourceTable:2</title>
<path fill="none" stroke="black" stroke-width="1.5" d="M1175.5,-639.86C1175.5,-639.86 1175.5,-585.24 1175.5,-585.24"/>
<polygon fill="black" stroke="black" stroke-width="1.5" points="1180.75,-585.24 1175.5,-570.24 1170.25,-585.24 1180.75,-585.24"/>
</g>
<!-- preSource:0 -->
<g id="node17" class="node">
<title>preSource:0</title>
<path fill="#f5f5f5" stroke="#00babc" stroke-width="3" d="M1304.5,-414C1304.5,-414 1046.5,-414 1046.5,-414 1040.5,-414 1034.5,-408 1034.5,-402 1034.5,-402 1034.5,-324 1034.5,-324 1034.5,-318 1040.5,-312 1046.5,-312 1046.5,-312 1304.5,-312 1304.5,-312 1310.5,-312 1316.5,-318 1316.5,-324 1316.5,-324 1316.5,-402 1316.5,-402 1316.5,-408 1310.5,-414 1304.5,-414"/>
<text text-anchor="start" x="1055.5" y="-386.6" font-family="Monospace" font-weight="bold" font-size="18.00">preSource</text>
<text text-anchor="start" x="1055.5" y="-357.8" font-family="Monospace" font-style="italic" font-size="14.00">dimensions:</text>
<text text-anchor="start" x="1146.5" y="-357.8" font-family="Monospace" font-size="14.00"> {detector, visit}</text>
<text text-anchor="start" x="1055.5" y="-330.8" font-family="Monospace" font-style="italic" font-size="14.00">storage class:</text>
<text text-anchor="start" x="1171.5" y="-330.8" font-family="Monospace" font-size="14.00"> DataFrame</text>
</g>
<!-- writePreSourceTable:2&#45;&gt;preSource:0 -->
<g id="edge20" class="edge">
<title>writePreSourceTable:2&#45;&gt;preSource:0</title>
<path fill="none" stroke="black" stroke-width="1.5" d="M1175.5,-467.92C1175.5,-467.92 1175.5,-429.19 1175.5,-429.19"/>
<polygon fill="black" stroke="black" stroke-width="1.5" points="1180.75,-429.19 1175.5,-414.19 1170.25,-429.2 1180.75,-429.19"/>
</g>
<!-- transformPreSourceTable:2 -->
<g id="node18" class="node">
<title>transformPreSourceTable:2</title>
<polygon fill="#b1f2ef" stroke="black" stroke-width="3" points="1411.5,-258 939.5,-258 939.5,-156 1411.5,-156 1411.5,-258"/>
<text text-anchor="start" x="960.5" y="-230.6" font-family="Monospace" font-weight="bold" font-size="18.00">transformPreSourceTable</text>
<text text-anchor="start" x="960.5" y="-200.8" font-family="Monospace" font-size="14.00">lsst.pipe.tasks.postprocess.TransformSourceTableTask</text>
<text text-anchor="start" x="960.5" y="-174.8" font-family="Monospace" font-style="italic" font-size="14.00">dimensions:</text>
<text text-anchor="start" x="1051.5" y="-174.8" font-family="Monospace" font-size="14.00"> {detector, visit}</text>
</g>
<!-- preSource:0&#45;&gt;transformPreSourceTable:2 -->
<g id="edge21" class="edge">
<title>preSource:0&#45;&gt;transformPreSourceTable:2</title>
<path fill="none" stroke="black" stroke-width="1.5" d="M1175.5,-311.92C1175.5,-311.92 1175.5,-273.19 1175.5,-273.19"/>
<polygon fill="black" stroke="black" stroke-width="1.5" points="1180.75,-273.19 1175.5,-258.19 1170.25,-273.2 1180.75,-273.19"/>
</g>
<!-- preSourceTable:0 -->
<g id="node19" class="node">
<title>preSourceTable:0</title>
<path fill="#f5f5f5" stroke="#00babc" stroke-width="3" d="M1304.5,-102C1304.5,-102 1046.5,-102 1046.5,-102 1040.5,-102 1034.5,-96 1034.5,-90 1034.5,-90 1034.5,-12 1034.5,-12 1034.5,-6 1040.5,0 1046.5,0 1046.5,0 1304.5,0 1304.5,0 1310.5,0 1316.5,-6 1316.5,-12 1316.5,-12 1316.5,-90 1316.5,-90 1316.5,-96 1310.5,-102 1304.5,-102"/>
<text text-anchor="start" x="1055.5" y="-74.6" font-family="Monospace" font-weight="bold" font-size="18.00">preSourceTable</text>
<text text-anchor="start" x="1055.5" y="-45.8" font-family="Monospace" font-style="italic" font-size="14.00">dimensions:</text>
<text text-anchor="start" x="1146.5" y="-45.8" font-family="Monospace" font-size="14.00"> {detector, visit}</text>
<text text-anchor="start" x="1055.5" y="-18.8" font-family="Monospace" font-style="italic" font-size="14.00">storage class:</text>
<text text-anchor="start" x="1171.5" y="-18.8" font-family="Monospace" font-size="14.00"> DataFrame</text>
</g>
<!-- transformPreSourceTable:2&#45;&gt;preSourceTable:0 -->
<g id="edge22" class="edge">
<title>transformPreSourceTable:2&#45;&gt;preSourceTable:0</title>
<path fill="none" stroke="black" stroke-width="1.5" d="M1175.5,-155.92C1175.5,-155.92 1175.5,-117.19 1175.5,-117.19"/>
<polygon fill="black" stroke="black" stroke-width="1.5" points="1180.75,-117.19 1175.5,-102.19 1170.25,-117.2 1180.75,-117.19"/>
</g>
<!-- postISRCCD_masked:0 -->
<g id="node22" class="node">
<title>postISRCCD_masked:0</title>
<path fill="#f5f5f5" stroke="#00babc" stroke-width="3" d="M668,-1086C668,-1086 385,-1086 385,-1086 379,-1086 373,-1080 373,-1074 373,-1074 373,-996 373,-996 373,-990 379,-984 385,-984 385,-984 668,-984 668,-984 674,-984 680,-990 680,-996 680,-996 680,-1074 680,-1074 680,-1080 674,-1086 668,-1086"/>
<text text-anchor="start" x="394.5" y="-1058.6" font-family="Monospace" font-weight="bold" font-size="18.00">postISRCCD_masked</text>
<text text-anchor="start" x="394.5" y="-1029.8" font-family="Monospace" font-style="italic" font-size="14.00">dimensions:</text>
<text text-anchor="start" x="485.5" y="-1029.8" font-family="Monospace" font-size="14.00"> {detector, exposure}</text>
<text text-anchor="start" x="394.5" y="-1002.8" font-family="Monospace" font-style="italic" font-size="14.00">storage class:</text>
<text text-anchor="start" x="510.5" y="-1002.8" font-family="Monospace" font-size="14.00"> Exposure</text>
</g>
<!-- applySuspect:2&#45;&gt;postISRCCD_masked:0 -->
<g id="edge23" class="edge">
<title>applySuspect:2&#45;&gt;postISRCCD_masked:0</title>
<path fill="none" stroke="black" stroke-width="1.5" d="M536.25,-1155.86C536.25,-1155.86 536.25,-1101.24 536.25,-1101.24"/>
<polygon fill="black" stroke="black" stroke-width="1.5" points="541.5,-1101.24 536.25,-1086.24 531,-1101.24 541.5,-1101.24"/>
</g>
<!-- suspectMask:0 -->
<g id="node21" class="node">
<title>suspectMask:0</title>
<path fill="#f5f5f5" stroke="#00babc" stroke-width="3" d="M704,-1414C704,-1414 503,-1414 503,-1414 497,-1414 491,-1408 491,-1402 491,-1402 491,-1324 491,-1324 491,-1318 497,-1312 503,-1312 503,-1312 704,-1312 704,-1312 710,-1312 716,-1318 716,-1324 716,-1324 716,-1402 716,-1402 716,-1408 710,-1414 704,-1414"/>
<text text-anchor="start" x="512.5" y="-1386.6" font-family="Monospace" font-weight="bold" font-size="18.00">suspectMask</text>
<text text-anchor="start" x="512.5" y="-1357.8" font-family="Monospace" font-style="italic" font-size="14.00">dimensions:</text>
<text text-anchor="start" x="603.5" y="-1357.8" font-family="Monospace" font-size="14.00"> {detector}</text>
<text text-anchor="start" x="512.5" y="-1330.8" font-family="Monospace" font-style="italic" font-size="14.00">storage class:</text>
<text text-anchor="start" x="628.5" y="-1330.8" font-family="Monospace" font-size="14.00"> Defects</text>
</g>
<!-- suspectMask:0&#45;&gt;applySuspect:2 -->
<g id="edge24" class="edge">
<title>suspectMask:0&#45;&gt;applySuspect:2</title>
<path fill="none" stroke="black" stroke-width="1.5" stroke-dasharray="5,2" d="M603.5,-1311.92C603.5,-1311.92 603.5,-1273.19 603.5,-1273.19"/>
<polygon fill="black" stroke="black" stroke-width="1.5" points="608.75,-1273.19 603.5,-1258.19 598.25,-1273.2 608.75,-1273.19"/>
</g>
<!-- d28a74d6:0 -->
<g id="node23" class="node">
<title>d28a74d6:0</title>
<path fill="#f5f5f5" stroke="#00babc" stroke-width="3" d="M1772,-1758C1772,-1758 1431,-1758 1431,-1758 1425,-1758 1419,-1752 1419,-1746 1419,-1746 1419,-1636 1419,-1636 1419,-1630 1425,-1624 1431,-1624 1431,-1624 1772,-1624 1772,-1624 1778,-1624 1784,-1630 1784,-1636 1784,-1636 1784,-1746 1784,-1746 1784,-1752 1778,-1758 1772,-1758"/>
<text text-anchor="start" x="1440.5" y="-1730.6" font-family="Monospace" font-weight="bold" font-size="18.00">fringe</text>
<text text-anchor="start" x="1440.5" y="-1698.6" font-family="Monospace" font-weight="bold" font-size="18.00">flat</text>
<text text-anchor="start" x="1440.5" y="-1669.8" font-family="Monospace" font-style="italic" font-size="14.00">dimensions:</text>
<text text-anchor="start" x="1531.5" y="-1669.8" font-family="Monospace" font-size="14.00"> {detector, physical_filter}</text>
<text text-anchor="start" x="1440.5" y="-1642.8" font-family="Monospace" font-style="italic" font-size="14.00">storage class:</text>
<text text-anchor="start" x="1556.5" y="-1642.8" font-family="Monospace" font-size="14.00"> ExposureF</text>
</g>
<!-- d28a74d6:0&#45;&gt;isr:2 -->
<g id="edge25" class="edge">
<title>d28a74d6:0&#45;&gt;isr:2</title>
<path fill="none" stroke="black" stroke-width="1.5" d="M1418.71,-1632C1291.28,-1632 1144,-1632 1144,-1632 1144,-1632 1144,-1585.21 1144,-1585.21"/>
<polygon fill="black" stroke="black" stroke-width="1.5" points="1149.25,-1585.21 1144,-1570.21 1138.75,-1585.21 1149.25,-1585.21"/>
</g>
<!-- 998e6c26:0 -->
<g id="node24" class="node">
<title>998e6c26:0</title>
<path fill="#f5f5f5" stroke="#00babc" stroke-width="3" d="M2115,-1758C2115,-1758 1832,-1758 1832,-1758 1826,-1758 1820,-1752 1820,-1746 1820,-1746 1820,-1636 1820,-1636 1820,-1630 1826,-1624 1832,-1624 1832,-1624 2115,-1624 2115,-1624 2121,-1624 2127,-1630 2127,-1636 2127,-1636 2127,-1746 2127,-1746 2127,-1752 2121,-1758 2115,-1758"/>
<text text-anchor="start" x="1841.5" y="-1730.6" font-family="Monospace" font-weight="bold" font-size="18.00">raw</text>
<text text-anchor="start" x="1841.5" y="-1698.6" font-family="Monospace" font-weight="bold" font-size="18.00">overscanRaw</text>
<text text-anchor="start" x="1841.5" y="-1669.8" font-family="Monospace" font-style="italic" font-size="14.00">dimensions:</text>
<text text-anchor="start" x="1932.5" y="-1669.8" font-family="Monospace" font-size="14.00"> {detector, exposure}</text>
<text text-anchor="start" x="1841.5" y="-1642.8" font-family="Monospace" font-style="italic" font-size="14.00">storage class:</text>
<text text-anchor="start" x="1957.5" y="-1642.8" font-family="Monospace" font-size="14.00"> Exposure</text>
</g>
<!-- 998e6c26:0&#45;&gt;isr:2 -->
<g id="edge26" class="edge">
<title>998e6c26:0&#45;&gt;isr:2</title>
<path fill="none" stroke="black" stroke-width="1.5" d="M1973.5,-1623.51C1973.5,-1575.33 1973.5,-1519 1973.5,-1519 1973.5,-1519 1170.25,-1519 1170.25,-1519"/>
<polygon fill="black" stroke="black" stroke-width="1.5" points="1170.25,-1513.75 1155.25,-1519 1170.25,-1524.25 1170.25,-1513.75"/>
</g>
<!-- c1110ee2:0 -->
<g id="node25" class="node">
<title>c1110ee2:0</title>
<path fill="#f5f5f5" stroke="#00babc" stroke-width="3" d="M324.5,-1102C324.5,-1102 74.5,-1102 74.5,-1102 68.5,-1102 62.5,-1096 62.5,-1090 62.5,-1090 62.5,-980 62.5,-980 62.5,-974 68.5,-968 74.5,-968 74.5,-968 324.5,-968 324.5,-968 330.5,-968 336.5,-974 336.5,-980 336.5,-980 336.5,-1090 336.5,-1090 336.5,-1096 330.5,-1102 324.5,-1102"/>
<text text-anchor="start" x="83.5" y="-1074.6" font-family="Monospace" font-weight="bold" font-size="18.00">ps1_pv3_3pi_20170110</text>
<text text-anchor="start" x="83.5" y="-1042.6" font-family="Monospace" font-weight="bold" font-size="18.00">gaia_dr3_20230707</text>
<text text-anchor="start" x="83.5" y="-1013.8" font-family="Monospace" font-style="italic" font-size="14.00">dimensions:</text>
<text text-anchor="start" x="174.5" y="-1013.8" font-family="Monospace" font-size="14.00"> {htm7}</text>
<text text-anchor="start" x="83.5" y="-986.8" font-family="Monospace" font-style="italic" font-size="14.00">storage class:</text>
<text text-anchor="start" x="199.5" y="-986.8" font-family="Monospace" font-size="14.00"> SimpleCatalog</text>
</g>
<!-- c1110ee2:0&#45;&gt;calibrate:2 -->
<g id="edge27" class="edge">
<title>c1110ee2:0&#45;&gt;calibrate:2</title>
<path fill="none" stroke="black" stroke-width="1.5" d="M336.58,-976C537.71,-976 889.17,-976 889.17,-976 889.17,-976 889.17,-929.21 889.17,-929.21"/>
<polygon fill="black" stroke="black" stroke-width="1.5" points="894.42,-929.21 889.17,-914.21 883.92,-929.21 894.42,-929.21"/>
</g>
</g>
</svg>
