<?xml version="1.0" encoding="UTF-8" standalone="no"?>
<!DOCTYPE svg PUBLIC "-//W3C//DTD SVG 1.1//EN"
 "http://www.w3.org/Graphics/SVG/1.1/DTD/svg11.dtd">
<!-- Generated by graphviz version 2.44.0 (0)
 -->
<!-- Title: Pipeline Pages: 1 -->
<svg width="2135pt" height="1766pt"
 viewBox="0.00 0.00 2135.00 1766.00" xmlns="http://www.w3.org/2000/svg" xmlns:xlink="http://www.w3.org/1999/xlink">
<g id="graph0" class="graph" transform="scale(1 1) rotate(0) translate(4 1762)">
<title>Pipeline</title>
<polygon fill="white" stroke="transparent" points="-4,4 -4,-1762 2131,-1762 2131,4 -4,4"/>
<!-- isr:2 -->
<g id="node1" class="node">
<title>isr:2</title>
<polygon fill="#b1f2ef" stroke="black" stroke-width="3" points="1139,-1570 832,-1570 832,-1468 1139,-1468 1139,-1570"/>
<text text-anchor="start" x="853.5" y="-1542.6" font-family="Monospace" font-weight="bold" font-size="18.00">isr</text>
<text text-anchor="start" x="853.5" y="-1512.8" font-family="Monospace" font-size="14.00">lsst.ip.isr.isrTask.IsrTask</text>
<text text-anchor="start" x="853.5" y="-1486.8" font-family="Monospace" font-style="italic" font-size="14.00">dimensions:</text>
<text text-anchor="start" x="944.5" y="-1486.8" font-family="Monospace" font-size="14.00"> {detector, exposure}</text>
</g>
<!-- postISRCCD:0 -->
<g id="node7" class="node">
<title>postISRCCD:0</title>
<path fill="#f5f5f5" stroke="#00babc" stroke-width="3" d="M1127,-1414C1127,-1414 844,-1414 844,-1414 838,-1414 832,-1408 832,-1402 832,-1402 832,-1324 832,-1324 832,-1318 838,-1312 844,-1312 844,-1312 1127,-1312 1127,-1312 1133,-1312 1139,-1318 1139,-1324 1139,-1324 1139,-1402 1139,-1402 1139,-1408 1133,-1414 1127,-1414"/>
<text text-anchor="start" x="853.5" y="-1386.6" font-family="Monospace" font-weight="bold" font-size="18.00">postISRCCD</text>
<text text-anchor="start" x="853.5" y="-1357.8" font-family="Monospace" font-style="italic" font-size="14.00">dimensions:</text>
<text text-anchor="start" x="944.5" y="-1357.8" font-family="Monospace" font-size="14.00"> {detector, exposure}</text>
<text text-anchor="start" x="853.5" y="-1330.8" font-family="Monospace" font-style="italic" font-size="14.00">storage class:</text>
<text text-anchor="start" x="969.5" y="-1330.8" font-family="Monospace" font-size="14.00"> Exposure</text>
</g>
<!-- isr:2&#45;&gt;postISRCCD:0 -->
<g id="edge1" class="edge">
<title>isr:2&#45;&gt;postISRCCD:0</title>
<path fill="none" stroke="black" stroke-width="1.5" d="M985.5,-1467.92C985.5,-1467.92 985.5,-1429.19 985.5,-1429.19"/>
<polygon fill="black" stroke="black" stroke-width="1.5" points="990.75,-1429.19 985.5,-1414.19 980.25,-1429.2 990.75,-1429.19"/>
</g>
<!-- linearizer:0 -->
<g id="node2" class="node">
<title>linearizer:0</title>
<path fill="#f5f5f5" stroke="#00babc" stroke-width="3" d="M237,-1742C237,-1742 12,-1742 12,-1742 6,-1742 0,-1736 0,-1730 0,-1730 0,-1652 0,-1652 0,-1646 6,-1640 12,-1640 12,-1640 237,-1640 237,-1640 243,-1640 249,-1646 249,-1652 249,-1652 249,-1730 249,-1730 249,-1736 243,-1742 237,-1742"/>
<text text-anchor="start" x="21.5" y="-1714.6" font-family="Monospace" font-weight="bold" font-size="18.00">linearizer</text>
<text text-anchor="start" x="21.5" y="-1685.8" font-family="Monospace" font-style="italic" font-size="14.00">dimensions:</text>
<text text-anchor="start" x="112.5" y="-1685.8" font-family="Monospace" font-size="14.00"> {detector}</text>
<text text-anchor="start" x="21.5" y="-1658.8" font-family="Monospace" font-style="italic" font-size="14.00">storage class:</text>
<text text-anchor="start" x="137.5" y="-1658.8" font-family="Monospace" font-size="14.00"> Linearizer</text>
</g>
<!-- linearizer:0&#45;&gt;isr:2 -->
<g id="edge2" class="edge">
<title>linearizer:0&#45;&gt;isr:2</title>
<path fill="none" stroke="black" stroke-width="1.5" stroke-dasharray="5,2" d="M147.75,-1639.75C147.75,-1581.09 147.75,-1493 147.75,-1493 147.75,-1493 816.84,-1493 816.84,-1493"/>
<polygon fill="black" stroke="black" stroke-width="1.5" points="816.84,-1498.25 831.84,-1493 816.84,-1487.75 816.84,-1498.25"/>
</g>
<!-- crosstalk:0 -->
<g id="node3" class="node">
<title>crosstalk:0</title>
<path fill="#f5f5f5" stroke="#00babc" stroke-width="3" d="M555.5,-1742C555.5,-1742 297.5,-1742 297.5,-1742 291.5,-1742 285.5,-1736 285.5,-1730 285.5,-1730 285.5,-1652 285.5,-1652 285.5,-1646 291.5,-1640 297.5,-1640 297.5,-1640 555.5,-1640 555.5,-1640 561.5,-1640 567.5,-1646 567.5,-1652 567.5,-1652 567.5,-1730 567.5,-1730 567.5,-1736 561.5,-1742 555.5,-1742"/>
<text text-anchor="start" x="306.5" y="-1714.6" font-family="Monospace" font-weight="bold" font-size="18.00">crosstalk</text>
<text text-anchor="start" x="306.5" y="-1685.8" font-family="Monospace" font-style="italic" font-size="14.00">dimensions:</text>
<text text-anchor="start" x="397.5" y="-1685.8" font-family="Monospace" font-size="14.00"> {detector}</text>
<text text-anchor="start" x="306.5" y="-1658.8" font-family="Monospace" font-style="italic" font-size="14.00">storage class:</text>
<text text-anchor="start" x="422.5" y="-1658.8" font-family="Monospace" font-size="14.00"> CrosstalkCalib</text>
</g>
<!-- crosstalk:0&#45;&gt;isr:2 -->
<g id="edge3" class="edge">
<title>crosstalk:0&#45;&gt;isr:2</title>
<path fill="none" stroke="black" stroke-width="1.5" stroke-dasharray="5,2" d="M521.25,-1639.86C521.25,-1589.16 521.25,-1519 521.25,-1519 521.25,-1519 816.88,-1519 816.88,-1519"/>
<polygon fill="black" stroke="black" stroke-width="1.5" points="816.88,-1524.25 831.88,-1519 816.88,-1513.75 816.88,-1524.25"/>
</g>
<!-- defects:0 -->
<g id="node4" class="node">
<title>defects:0</title>
<path fill="#f5f5f5" stroke="#00babc" stroke-width="3" d="M817,-1742C817,-1742 616,-1742 616,-1742 610,-1742 604,-1736 604,-1730 604,-1730 604,-1652 604,-1652 604,-1646 610,-1640 616,-1640 616,-1640 817,-1640 817,-1640 823,-1640 829,-1646 829,-1652 829,-1652 829,-1730 829,-1730 829,-1736 823,-1742 817,-1742"/>
<text text-anchor="start" x="625.5" y="-1714.6" font-family="Monospace" font-weight="bold" font-size="18.00">defects</text>
<text text-anchor="start" x="625.5" y="-1685.8" font-family="Monospace" font-style="italic" font-size="14.00">dimensions:</text>
<text text-anchor="start" x="716.5" y="-1685.8" font-family="Monospace" font-size="14.00"> {detector}</text>
<text text-anchor="start" x="625.5" y="-1658.8" font-family="Monospace" font-style="italic" font-size="14.00">storage class:</text>
<text text-anchor="start" x="741.5" y="-1658.8" font-family="Monospace" font-size="14.00"> Defects</text>
</g>
<!-- defects:0&#45;&gt;isr:2 -->
<g id="edge4" class="edge">
<title>defects:0&#45;&gt;isr:2</title>
<path fill="none" stroke="black" stroke-width="1.5" stroke-dasharray="5,2" d="M813.75,-1640C813.75,-1597.54 813.75,-1544 813.75,-1544 813.75,-1544 816.81,-1544 816.81,-1544"/>
<polygon fill="black" stroke="black" stroke-width="1.5" points="816.81,-1549.25 831.81,-1544 816.81,-1538.75 816.81,-1549.25"/>
</g>
<!-- camera:0 -->
<g id="node5" class="node">
<title>camera:0</title>
<path fill="#f5f5f5" stroke="#00babc" stroke-width="3" d="M1094,-1742C1094,-1742 877,-1742 877,-1742 871,-1742 865,-1736 865,-1730 865,-1730 865,-1652 865,-1652 865,-1646 871,-1640 877,-1640 877,-1640 1094,-1640 1094,-1640 1100,-1640 1106,-1646 1106,-1652 1106,-1652 1106,-1730 1106,-1730 1106,-1736 1100,-1742 1094,-1742"/>
<text text-anchor="start" x="886.5" y="-1714.6" font-family="Monospace" font-weight="bold" font-size="18.00">camera</text>
<text text-anchor="start" x="886.5" y="-1685.8" font-family="Monospace" font-style="italic" font-size="14.00">dimensions:</text>
<text text-anchor="start" x="977.5" y="-1685.8" font-family="Monospace" font-size="14.00"> {instrument}</text>
<text text-anchor="start" x="886.5" y="-1658.8" font-family="Monospace" font-style="italic" font-size="14.00">storage class:</text>
<text text-anchor="start" x="1002.5" y="-1658.8" font-family="Monospace" font-size="14.00"> Camera</text>
</g>
<!-- camera:0&#45;&gt;isr:2 -->
<g id="edge5" class="edge">
<title>camera:0&#45;&gt;isr:2</title>
<path fill="none" stroke="black" stroke-width="1.5" stroke-dasharray="5,2" d="M985.5,-1639.86C985.5,-1639.86 985.5,-1585.24 985.5,-1585.24"/>
<polygon fill="black" stroke="black" stroke-width="1.5" points="990.75,-1585.24 985.5,-1570.24 980.25,-1585.24 990.75,-1585.24"/>
</g>
<!-- bias:0 -->
<g id="node6" class="node">
<title>bias:0</title>
<path fill="#f5f5f5" stroke="#00babc" stroke-width="3" d="M1371,-1742C1371,-1742 1154,-1742 1154,-1742 1148,-1742 1142,-1736 1142,-1730 1142,-1730 1142,-1652 1142,-1652 1142,-1646 1148,-1640 1154,-1640 1154,-1640 1371,-1640 1371,-1640 1377,-1640 1383,-1646 1383,-1652 1383,-1652 1383,-1730 1383,-1730 1383,-1736 1377,-1742 1371,-1742"/>
<text text-anchor="start" x="1163.5" y="-1714.6" font-family="Monospace" font-weight="bold" font-size="18.00">bias</text>
<text text-anchor="start" x="1163.5" y="-1685.8" font-family="Monospace" font-style="italic" font-size="14.00">dimensions:</text>
<text text-anchor="start" x="1254.5" y="-1685.8" font-family="Monospace" font-size="14.00"> {detector}</text>
<text text-anchor="start" x="1163.5" y="-1658.8" font-family="Monospace" font-style="italic" font-size="14.00">storage class:</text>
<text text-anchor="start" x="1279.5" y="-1658.8" font-family="Monospace" font-size="14.00"> ExposureF</text>
</g>
<!-- bias:0&#45;&gt;isr:2 -->
<g id="edge6" class="edge">
<title>bias:0&#45;&gt;isr:2</title>
<path fill="none" stroke="black" stroke-width="1.5" stroke-dasharray="5,2" d="M1141.68,-1691C1126.97,-1691 1117,-1691 1117,-1691 1117,-1691 1117,-1585.14 1117,-1585.14"/>
<polygon fill="black" stroke="black" stroke-width="1.5" points="1122.25,-1585.14 1117,-1570.14 1111.75,-1585.14 1122.25,-1585.14"/>
</g>
<!-- characterizeImage:2 -->
<g id="node8" class="node">
<title>characterizeImage:2</title>
<polygon fill="#b1f2ef" stroke="black" stroke-width="3" points="1368.5,-1258 872.5,-1258 872.5,-1156 1368.5,-1156 1368.5,-1258"/>
<text text-anchor="start" x="893.5" y="-1230.6" font-family="Monospace" font-weight="bold" font-size="18.00">characterizeImage</text>
<text text-anchor="start" x="893.5" y="-1200.8" font-family="Monospace" font-size="14.00">lsst.pipe.tasks.characterizeImage.CharacterizeImageTask</text>
<text text-anchor="start" x="893.5" y="-1174.8" font-family="Monospace" font-style="italic" font-size="14.00">dimensions:</text>
<text text-anchor="start" x="984.5" y="-1174.8" font-family="Monospace" font-size="14.00"> {detector, visit}</text>
</g>
<!-- postISRCCD:0&#45;&gt;characterizeImage:2 -->
<g id="edge7" class="edge">
<title>postISRCCD:0&#45;&gt;characterizeImage:2</title>
<path fill="none" stroke="black" stroke-width="1.5" d="M1005.75,-1311.92C1005.75,-1311.92 1005.75,-1273.19 1005.75,-1273.19"/>
<polygon fill="black" stroke="black" stroke-width="1.5" points="1011,-1273.19 1005.75,-1258.19 1000.5,-1273.2 1011,-1273.19"/>
</g>
<!-- applySuspect:2 -->
<g id="node20" class="node">
<title>applySuspect:2</title>
<polygon fill="#b1f2ef" stroke="black" stroke-width="3" points="798.5,-1258 376.5,-1258 376.5,-1156 798.5,-1156 798.5,-1258"/>
<text text-anchor="start" x="397.5" y="-1230.6" font-family="Monospace" font-weight="bold" font-size="18.00">applySuspect</text>
<text text-anchor="start" x="397.5" y="-1200.8" font-family="Monospace" font-size="14.00">proc_decam.tasks.applyDefects.ApplyDefectsTask</text>
<text text-anchor="start" x="397.5" y="-1174.8" font-family="Monospace" font-style="italic" font-size="14.00">dimensions:</text>
<text text-anchor="start" x="488.5" y="-1174.8" font-family="Monospace" font-size="14.00"> {detector, exposure}</text>
</g>
<!-- postISRCCD:0&#45;&gt;applySuspect:2 -->
<g id="edge8" class="edge">
<title>postISRCCD:0&#45;&gt;applySuspect:2</title>
<path fill="none" stroke="black" stroke-width="1.5" d="M852.25,-1311.92C852.25,-1266.42 852.25,-1207 852.25,-1207 852.25,-1207 813.67,-1207 813.67,-1207"/>
<polygon fill="black" stroke="black" stroke-width="1.5" points="813.67,-1201.75 798.67,-1207 813.67,-1212.25 813.67,-1201.75"/>
</g>
<!-- icSrc:0 -->
<g id="node9" class="node">
<title>icSrc:0</title>
<path fill="#f5f5f5" stroke="#00babc" stroke-width="3" d="M970.5,-1086C970.5,-1086 712.5,-1086 712.5,-1086 706.5,-1086 700.5,-1080 700.5,-1074 700.5,-1074 700.5,-996 700.5,-996 700.5,-990 706.5,-984 712.5,-984 712.5,-984 970.5,-984 970.5,-984 976.5,-984 982.5,-990 982.5,-996 982.5,-996 982.5,-1074 982.5,-1074 982.5,-1080 976.5,-1086 970.5,-1086"/>
<text text-anchor="start" x="721.5" y="-1058.6" font-family="Monospace" font-weight="bold" font-size="18.00">icSrc</text>
<text text-anchor="start" x="721.5" y="-1029.8" font-family="Monospace" font-style="italic" font-size="14.00">dimensions:</text>
<text text-anchor="start" x="812.5" y="-1029.8" font-family="Monospace" font-size="14.00"> {detector, visit}</text>
<text text-anchor="start" x="721.5" y="-1002.8" font-family="Monospace" font-style="italic" font-size="14.00">storage class:</text>
<text text-anchor="start" x="837.5" y="-1002.8" font-family="Monospace" font-size="14.00"> SourceCatalog</text>
</g>
<!-- characterizeImage:2&#45;&gt;icSrc:0 -->
<g id="edge9" class="edge">
<title>characterizeImage:2&#45;&gt;icSrc:0</title>
<path fill="none" stroke="black" stroke-width="1.5" d="M927.5,-1155.86C927.5,-1155.86 927.5,-1101.24 927.5,-1101.24"/>
<polygon fill="black" stroke="black" stroke-width="1.5" points="932.75,-1101.24 927.5,-1086.24 922.25,-1101.24 932.75,-1101.24"/>
</g>
<!-- icExp:0 -->
<g id="node10" class="node">
<title>icExp:0</title>
<path fill="#f5f5f5" stroke="#00babc" stroke-width="3" d="M1288.5,-1086C1288.5,-1086 1030.5,-1086 1030.5,-1086 1024.5,-1086 1018.5,-1080 1018.5,-1074 1018.5,-1074 1018.5,-996 1018.5,-996 1018.5,-990 1024.5,-984 1030.5,-984 1030.5,-984 1288.5,-984 1288.5,-984 1294.5,-984 1300.5,-990 1300.5,-996 1300.5,-996 1300.5,-1074 1300.5,-1074 1300.5,-1080 1294.5,-1086 1288.5,-1086"/>
<text text-anchor="start" x="1039.5" y="-1058.6" font-family="Monospace" font-weight="bold" font-size="18.00">icExp</text>
<text text-anchor="start" x="1039.5" y="-1029.8" font-family="Monospace" font-style="italic" font-size="14.00">dimensions:</text>
<text text-anchor="start" x="1130.5" y="-1029.8" font-family="Monospace" font-size="14.00"> {detector, visit}</text>
<text text-anchor="start" x="1039.5" y="-1002.8" font-family="Monospace" font-style="italic" font-size="14.00">storage class:</text>
<text text-anchor="start" x="1155.5" y="-1002.8" font-family="Monospace" font-size="14.00"> ExposureF</text>
</g>
<!-- characterizeImage:2&#45;&gt;icExp:0 -->
<g id="edge10" class="edge">
<title>characterizeImage:2&#45;&gt;icExp:0</title>
<path fill="none" stroke="black" stroke-width="1.5" d="M1159.5,-1155.86C1159.5,-1155.86 1159.5,-1101.24 1159.5,-1101.24"/>
<polygon fill="black" stroke="black" stroke-width="1.5" points="1164.75,-1101.24 1159.5,-1086.24 1154.25,-1101.24 1164.75,-1101.24"/>
</g>
<!-- icExpBackground:0 -->
<g id="node11" class="node">
<title>icExpBackground:0</title>
<path fill="#f5f5f5" stroke="#00babc" stroke-width="3" d="M1606.5,-1086C1606.5,-1086 1348.5,-1086 1348.5,-1086 1342.5,-1086 1336.5,-1080 1336.5,-1074 1336.5,-1074 1336.5,-996 1336.5,-996 1336.5,-990 1342.5,-984 1348.5,-984 1348.5,-984 1606.5,-984 1606.5,-984 1612.5,-984 1618.5,-990 1618.5,-996 1618.5,-996 1618.5,-1074 1618.5,-1074 1618.5,-1080 1612.5,-1086 1606.5,-1086"/>
<text text-anchor="start" x="1357.5" y="-1058.6" font-family="Monospace" font-weight="bold" font-size="18.00">icExpBackground</text>
<text text-anchor="start" x="1357.5" y="-1029.8" font-family="Monospace" font-style="italic" font-size="14.00">dimensions:</text>
<text text-anchor="start" x="1448.5" y="-1029.8" font-family="Monospace" font-size="14.00"> {detector, visit}</text>
<text text-anchor="start" x="1357.5" y="-1002.8" font-family="Monospace" font-style="italic" font-size="14.00">storage class:</text>
<text text-anchor="start" x="1473.5" y="-1002.8" font-family="Monospace" font-size="14.00"> Background</text>
</g>
<!-- characterizeImage:2&#45;&gt;icExpBackground:0 -->
<g id="edge11" class="edge">
<title>characterizeImage:2&#45;&gt;icExpBackground:0</title>
<path fill="none" stroke="black" stroke-width="1.5" d="M1352.5,-1155.86C1352.5,-1155.86 1352.5,-1101.24 1352.5,-1101.24"/>
<polygon fill="black" stroke="black" stroke-width="1.5" points="1357.75,-1101.24 1352.5,-1086.24 1347.25,-1101.24 1357.75,-1101.24"/>
</g>
<!-- calibrate:2 -->
<g id="node12" class="node">
<title>calibrate:2</title>
<polygon fill="#b1f2ef" stroke="black" stroke-width="3" points="1182.5,-914 818.5,-914 818.5,-812 1182.5,-812 1182.5,-914"/>
<text text-anchor="start" x="839.5" y="-886.6" font-family="Monospace" font-weight="bold" font-size="18.00">calibrate</text>
<text text-anchor="start" x="839.5" y="-856.8" font-family="Monospace" font-size="14.00">lsst.pipe.tasks.calibrate.CalibrateTask</text>
<text text-anchor="start" x="839.5" y="-830.8" font-family="Monospace" font-style="italic" font-size="14.00">dimensions:</text>
<text text-anchor="start" x="930.5" y="-830.8" font-family="Monospace" font-size="14.00"> {detector, visit}</text>
</g>
<!-- icSrc:0&#45;&gt;calibrate:2 -->
<g id="edge12" class="edge">
<title>icSrc:0&#45;&gt;calibrate:2</title>
<path fill="none" stroke="black" stroke-width="1.5" d="M900.5,-983.86C900.5,-983.86 900.5,-929.24 900.5,-929.24"/>
<polygon fill="black" stroke="black" stroke-width="1.5" points="905.75,-929.24 900.5,-914.24 895.25,-929.24 905.75,-929.24"/>
</g>
<!-- icExp:0&#45;&gt;calibrate:2 -->
<g id="edge13" class="edge">
<title>icExp:0&#45;&gt;calibrate:2</title>
<path fill="none" stroke="black" stroke-width="1.5" d="M1100.5,-983.86C1100.5,-983.86 1100.5,-929.24 1100.5,-929.24"/>
<polygon fill="black" stroke="black" stroke-width="1.5" points="1105.75,-929.24 1100.5,-914.24 1095.25,-929.24 1105.75,-929.24"/>
</g>
<!-- icExpBackground:0&#45;&gt;calibrate:2 -->
<g id="edge14" class="edge">
<title>icExpBackground:0&#45;&gt;calibrate:2</title>
<path fill="none" stroke="black" stroke-width="1.5" d="M1477.5,-983.86C1477.5,-933.16 1477.5,-863 1477.5,-863 1477.5,-863 1197.53,-863 1197.53,-863"/>
<polygon fill="black" stroke="black" stroke-width="1.5" points="1197.53,-857.75 1182.53,-863 1197.53,-868.25 1197.53,-857.75"/>
</g>
<!-- src:0 -->
<g id="node13" class="node">
<title>src:0</title>
<path fill="#f5f5f5" stroke="#00babc" stroke-width="3" d="M652.5,-742C652.5,-742 394.5,-742 394.5,-742 388.5,-742 382.5,-736 382.5,-730 382.5,-730 382.5,-652 382.5,-652 382.5,-646 388.5,-640 394.5,-640 394.5,-640 652.5,-640 652.5,-640 658.5,-640 664.5,-646 664.5,-652 664.5,-652 664.5,-730 664.5,-730 664.5,-736 658.5,-742 652.5,-742"/>
<text text-anchor="start" x="403.5" y="-714.6" font-family="Monospace" font-weight="bold" font-size="18.00">src</text>
<text text-anchor="start" x="403.5" y="-685.8" font-family="Monospace" font-style="italic" font-size="14.00">dimensions:</text>
<text text-anchor="start" x="494.5" y="-685.8" font-family="Monospace" font-size="14.00"> {detector, visit}</text>
<text text-anchor="start" x="403.5" y="-658.8" font-family="Monospace" font-style="italic" font-size="14.00">storage class:</text>
<text text-anchor="start" x="519.5" y="-658.8" font-family="Monospace" font-size="14.00"> SourceCatalog</text>
</g>
<!-- calibrate:2&#45;&gt;src:0 -->
<g id="edge15" class="edge">
<title>calibrate:2&#45;&gt;src:0</title>
<path fill="none" stroke="black" stroke-width="1.5" d="M818.37,-846C683.57,-846 523.25,-846 523.25,-846 523.25,-846 523.25,-757.18 523.25,-757.18"/>
<polygon fill="black" stroke="black" stroke-width="1.5" points="528.5,-757.18 523.25,-742.18 518,-757.18 528.5,-757.18"/>
</g>
<!-- calexpBackground:0 -->
<g id="node14" class="node">
<title>calexpBackground:0</title>
<path fill="#f5f5f5" stroke="#00babc" stroke-width="3" d="M970.5,-742C970.5,-742 712.5,-742 712.5,-742 706.5,-742 700.5,-736 700.5,-730 700.5,-730 700.5,-652 700.5,-652 700.5,-646 706.5,-640 712.5,-640 712.5,-640 970.5,-640 970.5,-640 976.5,-640 982.5,-646 982.5,-652 982.5,-652 982.5,-730 982.5,-730 982.5,-736 976.5,-742 970.5,-742"/>
<text text-anchor="start" x="721.5" y="-714.6" font-family="Monospace" font-weight="bold" font-size="18.00">calexpBackground</text>
<text text-anchor="start" x="721.5" y="-685.8" font-family="Monospace" font-style="italic" font-size="14.00">dimensions:</text>
<text text-anchor="start" x="812.5" y="-685.8" font-family="Monospace" font-size="14.00"> {detector, visit}</text>
<text text-anchor="start" x="721.5" y="-658.8" font-family="Monospace" font-style="italic" font-size="14.00">storage class:</text>
<text text-anchor="start" x="837.5" y="-658.8" font-family="Monospace" font-size="14.00"> Background</text>
</g>
<!-- calibrate:2&#45;&gt;calexpBackground:0 -->
<g id="edge16" class="edge">
<title>calibrate:2&#45;&gt;calexpBackground:0</title>
<path fill="none" stroke="black" stroke-width="1.5" d="M900.5,-811.86C900.5,-811.86 900.5,-757.24 900.5,-757.24"/>
<polygon fill="black" stroke="black" stroke-width="1.5" points="905.75,-757.24 900.5,-742.24 895.25,-757.24 905.75,-757.24"/>
</g>
<!-- calexp:0 -->
<g id="node15" class="node">
<title>calexp:0</title>
<path fill="#f5f5f5" stroke="#00babc" stroke-width="3" d="M1288.5,-742C1288.5,-742 1030.5,-742 1030.5,-742 1024.5,-742 1018.5,-736 1018.5,-730 1018.5,-730 1018.5,-652 1018.5,-652 1018.5,-646 1024.5,-640 1030.5,-640 1030.5,-640 1288.5,-640 1288.5,-640 1294.5,-640 1300.5,-646 1300.5,-652 1300.5,-652 1300.5,-730 1300.5,-730 1300.5,-736 1294.5,-742 1288.5,-742"/>
<text text-anchor="start" x="1039.5" y="-714.6" font-family="Monospace" font-weight="bold" font-size="18.00">calexp</text>
<text text-anchor="start" x="1039.5" y="-685.8" font-family="Monospace" font-style="italic" font-size="14.00">dimensions:</text>
<text text-anchor="start" x="1130.5" y="-685.8" font-family="Monospace" font-size="14.00"> {detector, visit}</text>
<text text-anchor="start" x="1039.5" y="-658.8" font-family="Monospace" font-style="italic" font-size="14.00">storage class:</text>
<text text-anchor="start" x="1155.5" y="-658.8" font-family="Monospace" font-size="14.00"> ExposureF</text>
</g>
<!-- calibrate:2&#45;&gt;calexp:0 -->
<g id="edge17" class="edge">
<title>calibrate:2&#45;&gt;calexp:0</title>
<path fill="none" stroke="black" stroke-width="1.5" d="M1073.17,-811.86C1073.17,-811.86 1073.17,-757.24 1073.17,-757.24"/>
<polygon fill="black" stroke="black" stroke-width="1.5" points="1078.42,-757.24 1073.17,-742.24 1067.92,-757.24 1078.42,-757.24"/>
</g>
<!-- 45e3f18b:0 -->
<g id="node26" class="node">
<title>45e3f18b:0</title>
<path fill="#f5f5f5" stroke="#00babc" stroke-width="3" d="M1606.5,-758C1606.5,-758 1348.5,-758 1348.5,-758 1342.5,-758 1336.5,-752 1336.5,-746 1336.5,-746 1336.5,-636 1336.5,-636 1336.5,-630 1342.5,-624 1348.5,-624 1348.5,-624 1606.5,-624 1606.5,-624 1612.5,-624 1618.5,-630 1618.5,-636 1618.5,-636 1618.5,-746 1618.5,-746 1618.5,-752 1612.5,-758 1606.5,-758"/>
<text text-anchor="start" x="1357.5" y="-730.6" font-family="Monospace" font-weight="bold" font-size="18.00">srcMatchFull</text>
<text text-anchor="start" x="1357.5" y="-698.6" font-family="Monospace" font-weight="bold" font-size="18.00">srcMatch</text>
<text text-anchor="start" x="1357.5" y="-669.8" font-family="Monospace" font-style="italic" font-size="14.00">dimensions:</text>
<text text-anchor="start" x="1448.5" y="-669.8" font-family="Monospace" font-size="14.00"> {detector, visit}</text>
<text text-anchor="start" x="1357.5" y="-642.8" font-family="Monospace" font-style="italic" font-size="14.00">storage class:</text>
<text text-anchor="start" x="1473.5" y="-642.8" font-family="Monospace" font-size="14.00"> Catalog</text>
</g>
<!-- calibrate:2&#45;&gt;45e3f18b:0 -->
<g id="edge18" class="edge">
<title>calibrate:2&#45;&gt;45e3f18b:0</title>
<path fill="none" stroke="black" stroke-width="1.5" d="M1127.83,-811.79C1127.83,-781.89 1127.83,-750 1127.83,-750 1127.83,-750 1321.29,-750 1321.29,-750"/>
<polygon fill="black" stroke="black" stroke-width="1.5" points="1321.29,-755.25 1336.29,-750 1321.29,-744.75 1321.29,-755.25"/>
</g>
<!-- writePreSourceTable:2 -->
<g id="node16" class="node">
<title>writePreSourceTable:2</title>
<polygon fill="#b1f2ef" stroke="black" stroke-width="3" points="743,-570 304,-570 304,-468 743,-468 743,-570"/>
<text text-anchor="start" x="325.5" y="-542.6" font-family="Monospace" font-weight="bold" font-size="18.00">writePreSourceTable</text>
<text text-anchor="start" x="325.5" y="-512.8" font-family="Monospace" font-size="14.00">lsst.pipe.tasks.postprocess.WriteSourceTableTask</text>
<text text-anchor="start" x="325.5" y="-486.8" font-family="Monospace" font-style="italic" font-size="14.00">dimensions:</text>
<text text-anchor="start" x="416.5" y="-486.8" font-family="Monospace" font-size="14.00"> {detector, visit}</text>
</g>
<!-- src:0&#45;&gt;writePreSourceTable:2 -->
<g id="edge19" class="edge">
<title>src:0&#45;&gt;writePreSourceTable:2</title>
<path fill="none" stroke="black" stroke-width="1.5" d="M523.5,-639.86C523.5,-639.86 523.5,-585.24 523.5,-585.24"/>
<polygon fill="black" stroke="black" stroke-width="1.5" points="528.75,-585.24 523.5,-570.24 518.25,-585.24 528.75,-585.24"/>
</g>
<!-- preSource:0 -->
<g id="node17" class="node">
<title>preSource:0</title>
<path fill="#f5f5f5" stroke="#00babc" stroke-width="3" d="M652.5,-414C652.5,-414 394.5,-414 394.5,-414 388.5,-414 382.5,-408 382.5,-402 382.5,-402 382.5,-324 382.5,-324 382.5,-318 388.5,-312 394.5,-312 394.5,-312 652.5,-312 652.5,-312 658.5,-312 664.5,-318 664.5,-324 664.5,-324 664.5,-402 664.5,-402 664.5,-408 658.5,-414 652.5,-414"/>
<text text-anchor="start" x="403.5" y="-386.6" font-family="Monospace" font-weight="bold" font-size="18.00">preSource</text>
<text text-anchor="start" x="403.5" y="-357.8" font-family="Monospace" font-style="italic" font-size="14.00">dimensions:</text>
<text text-anchor="start" x="494.5" y="-357.8" font-family="Monospace" font-size="14.00"> {detector, visit}</text>
<text text-anchor="start" x="403.5" y="-330.8" font-family="Monospace" font-style="italic" font-size="14.00">storage class:</text>
<text text-anchor="start" x="519.5" y="-330.8" font-family="Monospace" font-size="14.00"> DataFrame</text>
</g>
<!-- writePreSourceTable:2&#45;&gt;preSource:0 -->
<g id="edge20" class="edge">
<title>writePreSourceTable:2&#45;&gt;preSource:0</title>
<path fill="none" stroke="black" stroke-width="1.5" d="M523.5,-467.92C523.5,-467.92 523.5,-429.19 523.5,-429.19"/>
<polygon fill="black" stroke="black" stroke-width="1.5" points="528.75,-429.19 523.5,-414.19 518.25,-429.2 528.75,-429.19"/>
</g>
<!-- transformPreSourceTable:2 -->
<g id="node18" class="node">
<title>transformPreSourceTable:2</title>
<polygon fill="#b1f2ef" stroke="black" stroke-width="3" points="759.5,-258 287.5,-258 287.5,-156 759.5,-156 759.5,-258"/>
<text text-anchor="start" x="308.5" y="-230.6" font-family="Monospace" font-weight="bold" font-size="18.00">transformPreSourceTable</text>
<text text-anchor="start" x="308.5" y="-200.8" font-family="Monospace" font-size="14.00">lsst.pipe.tasks.postprocess.TransformSourceTableTask</text>
<text text-anchor="start" x="308.5" y="-174.8" font-family="Monospace" font-style="italic" font-size="14.00">dimensions:</text>
<text text-anchor="start" x="399.5" y="-174.8" font-family="Monospace" font-size="14.00"> {detector, visit}</text>
</g>
<!-- preSource:0&#45;&gt;transformPreSourceTable:2 -->
<g id="edge21" class="edge">
<title>preSource:0&#45;&gt;transformPreSourceTable:2</title>
<path fill="none" stroke="black" stroke-width="1.5" d="M523.5,-311.92C523.5,-311.92 523.5,-273.19 523.5,-273.19"/>
<polygon fill="black" stroke="black" stroke-width="1.5" points="528.75,-273.19 523.5,-258.19 518.25,-273.2 528.75,-273.19"/>
</g>
<!-- preSourceTable:0 -->
<g id="node19" class="node">
<title>preSourceTable:0</title>
<path fill="#f5f5f5" stroke="#00babc" stroke-width="3" d="M652.5,-102C652.5,-102 394.5,-102 394.5,-102 388.5,-102 382.5,-96 382.5,-90 382.5,-90 382.5,-12 382.5,-12 382.5,-6 388.5,0 394.5,0 394.5,0 652.5,0 652.5,0 658.5,0 664.5,-6 664.5,-12 664.5,-12 664.5,-90 664.5,-90 664.5,-96 658.5,-102 652.5,-102"/>
<text text-anchor="start" x="403.5" y="-74.6" font-family="Monospace" font-weight="bold" font-size="18.00">preSourceTable</text>
<text text-anchor="start" x="403.5" y="-45.8" font-family="Monospace" font-style="italic" font-size="14.00">dimensions:</text>
<text text-anchor="start" x="494.5" y="-45.8" font-family="Monospace" font-size="14.00"> {detector, visit}</text>
<text text-anchor="start" x="403.5" y="-18.8" font-family="Monospace" font-style="italic" font-size="14.00">storage class:</text>
<text text-anchor="start" x="519.5" y="-18.8" font-family="Monospace" font-size="14.00"> DataFrame</text>
</g>
<!-- transformPreSourceTable:2&#45;&gt;preSourceTable:0 -->
<g id="edge22" class="edge">
<title>transformPreSourceTable:2&#45;&gt;preSourceTable:0</title>
<path fill="none" stroke="black" stroke-width="1.5" d="M523.5,-155.92C523.5,-155.92 523.5,-117.19 523.5,-117.19"/>
<polygon fill="black" stroke="black" stroke-width="1.5" points="528.75,-117.19 523.5,-102.19 518.25,-117.2 528.75,-117.19"/>
</g>
<!-- postISRCCD_masked:0 -->
<g id="node22" class="node">
<title>postISRCCD_masked:0</title>
<path fill="#f5f5f5" stroke="#00babc" stroke-width="3" d="M652,-1086C652,-1086 369,-1086 369,-1086 363,-1086 357,-1080 357,-1074 357,-1074 357,-996 357,-996 357,-990 363,-984 369,-984 369,-984 652,-984 652,-984 658,-984 664,-990 664,-996 664,-996 664,-1074 664,-1074 664,-1080 658,-1086 652,-1086"/>
<text text-anchor="start" x="378.5" y="-1058.6" font-family="Monospace" font-weight="bold" font-size="18.00">postISRCCD_masked</text>
<text text-anchor="start" x="378.5" y="-1029.8" font-family="Monospace" font-style="italic" font-size="14.00">dimensions:</text>
<text text-anchor="start" x="469.5" y="-1029.8" font-family="Monospace" font-size="14.00"> {detector, exposure}</text>
<text text-anchor="start" x="378.5" y="-1002.8" font-family="Monospace" font-style="italic" font-size="14.00">storage class:</text>
<text text-anchor="start" x="494.5" y="-1002.8" font-family="Monospace" font-size="14.00"> Exposure</text>
</g>
<!-- applySuspect:2&#45;&gt;postISRCCD_masked:0 -->
<g id="edge23" class="edge">
<title>applySuspect:2&#45;&gt;postISRCCD_masked:0</title>
<path fill="none" stroke="black" stroke-width="1.5" d="M520.25,-1155.86C520.25,-1155.86 520.25,-1101.24 520.25,-1101.24"/>
<polygon fill="black" stroke="black" stroke-width="1.5" points="525.5,-1101.24 520.25,-1086.24 515,-1101.24 525.5,-1101.24"/>
</g>
<!-- suspectMask:0 -->
<g id="node21" class="node">
<title>suspectMask:0</title>
<path fill="#f5f5f5" stroke="#00babc" stroke-width="3" d="M688,-1414C688,-1414 487,-1414 487,-1414 481,-1414 475,-1408 475,-1402 475,-1402 475,-1324 475,-1324 475,-1318 481,-1312 487,-1312 487,-1312 688,-1312 688,-1312 694,-1312 700,-1318 700,-1324 700,-1324 700,-1402 700,-1402 700,-1408 694,-1414 688,-1414"/>
<text text-anchor="start" x="496.5" y="-1386.6" font-family="Monospace" font-weight="bold" font-size="18.00">suspectMask</text>
<text text-anchor="start" x="496.5" y="-1357.8" font-family="Monospace" font-style="italic" font-size="14.00">dimensions:</text>
<text text-anchor="start" x="587.5" y="-1357.8" font-family="Monospace" font-size="14.00"> {detector}</text>
<text text-anchor="start" x="496.5" y="-1330.8" font-family="Monospace" font-style="italic" font-size="14.00">storage class:</text>
<text text-anchor="start" x="612.5" y="-1330.8" font-family="Monospace" font-size="14.00"> Defects</text>
</g>
<!-- suspectMask:0&#45;&gt;applySuspect:2 -->
<g id="edge24" class="edge">
<title>suspectMask:0&#45;&gt;applySuspect:2</title>
<path fill="none" stroke="black" stroke-width="1.5" stroke-dasharray="5,2" d="M587.5,-1311.92C587.5,-1311.92 587.5,-1273.19 587.5,-1273.19"/>
<polygon fill="black" stroke="black" stroke-width="1.5" points="592.75,-1273.19 587.5,-1258.19 582.25,-1273.2 592.75,-1273.19"/>
</g>
<!-- d28a74d6:0 -->
<g id="node23" class="node">
<title>d28a74d6:0</title>
<path fill="#f5f5f5" stroke="#00babc" stroke-width="3" d="M1772,-1758C1772,-1758 1431,-1758 1431,-1758 1425,-1758 1419,-1752 1419,-1746 1419,-1746 1419,-1636 1419,-1636 1419,-1630 1425,-1624 1431,-1624 1431,-1624 1772,-1624 1772,-1624 1778,-1624 1784,-1630 1784,-1636 1784,-1636 1784,-1746 1784,-1746 1784,-1752 1778,-1758 1772,-1758"/>
<text text-anchor="start" x="1440.5" y="-1730.6" font-family="Monospace" font-weight="bold" font-size="18.00">fringe</text>
<text text-anchor="start" x="1440.5" y="-1698.6" font-family="Monospace" font-weight="bold" font-size="18.00">flat</text>
<text text-anchor="start" x="1440.5" y="-1669.8" font-family="Monospace" font-style="italic" font-size="14.00">dimensions:</text>
<text text-anchor="start" x="1531.5" y="-1669.8" font-family="Monospace" font-size="14.00"> {detector, physical_filter}</text>
<text text-anchor="start" x="1440.5" y="-1642.8" font-family="Monospace" font-style="italic" font-size="14.00">storage class:</text>
<text text-anchor="start" x="1556.5" y="-1642.8" font-family="Monospace" font-size="14.00"> ExposureF</text>
</g>
<!-- d28a74d6:0&#45;&gt;isr:2 -->
<g id="edge25" class="edge">
<title>d28a74d6:0&#45;&gt;isr:2</title>
<path fill="none" stroke="black" stroke-width="1.5" d="M1418.77,-1632C1285.46,-1632 1128,-1632 1128,-1632 1128,-1632 1128,-1585.21 1128,-1585.21"/>
<polygon fill="black" stroke="black" stroke-width="1.5" points="1133.25,-1585.21 1128,-1570.21 1122.75,-1585.21 1133.25,-1585.21"/>
</g>
<!-- 998e6c26:0 -->
<g id="node24" class="node">
<title>998e6c26:0</title>
<path fill="#f5f5f5" stroke="#00babc" stroke-width="3" d="M2115,-1758C2115,-1758 1832,-1758 1832,-1758 1826,-1758 1820,-1752 1820,-1746 1820,-1746 1820,-1636 1820,-1636 1820,-1630 1826,-1624 1832,-1624 1832,-1624 2115,-1624 2115,-1624 2121,-1624 2127,-1630 2127,-1636 2127,-1636 2127,-1746 2127,-1746 2127,-1752 2121,-1758 2115,-1758"/>
<text text-anchor="start" x="1841.5" y="-1730.6" font-family="Monospace" font-weight="bold" font-size="18.00">raw</text>
<text text-anchor="start" x="1841.5" y="-1698.6" font-family="Monospace" font-weight="bold" font-size="18.00">overscanRaw</text>
<text text-anchor="start" x="1841.5" y="-1669.8" font-family="Monospace" font-style="italic" font-size="14.00">dimensions:</text>
<text text-anchor="start" x="1932.5" y="-1669.8" font-family="Monospace" font-size="14.00"> {detector, exposure}</text>
<text text-anchor="start" x="1841.5" y="-1642.8" font-family="Monospace" font-style="italic" font-size="14.00">storage class:</text>
<text text-anchor="start" x="1957.5" y="-1642.8" font-family="Monospace" font-size="14.00"> Exposure</text>
</g>
<!-- 998e6c26:0&#45;&gt;isr:2 -->
<g id="edge26" class="edge">
<title>998e6c26:0&#45;&gt;isr:2</title>
<path fill="none" stroke="black" stroke-width="1.5" d="M1973.5,-1623.51C1973.5,-1575.33 1973.5,-1519 1973.5,-1519 1973.5,-1519 1154.06,-1519 1154.06,-1519"/>
<polygon fill="black" stroke="black" stroke-width="1.5" points="1154.06,-1513.75 1139.06,-1519 1154.06,-1524.25 1154.06,-1513.75"/>
</g>
<!-- c1110ee2:0 -->
<g id="node25" class="node">
<title>c1110ee2:0</title>
<path fill="#f5f5f5" stroke="#00babc" stroke-width="3" d="M308.5,-1102C308.5,-1102 58.5,-1102 58.5,-1102 52.5,-1102 46.5,-1096 46.5,-1090 46.5,-1090 46.5,-980 46.5,-980 46.5,-974 52.5,-968 58.5,-968 58.5,-968 308.5,-968 308.5,-968 314.5,-968 320.5,-974 320.5,-980 320.5,-980 320.5,-1090 320.5,-1090 320.5,-1096 314.5,-1102 308.5,-1102"/>
<text text-anchor="start" x="67.5" y="-1074.6" font-family="Monospace" font-weight="bold" font-size="18.00">ps1_pv3_3pi_20170110</text>
<text text-anchor="start" x="67.5" y="-1042.6" font-family="Monospace" font-weight="bold" font-size="18.00">gaia_dr3_20230707</text>
<text text-anchor="start" x="67.5" y="-1013.8" font-family="Monospace" font-style="italic" font-size="14.00">dimensions:</text>
<text text-anchor="start" x="158.5" y="-1013.8" font-family="Monospace" font-size="14.00"> {htm7}</text>
<text text-anchor="start" x="67.5" y="-986.8" font-family="Monospace" font-style="italic" font-size="14.00">storage class:</text>
<text text-anchor="start" x="183.5" y="-986.8" font-family="Monospace" font-size="14.00"> SimpleCatalog</text>
</g>
<!-- c1110ee2:0&#45;&gt;calibrate:2 -->
<g id="edge27" class="edge">
<title>c1110ee2:0&#45;&gt;calibrate:2</title>
<path fill="none" stroke="black" stroke-width="1.5" d="M312.25,-967.92C312.25,-926.03 312.25,-880 312.25,-880 312.25,-880 803.32,-880 803.32,-880"/>
<polygon fill="black" stroke="black" stroke-width="1.5" points="803.32,-885.25 818.32,-880 803.32,-874.75 803.32,-885.25"/>
</g>
</g>
</svg>
